<svg width="492" height="408" viewBox="0 0 492 408" fill="none" xmlns="http://www.w3.org/2000/svg">
<path d="M94.0602 129.924V406C94.0602 406.943 94.0602 407.414 93.7673 407.707C93.4744 408 93.0046 408 92.065 408H28.7144C5.85183 408 0.430813 395.272 0.430813 384.225C0.105711 327.758 -0.349431 196.793 0.430813 124.673C1.40612 34.5234 82.6666 6.70609 94.0602 3.81264C109.665 -0.150215 141.624 -2.28109 171.109 3.81264C218.098 13.5238 209.536 16.2949 277.418 66.224C344.533 115.589 385.397 47.002 397.937 5.23286C398.142 4.54958 398.245 4.20794 398.51 4.01029C398.776 3.81264 399.135 3.81264 399.853 3.81264H465.652C487.499 3.81264 492.31 20.984 491.985 29.5697V406C491.985 406.943 491.985 407.414 491.692 407.707C491.399 408 490.932 408 489.998 408H424.689C403.622 408 398.356 388.848 398.356 379.271V188.704C398.356 184.546 398.356 182.467 397.841 182.181C397.326 181.896 395.3 183.158 391.246 185.683C369.92 198.967 310.33 200.686 285.22 187.084C281.672 185.162 216.949 141.513 164.282 106.841C122.353 79.2367 100.128 110.17 94.1465 129.346C94.1042 129.482 94.083 129.55 94.0716 129.624C94.0602 129.699 94.0602 129.774 94.0602 129.924Z" fill="white" fill-opacity="0.1"/>
</svg>
