<svg width="31" height="27" viewBox="0 0 31 27" fill="none" xmlns="http://www.w3.org/2000/svg">
<path d="M8.26667 12.4V25.8333C8.26667 26.4045 7.80449 26.8667 7.23333 26.8667H1.03333C0.462174 26.8667 0 26.4045 0 25.8333V12.4C0 11.8288 0.462174 11.3667 1.03333 11.3667H7.23333C7.80449 11.3667 8.26667 11.8288 8.26667 12.4ZM28.9333 13.4333C30.0696 13.4333 31 12.5029 31 11.3667C31 10.2304 30.0696 9.3 28.9333 9.3H18.6C18.6 9.3 18.6 8.26667 19.6333 4.13333C20.6667 0 15.5 0 15.5 0C15.5 0 15.0136 4.72266 14.4667 6.2C13.95 7.61579 10.3333 12.4 10.3333 12.4V24.8L12.4515 25.5023C12.9893 25.689 13.8985 25.8333 14.4667 25.8333H26.8667C28.0029 25.8333 28.9333 24.9029 28.9333 23.7667C28.9333 23.0018 28.5196 22.3408 27.9 21.9785V21.7C29.0363 21.7 29.9667 20.7696 29.9667 19.6333C29.9667 18.8684 29.5529 18.2075 28.9333 17.8452V17.5667C30.0696 17.5667 31 16.6363 31 15.5C31 14.3637 30.0696 13.4333 28.9333 13.4333ZM19.6333 16.5333C21.3428 16.5333 22.7333 17.9239 22.7333 19.6333C22.7333 20.9785 21.8665 22.1147 20.6667 22.5431V22.7333C20.6667 23.304 20.2045 23.7667 19.6333 23.7667C19.0622 23.7667 18.6 23.304 18.6 22.7333V22.5426C17.4002 22.1147 16.5333 20.9785 16.5333 19.6333C16.5333 19.0627 16.9955 18.6 17.5667 18.6C18.1378 18.6 18.6 19.0627 18.6 19.6333C18.6 20.203 19.0632 20.6667 19.6333 20.6667C20.2035 20.6667 20.6667 20.203 20.6667 19.6333C20.6667 19.0637 20.2035 18.6 19.6333 18.6C17.9239 18.6 16.5333 17.2094 16.5333 15.5C16.5333 14.1549 17.4002 13.0186 18.6 12.5902V12.4C18.6 11.8293 19.0622 11.3667 19.6333 11.3667C20.2045 11.3667 20.6667 11.8293 20.6667 12.4V12.5902C21.8665 13.0186 22.7333 14.1549 22.7333 15.5C22.7333 16.0707 22.2712 16.5333 21.7 16.5333C21.1288 16.5333 20.6667 16.0707 20.6667 15.5C20.6667 14.9304 20.2035 14.4667 19.6333 14.4667C19.0632 14.4667 18.6 14.9304 18.6 15.5C18.6 16.0696 19.0632 16.5333 19.6333 16.5333Z" fill="white"/>
</svg>
