<svg width="26" height="35" viewBox="0 0 26 35" fill="none" xmlns="http://www.w3.org/2000/svg">
<path d="M13 10C9.1402 10 6 13.1402 6 17C6 20.8598 9.1402 24 13 24C16.8598 24 20 20.8598 20 17C20 13.1402 16.8599 10 13 10ZM17.7071 15.7071L12.3738 21.0405C12.1785 21.2357 11.9226 21.3333 11.6667 21.3333C11.4107 21.3333 11.1548 21.2357 10.9596 21.0404L8.29293 18.3737C7.9024 17.9833 7.9024 17.3501 8.29293 16.9595C8.6834 16.5691 9.3166 16.5691 9.70713 16.9595L11.6667 18.9191L16.2929 14.2929C16.6834 13.9024 17.3166 13.9024 17.7071 14.2929C18.0977 14.6834 18.0977 15.3166 17.7071 15.7071Z" fill="white"/>
<path d="M25 5.3333C20.9681 5.3333 17.1774 3.76317 14.3264 0.912167L13.7071 0.2929C13.3167 -0.0977 12.6835 -0.0975667 12.2929 0.2929L11.6736 0.912167C8.8226 3.76317 5.032 5.3333 1 5.3333C0.447733 5.3333 0 5.78103 0 6.3333V16.3081C0 24.3262 5.0934 31.4676 12.6743 34.0788C12.7799 34.1152 12.8899 34.1333 13 34.1333C13.1101 34.1333 13.2202 34.1152 13.3257 34.0788C20.9066 31.4676 26 24.3261 26 16.3081V6.3333C26 5.78103 25.5523 5.3333 25 5.3333ZM13 26C8.0374 26 4 21.9626 4 17C4 12.0374 8.0374 7.99997 13 7.99997C17.9626 7.99997 22 12.0374 22 17C22 21.9626 17.9627 26 13 26Z" fill="white"/>
</svg>
