<svg width="26" height="31" viewBox="0 0 26 31" fill="none" xmlns="http://www.w3.org/2000/svg">
<path d="M25.8814 25.8545C25.8814 25.8545 22.5041 20.05 21.8983 19.0089C22.5875 18.7987 23.3218 18.613 23.6268 18.0862C24.1353 17.2085 23.2302 15.7686 23.4679 14.8278C23.7127 13.8595 25.1578 13.0217 25.1578 12.0374C25.1578 11.0785 23.6638 9.9583 23.4188 8.9957C23.1795 8.05506 24.0818 6.61362 23.5717 5.73695C23.0617 4.8602 21.3627 4.93224 20.6633 4.25926C19.9437 3.5667 19.9459 1.87224 19.078 1.40813C18.2065 0.94229 16.7901 1.88376 15.8225 1.66075C14.8659 1.44028 14.0113 0 13.0121 0C11.9981 0 10.3853 1.63377 10.1323 1.69257C9.16522 1.91739 7.74706 0.978225 6.87647 1.44604C6.00934 1.91172 6.01469 3.60634 5.2964 4.30004C4.59817 4.97426 2.89911 4.90535 2.39059 5.78309C1.88215 6.66066 2.78719 8.1002 2.54962 9.04151C2.3114 9.98519 0.815938 10.9414 0.815938 12.0328C0.815938 13.0171 2.26469 13.8523 2.51097 14.8201C2.75035 15.7607 1.84802 17.202 2.3581 18.079C2.6358 18.5563 3.26586 18.7523 3.89509 18.9407C3.96852 18.9626 4.10741 19.0448 4.01334 19.1819C3.58286 19.9249 0.11804 25.9047 0.11804 25.9047C-0.1576 26.3803 0.0662338 26.788 0.615293 26.8111L3.30286 26.9232C3.85192 26.9463 4.54069 27.3453 4.83376 27.8102L6.26788 30.0858C6.56095 30.5507 7.02597 30.542 7.30153 30.0664C7.30153 30.0664 11.3142 23.1388 11.3158 23.1368C11.3963 23.0427 11.4772 23.062 11.516 23.0949C11.955 23.4688 12.567 23.8417 13.0779 23.8417C13.5788 23.8417 14.0427 23.4906 14.5015 23.0991C14.5389 23.0673 14.6297 23.0021 14.6962 23.1374C14.6973 23.1396 18.7055 30.0293 18.7055 30.0293C18.9818 30.5043 19.4469 30.5124 19.739 30.0469L21.1691 27.7686C21.4614 27.3034 22.1494 26.9028 22.6985 26.8789L25.3858 26.7618C25.9346 26.7377 26.1577 26.3294 25.8814 25.8545ZM17.4536 19.623C14.4821 21.3517 10.9153 21.1664 8.19102 19.4481C4.1991 16.8911 2.88562 11.6016 5.28538 7.4597C7.71252 3.27001 13.0479 1.79166 17.2754 4.09405C17.2976 4.10614 17.3195 4.11864 17.3416 4.13098C17.3729 4.14833 17.4041 4.16592 17.4353 4.18369C18.7395 4.93561 19.8704 6.0269 20.6802 7.41883C23.1552 11.6732 21.7079 17.148 17.4536 19.623Z" fill="white"/>
<path d="M16.7741 5.43559C16.7618 5.42844 16.7493 5.42178 16.7369 5.41471C14.4787 4.10772 11.6004 4.01217 9.18817 5.41561C5.60847 7.4982 4.39038 12.1047 6.47297 15.6843C7.10845 16.7767 7.97929 17.6487 8.98399 18.2745C9.06943 18.3286 9.15585 18.3818 9.24417 18.4329C12.8277 20.509 17.4318 19.2826 19.5078 15.6992C21.5837 12.1157 20.3577 7.51169 16.7741 5.43559ZM17.6706 11.2938L16.4158 12.5169C16.0272 12.8956 15.7843 13.6433 15.8761 14.1782L16.1723 15.9051C16.2641 16.44 15.9462 16.671 15.4658 16.4185L13.9148 15.6031C13.4344 15.3506 12.6484 15.3506 12.168 15.6031L10.6171 16.4185C10.1367 16.671 9.81872 16.44 9.91049 15.9051L10.2067 14.1782C10.2985 13.6433 10.0555 12.8956 9.66692 12.5169L8.41223 11.2938C8.02353 10.9151 8.14506 10.5413 8.68212 10.4631L10.416 10.2112C10.9531 10.1331 11.5891 9.67108 11.8293 9.18444L12.6047 7.61324C12.8449 7.1266 13.238 7.1266 13.4781 7.61324L14.2536 9.18444C14.4938 9.67108 15.1297 10.1331 15.6669 10.2112L17.4008 10.4631C17.9378 10.5413 18.0592 10.9151 17.6706 11.2938Z" fill="white"/>
</svg>
