<svg width="25" height="25" viewBox="0 0 25 25" fill="none" xmlns="http://www.w3.org/2000/svg">
  <path
    d="M18.365 11.5077C18.365 10.7307 17.7329 10.0986 16.9559 10.0986H15.5468C14.7699 10.0986 14.1378 10.7307 14.1378 11.5077V16.4395H18.365V11.5077Z"
    fill="#765BEB" />
  <path
    d="M2.86513 3.52269C2.86513 2.35739 3.81344 1.40908 4.97875 1.40908H6.38782C7.34008 1.40908 8.1471 2.04241 8.41051 2.90984C6.85009 3.27159 5.68328 4.67203 5.68328 6.34085V7.04538H12.7287V6.34085C12.7287 4.61858 11.486 3.18202 9.85039 2.87827C9.54664 1.24252 8.1099 0 6.38782 0H4.97875C3.03657 0 1.45605 1.58004 1.45605 3.52269V10.0984H2.86513V3.52269Z"
    fill="#765BEB" />
  <path
    d="M19.7741 17.848H12.7287V15.7344H1.45605V17.848C1.45605 19.6916 2.47294 21.3018 3.97511 22.1479L3.07151 23.0515L4.06783 24.0479L5.4297 22.6861C5.73974 22.7473 6.06007 22.7798 6.38782 22.7798H17.6604C17.9882 22.7798 18.3085 22.7473 18.6186 22.6861L19.9804 24.0479L20.9768 23.0516L20.0732 22.148C21.5753 21.3018 22.5922 19.6916 22.5922 17.848V15.7344H19.7741V17.848Z"
    fill="#765BEB" />
  <path
    d="M22.6392 11.5078H19.774V14.326H22.6392C23.416 14.326 24.0482 13.6938 24.0482 12.9169C24.0482 12.14 23.416 11.5078 22.6392 11.5078Z"
    fill="#765BEB" />
  <path
    d="M12.7287 11.5078H1.40908C0.632206 11.5078 0 12.14 0 12.9169C0 13.6938 0.632206 14.326 1.40908 14.326H12.7287V11.5078Z"
    fill="#765BEB" />
</svg>