<svg width="26" height="24" viewBox="0 0 26 24" fill="none" xmlns="http://www.w3.org/2000/svg">
<path d="M19.3203 11.2656H7.35074C3.92258 11.2656 1.08984 13.8617 0.713867 17.1911H25.9571C25.5812 13.8617 22.7484 11.2656 19.3203 11.2656Z" fill="#765BEB"/>
<path d="M0.671021 18.6753V22.4484C0.671021 22.8582 1.00327 23.1905 1.41308 23.1905C1.82289 23.1905 2.15514 22.8582 2.15514 22.4484V21.6565H24.5159V22.4484C24.5159 22.8582 24.8481 23.1905 25.2579 23.1905C25.6677 23.1905 26 22.8582 26 22.4484V18.6753H0.671021Z" fill="#765BEB"/>
<path d="M6.90295 8.29644C6.76646 8.29644 6.6554 8.4075 6.6554 8.54399V9.81123C7.26378 9.75963 7.36579 9.7906 11.109 9.78149V8.54394C11.109 8.40745 10.9979 8.29639 10.8614 8.29639H6.90295V8.29644Z" fill="#765BEB"/>
<path d="M15.8046 8.29639C15.6681 8.29639 15.557 8.40745 15.557 8.54394V9.78149C19.3153 9.79045 19.4082 9.76002 20.0105 9.81073V8.54394C20.0105 8.40745 19.8995 8.29639 19.763 8.29639H15.8046Z" fill="#765BEB"/>
<path d="M5.17134 8.54386C5.17134 7.58903 5.94818 6.81219 6.90301 6.81219H10.8615C11.8164 6.81219 12.5932 7.58903 12.5932 8.54386V9.78142H14.073V8.54386C14.073 7.58903 14.8498 6.81219 15.8047 6.81219H19.7631C20.718 6.81219 21.4948 7.58903 21.4948 8.54386V10.076C22.5965 10.3809 23.6056 10.9112 24.4686 11.6144V3.11575C24.4686 2.78415 24.2486 2.49282 23.9297 2.40204C16.972 0.421977 9.61672 0.421977 2.65898 2.40204C2.34004 2.49282 2.12 2.78415 2.12 3.11575V11.6825C2.99973 10.9465 4.03624 10.3921 5.17134 10.0772V8.54386Z" fill="#765BEB"/>
</svg>
