<svg xmlns="http://www.w3.org/2000/svg" fill="none" height="17"  viewBox="0 0 48 48" width="17">
  <g clip-rule="evenodd" fill="#44424D" fill-rule="evenodd">
    <path
      d="m9 18c-.55228 0-1 .4477-1 1v23h-2v-23c0-1.6569 1.34315-3 3-3h12c1.6569 0 3 1.3431 3 3v23h-2v-23c0-.5523-.4477-1-1-1z" />
    <path d="m39 20h-7v-2h7c1.6569 0 3 1.3431 3 3v21h-2v-21c0-.5523-.4477-1-1-1z" />
    <path
      d="m18 6c-.5523 0-1 .44772-1 1v10h-2v-10c0-1.65685 1.3431-3 3-3h12c1.6569 0 3 1.34315 3 3v35h-2v-35c0-.55228-.4477-1-1-1z" />
    <path d="m44 44h-40v-2h40z" />
    <path d="m20 8c-.5523 0-1 .44772-1 1v2c0 .5523.4477 1 1 1h2c.5523 0 1-.4477 1-1v-2c0-.55228-.4477-1-1-1z" />
    <path d="m11 20c-.5523 0-1 .4477-1 1v2c0 .5523.4477 1 1 1h2c.5523 0 1-.4477 1-1v-2c0-.5523-.4477-1-1-1z" />
    <path d="m17 20c-.5523 0-1 .4477-1 1v2c0 .5523.4477 1 1 1h2c.5523 0 1-.4477 1-1v-2c0-.5523-.4477-1-1-1z" />
    <path d="m20 14c-.5523 0-1 .4477-1 1v2c0 .5523.4477 1 1 1h2c.5523 0 1-.4477 1-1v-2c0-.5523-.4477-1-1-1z" />
    <path d="m11 26c-.5523 0-1 .4477-1 1v2c0 .5523.4477 1 1 1h2c.5523 0 1-.4477 1-1v-2c0-.5523-.4477-1-1-1z" />
    <path d="m11 32c-.5523 0-1 .4477-1 1v2c0 .5523.4477 1 1 1h2c.5523 0 1-.4477 1-1v-2c0-.5523-.4477-1-1-1z" />
    <path d="m17 26c-.5523 0-1 .4477-1 1v2c0 .5523.4477 1 1 1h2c.5523 0 1-.4477 1-1v-2c0-.5523-.4477-1-1-1z" />
    <path d="m17 32c-.5523 0-1 .4477-1 1v2c0 .5523.4477 1 1 1h2c.5523 0 1-.4477 1-1v-2c0-.5523-.4477-1-1-1z" />
    <path d="m26 8c-.5523 0-1 .44772-1 1v2c0 .5523.4477 1 1 1h2c.5523 0 1-.4477 1-1v-2c0-.55228-.4477-1-1-1z" />
    <path d="m26 14c-.5523 0-1 .4477-1 1v2c0 .5523.4477 1 1 1h2c.5523 0 1-.4477 1-1v-2c0-.5523-.4477-1-1-1z" />
    <path d="m26 20c-.5523 0-1 .4477-1 1v2c0 .5523.4477 1 1 1h2c.5523 0 1-.4477 1-1v-2c0-.5523-.4477-1-1-1z" />
    <path d="m26 26c-.5523 0-1 .4477-1 1v2c0 .5523.4477 1 1 1h2c.5523 0 1-.4477 1-1v-2c0-.5523-.4477-1-1-1z" />
    <path d="m35 22c-.5523 0-1 .4477-1 1v2c0 .5523.4477 1 1 1h2c.5523 0 1-.4477 1-1v-2c0-.5523-.4477-1-1-1z" />
    <path d="m35 28c-.5523 0-1 .4477-1 1v2c0 .5523.4477 1 1 1h2c.5523 0 1-.4477 1-1v-2c0-.5523-.4477-1-1-1z" />
    <path d="m35 34c-.5523 0-1 .4477-1 1v2c0 .5523.4477 1 1 1h2c.5523 0 1-.4477 1-1v-2c0-.5523-.4477-1-1-1z" />
    <path d="m26 32c-.5523 0-1 .4477-1 1v2c0 .5523.4477 1 1 1h2c.5523 0 1-.4477 1-1v-2c0-.5523-.4477-1-1-1z" />
  </g>
</svg>