<svg width="26" height="26" viewBox="0 0 26 26" fill="none" xmlns="http://www.w3.org/2000/svg">
<path d="M8.66666 6.22949C8.22249 6.22949 7.85416 5.86116 7.85416 5.41699V2.16699C7.85416 1.72283 8.22249 1.35449 8.66666 1.35449C9.11082 1.35449 9.47916 1.72283 9.47916 2.16699V5.41699C9.47916 5.86116 9.11082 6.22949 8.66666 6.22949Z" fill="#765BEB"/>
<path d="M17.3333 6.22949C16.8891 6.22949 16.5208 5.86116 16.5208 5.41699V2.16699C16.5208 1.72283 16.8891 1.35449 17.3333 1.35449C17.7775 1.35449 18.1458 1.72283 18.1458 2.16699V5.41699C18.1458 5.86116 17.7775 6.22949 17.3333 6.22949Z" fill="#765BEB"/>
<path d="M9.20833 15.7085C9.0675 15.7085 8.92667 15.676 8.79667 15.6218C8.65583 15.5677 8.5475 15.4918 8.43917 15.3943C8.24417 15.1885 8.125 14.9177 8.125 14.6252C8.125 14.4843 8.1575 14.3435 8.21167 14.2135C8.26583 14.0835 8.34167 13.9643 8.43917 13.856C8.5475 13.7585 8.65583 13.6827 8.79667 13.6285C9.18667 13.466 9.67417 13.5527 9.9775 13.856C10.1725 14.0618 10.2917 14.3435 10.2917 14.6252C10.2917 14.6902 10.2808 14.766 10.27 14.8418C10.2592 14.9068 10.2375 14.9718 10.205 15.0368C10.1833 15.1018 10.1508 15.1668 10.1075 15.2318C10.075 15.286 10.0208 15.3402 9.9775 15.3943C9.77167 15.5893 9.49 15.7085 9.20833 15.7085Z" fill="#765BEB"/>
<path d="M13 15.7084C12.8592 15.7084 12.7183 15.6759 12.5883 15.6218C12.4475 15.5676 12.3392 15.4918 12.2308 15.3943C12.0358 15.1884 11.9167 14.9176 11.9167 14.6251C11.9167 14.4843 11.9492 14.3434 12.0033 14.2134C12.0575 14.0834 12.1333 13.9643 12.2308 13.8559C12.3392 13.7584 12.4475 13.6826 12.5883 13.6284C12.9783 13.4551 13.4658 13.5526 13.7692 13.8559C13.9642 14.0618 14.0833 14.3434 14.0833 14.6251C14.0833 14.6901 14.0725 14.7659 14.0617 14.8418C14.0508 14.9068 14.0292 14.9718 13.9967 15.0368C13.975 15.1018 13.9425 15.1668 13.8992 15.2318C13.8667 15.2859 13.8125 15.3401 13.7692 15.3943C13.5633 15.5893 13.2817 15.7084 13 15.7084Z" fill="#765BEB"/>
<path d="M16.7917 15.7084C16.6508 15.7084 16.51 15.6759 16.38 15.6218C16.2392 15.5676 16.1308 15.4918 16.0225 15.3943C15.9792 15.3401 15.9358 15.2859 15.8925 15.2318C15.8492 15.1668 15.8167 15.1018 15.795 15.0368C15.7625 14.9718 15.7408 14.9068 15.73 14.8418C15.7192 14.7659 15.7083 14.6901 15.7083 14.6251C15.7083 14.3434 15.8275 14.0618 16.0225 13.8559C16.1308 13.7584 16.2392 13.6826 16.38 13.6284C16.7808 13.4551 17.2575 13.5526 17.5608 13.8559C17.7558 14.0618 17.875 14.3434 17.875 14.6251C17.875 14.6901 17.8642 14.7659 17.8533 14.8418C17.8425 14.9068 17.8208 14.9718 17.7883 15.0368C17.7667 15.1018 17.7342 15.1668 17.6908 15.2318C17.6583 15.2859 17.6042 15.3401 17.5608 15.3943C17.355 15.5893 17.0733 15.7084 16.7917 15.7084Z" fill="#765BEB"/>
<path d="M9.20833 19.5007C9.0675 19.5007 8.92667 19.4683 8.79667 19.4141C8.66667 19.3599 8.5475 19.284 8.43917 19.1865C8.24417 18.9807 8.125 18.699 8.125 18.4173C8.125 18.2765 8.1575 18.1357 8.21167 18.0057C8.26583 17.8648 8.34167 17.7458 8.43917 17.6483C8.84 17.2474 9.57667 17.2474 9.9775 17.6483C10.1725 17.8541 10.2917 18.1357 10.2917 18.4173C10.2917 18.699 10.1725 18.9807 9.9775 19.1865C9.77167 19.3815 9.49 19.5007 9.20833 19.5007Z" fill="#765BEB"/>
<path d="M13 19.5007C12.7183 19.5007 12.4367 19.3815 12.2308 19.1865C12.0358 18.9807 11.9167 18.699 11.9167 18.4173C11.9167 18.2765 11.9492 18.1357 12.0033 18.0057C12.0575 17.8648 12.1333 17.7458 12.2308 17.6483C12.6317 17.2474 13.3683 17.2474 13.7692 17.6483C13.8667 17.7458 13.9425 17.8648 13.9967 18.0057C14.0508 18.1357 14.0833 18.2765 14.0833 18.4173C14.0833 18.699 13.9642 18.9807 13.7692 19.1865C13.5633 19.3815 13.2817 19.5007 13 19.5007Z" fill="#765BEB"/>
<path d="M16.7917 19.5006C16.51 19.5006 16.2283 19.3815 16.0225 19.1865C15.925 19.089 15.8492 18.9698 15.795 18.829C15.7408 18.699 15.7083 18.5581 15.7083 18.4173C15.7083 18.2765 15.7408 18.1356 15.795 18.0056C15.8492 17.8648 15.925 17.7456 16.0225 17.6481C16.2717 17.399 16.6508 17.2798 16.9975 17.3556C17.0733 17.3665 17.1383 17.3881 17.2033 17.4206C17.2683 17.4423 17.3333 17.4748 17.3983 17.5181C17.4525 17.5506 17.5067 17.6048 17.5608 17.6481C17.7558 17.854 17.875 18.1356 17.875 18.4173C17.875 18.699 17.7558 18.9806 17.5608 19.1865C17.355 19.3815 17.0733 19.5006 16.7917 19.5006Z" fill="#765BEB"/>
<path d="M22.2083 10.6602H3.79166C3.34749 10.6602 2.97916 10.2918 2.97916 9.84766C2.97916 9.40349 3.34749 9.03516 3.79166 9.03516H22.2083C22.6525 9.03516 23.0208 9.40349 23.0208 9.84766C23.0208 10.2918 22.6525 10.6602 22.2083 10.6602Z" fill="#765BEB"/>
<path d="M17.3333 24.6462H8.66667C4.7125 24.6462 2.4375 22.3712 2.4375 18.417V9.20866C2.4375 5.25449 4.7125 2.97949 8.66667 2.97949H17.3333C21.2875 2.97949 23.5625 5.25449 23.5625 9.20866V18.417C23.5625 22.3712 21.2875 24.6462 17.3333 24.6462ZM8.66667 4.60449C5.56833 4.60449 4.0625 6.11033 4.0625 9.20866V18.417C4.0625 21.5153 5.56833 23.0212 8.66667 23.0212H17.3333C20.4317 23.0212 21.9375 21.5153 21.9375 18.417V9.20866C21.9375 6.11033 20.4317 4.60449 17.3333 4.60449H8.66667Z" fill="#765BEB"/>
</svg>
