<svg xmlns="http://www.w3.org/2000/svg" enable-background="new 0 0 122.88 95.8" viewBox="0 0 122.88 95.8">
  <path fill="#44424D"
    d="m12.14 0h20.66 29.43 28.8 19.71c3.34 0 6.38 1.37 8.58 3.56 2.2 2.2 3.56 5.24 3.56 8.58v7.13 57.25 7.09c0 3.34-1.37 6.38-3.56 8.58-2.2 2.2-5.24 3.56-8.58 3.56h-19.2c-.16.03-.33.04-.51.04-.17 0-.34-.01-.51-.04h-27.78c-.16.03-.33.04-.51.04-.17 0-.34-.01-.51-.04h-28.41c-.16.03-.33.04-.51.04-.17 0-.34-.01-.51-.04h-20.15c-3.34 0-6.38-1.37-8.58-3.56s-3.56-5.24-3.56-8.58v-7.09-57.25-7.13c0-3.34 1.37-6.38 3.56-8.58 2.2-2.19 5.24-3.56 8.58-3.56zm43.05 31.24 20.53 14.32c.32.2.61.48.84.81.92 1.33.58 3.14-.74 4.06l-20.45 14.14c-.5.41-1.15.66-1.85.66-1.62 0-2.93-1.31-2.93-2.93v-28.67h.01c0-.58.17-1.16.52-1.67.93-1.32 2.75-1.64 4.07-.72zm38.76 48.21v10.45h16.78c1.73 0 3.3-.71 4.44-1.85s1.85-2.71 1.85-4.44v-4.16zm-5.85 10.45v-10.45h-22.94v10.45zm-28.79 0v-10.45h-23.58v10.45zm-29.44 0v-10.45h-24.02v4.16c0 1.73.71 3.3 1.85 4.44s2.71 1.85 4.44 1.85zm-24.02-16.3h26.95 29.43 28.8 26v-51.4h-26-28.8-29.43-26.95zm82.25-57.25v-10.5h-22.94v10.49h22.94zm5.85-10.5v10.49h23.07v-4.2c0-1.73-.71-3.3-1.85-4.44s-2.71-1.85-4.44-1.85zm-34.64 10.5v-10.5h-23.58v10.49h23.58zm-29.44 0v-10.5h-17.73c-1.73 0-3.3.71-4.44 1.85s-1.85 2.71-1.85 4.44v4.2h24.02z" />
</svg>