<svg
width="24"
height="24"
viewBox="0 0 24 24"
fill="none"
xmlns="http://www.w3.org/2000/svg"
>
<path
  d="M10.2824 13.3072C10.2824 12.0296 9.24301 10.9902 7.96544 10.9902C6.68788 10.9902 5.64847 12.0296 5.64847 13.3072H7.05471C7.05471 12.805 7.46329 12.3965 7.96544 12.3965C8.4676 12.3965 8.87613 12.805 8.87613 13.3072H10.2824Z"
  fill="#765BEB"
/>
<path
  d="M16.0346 10.9902C14.757 10.9902 13.7176 12.0296 13.7176 13.3072H15.1239C15.1239 12.805 15.5324 12.3965 16.0346 12.3965C16.5367 12.3965 16.9453 12.805 16.9453 13.3072H18.3515C18.3515 12.0296 17.3122 10.9902 16.0346 10.9902Z"
  fill="#765BEB"
/>
<path
  d="M12 17.4221C11.1109 17.4221 10.2773 16.9453 9.82436 16.1778L8.61325 16.8924C9.31789 18.0865 10.6156 18.8283 11.9999 18.8283C13.3843 18.8283 14.682 18.0865 15.3866 16.8924L14.1755 16.1777C13.7227 16.9453 12.889 17.4221 12 17.4221Z"
  fill="#765BEB"
/>
<path
  d="M23.085 10.8171C22.6372 10.3697 22.0748 10.074 21.4644 9.95812C20.1461 5.88434 16.3219 3.07948 12 3.07948H11.5286C10.3965 3.07948 9.47546 2.15841 9.47546 1.02637H8.06922C8.06922 1.79457 8.32122 2.5048 8.74644 3.07948H8.30092C7.16883 3.07948 6.24781 2.15841 6.24781 1.02637H4.84156C4.84156 2.55427 5.83757 3.85309 7.21408 4.30985C5.03702 5.50674 3.33063 7.50151 2.53568 9.95812C1.92524 10.074 1.3627 10.3698 0.914477 10.8176C0.324763 11.4079 0 12.1923 0 13.0264C0 13.8502 0.31779 14.6274 0.894888 15.2149C1.34591 15.6741 1.91552 15.9771 2.53568 16.0947C3.8539 20.1684 7.6781 22.9733 12 22.9733C16.3219 22.9733 20.1461 20.1684 21.4643 16.0947C22.0845 15.9771 22.6541 15.6741 23.1051 15.2149C23.6822 14.6274 24 13.8502 24 13.0264C24 12.1923 23.6752 11.4079 23.085 10.8171ZM20.9103 14.743L20.3826 14.753L20.2449 15.2625C19.241 18.9745 15.8506 21.567 12 21.567C8.14928 21.567 4.75893 18.9745 3.75514 15.2625L3.61735 14.753L3.08968 14.743C2.1614 14.7255 1.4062 13.9554 1.4062 13.0264C1.4062 12.5677 1.58487 12.1362 1.90873 11.8119C2.22458 11.4964 2.64397 11.318 3.08954 11.3097L3.61731 11.2998L3.7551 10.7902C4.75893 7.07828 8.14933 4.48578 12 4.48578C13.2709 4.48578 14.3049 5.51973 14.3049 6.79066C14.3049 8.06158 13.2709 9.09558 12 9.09558C10.7291 9.09558 9.69512 8.06163 9.69512 6.7907H8.28887C8.28887 8.83704 9.95367 10.5018 12 10.5018C14.0463 10.5018 15.7111 8.83704 15.7111 6.7907C15.7111 6.20834 15.5759 5.65714 15.3358 5.16613C17.6944 6.16935 19.5468 8.20895 20.2449 10.7903L20.3826 11.2998L20.9104 11.3097C21.356 11.3181 21.7754 11.4965 22.0907 11.8114C22.4151 12.1362 22.5938 12.5677 22.5938 13.0264C22.5938 13.9555 21.8386 14.7255 20.9103 14.743Z"
  fill="#765BEB"
/>
</svg>