<svg width="22" height="22" viewBox="0 0 22 22" fill="none" xmlns="http://www.w3.org/2000/svg">
<g clip-path="url(#clip0_3799_9897)">
<path d="M21.9322 14.2447C21.7873 13.8912 21.4462 13.6776 21.0853 13.6771C21.0835 13.6771 21.0817 13.6767 21.0798 13.6767C21.0739 13.6767 21.0688 13.6789 21.0629 13.6794C20.9923 13.6812 20.9217 13.6927 20.8515 13.7115C20.8254 13.7184 20.8006 13.7253 20.7754 13.734C20.7626 13.7386 20.7493 13.7404 20.736 13.7454C19.5856 14.2182 18.3636 14.458 17.1032 14.458C11.8317 14.458 7.54279 10.1691 7.54279 4.89756C7.54279 3.63712 7.78213 2.41519 8.25532 1.26479C8.26219 1.24874 8.26449 1.23178 8.26999 1.21527C8.27687 1.19509 8.28283 1.17492 8.28833 1.15383C8.30896 1.07817 8.3218 1.00206 8.32272 0.925949C8.32272 0.92274 8.32409 0.91953 8.32409 0.915862C8.32409 0.914945 8.32363 0.913569 8.32363 0.912652C8.32363 0.857631 8.31721 0.803527 8.30713 0.75034C8.30484 0.738877 8.303 0.727414 8.30071 0.715952C8.28879 0.663223 8.27366 0.610953 8.25257 0.561434C8.24431 0.542176 8.23285 0.52567 8.22368 0.507329C8.12785 0.316131 7.96921 0.155194 7.75554 0.0676183C7.50565 -0.0346294 7.23834 -0.016289 7.01275 0.0914608C7.01046 0.0923779 7.00771 0.0928364 7.00542 0.0942119C5.63493 0.657721 4.39787 1.48487 3.32863 2.55412C-1.10929 6.99754 -1.10929 14.2273 3.32908 18.6717C5.55102 20.8909 8.46898 22 11.3874 22C14.3058 22 17.2242 20.8904 19.4466 18.6712C20.5122 17.6052 21.338 16.3722 21.9015 15.0063C21.9042 15.0013 21.9052 14.9953 21.9075 14.9898C21.9336 14.9353 21.9547 14.8784 21.9698 14.8193C21.9707 14.8147 21.9726 14.8105 21.9739 14.806C22.0175 14.6253 22.0083 14.43 21.9322 14.2447ZM18.1509 17.3745C14.4218 21.0981 8.35481 21.0981 4.62667 17.3745C0.902649 13.6459 0.902649 7.57893 4.62621 3.85079C5.0242 3.4528 5.45428 3.10204 5.90499 2.78612C5.77569 3.47756 5.70875 4.18229 5.70875 4.89802C5.70875 11.181 10.8202 16.2925 17.1032 16.2925C17.8185 16.2925 18.5236 16.2255 19.2151 16.0962C18.8987 16.5465 18.5489 16.9766 18.1509 17.3745Z" fill="#765BEB"/>
</g>
<defs>
<clipPath id="clip0_3799_9897">
<rect width="22" height="22" fill="white"/>
</clipPath>
</defs>
</svg>
