<svg width="27" height="22" viewBox="0 0 27 22" fill="none" xmlns="http://www.w3.org/2000/svg">
<path d="M9.1849 10.0666C10.1804 10.0666 11.1536 9.77137 11.9813 9.21826C12.8091 8.66516 13.4542 7.87901 13.8351 6.95925C14.2161 6.03948 14.3157 5.02741 14.1214 4.05102C13.9271 3.07464 13.4477 2.17779 12.7437 1.47391C12.0397 0.770025 11.1427 0.29072 10.1663 0.0966083C9.18989 -0.097503 8.17783 0.00229838 7.25814 0.383391C6.33844 0.764485 5.55241 1.40975 4.99945 2.23759C4.44649 3.06542 4.15144 4.03865 4.15161 5.03418C4.15301 6.36858 4.68378 7.64791 5.62743 8.59139C6.57107 9.53488 7.8505 10.0654 9.1849 10.0666Z" fill="#765BEB"/>
<path d="M15.7692 14.2247C14.4938 12.9165 12.8573 12.0181 11.0689 11.6445C9.28044 11.2708 7.42119 11.4387 5.72864 12.1268C4.03608 12.8149 2.58706 13.9919 1.56667 15.5074C0.546273 17.023 0.00082557 18.8084 0 20.6354C0 20.869 0.0927894 21.093 0.257956 21.2582C0.423122 21.4234 0.647136 21.5162 0.880716 21.5162H17.491C17.7246 21.5162 17.9486 21.4234 18.1138 21.2582C18.2789 21.093 18.3717 20.869 18.3717 20.6354C18.3752 19.7015 18.231 18.773 17.9446 17.8841C17.5182 16.5098 16.7727 15.2559 15.7692 14.2247Z" fill="#765BEB"/>
<path d="M19.816 10.5066C21.8833 10.5066 23.5591 8.83078 23.5591 6.76355C23.5591 4.69633 21.8833 3.02051 19.816 3.02051C17.7488 3.02051 16.073 4.69633 16.073 6.76355C16.073 8.83078 17.7488 10.5066 19.816 10.5066Z" fill="#765BEB"/>
<path d="M19.8161 11.5376C18.6355 11.542 17.4778 11.8635 16.4641 12.4685C16.6552 12.6394 16.848 12.8076 17.0286 12.9925C18.2278 14.2251 19.1186 15.7238 19.6285 17.3662C19.8031 17.9069 19.9318 18.4614 20.0133 19.0237H25.5407C25.7743 19.0237 25.9983 18.9309 26.1635 18.7657C26.3286 18.6006 26.4214 18.3765 26.4214 18.143C26.4196 16.3917 25.723 14.7127 24.4847 13.4743C23.2464 12.236 21.5673 11.5395 19.8161 11.5376Z" fill="#765BEB"/>
</svg>
