<svg width="17" height="17" viewBox="0 0 27 21" fill="none" xmlns="http://www.w3.org/2000/svg">
<path d="M11.9489 20.9219H11.1605C10.7246 20.9207 10.3069 20.747 9.99871 20.4388C9.6905 20.1306 9.51682 19.7129 9.51562 19.277V14.4105C9.51682 13.9746 9.6905 13.5569 9.99871 13.2487C10.3069 12.9405 10.7246 12.7668 11.1605 12.7656H11.9489C12.0818 12.7666 12.2142 12.7833 12.3431 12.8155C12.7005 12.9021 13.0183 13.1065 13.2452 13.3959C13.4721 13.6853 13.5949 14.0427 13.5938 14.4105V19.277C13.5926 19.7129 13.4189 20.1306 13.1107 20.4388C12.8025 20.747 12.3848 20.9207 11.9489 20.9219ZM11.1605 13.6719C11.0635 13.6719 10.9674 13.691 10.8778 13.7281C10.7882 13.7652 10.7068 13.8196 10.6382 13.8882C10.5696 13.9568 10.5152 14.0382 10.4781 14.1278C10.441 14.2174 10.4219 14.3135 10.4219 14.4105V19.277C10.4219 19.4729 10.4997 19.6608 10.6382 19.7993C10.7767 19.9378 10.9646 20.0156 11.1605 20.0156H11.9489C12.1448 20.0156 12.3327 19.9378 12.4712 19.7993C12.6097 19.6608 12.6875 19.4729 12.6875 19.277V14.4105C12.6872 14.2455 12.6318 14.0854 12.5299 13.9557C12.4281 13.8259 12.2858 13.734 12.1256 13.6945C12.0669 13.6882 12.0076 13.6882 11.9489 13.6945L11.1605 13.6719Z" fill="#44424D"/>
<path d="M24.6364 20.9219H23.848C23.4121 20.9207 22.9944 20.747 22.6862 20.4388C22.378 20.1306 22.2043 19.7129 22.2031 19.277V14.4105C22.202 14.0427 22.3247 13.6853 22.5516 13.3959C22.7786 13.1065 23.0964 12.9021 23.4538 12.8155C23.5827 12.7833 23.7151 12.7666 23.848 12.7656H24.6364C25.0723 12.7668 25.49 12.9405 25.7982 13.2487C26.1064 13.5569 26.2801 13.9746 26.2813 14.4105V19.277C26.2801 19.7129 26.1064 20.1306 25.7982 20.4388C25.49 20.747 25.0723 20.9207 24.6364 20.9219ZM23.848 13.6719C23.7892 13.6655 23.73 13.6655 23.6713 13.6719C23.5073 13.7122 23.3621 13.8075 23.2598 13.9419C23.1576 14.0763 23.1045 14.2417 23.1094 14.4105V19.277C23.1094 19.4729 23.1872 19.6608 23.3257 19.7993C23.4642 19.9378 23.6521 20.0156 23.848 20.0156H24.6364C24.8323 20.0156 25.0202 19.9378 25.1587 19.7993C25.2972 19.6608 25.375 19.4729 25.375 19.277V14.4105C25.375 14.3135 25.3559 14.2174 25.3188 14.1278C25.2817 14.0382 25.2273 13.9568 25.1587 13.8882C25.0901 13.8196 25.0087 13.7652 24.9191 13.7281C24.8295 13.691 24.7334 13.6719 24.6364 13.6719H23.848Z" fill="#44424D"/>
<path d="M8.60938 18.6562H0V13.2188H8.60938V18.6562ZM0.90625 17.75H7.70312V14.125H0.90625V17.75Z" fill="#44424D"/>
<path d="M7.70312 17.75H8.60938V20.9219H7.70312V17.75Z" fill="#44424D"/>
<path d="M0 17.75H0.90625V20.9219H0V17.75Z" fill="#44424D"/>
<path d="M21.75 20.9219H14.0469C13.6863 20.9219 13.3406 20.7787 13.0857 20.5237C12.8307 20.2688 12.6875 19.923 12.6875 19.5625V16.8438H23.1094V19.5625C23.1094 19.923 22.9662 20.2688 22.7112 20.5237C22.4563 20.7787 22.1105 20.9219 21.75 20.9219ZM13.5938 17.75V19.5625C13.5938 19.6827 13.6415 19.7979 13.7265 19.8829C13.8114 19.9679 13.9267 20.0156 14.0469 20.0156H21.75C21.8702 20.0156 21.9854 19.9679 22.0704 19.8829C22.1554 19.7979 22.2031 19.6827 22.2031 19.5625V17.75H13.5938Z" fill="#44424D"/>
<path d="M23.1094 17.75H12.6875V16.3906C12.6875 15.7897 12.9262 15.2135 13.3511 14.7886C13.776 14.3637 14.3522 14.125 14.9531 14.125H20.8438C21.4446 14.125 22.0209 14.3637 22.4458 14.7886C22.8707 15.2135 23.1094 15.7897 23.1094 16.3906V17.75ZM13.5938 16.8438H22.2031V16.3906C22.2031 16.0301 22.0599 15.6843 21.805 15.4294C21.55 15.1745 21.2043 15.0312 20.8438 15.0312H14.9531C14.5926 15.0312 14.2468 15.1745 13.9919 15.4294C13.737 15.6843 13.5938 16.0301 13.5938 16.3906V16.8438Z" fill="#44424D"/>
<path d="M23.1094 16.3906H22.2031C22.2031 16.0301 22.0599 15.6843 21.805 15.4294C21.55 15.1745 21.2043 15.0312 20.8438 15.0312H14.9531C14.5926 15.0312 14.2468 15.1745 13.9919 15.4294C13.737 15.6843 13.5938 16.0301 13.5938 16.3906H12.6875V14.4105C12.6872 14.2455 12.6318 14.0854 12.5299 13.9557C12.4281 13.8259 12.2858 13.734 12.1256 13.6945L11.7812 13.613V10.0469C11.7812 9.20564 12.1154 8.39886 12.7103 7.80402C13.3051 7.20918 14.1119 6.875 14.9531 6.875H20.8438C21.685 6.875 22.4918 7.20918 23.0866 7.80402C23.6814 8.39886 24.0156 9.20564 24.0156 10.0469V13.613L23.6713 13.6945C23.5111 13.734 23.3688 13.8259 23.2669 13.9557C23.1651 14.0854 23.1096 14.2455 23.1094 14.4105V16.3906ZM14.9531 14.125H20.8438C21.334 14.125 21.811 14.284 22.2031 14.5781V14.4105C22.2018 14.1055 22.2861 13.8063 22.4463 13.5468C22.6065 13.2873 22.8362 13.0779 23.1094 12.9423V10.0469C23.1094 9.44599 22.8707 8.86972 22.4458 8.44484C22.0209 8.01995 21.4446 7.78125 20.8438 7.78125H14.9531C14.3522 7.78125 13.776 8.01995 13.3511 8.44484C12.9262 8.86972 12.6875 9.44599 12.6875 10.0469V12.9423C12.9607 13.0779 13.1904 13.2873 13.3506 13.5468C13.5108 13.8063 13.595 14.1055 13.5938 14.4105V14.5781C13.9859 14.284 14.4629 14.125 14.9531 14.125Z" fill="#44424D"/>
<path d="M3.17188 15.4844H5.4375V16.3906H3.17188V15.4844Z" fill="#44424D"/>
<path d="M5.77734 14.125H2.83203L1.66296 10.0469H6.9464L5.77734 14.125ZM3.51171 13.2188H5.09765L5.74109 10.9531H2.86828L3.51171 13.2188Z" fill="#44424D"/>
<path d="M4.30469 10.9532C4.18899 10.9523 4.07365 10.9402 3.96031 10.9169C3.111 10.7723 2.33964 10.3335 1.78128 9.67741C1.22293 9.0213 0.913169 8.18968 0.90625 7.32817V6.87505H1.35938C2.20252 6.87066 3.02043 7.16254 3.67031 7.69974L3.83797 7.83114V8.04411C3.83516 8.59571 3.99773 9.13549 4.30469 9.5938C4.61694 9.1387 4.78581 8.60055 4.78953 8.04864V7.83567L4.95719 7.70427C5.60165 7.16943 6.41251 6.87617 7.25 6.87505H7.70312V7.32817C7.70637 8.20489 7.39412 9.05353 6.82342 9.71907C6.25272 10.3846 5.46164 10.8226 4.59469 10.9532C4.49826 10.9628 4.40112 10.9628 4.30469 10.9532ZM5.68672 8.25708C5.65343 8.79959 5.49857 9.32767 5.23359 9.80224C5.63362 9.61904 5.9832 9.3415 6.25233 8.99344C6.52147 8.64538 6.70211 8.2372 6.77875 7.80395C6.38498 7.87252 6.01172 8.02895 5.68672 8.26161V8.25708ZM1.83969 7.80395C1.92166 8.23519 2.10434 8.64097 2.37285 8.98822C2.64136 9.33548 2.98811 9.61439 3.38484 9.80224C3.12115 9.32713 2.96638 8.79935 2.93172 8.25708C2.60591 8.02763 2.23271 7.87433 1.83969 7.80849V7.80395Z" fill="#44424D"/>
<path d="M4.30471 10.9126L3.98299 10.5954C3.90596 10.5138 3.82893 10.4323 3.75643 10.3462C3.17495 9.64401 2.87599 8.75037 2.91788 7.83965C2.95977 6.92894 3.33951 6.06652 3.98299 5.4207L4.30471 5.10352L4.62643 5.4207C4.9673 5.75954 5.23739 6.16279 5.42097 6.60697C5.60456 7.05116 5.69798 7.52742 5.6958 8.00805V8.0307C5.69324 8.87146 5.3985 9.68519 4.86205 10.3326C4.78049 10.4323 4.70346 10.5138 4.62643 10.5954L4.30471 10.9126ZM4.30471 6.44477C3.98908 6.905 3.82016 7.44999 3.82016 8.00805C3.82016 8.56611 3.98908 9.1111 4.30471 9.57133C4.61696 9.11623 4.78583 8.57808 4.78955 8.02617C4.7961 7.46147 4.62664 6.90875 4.30471 6.44477Z" fill="#44424D"/>
<path d="M9.51562 5.0625H10.4219V15.9375H9.51562V5.0625Z" fill="#44424D"/>
<path d="M13.6391 5.96875H6.29846L6.83768 0.078125H13.0999L13.6391 5.96875ZM7.29534 5.0625H12.6422L12.2752 0.984375H7.66237L7.29534 5.0625Z" fill="#44424D"/>
</svg>
