<svg xmlns="http://www.w3.org/2000/svg" viewBox="0 0 1024 1056.923">
  <path fill="#44424D"
    d="M1003.52 1016.84H20.48V602.163L512 65.854l491.52 536.31zM65.002 972.316H959v-352.88l-447-487.69-446.997 487.69zM1024 1016.84H0v-44.523h1024zm-742.8-11.22L143.937 765.203l350.253-466.5 35.618 26.714-332.71 443.303 122.745 214.817zm40.603-4.453l-42.518-13.357L490.72 305.47l42.517 13.357zm420.998 4.453l-38.644-22.26L826.902 768.54l-332.71-443.125 35.616-26.713 350.253 466.72zm-40.603-4.453L490.72 318.65l42.517-13.358L744.715 987.81zM534.26 312.06h-44.52V98.8h44.52z" />
</svg>