<svg xmlns="http://www.w3.org/2000/svg" viewBox="0 0 50 50"><path d="m11 0c-2.167969 0-3.984375.546875-5.21875 1.78125s-1.78125 3.050781-1.78125 5.21875v1h-3c-.03125 0-.0625 0-.09375 0-.550781.027344-.9804688.496094-.953125 1.046875.0273437.550781.496094.980469 1.046875.953125h3v18.8125c-.027344.132813-.027344.273438 0 .40625v5.59375c-.027344.132813-.027344.273438 0 .40625v5.78125c0 .550781.449219 1 1 1h5v7c0 .550781.449219 1 1 1h32c.550781 0 1-.449219 1-1v-37.84375c.003906-.050781.003906-.105469 0-.15625v-1h5c.359375.003906.695313-.183594.878906-.496094.179688-.3125.179688-.695312 0-1.007812-.183593-.3125-.519531-.5-.878906-.496094h-5v-1c0-2.0625-.65625-3.847656-1.90625-5.09375s-3.039062-1.90625-5.09375-1.90625zm0 2h26c1.640625 0 2.859375.488281 3.6875 1.3125.449219.449219.773438 1.035156 1 1.71875-.871094-.664062-1.832031-1.03125-2.6875-1.03125-1.007812 0-2.355469.273438-3.375 1.375-1.019531 1.101563-1.625 2.878906-1.625 5.625v15.09375c-.90625.195313-1.695312.628906-2.4375 1-1 .5-1.894531.90625-2.5625.90625s-1.5625-.40625-2.5625-.90625-2.105469-1.09375-3.4375-1.09375-2.4375.59375-3.4375 1.09375-1.894531.90625-2.5625.90625-1.5625-.40625-2.5625-.90625-2.105469-1.09375-3.4375-1.09375-2.4375.59375-3.4375 1.09375c-.5625.28125-1.085937.550781-1.5625.71875v-18.625c.027344-.132812.027344-.273437 0-.40625v-1.78125c0-1.832031.453125-3.015625 1.21875-3.78125s1.949219-1.21875 3.78125-1.21875zm28 4c.617188 0 1.292969.179688 1.875.84375.238281.273438.464844.660156.65625 1.15625h-5.125c.195313-.59375.433594-1.007812.6875-1.28125.554688-.597656 1.21875-.71875 1.90625-.71875zm-2.96875 4h5.90625c.027344.308594.0625.640625.0625 1v.09375 36.90625h-30v-6h23c.550781 0 1-.449219 1-1v-7.8125c.027344-.132812.027344-.273437 0-.40625v-5.59375c.027344-.132812.027344-.273437 0-.40625v-15.78125c0-.355469.011719-.691406.03125-1zm-25.03125 18c.667969 0 1.5625.40625 2.5625.90625s2.105469 1.09375 3.4375 1.09375 2.4375-.59375 3.4375-1.09375 1.894531-.90625 2.5625-.90625 1.5625.40625 2.5625.90625 2.105469 1.09375 3.4375 1.09375 2.4375-.59375 3.4375-1.09375c.5625-.28125 1.085938-.550781 1.5625-.71875v3.90625c-.90625.195313-1.695312.628906-2.4375 1-1 .5-1.894531.90625-2.5625.90625s-1.5625-.40625-2.5625-.90625-2.105469-1.09375-3.4375-1.09375-2.4375.59375-3.4375 1.09375-1.894531.90625-2.5625.90625-1.5625-.40625-2.5625-.90625-2.105469-1.09375-3.4375-1.09375-2.4375.59375-3.4375 1.09375c-.5625.28125-1.085937.550781-1.5625.71875v-3.90625c.90625-.195312 1.695313-.628906 2.4375-1 1-.5 1.894531-.90625 2.5625-.90625zm0 6c.667969 0 1.5625.40625 2.5625.90625s2.105469 1.09375 3.4375 1.09375 2.4375-.59375 3.4375-1.09375 1.894531-.90625 2.5625-.90625 1.5625.40625 2.5625.90625 2.105469 1.09375 3.4375 1.09375 2.4375-.59375 3.4375-1.09375c.5625-.28125 1.085938-.550781 1.5625-.71875v5.8125h-28v-4.09375c.90625-.195312 1.695313-.628906 2.4375-1 1-.5 1.894531-.90625 2.5625-.90625z" fill="#44424D"/></svg>