<svg width="17" height="17" viewBox="0 0 21 21" fill="none" xmlns="http://www.w3.org/2000/svg">
<path fill-rule="evenodd" clip-rule="evenodd" d="M8 0C9.59 0 11 0.881 11 2.5C11.108 3.609 9.967 5.824 10 7.002C10 7.325 10.038 7.667 10.113 8.029C10.284 8.002 10.47 7.995 10.645 8.004C11.723 4.712 13.333 3 15.5 3C18.179 3 21 5.633 21 8C21 9.59 20.119 11 18.5 11C17.306 11.091 15.196 9.967 13.998 10C13.675 10 13.333 10.038 12.971 10.113C12.998 10.284 13.004 10.47 12.996 10.646C16.287 11.723 18 13.333 18 15.5C18 18.179 15.367 21 13 21C11.41 21 10 20.119 10 18.5C9.922 17.243 11.033 15.213 11 13.998C11 13.675 10.962 13.333 10.887 12.971C10.716 12.998 10.529 13.005 10.354 12.996C9.277 16.288 7.667 18 5.5 18C2.821 18 0 15.367 0 13C0 11.41 0.881 10 2.5 10C3.757 9.922 5.787 11.033 7.002 11C7.325 11 7.667 10.962 8.029 10.887C8.002 10.716 7.995 10.53 8.004 10.354C4.713 9.277 3 7.667 3 5.5C3 2.821 5.633 0 8 0ZM12.738 11.613C12.535 12.024 12.218 12.372 11.832 12.616C11.944 13.098 12 13.558 12 13.998C12.108 15.108 10.967 17.322 11 18.5C11 19.443 11.892 20 13 20C14.799 20 17 17.642 17 15.5C17 13.87 15.623 12.566 12.738 11.613ZM2.5 11C1.557 11 1 11.892 1 13C1 14.799 3.358 17 5.5 17C7.13 17 8.434 15.623 9.387 12.738C8.974 12.534 8.627 12.218 8.383 11.831C7.902 11.944 7.442 12 7.002 12C5.892 12.108 3.678 10.967 2.5 11ZM10.5 9C9.672 9 9 9.672 9 10.5C9 11.328 9.672 12 10.5 12C11.328 12 12 11.328 12 10.5C12 9.672 11.328 9 10.5 9ZM15.5 4C13.87 4 12.566 5.377 11.613 8.26C12.025 8.466 12.373 8.782 12.617 9.169C13.097 9.056 13.558 9 13.998 9C15.108 8.892 17.322 10.033 18.5 10C19.442 10 20 9.108 20 8C20 6.201 17.642 4 15.5 4ZM8 1C6.201 1 4 3.358 4 5.5C4 7.13 5.377 8.434 8.261 9.387C8.466 8.974 8.782 8.627 9.169 8.383C9.056 7.902 9 7.442 9 7.002C8.892 5.892 10.033 3.678 10 2.5C10 1.557 9.108 1 8 1Z" fill="#44424D"/>
</svg>
