<svg width="16" height="16" viewBox="0 0 16 16" fill="none" xmlns="http://www.w3.org/2000/svg">
<g clip-path="url(#clip0_3151_16212)">
<path fill-rule="evenodd" clip-rule="evenodd" d="M8.0026 1.83301C6.3671 1.83301 4.79859 2.48271 3.64211 3.63918C2.48564 4.79566 1.83594 6.36417 1.83594 7.99967C1.83594 9.63518 2.48564 11.2037 3.64211 12.3602C4.79859 13.5166 6.3671 14.1663 8.0026 14.1663C9.63811 14.1663 11.2066 13.5166 12.3631 12.3602C13.5196 11.2037 14.1693 9.63518 14.1693 7.99967C14.1693 6.36417 13.5196 4.79566 12.3631 3.63918C11.2066 2.48271 9.63811 1.83301 8.0026 1.83301ZM0.835938 7.99967C0.835938 4.04167 4.0446 0.833008 8.0026 0.833008C11.9606 0.833008 15.1693 4.04167 15.1693 7.99967C15.1693 11.9577 11.9606 15.1663 8.0026 15.1663C4.0446 15.1663 0.835938 11.9577 0.835938 7.99967Z" fill="#AC0054" fill-opacity="0.25"/>
<path d="M8 14C11.3137 14 14 11.3137 14 8C14 4.68629 11.3137 2 8 2C4.68629 2 2 4.68629 2 8C2 11.3137 4.68629 14 8 14Z" fill="#AC0054"/>
</g>
<defs>
<clipPath id="clip0_3151_16212">
<rect width="16" height="16" fill="white"/>
</clipPath>
</defs>
</svg>
