<svg width="24" height="25" viewBox="0 0 24 25" fill="none" xmlns="http://www.w3.org/2000/svg">
<g clip-path="url(#clip0_507_5402)">
<path d="M23.725 11.8364C23.7248 11.8361 23.7245 11.8358 23.7242 11.8355L18.8256 6.9605C18.4586 6.59529 17.865 6.59665 17.4997 6.96368C17.1345 7.33067 17.1359 7.92425 17.5028 8.2895L20.7918 11.5625H0.9375C0.419719 11.5625 0 11.9822 0 12.5C0 13.0178 0.419719 13.4375 0.9375 13.4375H20.7917L17.5029 16.7105C17.1359 17.0757 17.1345 17.6693 17.4998 18.0363C17.865 18.4034 18.4587 18.4047 18.8256 18.0395L23.7242 13.1645C23.7245 13.1642 23.7248 13.1639 23.7251 13.1636C24.0923 12.7971 24.0911 12.2016 23.725 11.8364Z" fill="white"/>
</g>
<defs>
<clipPath id="clip0_507_5402">
<rect width="24" height="24" fill="white" transform="translate(0 0.5)"/>
</clipPath>
</defs>
</svg>
