<svg width="17" height="11" viewBox="0 0 17 11" fill="none" xmlns="http://www.w3.org/2000/svg">
<path d="M15.875 10.5V9.25" stroke="#875FFF" stroke-miterlimit="10" stroke-linecap="round" stroke-linejoin="round"/>
<path d="M15.875 9.25H1.125V6.75C1.125 6.05966 1.68466 5.5 2.375 5.5H14.625C15.3153 5.5 15.875 6.05966 15.875 6.75V9.25Z" stroke="#875FFF" stroke-miterlimit="10" stroke-linecap="round" stroke-linejoin="round"/>
<path d="M8.5 5.5V4.25C8.5 3.55966 7.94034 3 7.25 3H6.125C5.43466 3 4.875 3.55966 4.875 4.25V5.5" stroke="#875FFF" stroke-miterlimit="10" stroke-linecap="round" stroke-linejoin="round"/>
<path d="M12.125 5.5V4.25C12.125 3.55966 11.5653 3 10.875 3H9.75C9.05966 3 8.5 3.55966 8.5 4.25V5.5" stroke="#875FFF" stroke-miterlimit="10" stroke-linecap="round" stroke-linejoin="round"/>
<path d="M1.125 10.5V9.25" stroke="#875FFF" stroke-miterlimit="10" stroke-linecap="round" stroke-linejoin="round"/>
<path d="M2.375 5.5V3C2.375 1.61928 3.49428 0.5 4.875 0.5H12.125C13.5057 0.5 14.625 1.61928 14.625 3V5.5" stroke="#875FFF" stroke-miterlimit="10" stroke-linecap="round" stroke-linejoin="round"/>
</svg>
