<svg width="17" height="17" viewBox="0 0 17 17" fill="none" xmlns="http://www.w3.org/2000/svg">
<g clip-path="url(#clip0_395_2456)">
<path d="M15.875 13.5V12.25" stroke="#875FFF" stroke-miterlimit="10" stroke-linecap="round" stroke-linejoin="round"/>
<path d="M15.875 12.25H1.125V9.75C1.125 9.05966 1.68466 8.5 2.375 8.5H14.625C15.3153 8.5 15.875 9.05966 15.875 9.75V12.25Z" stroke="#875FFF" stroke-miterlimit="10" stroke-linecap="round" stroke-linejoin="round"/>
<path d="M8.5 8.5V7.25C8.5 6.55966 7.94034 6 7.25 6H6.125C5.43466 6 4.875 6.55966 4.875 7.25V8.5" stroke="#875FFF" stroke-miterlimit="10" stroke-linecap="round" stroke-linejoin="round"/>
<path d="M12.125 8.5V7.25C12.125 6.55966 11.5653 6 10.875 6H9.75C9.05966 6 8.5 6.55966 8.5 7.25V8.5" stroke="#875FFF" stroke-miterlimit="10" stroke-linecap="round" stroke-linejoin="round"/>
<path d="M1.125 13.5V12.25" stroke="#875FFF" stroke-miterlimit="10" stroke-linecap="round" stroke-linejoin="round"/>
<path d="M2.375 8.5V6C2.375 4.61928 3.49428 3.5 4.875 3.5H12.125C13.5057 3.5 14.625 4.61928 14.625 6V8.5" stroke="#875FFF" stroke-miterlimit="10" stroke-linecap="round" stroke-linejoin="round"/>
</g>
<defs>
<clipPath id="clip0_395_2456">
<rect width="16" height="16" fill="white" transform="translate(0.5 0.5)"/>
</clipPath>
</defs>
</svg>
