<svg width="17" height="17" viewBox="0 0 17 17" fill="none" xmlns="http://www.w3.org/2000/svg">
<g clip-path="url(#clip0_507_5164)">
<path d="M12.1697 5.28828V3.68865C12.1697 2.05411 10.6475 0.845561 9.0555 1.2161L7.41649 1.59761C6.55054 1.79917 5.63997 1.64916 4.88442 1.18047C4.30264 2.47019 4.27741 3.98745 4.83247 5.29818" stroke="#875FFF" stroke-miterlimit="10"/>
<path d="M11.5397 5.06634C12.1803 5.10586 12.6877 5.63763 12.6877 6.28815C12.6877 6.93867 12.1803 7.47044 11.5397 7.50995V7.9582C11.5397 9.74466 10.1792 11.1929 8.50091 11.1929C6.82261 11.1929 5.46211 9.74466 5.46211 7.9582V7.50992C4.82169 7.47025 4.31445 6.93854 4.31445 6.28812C4.31445 5.63769 4.82169 5.10598 5.46211 5.06631H6.63743C7.76821 5.06631 8.84963 4.60331 9.63009 3.78506L10.3776 4.5688C10.6807 4.88658 11.1006 5.06638 11.5397 5.06634Z" stroke="#875FFF" stroke-miterlimit="10"/>
<path d="M9.87688 10.8467L10.1588 12.2891L12.972 13.0908C13.7478 13.3119 14.3657 13.8994 14.6257 14.663L15.0915 16.0311H1.9082L2.37552 14.661C2.63559 13.8985 3.25273 13.3118 4.02738 13.0906L6.84108 12.287L7.12272 10.8468" stroke="#875FFF" stroke-miterlimit="10"/>
<path d="M6.8418 12.287L6.8427 12.2885C7.60125 13.5436 9.4005 13.5439 10.1595 12.2891" stroke="#875FFF" stroke-miterlimit="10"/>
<path d="M4.73438 14.5364V16.0268" stroke="#875FFF" stroke-miterlimit="10"/>
<path d="M12.2676 14.5364V16.0268" stroke="#875FFF" stroke-miterlimit="10"/>
</g>
<defs>
<clipPath id="clip0_507_5164">
<rect width="16" height="16" fill="white" transform="translate(0.5 0.5)"/>
</clipPath>
</defs>
</svg>
