<svg width="18" height="18" viewBox="0 0 18 18" fill="none" xmlns="http://www.w3.org/2000/svg">
<path d="M12.75 10.5C12.9489 10.5 13.1397 10.421 13.2803 10.2803C13.421 10.1397 13.5 9.94891 13.5 9.75C13.5 9.55109 13.421 9.36032 13.2803 9.21967C13.1397 9.07902 12.9489 9 12.75 9C12.5511 9 12.3603 9.07902 12.2197 9.21967C12.079 9.36032 12 9.55109 12 9.75C12 9.94891 12.079 10.1397 12.2197 10.2803C12.3603 10.421 12.5511 10.5 12.75 10.5ZM12.75 13.5C12.9489 13.5 13.1397 13.421 13.2803 13.2803C13.421 13.1397 13.5 12.9489 13.5 12.75C13.5 12.5511 13.421 12.3603 13.2803 12.2197C13.1397 12.079 12.9489 12 12.75 12C12.5511 12 12.3603 12.079 12.2197 12.2197C12.079 12.3603 12 12.5511 12 12.75C12 12.9489 12.079 13.1397 12.2197 13.2803C12.3603 13.421 12.5511 13.5 12.75 13.5ZM9.75 9.75C9.75 9.94891 9.67098 10.1397 9.53033 10.2803C9.38968 10.421 9.19891 10.5 9 10.5C8.80109 10.5 8.61032 10.421 8.46967 10.2803C8.32902 10.1397 8.25 9.94891 8.25 9.75C8.25 9.55109 8.32902 9.36032 8.46967 9.21967C8.61032 9.07902 8.80109 9 9 9C9.19891 9 9.38968 9.07902 9.53033 9.21967C9.67098 9.36032 9.75 9.55109 9.75 9.75ZM9.75 12.75C9.75 12.9489 9.67098 13.1397 9.53033 13.2803C9.38968 13.421 9.19891 13.5 9 13.5C8.80109 13.5 8.61032 13.421 8.46967 13.2803C8.32902 13.1397 8.25 12.9489 8.25 12.75C8.25 12.5511 8.32902 12.3603 8.46967 12.2197C8.61032 12.079 8.80109 12 9 12C9.19891 12 9.38968 12.079 9.53033 12.2197C9.67098 12.3603 9.75 12.5511 9.75 12.75ZM5.25 10.5C5.44891 10.5 5.63968 10.421 5.78033 10.2803C5.92098 10.1397 6 9.94891 6 9.75C6 9.55109 5.92098 9.36032 5.78033 9.21967C5.63968 9.07902 5.44891 9 5.25 9C5.05109 9 4.86032 9.07902 4.71967 9.21967C4.57902 9.36032 4.5 9.55109 4.5 9.75C4.5 9.94891 4.57902 10.1397 4.71967 10.2803C4.86032 10.421 5.05109 10.5 5.25 10.5ZM5.25 13.5C5.44891 13.5 5.63968 13.421 5.78033 13.2803C5.92098 13.1397 6 12.9489 6 12.75C6 12.5511 5.92098 12.3603 5.78033 12.2197C5.63968 12.079 5.44891 12 5.25 12C5.05109 12 4.86032 12.079 4.71967 12.2197C4.57902 12.3603 4.5 12.5511 4.5 12.75C4.5 12.9489 4.57902 13.1397 4.71967 13.2803C4.86032 13.421 5.05109 13.5 5.25 13.5Z" fill="#875FFF"/>
<path fill-rule="evenodd" clip-rule="evenodd" d="M5.24925 1.3125C5.39843 1.3125 5.54151 1.37176 5.647 1.47725C5.75249 1.58274 5.81175 1.72582 5.81175 1.875V2.44725C6.30825 2.4375 6.855 2.4375 7.4565 2.4375H10.5412C11.1435 2.4375 11.6902 2.4375 12.1867 2.44725V1.875C12.1867 1.72582 12.246 1.58274 12.3515 1.47725C12.457 1.37176 12.6001 1.3125 12.7492 1.3125C12.8984 1.3125 13.0415 1.37176 13.147 1.47725C13.2525 1.58274 13.3118 1.72582 13.3118 1.875V2.49525C13.5068 2.51025 13.6915 2.52925 13.866 2.55225C14.745 2.67075 15.4567 2.91975 16.0185 3.48075C16.5795 4.0425 16.8285 4.75425 16.947 5.63325C17.0618 6.48825 17.0618 7.5795 17.0618 8.958V10.542C17.0618 11.9205 17.0618 13.0125 16.947 13.8668C16.8285 14.7458 16.5795 15.4575 16.0185 16.0192C15.4567 16.5802 14.745 16.8293 13.866 16.9478C13.011 17.0625 11.9197 17.0625 10.5412 17.0625H7.458C6.0795 17.0625 4.9875 17.0625 4.13325 16.9478C3.25425 16.8293 2.5425 16.5802 1.98075 16.0192C1.41975 15.4575 1.17075 14.7458 1.05225 13.8668C0.9375 13.0118 0.9375 11.9205 0.9375 10.542V8.958C0.9375 7.5795 0.9375 6.4875 1.05225 5.63325C1.17075 4.75425 1.41975 4.0425 1.98075 3.48075C2.5425 2.91975 3.25425 2.67075 4.13325 2.55225C4.30825 2.52925 4.493 2.51025 4.6875 2.49525V1.875C4.6875 1.72595 4.74666 1.58299 4.85199 1.47752C4.95731 1.37205 5.1002 1.3127 5.24925 1.3125ZM4.28175 3.6675C3.528 3.76875 3.093 3.95925 2.77575 4.2765C2.4585 4.59375 2.268 5.02875 2.16675 5.7825C2.14975 5.91 2.13525 6.04475 2.12325 6.18675H15.8752C15.8632 6.04475 15.8488 5.90975 15.8318 5.78175C15.7305 5.028 15.54 4.593 15.2228 4.27575C14.9055 3.9585 14.4705 3.768 13.716 3.66675C12.9458 3.56325 11.9295 3.56175 10.4992 3.56175H7.49925C6.069 3.56175 5.0535 3.564 4.28175 3.6675ZM2.06175 9C2.06175 8.3595 2.06175 7.80225 2.0715 7.3125H15.927C15.9368 7.80225 15.9368 8.3595 15.9368 9V10.5C15.9368 11.9303 15.9353 12.9465 15.8318 13.7175C15.7305 14.4713 15.54 14.9062 15.2228 15.2235C14.9055 15.5408 14.4705 15.7313 13.716 15.8325C12.9458 15.936 11.9295 15.9375 10.4992 15.9375H7.49925C6.069 15.9375 5.0535 15.936 4.28175 15.8325C3.528 15.7313 3.093 15.5408 2.77575 15.2235C2.4585 14.9062 2.268 14.4712 2.16675 13.7167C2.06325 12.9465 2.06175 11.9303 2.06175 10.5V9Z" fill="#875FFF"/>
</svg>
