<svg width="28" height="28" viewBox="0 0 28 28" fill="none" xmlns="http://www.w3.org/2000/svg">
<path fill-rule="evenodd" clip-rule="evenodd" d="M13.9321 1.45801H14.0627C16.2071 1.45801 17.9057 1.45801 19.2346 1.63651C20.6019 1.82084 21.7091 2.20817 22.5829 3.08084C23.4556 3.95467 23.8429 5.06184 24.0272 6.42917C24.2057 7.75918 24.2057 9.45668 24.2057 11.601V16.3983C24.2057 18.5427 24.2057 20.2413 24.0272 21.5702C23.8429 22.9375 23.4556 24.0447 22.5829 24.9185C21.7091 25.7912 20.6019 26.1785 19.2346 26.3628C17.9046 26.5413 16.2071 26.5413 14.0627 26.5413H13.9321C11.7877 26.5413 10.0891 26.5413 8.76023 26.3628C7.3929 26.1785 6.28573 25.7912 5.4119 24.9185C4.53923 24.0447 4.1519 22.9375 3.96756 21.5702C3.78906 20.2402 3.78906 18.5427 3.78906 16.3983V11.601C3.78906 9.45668 3.78906 7.75801 3.96756 6.42917C4.1519 5.06184 4.53923 3.95467 5.4119 3.08084C6.28573 2.20817 7.3929 1.82084 8.76023 1.63651C10.0902 1.45801 11.7877 1.45801 13.9321 1.45801ZM7.94706 3.58484C7.37656 3.75517 6.97406 3.99434 6.64973 4.31867C6.15623 4.81217 5.8599 5.48884 5.7024 6.66251C5.5414 7.86184 5.53906 9.44151 5.53906 11.6663V16.333C5.53906 18.5578 5.5414 20.1387 5.7024 21.338C5.8599 22.5105 6.15623 23.1872 6.64973 23.6807C7.14323 24.1742 7.8199 24.4705 8.99356 24.628C10.1929 24.789 11.7726 24.7913 13.9974 24.7913C16.2222 24.7913 17.8031 24.789 19.0024 24.628C20.1749 24.4705 20.8516 24.1742 21.3451 23.6807C21.8386 23.1872 22.1349 22.5105 22.2924 21.3368C22.4534 20.1387 22.4557 18.5578 22.4557 16.333V11.6663C22.4557 9.44151 22.4534 7.86184 22.2924 6.66134C22.1349 5.48884 21.8386 4.81217 21.3451 4.31867C21.0207 3.99434 20.6182 3.75517 20.0477 3.58484C19.2754 4.74451 18.7364 5.55067 17.9337 6.04884C17.7727 6.1484 17.6067 6.23745 17.4356 6.31601C16.5699 6.70918 15.5922 6.70917 14.1841 6.70801H13.8107C12.4026 6.70801 11.4249 6.70918 10.5592 6.31601C10.3879 6.2371 10.2216 6.14788 10.0611 6.04884C9.2584 5.55067 8.7194 4.74451 7.94706 3.58484ZM9.8569 3.28501C10.3749 4.03634 10.6467 4.35251 10.9851 4.56251C11.0807 4.6224 11.1803 4.67567 11.2837 4.72234C11.7621 4.93934 12.3267 4.95801 13.9974 4.95801C15.6681 4.95801 16.2339 4.93934 16.7111 4.72234C16.8137 4.67567 16.9133 4.6224 17.0097 4.56251C17.3481 4.35251 17.6199 4.03634 18.1379 3.28501C17.0646 3.20917 15.7252 3.20801 13.9974 3.20801C12.2696 3.20801 10.9314 3.20917 9.8569 3.28501ZM9.6224 22.1663C9.6224 21.9343 9.71458 21.7117 9.87868 21.5476C10.0428 21.3835 10.2653 21.2913 10.4974 21.2913H17.4974C17.7295 21.2913 17.952 21.3835 18.1161 21.5476C18.2802 21.7117 18.3724 21.9343 18.3724 22.1663C18.3724 22.3984 18.2802 22.621 18.1161 22.7851C17.952 22.9492 17.7295 23.0413 17.4974 23.0413H10.4974C10.2653 23.0413 10.0428 22.9492 9.87868 22.7851C9.71458 22.621 9.6224 22.3984 9.6224 22.1663Z" fill="#875FFF"/>
</svg>
