<svg width="28" height="28" viewBox="0 0 28 28" fill="none" xmlns="http://www.w3.org/2000/svg">
<path fill-rule="evenodd" clip-rule="evenodd" d="M10.4384 2.625H17.5668C19.1616 2.625 20.4484 2.625 21.4599 2.7615C22.5099 2.9015 23.3943 3.20483 24.0966 3.906C24.7989 4.60833 25.0999 5.49267 25.2423 6.54267C25.3776 7.55417 25.3776 8.841 25.3776 10.4358V16.394C25.3776 17.4428 25.3776 18.3167 25.2843 19.0097C25.1863 19.7423 24.9693 20.4038 24.4373 20.9347C23.9064 21.4667 23.2449 21.6837 22.5123 21.7817C21.8193 21.875 20.9454 21.875 19.8966 21.875H8.1086C7.06094 21.875 6.18594 21.875 5.49294 21.7817C4.76027 21.6837 4.09877 21.4667 3.56794 20.9347C3.03594 20.4038 2.81894 19.7423 2.72094 19.0097C2.6276 18.3167 2.6276 17.4417 2.6276 16.394V10.4358C2.6276 8.841 2.6276 7.55417 2.7641 6.54267C2.9041 5.49267 3.20744 4.60833 3.9086 3.906C4.61094 3.20367 5.49527 2.90267 6.54527 2.7615C7.55677 2.625 8.8436 2.625 10.4384 2.625ZM6.7786 4.49517C5.92227 4.61067 5.4696 4.82183 5.14644 5.14383C4.82327 5.467 4.61327 5.91967 4.49777 6.77717C4.37994 7.65567 4.3776 8.82467 4.3776 10.5V16.3333C4.3776 17.458 4.37994 18.214 4.45577 18.7775C4.5281 19.3153 4.65294 19.5463 4.80577 19.698C4.9586 19.8497 5.18727 19.9745 5.7251 20.048C6.2886 20.1227 7.0446 20.125 8.16927 20.125H19.8359C20.9606 20.125 21.7166 20.1227 22.2801 20.0468C22.8179 19.9745 23.0489 19.8497 23.2006 19.6968C23.3523 19.544 23.4771 19.3153 23.5506 18.7775C23.6253 18.214 23.6276 17.458 23.6276 16.3333V10.5C23.6276 8.82583 23.6253 7.65683 23.5074 6.776C23.3919 5.91967 23.1808 5.467 22.8588 5.14383C22.5356 4.82067 22.0829 4.61067 21.2254 4.49517C20.3446 4.37733 19.1768 4.375 17.5026 4.375H10.5026C8.82844 4.375 7.65944 4.37733 6.7786 4.49517ZM9.6276 17.5C9.6276 17.2679 9.71979 17.0454 9.88389 16.8813C10.048 16.7172 10.2705 16.625 10.5026 16.625H17.5026C17.7347 16.625 17.9572 16.7172 18.1213 16.8813C18.2854 17.0454 18.3776 17.2679 18.3776 17.5C18.3776 17.7321 18.2854 17.9546 18.1213 18.1187C17.9572 18.2828 17.7347 18.375 17.5026 18.375H10.5026C10.2705 18.375 10.048 18.2828 9.88389 18.1187C9.71979 17.9546 9.6276 17.7321 9.6276 17.5ZM1.46094 24.5C1.46094 24.2679 1.55312 24.0454 1.71722 23.8813C1.88131 23.7172 2.10387 23.625 2.33594 23.625H25.6693C25.9013 23.625 26.1239 23.7172 26.288 23.8813C26.4521 24.0454 26.5443 24.2679 26.5443 24.5C26.5443 24.7321 26.4521 24.9546 26.288 25.1187C26.1239 25.2828 25.9013 25.375 25.6693 25.375H2.33594C2.10387 25.375 1.88131 25.2828 1.71722 25.1187C1.55312 24.9546 1.46094 24.7321 1.46094 24.5Z" fill="#875FFF"/>
</svg>
