<svg width="28" height="28" viewBox="0 0 28 28" fill="none" xmlns="http://www.w3.org/2000/svg">
<path fill-rule="evenodd" clip-rule="evenodd" d="M11.6005 1.45801H16.3978C18.5422 1.45801 20.2408 1.45801 21.5697 1.63651C22.937 1.82084 24.0442 2.20817 24.918 3.08084C25.7907 3.95467 26.178 5.06184 26.3623 6.42917C26.5408 7.75918 26.5408 9.45668 26.5408 11.601V12.896C26.5408 13.6695 26.5408 14.3707 26.5257 15.0018C26.5499 15.1283 26.5459 15.2586 26.514 15.3833C26.4942 15.9013 26.4615 16.3692 26.4055 16.7903C26.2632 17.8403 25.9622 18.7247 25.2598 19.427C24.5575 20.1293 23.6732 20.4303 22.6232 20.5727C21.6117 20.708 20.3248 20.708 18.73 20.708H14.8742V24.7913H18.6658C18.8979 24.7913 19.1205 24.8835 19.2845 25.0476C19.4486 25.2117 19.5408 25.4343 19.5408 25.6663C19.5408 25.8984 19.4486 26.121 19.2845 26.2851C19.1205 26.4492 18.8979 26.5413 18.6658 26.5413H9.3325C9.10043 26.5413 8.87787 26.4492 8.71378 26.2851C8.54968 26.121 8.4575 25.8984 8.4575 25.6663C8.4575 25.4343 8.54968 25.2117 8.71378 25.0476C8.87787 24.8835 9.10043 24.7913 9.3325 24.7913H13.1242V20.708H9.26833C7.6735 20.708 6.38666 20.708 5.37516 20.5727C4.32516 20.4303 3.44083 20.1293 2.7385 19.427C2.03616 18.7247 1.73516 17.8403 1.594 16.7903C1.53683 16.3703 1.50416 15.9013 1.48433 15.3833C1.45241 15.2586 1.44843 15.1283 1.47266 15.0018C1.4575 14.3707 1.4575 13.6695 1.4575 12.8972V11.601C1.4575 9.45668 1.4575 7.75801 1.636 6.42917C1.82033 5.06184 2.20766 3.95467 3.08033 3.08084C3.95416 2.20817 5.06133 1.82084 6.42866 1.63651C7.75866 1.45801 9.45616 1.45801 11.6005 1.45801ZM3.274 16.0413C3.288 16.2233 3.30588 16.3952 3.32766 16.557C3.44316 17.4133 3.65433 17.866 3.97633 18.1892C4.29949 18.5123 4.75216 18.7223 5.60966 18.8378C6.48933 18.9557 7.65833 18.958 9.3325 18.958H18.6658C20.34 18.958 21.5078 18.9557 22.3898 18.8378C23.2462 18.7223 23.6988 18.5112 24.022 18.1892C24.3452 17.866 24.5552 17.4133 24.6707 16.5558C24.6933 16.3849 24.7112 16.2133 24.7243 16.0413H3.274ZM24.7873 14.2913H3.211C3.20711 13.8535 3.20555 13.3673 3.20633 12.833V11.6663C3.20633 9.44151 3.20866 7.86184 3.36966 6.66134C3.52716 5.48884 3.8235 4.81217 4.317 4.31867C4.8105 3.82517 5.48716 3.52884 6.66083 3.37134C7.86016 3.21034 9.43983 3.20801 11.6647 3.20801H16.3313C18.5562 3.20801 20.137 3.21034 21.3363 3.37134C22.5088 3.52884 23.1855 3.82517 23.679 4.31867C24.1725 4.81217 24.4688 5.48884 24.6263 6.66251C24.7873 7.86184 24.7897 9.44151 24.7897 11.6663V12.833C24.7904 13.3673 24.7889 13.8535 24.785 14.2913" fill="#875FFF"/>
</svg>
