<svg width="103" height="102" viewBox="0 0 103 102" fill="none" xmlns="http://www.w3.org/2000/svg">
<path fill-rule="evenodd" clip-rule="evenodd" d="M71.7694 6.97437H27.7437C22.0167 6.97437 17.2951 11.3722 16.7833 16.9704L10.4638 12.0641C9.82743 11.5725 9.074 11.3333 8.32937 11.3333C7.30059 11.3333 6.2809 11.7847 5.59952 12.6473C4.73903 13.7341 4.64353 15.1736 5.23655 16.3273C5.28906 16.3634 5.3409 16.4011 5.39201 16.4405L93.2903 84.3849C93.359 84.438 93.4252 84.493 93.4889 84.5499C94.6226 84.6523 95.7803 84.1994 96.5295 83.2489C97.7116 81.756 97.45 79.5973 95.9428 78.4284L82.7758 68.2058V17.9808C82.7758 11.9106 77.8368 6.97437 71.7694 6.97437ZM82.7758 85.1898L77.2726 80.9359V87.2625L51.2345 70.6912C50.7831 70.4036 50.2725 70.2612 49.7565 70.2612C49.2406 70.2612 48.73 70.4036 48.2786 70.6912L22.2405 87.2625V38.3967L16.7373 34.1428V92.274C16.7373 93.2791 17.2856 94.2034 18.1668 94.687C19.0481 95.1655 20.1176 95.1278 20.9669 94.5957L49.7565 76.275L78.5462 94.5957C78.9976 94.8805 79.5082 95.0257 80.0242 95.0257C80.4809 95.0257 80.9324 94.9128 81.3463 94.687C82.2275 94.2034 82.7758 93.2791 82.7758 92.274V85.1898ZM22.2405 21.2073L77.2726 63.9332V17.9808C77.2726 14.947 74.8057 12.4776 71.7694 12.4776H27.7437C24.7073 12.4776 22.2405 14.947 22.2405 17.9808V21.2073Z" fill="#EFECFF"/>
</svg>
