<svg width="18" height="18" viewBox="0 0 18 18" fill="none" xmlns="http://www.w3.org/2000/svg">
<path fill-rule="evenodd" clip-rule="evenodd" d="M4.218 3.31799C2.97375 3.88649 2.0625 5.23949 2.0625 6.85274C2.0625 8.50049 2.7375 9.77099 3.7035 10.86C4.50075 11.757 5.46525 12.501 6.40575 13.2255C6.62975 13.398 6.851 13.57 7.0695 13.7415C7.464 14.0527 7.81575 14.325 8.1555 14.5237C8.49525 14.7225 8.7675 14.8125 9 14.8125C9.2325 14.8125 9.5055 14.7225 9.8445 14.5237C10.1842 14.325 10.536 14.0527 10.9305 13.7415C11.149 13.5695 11.3702 13.3977 11.5942 13.2262C12.5347 12.5002 13.4993 11.757 14.2965 10.86C15.2633 9.77099 15.9375 8.50049 15.9375 6.85274C15.9375 5.24024 15.0262 3.88649 13.782 3.31799C12.573 2.76524 10.9485 2.91149 9.405 4.51574C9.35253 4.57018 9.28962 4.61348 9.22003 4.64306C9.15045 4.67264 9.07561 4.68788 9 4.68788C8.92439 4.68788 8.84955 4.67264 8.77997 4.64306C8.71038 4.61348 8.64747 4.57018 8.595 4.51574C7.0515 2.91149 5.427 2.76524 4.218 3.31799ZM9 3.34499C7.266 1.79249 5.32425 1.57499 3.75 2.29424C2.0895 3.05549 0.9375 4.81949 0.9375 6.85349C0.9375 8.85224 1.77 10.3777 2.86275 11.6077C3.73725 12.5925 4.8075 13.4167 5.75325 14.1442C5.96825 14.3092 6.17475 14.4697 6.37275 14.6257C6.7575 14.9287 7.17 15.2512 7.58775 15.4957C8.0055 15.7402 8.4825 15.9382 9 15.9382C9.5175 15.9382 9.9945 15.7395 10.4123 15.4957C10.8308 15.2512 11.2425 14.9287 11.6273 14.6257C11.8253 14.4697 12.0318 14.3092 12.2467 14.1442C13.1918 13.4167 14.2628 12.5917 15.1373 11.6077C16.23 10.3777 17.0625 8.85224 17.0625 6.85349C17.0625 4.81949 15.9113 3.05549 14.25 2.29574C12.6757 1.57574 10.734 1.79324 9 3.34499Z" fill="#7B7B7B"/>
</svg>
