       <svg width="48" height="48" viewBox="0 0 48 48" fill="none" xmlns="http://www.w3.org/2000/svg">
            <path
              d="M38.0625 2.90625H26.8125C21.3852 2.90625 16.9688 7.32272 16.9688 12.75C16.9688 17.7008 20.6423 21.8096 25.4062 22.4935V26.8125C25.4062 27.381 25.7482 27.8947 26.2742 28.1116C26.7929 28.3281 27.4013 28.212 27.8068 27.8067L33.0198 22.5938H38.0625C43.4898 22.5938 48 18.1773 48 12.75C48 7.32272 43.4898 2.90625 38.0625 2.90625ZM26.8125 14.1561C26.0357 14.1561 25.4062 13.5264 25.4062 12.7498C25.4062 11.9732 26.0357 11.3436 26.8125 11.3436C27.5891 11.3436 28.2188 11.9732 28.2188 12.7498C28.2188 13.5264 27.5891 14.1561 26.8125 14.1561ZM32.4375 14.1561C31.6607 14.1561 31.0312 13.5264 31.0312 12.7498C31.0312 11.9732 31.6607 11.3436 32.4375 11.3436C33.2141 11.3436 33.8438 11.9732 33.8438 12.7498C33.8438 13.5264 33.2141 14.1561 32.4375 14.1561ZM38.0625 14.1561C37.2857 14.1561 36.6562 13.5264 36.6562 12.7498C36.6562 11.9732 37.2857 11.3436 38.0625 11.3436C38.8391 11.3436 39.4688 11.9732 39.4688 12.7498C39.4688 13.5264 38.8391 14.1561 38.0625 14.1561Z"
              fill="#886CE4" />
            <path
              d="M31.5938 45.0938C33.9201 45.0938 35.8125 43.2013 35.8125 40.875V35.25C35.8125 34.6444 35.4252 34.1074 34.8512 33.9165L26.4335 31.104C26.0214 30.9653 25.5711 31.0284 25.2085 31.2674L21.6297 33.6528C17.8394 31.8456 13.3419 27.348 11.5346 23.5577L13.92 19.9789C14.1603 19.6177 14.2208 19.1659 14.0834 18.7539L11.2709 10.3362C11.0801 9.76228 10.5431 9.375 9.9375 9.375H4.21875C1.89244 9.375 0 11.2477 0 13.574C0 29.776 15.3917 45.0938 31.5938 45.0938Z"
              fill="#886CE4" />
          </svg>