     <svg width="48" height="48" viewBox="0 0 48 48" fill="none" xmlns="http://www.w3.org/2000/svg">
            <path fill-rule="evenodd" clip-rule="evenodd"
              d="M5.88725 9.22134L18.8547 22.1945C21.683 25.0173 26.3062 25.0197 29.1368 22.1945L42.1043 9.22134C42.2349 9.09075 42.2158 8.87569 42.0643 8.77003C40.7417 7.84763 39.1325 7.30078 37.3991 7.30078H10.5926C8.85903 7.30078 7.24981 7.84772 5.92719 8.77003C5.77569 8.87569 5.75666 9.09075 5.88725 9.22134ZM2.42188 15.4714C2.42188 14.1083 2.75984 12.8203 3.35516 11.6883C3.44825 11.5112 3.68422 11.4754 3.82569 11.6168L16.629 24.4202C20.6834 28.4805 27.3057 28.4828 31.3626 24.4202L44.1659 11.6168C44.3074 11.4754 44.5434 11.5112 44.6365 11.6883C45.2317 12.8203 45.5697 14.1083 45.5697 15.4714V32.528C45.5697 37.0367 41.9022 40.6987 37.3991 40.6987H10.5926C6.08956 40.6987 2.42188 37.0367 2.42188 32.528V15.4714Z"
              fill="#886CE4" />
          </svg>