     <svg width="48" height="48" viewBox="0 0 48 48" fill="none" xmlns="http://www.w3.org/2000/svg">
            <g clip-path="url(#clip0_1554_984)">
              <path
                d="M24 0C14.076 0 6 8.132 6 18.13C6 32.336 22.308 47.004 23.002 47.62C23.288 47.874 23.644 48 24 48C24.356 48 24.712 47.874 24.998 47.622C25.692 47.004 42 32.336 42 18.13C42 8.132 33.924 0 24 0ZM24 28C18.486 28 14 23.514 14 18C14 12.486 18.486 8 24 8C29.514 8 34 12.486 34 18C34 23.514 29.514 28 24 28Z"
                fill="#886CE4" />
            </g>
            <defs>
              <clipPath id="clip0_1554_984">
                <rect width="48" height="48" fill="white" />
              </clipPath>
            </defs>
          </svg>