<svg width="16" height="16" viewBox="0 0 16 16" fill="none" xmlns="http://www.w3.org/2000/svg">
<g clip-path="url(#clip0_3151_16171)">
<path fill-rule="evenodd" clip-rule="evenodd" d="M6.13994 2.12101C4.9725 2.49085 3.94162 3.1999 3.17867 4.15781C2.41571 5.11571 1.95524 6.27909 1.85594 7.49967H4.8426C4.8646 6.76901 4.9326 6.04901 5.04594 5.36634C5.18394 4.53034 5.38927 3.75967 5.6526 3.09967C5.78591 2.75974 5.94899 2.43224 6.13994 2.12101ZM8.0026 0.833008C7.06146 0.833008 6.12954 1.01838 5.26004 1.37854C4.39054 1.7387 3.60049 2.26659 2.93501 2.93208C2.26952 3.59756 1.74163 4.38761 1.38147 5.25711C1.02131 6.12661 0.835938 7.05853 0.835938 7.99967C0.835938 8.94081 1.02131 9.87274 1.38147 10.7422C1.74163 11.6117 2.26952 12.4018 2.93501 13.0673C3.60049 13.7328 4.39054 14.2607 5.26004 14.6208C6.12954 14.981 7.06146 15.1663 8.0026 15.1663C9.90332 15.1663 11.7262 14.4113 13.0702 13.0673C14.4142 11.7233 15.1693 9.90039 15.1693 7.99967C15.1693 6.09896 14.4142 4.27609 13.0702 2.93208C11.7262 1.58807 9.90332 0.833008 8.0026 0.833008ZM8.0026 1.83301C7.8286 1.83301 7.60327 1.91701 7.34194 2.18767C7.07794 2.46101 6.8146 2.88834 6.58127 3.47101C6.34994 4.05034 6.16127 4.74901 6.03194 5.53034C5.9286 6.15701 5.86527 6.82167 5.84394 7.49967H10.1613C10.142 6.83981 10.0792 6.18193 9.97327 5.53034C9.84394 4.74901 9.65527 4.05034 9.42394 3.47101C9.1906 2.88834 8.92727 2.46101 8.66394 2.18767C8.40194 1.91701 8.17727 1.83301 8.0026 1.83301ZM11.1626 7.49967C11.1426 6.78482 11.0746 6.07211 10.9593 5.36634C10.8213 4.53034 10.6159 3.75967 10.3526 3.09967C10.2191 2.75972 10.0558 2.43222 9.8646 2.12101C10.8072 2.41916 11.6643 2.93982 12.3633 3.63901C13.3974 4.67343 14.0302 6.04178 14.1486 7.49967H11.1626ZM10.1613 8.49967H5.84394C5.8646 9.17767 5.9286 9.84234 6.03194 10.469C6.16127 11.2503 6.34994 11.949 6.58127 12.5283C6.8146 13.111 7.07794 13.5383 7.34127 13.8117C7.60327 14.0823 7.82794 14.1663 8.0026 14.1663C8.1766 14.1663 8.40194 14.0823 8.66327 13.8117C8.92727 13.5383 9.1906 13.111 9.42394 12.5283C9.65527 11.949 9.84394 11.2503 9.97327 10.469C10.0766 9.84234 10.1399 9.17767 10.1613 8.49967ZM9.86527 13.8783C10.0453 13.589 10.2086 13.259 10.3519 12.8997C10.6159 12.2397 10.8213 11.469 10.9593 10.633C11.0744 9.92722 11.1421 9.21451 11.1619 8.49967H14.1486C14.0493 9.72026 13.5888 10.8836 12.8259 11.8415C12.0629 12.7994 11.0327 13.5085 9.86527 13.8783ZM6.13927 13.8783C5.94855 13.5671 5.7857 13.2396 5.6526 12.8997C5.3886 12.2397 5.18327 11.469 5.04527 10.633C4.93012 9.92722 4.86241 9.21451 4.8426 8.49967H1.85594C1.95519 9.72017 2.41557 10.8835 3.17839 11.8414C3.94122 12.7993 4.97196 13.5084 6.13927 13.8783Z" fill="#875FFF"/>
</g>
<defs>
<clipPath id="clip0_3151_16171">
<rect width="16" height="16" fill="white"/>
</clipPath>
</defs>
</svg>
