<svg width="16" height="16" viewBox="0 0 16 16" fill="none" xmlns="http://www.w3.org/2000/svg">
<path fill-rule="evenodd" clip-rule="evenodd" d="M2.16406 6.76167C2.16406 3.49567 4.7674 0.833008 7.9974 0.833008C11.2274 0.833008 13.8307 3.49567 13.8307 6.76167C13.8307 8.33834 13.3814 10.0317 12.5867 11.4943C11.7934 12.955 10.6347 14.2243 9.18473 14.9023C8.81309 15.0764 8.40775 15.1665 7.9974 15.1665C7.58704 15.1665 7.1817 15.0764 6.81006 14.9023C5.36006 14.2243 4.2014 12.9557 3.40806 11.4943C2.6134 10.0317 2.16406 8.33834 2.16406 6.76167ZM7.9974 1.83301C5.33606 1.83301 3.16406 4.03101 3.16406 6.76167C3.16406 8.15967 3.56606 9.68967 4.28673 11.017C5.00806 12.3457 6.02806 13.433 7.2334 13.9963C7.47241 14.1083 7.73312 14.1664 7.99706 14.1664C8.26101 14.1664 8.52172 14.1083 8.76073 13.9963C9.96673 13.433 10.9867 12.3457 11.7081 11.017C12.4287 9.69034 12.8307 8.15967 12.8307 6.76167C12.8307 4.03101 10.6587 1.83301 7.9974 1.83301ZM7.9974 5.16634C7.80041 5.16634 7.60536 5.20514 7.42337 5.28052C7.24138 5.3559 7.07602 5.46639 6.93674 5.60568C6.79745 5.74497 6.68696 5.91033 6.61158 6.09232C6.53619 6.2743 6.4974 6.46936 6.4974 6.66634C6.4974 6.86332 6.53619 7.05838 6.61158 7.24037C6.68696 7.42236 6.79745 7.58771 6.93674 7.727C7.07602 7.86629 7.24138 7.97678 7.42337 8.05216C7.60536 8.12754 7.80041 8.16634 7.9974 8.16634C8.39522 8.16634 8.77675 8.00831 9.05806 7.727C9.33936 7.4457 9.4974 7.06417 9.4974 6.66634C9.4974 6.26852 9.33936 5.88699 9.05806 5.60568C8.77675 5.32438 8.39522 5.16634 7.9974 5.16634ZM5.4974 6.66634C5.4974 6.0033 5.76079 5.36742 6.22963 4.89857C6.69847 4.42973 7.33435 4.16634 7.9974 4.16634C8.66044 4.16634 9.29632 4.42973 9.76516 4.89857C10.234 5.36742 10.4974 6.0033 10.4974 6.66634C10.4974 7.32938 10.234 7.96527 9.76516 8.43411C9.29632 8.90295 8.66044 9.16634 7.9974 9.16634C7.33435 9.16634 6.69847 8.90295 6.22963 8.43411C5.76079 7.96527 5.4974 7.32938 5.4974 6.66634Z" fill="#875FFF"/>
</svg>
