<svg width="25" height="25" viewBox="0 0 25 25" fill="none" xmlns="http://www.w3.org/2000/svg">
<g clip-path="url(#clip0_4334_1295)">
<path d="M6.63681 10.0027C6.63681 12.5586 8.7162 14.6381 11.2722 14.6381C13.8281 14.6381 15.9077 12.5586 15.9077 10.0027C15.9077 7.44667 13.8281 5.36728 11.2722 5.36728C8.7162 5.36728 6.63681 7.44667 6.63681 10.0027ZM13.9559 10.0027C13.9559 11.4824 12.752 12.6863 11.2722 12.6863C9.79252 12.6863 8.5886 11.4824 8.5886 10.0027C8.5886 8.52299 9.79252 7.31907 11.2722 7.31907C12.752 7.31907 13.9559 8.52299 13.9559 10.0027ZM23.7576 23.6959L21.0342 20.6633C21.5538 19.9419 21.8605 19.0573 21.8605 18.1025C21.8605 15.6809 19.8904 13.711 17.469 13.711C15.0476 13.711 13.0775 15.6809 13.0775 18.1025C13.0775 20.5238 15.0476 22.4937 17.469 22.4937C18.2304 22.4937 18.9472 22.2988 19.5723 21.9564L22.3055 25L23.7576 23.6959ZM15.0293 18.1025C15.0293 16.7572 16.1238 15.6628 17.469 15.6628C18.8143 15.6628 19.9087 16.7572 19.9087 18.1025C19.9087 19.4477 18.8143 20.5421 17.469 20.5421C16.1238 20.5421 15.0293 19.4477 15.0293 18.1025ZM13.5035 23.0494C12.5761 23.9122 11.935 24.4328 11.8855 24.4728L11.2722 24.9681L10.6588 24.4728C10.564 24.3961 8.30956 22.5657 6.02303 19.9404C2.86884 16.3191 1.26953 13.0686 1.26953 10.2793V10.0027C1.26953 4.48723 5.75676 0 11.2722 0C16.7877 0 21.2749 4.48723 21.2749 10.0027V10.2793C21.2749 11.0704 21.1458 11.899 20.8895 12.7626C20.3409 12.41 19.7346 12.1399 19.0884 11.9692C19.2389 11.3976 19.3232 10.8315 19.3232 10.2793V10.0027C19.3232 5.56335 15.7114 1.95179 11.2722 1.95179C6.83289 1.95179 3.22132 5.56335 3.22132 10.0027V10.2793C3.22132 14.9929 9.29451 20.6989 11.2722 22.4318C11.5191 22.2155 11.8298 21.9374 12.1845 21.6068C12.5479 22.1529 12.9934 22.6397 13.5035 23.0494Z" fill="#765BEB"/>
</g>
<defs>
<clipPath id="clip0_4334_1295">
<rect width="25" height="25" fill="white"/>
</clipPath>
</defs>
</svg>
