<svg width="18" height="18" viewBox="0 0 18 18" fill="none" xmlns="http://www.w3.org/2000/svg">
<path fill-rule="evenodd" clip-rule="evenodd" d="M9 5.4375C8.40971 5.4375 7.83437 5.62323 7.3555 5.96838C6.87663 6.31353 6.5185 6.80061 6.33183 7.36061C6.14516 7.92061 6.13942 8.52515 6.31543 9.0886C6.49144 9.65204 6.84026 10.1458 7.3125 10.5V11.25C7.3125 11.9745 7.9005 12.5625 8.625 12.5625H9.375C9.7231 12.5625 10.0569 12.4242 10.3031 12.1781C10.5492 11.9319 10.6875 11.5981 10.6875 11.25V10.5C11.1597 10.1458 11.5086 9.65204 11.6846 9.0886C11.8606 8.52515 11.8548 7.92061 11.6682 7.36061C11.4815 6.80061 11.1234 6.31353 10.6445 5.96838C10.1656 5.62323 9.59029 5.4375 9 5.4375ZM7.3125 8.25C7.31261 7.95377 7.3907 7.66279 7.53892 7.40631C7.68714 7.14983 7.90026 6.93689 8.15686 6.78888C8.41346 6.64087 8.7045 6.56302 9.00073 6.56315C9.29696 6.56328 9.58793 6.64138 9.84441 6.78961C10.1009 6.93784 10.3138 7.15097 10.4618 7.40758C10.6098 7.66419 10.6876 7.95523 10.6875 8.25146C10.6874 8.54769 10.6092 8.83866 10.461 9.09513C10.3128 9.35159 10.0996 9.56452 9.843 9.7125C9.75769 9.76193 9.68686 9.83292 9.63763 9.91835C9.5884 10.0038 9.56249 10.1006 9.5625 10.1993V11.25C9.5625 11.2997 9.54275 11.3474 9.50758 11.3826C9.47242 11.4177 9.42473 11.4375 9.375 11.4375H8.625C8.57527 11.4375 8.52758 11.4177 8.49242 11.3826C8.45725 11.3474 8.4375 11.2997 8.4375 11.25V10.1993C8.43764 10.1005 8.41179 10.0035 8.36255 9.91792C8.31332 9.83235 8.24242 9.76125 8.157 9.71175C7.90028 9.56371 7.68707 9.35067 7.53882 9.09407C7.39058 8.83747 7.31252 8.54635 7.3125 8.25Z" fill="#7B7B7B"/>
<path fill-rule="evenodd" clip-rule="evenodd" d="M9 0.9375C8.29725 0.9375 7.62525 1.16775 6.54225 1.53825L5.997 1.72575C4.88625 2.10525 4.02825 2.39925 3.41475 2.64825C3.10575 2.7735 2.8395 2.89575 2.62575 3.0195C2.4195 3.1395 2.21325 3.28875 2.073 3.489C1.93425 3.68625 1.86225 3.92925 1.81725 4.164C1.77 4.407 1.74225 4.69875 1.7235 5.034C1.6875 5.6985 1.6875 6.6105 1.6875 7.7925V8.99325C1.6875 13.569 5.1435 15.7628 7.1985 16.6613L7.21875 16.6695C7.47375 16.7812 7.71375 16.8855 7.989 16.956C8.27925 17.031 8.58825 17.0625 9 17.0625C9.4125 17.0625 9.72 17.031 10.011 16.956C10.2863 16.8855 10.5262 16.7812 10.7805 16.6695L10.8015 16.6613C12.8565 15.7628 16.3125 13.569 16.3125 8.99325V7.7925C16.3125 6.6105 16.3125 5.6985 16.2765 5.03325C16.2641 4.74153 16.2328 4.45092 16.1827 4.16325C16.1377 3.92925 16.0657 3.68625 15.9277 3.48825C15.7867 3.28875 15.5805 3.1395 15.3743 3.0195C15.1195 2.87887 14.856 2.75487 14.5853 2.64825C13.9718 2.39925 13.1137 2.10525 12.003 1.72575L11.4578 1.53825C10.3748 1.16775 9.70275 0.9375 9 0.9375ZM6.81 2.6355C8.02125 2.2215 8.5065 2.0625 9 2.0625C9.4935 2.0625 9.97875 2.2215 11.19 2.6355L11.619 2.7825C12.7537 3.171 13.581 3.4545 14.1615 3.69C14.4517 3.8085 14.6617 3.9075 14.8095 3.993C14.8815 4.035 14.9335 4.06975 14.9655 4.09725C14.994 4.11975 15.0053 4.13325 15.0068 4.13475C15.0166 4.15239 15.0246 4.17099 15.0308 4.19025C15.0458 4.23125 15.0615 4.29325 15.078 4.37625C15.1195 4.61374 15.1445 4.85381 15.153 5.09475C15.1875 5.7255 15.1875 6.606 15.1875 7.81275V8.99325C15.1875 12.8752 12.285 14.7855 10.3507 15.63C10.0725 15.7515 9.91125 15.8205 9.732 15.8663C9.561 15.9105 9.3525 15.9375 9 15.9375C8.6475 15.9375 8.439 15.9105 8.268 15.8663C8.088 15.8213 7.9275 15.7515 7.64925 15.63C5.71425 14.7855 2.8125 12.8745 2.8125 8.99325V7.81275C2.8125 6.606 2.8125 5.7255 2.847 5.09475C2.85547 4.85381 2.88053 4.61374 2.922 4.37625C2.938 4.29325 2.95375 4.23125 2.96925 4.19025C2.98275 4.15275 2.99175 4.13775 2.99325 4.13475C3.00581 4.121 3.01962 4.10844 3.0345 4.09725C3.0665 4.06975 3.1185 4.03475 3.1905 3.99225C3.33825 3.90675 3.54825 3.8085 3.8385 3.69075C4.419 3.4545 5.24625 3.171 6.381 2.78325L6.81 2.6355Z" fill="#7B7B7B"/>
</svg>
