<svg width="16" height="16" viewBox="0 0 16 16" fill="none" xmlns="http://www.w3.org/2000/svg">
<g clip-path="url(#clip0_3151_16163)">
<path fill-rule="evenodd" clip-rule="evenodd" d="M8.0026 1.83301C6.3671 1.83301 4.79859 2.48271 3.64211 3.63918C2.48564 4.79566 1.83594 6.36417 1.83594 7.99967C1.83594 9.63518 2.48564 11.2037 3.64211 12.3602C4.79859 13.5166 6.3671 14.1663 8.0026 14.1663C9.63811 14.1663 11.2066 13.5166 12.3631 12.3602C13.5196 11.2037 14.1693 9.63518 14.1693 7.99967C14.1693 6.36417 13.5196 4.79566 12.3631 3.63918C11.2066 2.48271 9.63811 1.83301 8.0026 1.83301ZM0.835938 7.99967C0.835938 4.04167 4.0446 0.833008 8.0026 0.833008C11.9606 0.833008 15.1693 4.04167 15.1693 7.99967C15.1693 11.9577 11.9606 15.1663 8.0026 15.1663C4.0446 15.1663 0.835938 11.9577 0.835938 7.99967ZM8.0026 4.83301C8.13521 4.83301 8.26239 4.88569 8.35616 4.97945C8.44992 5.07322 8.5026 5.2004 8.5026 5.33301V7.79301L10.0226 9.31301C10.0717 9.35878 10.1111 9.41398 10.1385 9.47532C10.1658 9.53665 10.1805 9.60286 10.1817 9.66999C10.1828 9.73713 10.1705 9.80381 10.1454 9.86607C10.1202 9.92833 10.0828 9.98489 10.0353 10.0324C9.98782 10.0798 9.93126 10.1173 9.869 10.1424C9.80674 10.1676 9.74006 10.1799 9.67292 10.1787C9.60579 10.1776 9.53958 10.1629 9.47824 10.1355C9.41691 10.1082 9.36171 10.0688 9.31594 10.0197L7.64927 8.35301C7.55548 8.25933 7.50272 8.13224 7.5026 7.99967V5.33301C7.5026 5.2004 7.55528 5.07322 7.64905 4.97945C7.74282 4.88569 7.87 4.83301 8.0026 4.83301Z" fill="#875FFF"/>
</g>
<defs>
<clipPath id="clip0_3151_16163">
<rect width="16" height="16" fill="white"/>
</clipPath>
</defs>
</svg>
