<svg width="24" height="24" viewBox="0 0 24 24" fill="none" xmlns="http://www.w3.org/2000/svg">
<g clip-path="url(#clip0_754_548)">
<path d="M11.8294 11.5609C13.4177 11.5609 14.793 10.9912 15.9167 9.86733C17.0404 8.74362 17.6101 7.36868 17.6101 5.78025C17.6101 4.19237 17.0404 2.81725 15.9165 1.69317C14.7926 0.569639 13.4175 0 11.8294 0C10.241 0 8.86608 0.569639 7.74236 1.69335C6.61865 2.81707 6.04883 4.19218 6.04883 5.78025C6.04883 7.36868 6.61865 8.7438 7.74255 9.86751C8.86644 10.991 10.2416 11.5609 11.8294 11.5609Z" fill="#875FFF"/>
<path d="M21.9435 18.4547C21.9111 17.9871 21.8455 17.477 21.749 16.9383C21.6516 16.3955 21.5262 15.8825 21.376 15.4136C21.2209 14.9289 21.01 14.4502 20.7493 13.9916C20.4786 13.5155 20.1608 13.1009 19.8041 12.7598C19.4311 12.403 18.9744 12.116 18.4463 11.9067C17.9201 11.6985 17.3369 11.5931 16.7131 11.5931C16.4681 11.5931 16.2311 11.6936 15.7736 11.9915C15.492 12.1752 15.1625 12.3876 14.7949 12.6225C14.4805 12.8228 14.0546 13.0105 13.5285 13.1804C13.0153 13.3465 12.4942 13.4307 11.9798 13.4307C11.4655 13.4307 10.9445 13.3465 10.4308 13.1804C9.90524 13.0107 9.47934 12.823 9.16532 12.6227C8.80112 12.39 8.47153 12.1775 8.18571 11.9913C7.72868 11.6934 7.49156 11.5929 7.24656 11.5929C6.62254 11.5929 6.03954 11.6985 5.51347 11.9069C4.98577 12.1158 4.52892 12.4028 4.15557 12.76C3.79907 13.1013 3.48101 13.5157 3.21075 13.9916C2.95019 14.4502 2.73925 14.9287 2.58398 15.4137C2.43402 15.8827 2.30859 16.3955 2.21118 16.9383C2.11468 17.4762 2.04913 17.9865 2.01672 18.4553C1.98486 18.9145 1.96875 19.3911 1.96875 19.8725C1.96875 21.1253 2.367 22.1395 3.15234 22.8875C3.92797 23.6256 4.95427 24.0001 6.20231 24.0001H17.7584C19.0065 24.0001 20.0324 23.6258 20.8082 22.8875C21.5937 22.1401 21.992 21.1257 21.992 19.8723C21.9918 19.3888 21.9755 18.9118 21.9435 18.4547Z" fill="#875FFF"/>
</g>
<defs>
<clipPath id="clip0_754_548">
<rect width="23.9999" height="24" fill="white"/>
</clipPath>
</defs>
</svg>
