<svg width="14" height="18" viewBox="0 0 14 18" fill="none" xmlns="http://www.w3.org/2000/svg">
<path fill-rule="evenodd" clip-rule="evenodd" d="M7.00004 0.9375C6.05521 0.9375 5.14907 1.31283 4.48097 1.98093C3.81288 2.64903 3.43754 3.55517 3.43754 4.5C3.43754 5.44483 3.81288 6.35097 4.48097 7.01907C5.14907 7.68717 6.05521 8.0625 7.00004 8.0625C7.94488 8.0625 8.85101 7.68717 9.51911 7.01907C10.1872 6.35097 10.5625 5.44483 10.5625 4.5C10.5625 3.55517 10.1872 2.64903 9.51911 1.98093C8.85101 1.31283 7.94488 0.9375 7.00004 0.9375ZM4.56254 4.5C4.56254 3.85353 4.81935 3.23355 5.27647 2.77643C5.73359 2.31931 6.35358 2.0625 7.00004 2.0625C7.64651 2.0625 8.26649 2.31931 8.72361 2.77643C9.18073 3.23355 9.43754 3.85353 9.43754 4.5C9.43754 5.14647 9.18073 5.76645 8.72361 6.22357C8.26649 6.68069 7.64651 6.9375 7.00004 6.9375C6.35358 6.9375 5.73359 6.68069 5.27647 6.22357C4.81935 5.76645 4.56254 5.14647 4.56254 4.5ZM7.00004 9.1875C5.26529 9.1875 3.66629 9.582 2.48204 10.248C1.31504 10.905 0.437542 11.8995 0.437542 13.125V13.2015C0.436792 14.073 0.436042 15.1665 1.39529 15.948C1.86704 16.332 2.52779 16.6058 3.42029 16.7858C4.31429 16.9673 5.48054 17.0625 7.00004 17.0625C8.51954 17.0625 9.68504 16.9673 10.5805 16.7858C11.473 16.6058 12.133 16.332 12.6055 15.948C13.5648 15.1665 13.5633 14.073 13.5625 13.2015V13.125C13.5625 11.8995 12.685 10.905 11.5188 10.248C10.3338 9.582 8.73554 9.1875 7.00004 9.1875ZM1.56254 13.125C1.56254 12.4867 2.02904 11.7937 3.03329 11.229C4.02029 10.674 5.42129 10.3125 7.00079 10.3125C8.57879 10.3125 9.97979 10.674 10.9668 11.229C11.9718 11.7937 12.4375 12.4867 12.4375 13.125C12.4375 14.106 12.4075 14.658 11.8945 15.075C11.617 15.3015 11.152 15.5227 10.357 15.6832C9.56429 15.8437 8.48054 15.9375 7.00004 15.9375C5.51954 15.9375 4.43504 15.8437 3.64304 15.6832C2.84804 15.5227 2.38304 15.3015 2.10554 15.0758C1.59254 14.658 1.56254 14.106 1.56254 13.125Z" fill="#7B7B7B"/>
</svg>
