<svg width="16" height="16" viewBox="0 0 16 16" fill="none" xmlns="http://www.w3.org/2000/svg">
<g clip-path="url(#clip0_758_1309)">
<path d="M7.88499 7.70724C8.94383 7.70724 9.86069 7.32749 10.6098 6.57822C11.359 5.82908 11.7387 4.91246 11.7387 3.8535C11.7387 2.79491 11.359 1.87817 10.6097 1.12878C9.86045 0.379759 8.94371 0 7.88499 0C6.82604 0 5.90942 0.379759 5.16027 1.1289C4.41113 1.87804 4.03125 2.79479 4.03125 3.8535C4.03125 4.91246 4.41113 5.8292 5.1604 6.57834C5.90966 7.32736 6.82641 7.70724 7.88499 7.70724Z" fill="#929292"/>
<path d="M14.629 12.3032C14.6074 11.9914 14.5637 11.6513 14.4993 11.2922C14.4344 10.9304 14.3508 10.5883 14.2507 10.2757C14.1473 9.9526 14.0067 9.63351 13.8328 9.32772C13.6524 9.01034 13.4405 8.73397 13.2027 8.50656C12.9541 8.26864 12.6496 8.07736 12.2976 7.93783C11.9467 7.79904 11.5579 7.72873 11.1421 7.72873C10.9787 7.72873 10.8208 7.79575 10.5157 7.99435C10.328 8.11679 10.1084 8.25839 9.86325 8.41501C9.65365 8.54855 9.36972 8.67367 9.01901 8.78695C8.67685 8.89767 8.32944 8.95382 7.98655 8.95382C7.64365 8.95382 7.29636 8.89767 6.95384 8.78695C6.6035 8.67379 6.31956 8.54867 6.11021 8.41513C5.86741 8.25998 5.64769 8.11838 5.45714 7.99423C5.15245 7.79562 4.99437 7.72861 4.83104 7.72861C4.41503 7.72861 4.02636 7.79904 3.67565 7.93796C3.32384 8.07724 3.01928 8.26852 2.77038 8.50668C2.53271 8.73422 2.32067 9.01046 2.1405 9.32772C1.96679 9.63351 1.82617 9.95248 1.72265 10.2758C1.62268 10.5885 1.53906 10.9304 1.47412 11.2922C1.40979 11.6508 1.36609 11.991 1.34448 12.3035C1.32324 12.6097 1.3125 12.9274 1.3125 13.2484C1.3125 14.0836 1.578 14.7597 2.10156 15.2584C2.61865 15.7504 3.30285 16.0001 4.13488 16.0001H11.8389C12.671 16.0001 13.3549 15.7505 13.8721 15.2584C14.3958 14.7601 14.6613 14.0838 14.6613 13.2482C14.6612 12.9259 14.6503 12.6079 14.629 12.3032Z" fill="#929292"/>
</g>
<defs>
<clipPath id="clip0_758_1309">
<rect width="15.9999" height="16" fill="white"/>
</clipPath>
</defs>
</svg>
