<svg width="18" height="18" viewBox="0 0 18 18" fill="none" xmlns="http://www.w3.org/2000/svg">
<path d="M14.25 9C14.25 9.19891 14.171 9.38968 14.0303 9.53033C13.8897 9.67098 13.6989 9.75 13.5 9.75C13.3011 9.75 13.1103 9.67098 12.9697 9.53033C12.829 9.38968 12.75 9.19891 12.75 9C12.75 8.80109 12.829 8.61032 12.9697 8.46967C13.1103 8.32902 13.3011 8.25 13.5 8.25C13.6989 8.25 13.8897 8.32902 14.0303 8.46967C14.171 8.61032 14.25 8.80109 14.25 9Z" fill="#7B7B7B"/>
<path fill-rule="evenodd" clip-rule="evenodd" d="M7.458 2.4375H9.792C11.1705 2.4375 12.2625 2.4375 13.1168 2.55225C13.9958 2.67075 14.7075 2.91975 15.2692 3.48075C15.9622 4.1745 16.1835 5.103 16.2638 6.30825C16.6965 6.498 17.0235 6.90075 17.0588 7.41075C17.0625 7.4565 17.0625 7.50525 17.0625 7.55025V10.4497C17.0625 10.4948 17.0625 10.5435 17.0595 10.5885C17.0235 11.0985 16.6965 11.502 16.2638 11.6925C16.1835 12.897 15.9622 13.8255 15.2692 14.5192C14.7075 15.0802 13.9958 15.3293 13.1168 15.4478C12.2618 15.5625 11.1705 15.5625 9.792 15.5625H7.458C6.0795 15.5625 4.9875 15.5625 4.13325 15.4478C3.25425 15.3293 2.5425 15.0802 1.98075 14.5192C1.41975 13.9575 1.17075 13.2458 1.05225 12.3668C0.9375 11.5118 0.9375 10.4205 0.9375 9.042V8.958C0.9375 7.5795 0.9375 6.4875 1.05225 5.63325C1.17075 4.75425 1.41975 4.0425 1.98075 3.48075C2.5425 2.91975 3.25425 2.67075 4.13325 2.55225C4.98825 2.4375 6.0795 2.4375 7.458 2.4375ZM15.126 11.8125H13.6725C12.0637 11.8125 10.6867 10.5915 10.6867 9C10.6867 7.4085 12.0638 6.1875 13.6718 6.1875H15.1252C15.0398 5.18175 14.847 4.65 14.4728 4.2765C14.1555 3.95925 13.7205 3.76875 12.966 3.6675C12.1958 3.564 11.1795 3.5625 9.74925 3.5625H7.49925C6.069 3.5625 5.0535 3.564 4.28175 3.6675C3.528 3.76875 3.093 3.95925 2.77575 4.2765C2.4585 4.59375 2.26875 5.02875 2.1675 5.7825C2.064 6.5535 2.0625 7.569 2.0625 8.99925C2.0625 10.4295 2.064 11.4457 2.1675 12.2167C2.26875 12.9705 2.45925 13.4055 2.7765 13.7228C3.09375 14.04 3.52875 14.2305 4.28325 14.3317C5.05425 14.4352 6.06975 14.4368 7.5 14.4368H9.75C11.1803 14.4368 12.1965 14.4352 12.9675 14.3317C13.7213 14.2305 14.1562 14.04 14.4735 13.7228C14.8478 13.3493 15.0405 12.8182 15.126 11.8117M3.9375 6C3.9375 5.85082 3.99676 5.70774 4.10225 5.60225C4.20774 5.49676 4.35082 5.4375 4.5 5.4375H7.5C7.64918 5.4375 7.79226 5.49676 7.89775 5.60225C8.00324 5.70774 8.0625 5.85082 8.0625 6C8.0625 6.14918 8.00324 6.29226 7.89775 6.39775C7.79226 6.50324 7.64918 6.5625 7.5 6.5625H4.5C4.35082 6.5625 4.20774 6.50324 4.10225 6.39775C3.99676 6.29226 3.9375 6.14918 3.9375 6ZM15.693 7.3125H13.6725C12.6045 7.3125 11.8117 8.10675 11.8117 9C11.8117 9.89325 12.6045 10.6875 13.6718 10.6875H15.7103C15.8647 10.6777 15.9315 10.5735 15.9368 10.5105V7.4895C15.9315 7.4265 15.8647 7.32225 15.7103 7.31325L15.693 7.3125Z" fill="#7B7B7B"/>
</svg>
