<svg xmlns="http://www.w3.org/2000/svg" width="36" height="36" fill="none" viewBox="0 0 36 36">
  <g clip-path="url(#a)">
    <path fill="#765BEB" fill-rule="evenodd" d="M12 25.8H3.6a.6.6 0 1 0 0 1.2H12a.6.6 0 1 0 0-1.2Zm0 2.4H3.6a.6.6 0 1 0 0 1.2H12a.6.6 0 1 0 0-1.2Z" clip-rule="evenodd"/>
    <path fill="#765BEB" d="M34.8 12h-8.4V1.8A1.8 1.8 0 0 0 24.6 0h-18a.67.67 0 0 0-.424.176l-6 6A.656.656 0 0 0 0 6.6v24a1.8 1.8 0 0 0 1.8 1.8h17.567a1.187 1.187 0 0 0-.167.6v1.8a1.2 1.2 0 0 0 1.2 1.2h14.4a1.2 1.2 0 0 0 1.2-1.2V33a1.196 1.196 0 0 0-.622-1.045A11.108 11.108 0 0 0 31.063 24a11.108 11.108 0 0 0 4.315-7.955c.382-.209.62-.61.622-1.045v-1.8a1.2 1.2 0 0 0-1.2-1.2ZM6 2.048V5.4a.6.6 0 0 1-.6.6H2.048L6 2.048ZM14.4 29.4h5.936c-.188.588-.33 1.19-.424 1.8H1.8a.6.6 0 0 1-.6-.6V7.2h4.2a1.8 1.8 0 0 0 1.8-1.8V1.2h17.4a.6.6 0 0 1 .6.6V12h-1.553c-.018-.019-.032-.04-.05-.06L21.6 10.157V6a1.2 1.2 0 0 0-1.2-1.2h-1.8A1.2 1.2 0 0 0 17.4 6v.4l-3.404-3.044a1.194 1.194 0 0 0-1.592 0l-9.6 8.589a1.231 1.231 0 0 0-.108 1.704l.791.931c.322.38.845.52 1.313.35v7.27A1.8 1.8 0 0 0 6.6 24h13.2a1.8 1.8 0 0 0 1.8-1.8v-.913A10.417 10.417 0 0 0 24.137 24a10.415 10.415 0 0 0-1.87 1.8H14.4a.6.6 0 1 0 0 1.2h7.026c-.234.387-.444.788-.63 1.2H14.4a.6.6 0 1 0 0 1.2Zm0-13.2H12a1.8 1.8 0 0 0-1.8 1.8v4.8H6.6a.6.6 0 0 1-.6-.6v-8.224l7.2-6.445 6.034 5.4A13.36 13.36 0 0 0 19.2 15c.002.436.24.836.622 1.045.08.936.274 1.858.578 2.747V22.2a.6.6 0 0 1-.6.6h-3.6V18a1.8 1.8 0 0 0-1.8-1.8ZM15 18v4.8h-3.6V18a.6.6 0 0 1 .6-.6h2.4a.6.6 0 0 1 .6.6Zm5.058-5.944L13.6 6.279a.6.6 0 0 0-.8 0L4.399 13.8l-.795-.96 9.592-8.589 4.38 3.91.009.007 2.977 2.659c.019.02.039.039.06.056L21.872 12H20.4c-.116.002-.231.02-.342.056ZM18.6 7.474V6h1.8v3.084l-1.8-1.61ZM34.8 34.8H20.4V33h14.4v1.8Zm-5.118-11.309a.6.6 0 0 0 0 1.02 9.953 9.953 0 0 1 4.472 7.289H21.046a9.953 9.953 0 0 1 4.472-7.291.6.6 0 0 0 0-1.02 9.953 9.953 0 0 1-4.472-7.289h13.108a9.953 9.953 0 0 1-4.472 7.291ZM34.8 15H20.4v-1.8h14.4V15Z"/>
    <path fill="#765BEB" d="M27.918 24.821a.6.6 0 0 0-.636 0l-1.128.705a8.332 8.332 0 0 0-3.42 4.269.6.6 0 0 0 .566.805h8.6a.6.6 0 0 0 .564-.805 8.321 8.321 0 0 0-3.42-4.269l-1.126-.705Zm3.075 4.579h-6.786a6.956 6.956 0 0 1 2.583-2.856l.81-.504.81.506a6.945 6.945 0 0 1 2.583 2.854Zm-6.783-8.617a8.113 8.113 0 0 0 1.945 1.692l1.128.702a.6.6 0 0 0 .633 0l1.13-.702a8.12 8.12 0 0 0 1.943-1.692.608.608 0 0 0-.462-.983h-5.855a.61.61 0 0 0-.462.983Zm4.84.217a7.169 7.169 0 0 1-.64.456l-.81.504-.81-.504a7.128 7.128 0 0 1-.64-.456h2.9Z"/>
  </g>
  <defs>
    <clipPath id="a">
      <path fill="#fff" d="M0 0h36v36H0z"/>
    </clipPath>
  </defs>
</svg>
