<svg xmlns="http://www.w3.org/2000/svg" width="40" height="40" fill="none" viewBox="0 0 40 40">
  <path fill="#765BEB" d="M5.333 16.593v8.08a2 2 0 0 0 2 2h14.666a2 2 0 0 0 2-2V16.59a1.32 1.32 0 0 0 1.458-.388l.883-1.033a1.37 1.37 0 0 0-.125-1.898l-2.216-1.983v-4.62c0-.737-.597-1.334-1.333-1.334h-2c-.737 0-1.334.597-1.334 1.334v.443l-3.78-3.385a1.328 1.328 0 0 0-1.772 0L3.117 13.27a1.37 1.37 0 0 0-.125 1.898l.883 1.036c.357.421.938.576 1.458.389Zm11.333 8.747h-4v-5.335c0-.368.298-.667.666-.667H16c.368 0 .667.299.667.667v5.335Zm6-.667a.667.667 0 0 1-.667.667h-4v-5.335a2 2 0 0 0-2-2h-2.667a2 2 0 0 0-2 2v5.335h-4a.667.667 0 0 1-.666-.667V15.53l8-7.162 8 7.162v9.142Zm-2-18.005h2v3.427l-2-1.79V6.668Zm-6-1.947 10.666 9.582-.883 1.034-9.339-8.36a.666.666 0 0 0-.889 0l-9.333 8.36-.882-1.067 10.66-9.55Z"/>
  <path fill="#765BEB" d="M31.332 22.673a8.643 8.643 0 0 0-2 .242V2a2 2 0 0 0-2-2.001H7.334a.743.743 0 0 0-.471.195L.195 6.864A.74.74 0 0 0 0 7.335V34.01a2 2 0 0 0 2 2h22.04a8.661 8.661 0 0 0 15.803-6.31 8.663 8.663 0 0 0-8.51-7.027ZM6.666 2.277v3.725A.667.667 0 0 1 6 6.668H2.276l4.39-4.391ZM2 34.677a.667.667 0 0 1-.667-.668V8.002H6a2 2 0 0 0 2-2V1.334h19.333c.368 0 .666.298.666.667V23.34a8.709 8.709 0 0 0-4.909 5.334H16a.667.667 0 0 0 0 1.334h6.78a8.64 8.64 0 0 0-.114 1.334h-6.667a.667.667 0 0 0 0 1.334h6.78c.104.686.29 1.358.554 2H2Zm29.332 4A7.334 7.334 0 0 1 24 31.342a7.334 7.334 0 1 1 14.667 0 7.343 7.343 0 0 1-7.334 7.335Z"/>
  <path fill="#765BEB" d="M34.666 29.341h-1.333v-1.334a2 2 0 1 0-4 0v1.334H28a2 2 0 0 0 0 4.001h1.333v1.334a2 2 0 1 0 4 0v-1.334h1.333a2 2 0 0 0 0-4Zm0 2.667h-2a.667.667 0 0 0-.666.667v2a.667.667 0 1 1-1.334 0v-2A.667.667 0 0 0 30 32.01h-2a.667.667 0 0 1 0-1.334h2a.667.667 0 0 0 .666-.667v-2a.667.667 0 1 1 1.334 0v2c0 .368.298.667.666.667h2a.667.667 0 0 1 0 1.333Z"/>
  <path fill="#765BEB" fill-rule="evenodd" d="M13.333 28.674H4a.667.667 0 0 0 0 1.334h9.333a.667.667 0 0 0 0-1.334Zm0 2.667H4a.667.667 0 0 0 0 1.334h9.333a.667.667 0 0 0 0-1.334Z" clip-rule="evenodd"/>
</svg>
