<svg xmlns="http://www.w3.org/2000/svg" width="40" height="40" fill="none" viewBox="0 0 40 40">
  <g clip-path="url(#a)">
    <path fill="#765BEB" d="M1.967 30.82h16.585a10.503 10.503 0 1 0 6.366-11.687V1.967C24.918.881 24.038 0 22.951 0H5.246a.736.736 0 0 0-.46.19L.197 4.78A.717.717 0 0 0 0 5.246v23.607c0 1.086.88 1.967 1.967 1.967Zm26.885-11.148a9.18 9.18 0 1 1-9.18 9.18 9.19 9.19 0 0 1 9.18-9.18ZM4.59 2.24v1.695a.656.656 0 0 1-.656.656H2.24L4.59 2.24ZM1.311 5.902h2.623a1.968 1.968 0 0 0 1.968-1.968V1.311H22.95c.362 0 .656.294.656.656V19.78a10.556 10.556 0 0 0-2.354 1.86H13.77a.656.656 0 1 0 0 1.31h6.414c-.282.42-.534.858-.752 1.312H13.77a.656.656 0 1 0 0 1.312h5.121a10.432 10.432 0 0 0-.531 3.278c0 .222.02.439.033.656H1.967a.656.656 0 0 1-.656-.655V5.901Z"/>
    <path fill="#765BEB" d="M5.075 11.98c.21.251.504.415.827.46v5.92c0 1.087.88 1.968 1.967 1.968h9.18a1.967 1.967 0 0 0 1.967-1.968v-5.92c.323-.046.618-.21.827-.46l.84-1.015a1.308 1.308 0 0 0-.186-1.851l-1.48-1.196V4.59c0-.724-.588-1.312-1.312-1.312h-1.312c-.724 0-1.311.588-1.311 1.312v.147l-1.79-1.448a1.333 1.333 0 0 0-1.666 0L4.421 9.115a1.308 1.308 0 0 0-.186 1.85l.84 1.016Zm8.695 7.036h-2.622v-3.278c0-.363.293-.656.655-.656h1.312c.362 0 .655.293.655.655v3.28Zm3.935-.656a.656.656 0 0 1-.656.656h-1.967v-3.278c0-1.087-.88-1.968-1.967-1.968h-1.312a1.968 1.968 0 0 0-1.967 1.968v3.278H7.87a.656.656 0 0 1-.656-.656v-6.426l5.246-4.16 5.246 4.16v6.426ZM16.393 4.59h1.312v2.267l-1.312-1.06V4.59Zm-3.926-.281 7.205 5.82-.84 1.018a.018.018 0 0 1-.014 0c-.004-.004-.01-.006-.015-.01l-5.937-4.711a.656.656 0 0 0-.814 0l-5.966 4.721-.84-1.012 7.22-5.826Zm9.173 25.855a1.956 1.956 0 0 0 .576 1.39l2.623 2.624c.745.744 1.944.77 2.72.059l7.869-7.213a1.967 1.967 0 1 0-2.658-2.901l-6.48 5.94-1.292-1.291a2.015 2.015 0 0 0-2.782 0c-.37.369-.578.87-.576 1.392Zm1.503-.463a.656.656 0 0 1 .927 0l1.736 1.735a.656.656 0 0 0 .906.02l6.943-6.365a.656.656 0 0 1 .887.966l-7.869 7.213a.672.672 0 0 1-.906-.02l-2.623-2.623a.656.656 0 0 1 0-.927Z"/>
    <path fill="#765BEB" fill-rule="evenodd" d="M3.279 22.951h7.869a.656.656 0 1 0 0-1.311h-7.87a.656.656 0 0 0 0 1.311Zm0 2.623h7.869a.656.656 0 1 0 0-1.311h-7.87a.656.656 0 0 0 0 1.311Zm0 2.622h7.869a.656.656 0 1 0 0-1.311h-7.87a.656.656 0 1 0 0 1.311Z" clip-rule="evenodd"/>
  </g>
  <defs>
    <clipPath id="a">
      <path fill="#fff" d="M0 0h40v40H0z"/>
    </clipPath>
  </defs>
</svg>
