<svg xmlns="http://www.w3.org/2000/svg" width="81" height="81" fill="none" viewBox="0 0 81 81">
  <path fill="#AB0053" d="M5.063 32.906v32.907a3.797 3.797 0 0 0 3.796 3.796h24.047v-2.53H8.86a1.265 1.265 0 0 1-1.265-1.266V32.906H5.062Zm2.531-13.922h65.812V60.75h2.531V10.125a3.797 3.797 0 0 0-3.796-3.797h-8.86V3.797a1.266 1.266 0 0 0-1.265-1.266h-5.063a1.266 1.266 0 0 0-1.266 1.266v2.531H25.314V3.797a1.265 1.265 0 0 0-1.266-1.266h-5.063a1.266 1.266 0 0 0-1.265 1.266v2.531H8.86a3.797 3.797 0 0 0-3.796 3.797v15.188h2.53v-6.329ZM58.219 5.062h2.531v5.063h-2.531V5.062Zm-37.969 0h2.531v5.063H20.25V5.062ZM7.594 10.125a1.266 1.266 0 0 1 1.265-1.266h8.86v2.532a1.266 1.266 0 0 0 1.265 1.265h5.063a1.266 1.266 0 0 0 1.265-1.265V8.859h30.375v2.532a1.266 1.266 0 0 0 1.266 1.265h5.063a1.266 1.266 0 0 0 1.265-1.265V8.859h8.86a1.266 1.266 0 0 1 1.265 1.266v6.328H7.594v-6.328Z"/>
  <path fill="#AB0053" d="M36.703 24.047H29.11a1.266 1.266 0 0 0-1.265 1.265v7.594a1.266 1.266 0 0 0 1.265 1.266h7.594a1.266 1.266 0 0 0 1.266-1.266v-7.593a1.266 1.266 0 0 0-1.266-1.266Zm-1.266 7.594h-5.062v-5.063h5.063v5.063ZM13.922 48.094h7.594a1.266 1.266 0 0 0 1.265-1.266v-7.594a1.266 1.266 0 0 0-1.265-1.265h-7.594a1.266 1.266 0 0 0-1.266 1.265v7.594a1.266 1.266 0 0 0 1.266 1.266Zm1.265-7.594h5.063v5.063h-5.063V40.5Zm-2.531 20.25a1.266 1.266 0 0 0 1.266 1.266h7.594a1.266 1.266 0 0 0 1.265-1.266v-7.594a1.266 1.266 0 0 0-1.265-1.265h-7.594a1.266 1.266 0 0 0-1.266 1.265v7.594Zm2.531-6.328h5.063v5.062h-5.063v-5.062Zm29.11-20.25h7.594a1.266 1.266 0 0 0 1.265-1.266v-7.593a1.266 1.266 0 0 0-1.265-1.266h-7.594a1.266 1.266 0 0 0-1.266 1.265v7.594a1.266 1.266 0 0 0 1.266 1.266Zm1.266-7.594h5.062v5.063h-5.063v-5.063Zm13.921 7.594h7.594a1.266 1.266 0 0 0 1.266-1.266v-7.593a1.266 1.266 0 0 0-1.266-1.266h-7.594a1.266 1.266 0 0 0-1.265 1.265v7.594a1.266 1.266 0 0 0 1.265 1.266Zm1.266-7.594h5.063v5.063H60.75v-5.063Zm-32.906 20.25a1.266 1.266 0 0 0 1.265 1.266h7.594a1.266 1.266 0 0 0 1.266-1.266v-7.594a1.266 1.266 0 0 0-1.266-1.265H29.11a1.266 1.266 0 0 0-1.265 1.265v7.594Zm2.531-6.328h5.063v5.063h-5.063V40.5Zm12.656 6.328a1.266 1.266 0 0 0 1.266 1.266h7.594a1.266 1.266 0 0 0 1.265-1.266v-7.594a1.266 1.266 0 0 0-1.265-1.265h-7.594a1.266 1.266 0 0 0-1.266 1.265v7.594Zm2.532-6.328h5.062v5.063h-5.063V40.5Zm12.656 6.328a1.266 1.266 0 0 0 1.265 1.266h7.594a1.266 1.266 0 0 0 1.266-1.266v-7.594a1.266 1.266 0 0 0-1.266-1.265h-7.594a1.266 1.266 0 0 0-1.265 1.265v7.594ZM60.75 40.5h5.063v5.063H60.75V40.5ZM41.98 60.335v.288a8.77 8.77 0 0 0-1.574.878l-.33-.183a2.169 2.169 0 0 0-2.911.767l-1.425 2.362a2.068 2.068 0 0 0-.232 1.617 2.137 2.137 0 0 0 1.028 1.308l.273.15a7.993 7.993 0 0 0 0 1.656l-.273.15a2.137 2.137 0 0 0-1.028 1.308 2.07 2.07 0 0 0 .23 1.616l1.428 2.364a2.166 2.166 0 0 0 2.911.76l.329-.181c.493.345 1.02.639 1.573.877v.282a2.14 2.14 0 0 0 2.156 2.115h2.855a2.139 2.139 0 0 0 2.151-2.116v-.282a8.77 8.77 0 0 0 1.574-.878l.33.183a2.169 2.169 0 0 0 2.91-.767l1.426-2.362a2.069 2.069 0 0 0 .231-1.618 2.137 2.137 0 0 0-1.027-1.307l-.273-.15a7.992 7.992 0 0 0 0-1.656l.273-.15a2.136 2.136 0 0 0 1.027-1.308 2.07 2.07 0 0 0-.23-1.616l-1.427-2.364a2.166 2.166 0 0 0-2.911-.76l-.33.181a8.868 8.868 0 0 0-1.573-.877v-.282a2.139 2.139 0 0 0-2.151-2.121h-2.855a2.139 2.139 0 0 0-2.156 2.116Zm2.53.57v-.155h2.104v.156a2.136 2.136 0 0 0 1.374 1.97c.495.198.963.458 1.393.774a2.222 2.222 0 0 0 2.37.167l.225-.127 1.013 1.67-.127.073a2.098 2.098 0 0 0-1.082 2.116c.036.263.051.53.047.795 0 .265-.019.53-.057.792a2.094 2.094 0 0 0 1.08 2.116l.126.075-1.012 1.67-.225-.127a2.225 2.225 0 0 0-2.375.17 6.27 6.27 0 0 1-1.392.77 2.136 2.136 0 0 0-1.375 1.97v.158H44.51v-.156a2.137 2.137 0 0 0-1.374-1.97 6.307 6.307 0 0 1-1.392-.772 2.219 2.219 0 0 0-2.373-.169l-.226.127-1.012-1.67.127-.073a2.1 2.1 0 0 0 1.082-2.116 5.293 5.293 0 0 1-.045-.795c0-.265.019-.53.057-.792a2.094 2.094 0 0 0-1.08-2.117l-.132-.074 1.012-1.67.226.127a2.214 2.214 0 0 0 2.374-.17c.43-.315.897-.574 1.392-.77a2.137 2.137 0 0 0 1.364-1.972Z"/>
  <path fill="#AB0053" d="M45.563 72.14a3.797 3.797 0 1 0 0-7.593 3.797 3.797 0 0 0 0 7.594Zm0-5.062a1.266 1.266 0 1 1 0 2.532 1.266 1.266 0 0 1 0-2.532ZM13.922 32.906a1.265 1.265 0 0 0 1.917 1.085l6.328-3.797a1.266 1.266 0 0 0 0-2.17l-6.328-3.796a1.266 1.266 0 0 0-1.917 1.084v2.531H2.532v2.532h11.39v2.531Zm2.531-5.359 2.604 1.562-2.604 1.562v-3.124ZM67.72 73.242a1.265 1.265 0 0 0 1.276-.017l6.328-3.797a1.266 1.266 0 0 0 0-2.17l-6.328-3.796a1.265 1.265 0 0 0-1.918 1.085v2.53h-8.86v2.532h8.86v2.531a1.265 1.265 0 0 0 .642 1.102Zm1.89-6.46 2.603 1.562-2.604 1.561v-3.123Z"/>
</svg>
