<svg fill="#AB0053" enable-background="new 0 0 512 512" height="512" viewBox="0 0 512 512" width="512" xmlns="http://www.w3.org/2000/svg"><g id="_x34_5_x2C__check_in_x2C__time_x2C__login_x2C__location_x2C__pin"><g><path d="m471 501h-430c-22.056 0-40-17.944-40-40v-370c0-22.056 17.944-40 40-40h30c5.522 0 10 4.478 10 10v19.523c0 5.587 4.32 10.284 9.632 10.47 5.658.216 10.368-4.306 10.368-9.993v-20c0-5.522 4.478-10 10-10h70c5.523 0 10 4.478 10 10v19.523c0 5.587 4.32 10.284 9.632 10.47 5.614.215 10.368-4.268 10.368-9.993v-20c0-5.522 4.477-10 10-10h70c5.522 0 10 4.478 10 10v19.523c0 5.587 4.32 10.284 9.632 10.47 5.614.214 10.368-4.267 10.368-9.993v-20c0-5.522 4.478-10 10-10h70c5.522 0 10 4.478 10 10v19.523c0 5.587 4.32 10.284 9.632 10.47 5.614.215 10.368-4.268 10.368-9.993v-20c0-5.522 4.478-10 10-10h30c22.056 0 40 17.944 40 40v370c0 22.056-17.944 40-40 40zm-430-430c-11.028 0-20 8.972-20 20v370c0 11.028 8.972 20 20 20h430c11.028 0 20-8.972 20-20v-370c0-11.028-8.972-20-20-20h-20v10c0 17.007-14.053 30.567-31.068 29.981-16.224-.568-28.932-13.947-28.932-30.458v-9.523h-50v10c0 16.954-13.996 30.57-31.068 29.981-16.224-.568-28.932-13.947-28.932-30.458v-9.523h-50v10c0 16.885-13.93 30.571-31.068 29.981-16.224-.568-28.932-13.947-28.932-30.458v-9.523h-50v10c0 16.969-14.009 30.569-31.068 29.981-16.224-.568-28.932-13.947-28.932-30.458v-9.523z"/><path d="m501 171h-490c-5.523 0-10-4.477-10-10s4.477-10 10-10h490c5.522 0 10 4.477 10 10s-4.478 10-10 10z"/><path d="m421 111c-16.542 0-30-13.458-30-30v-40c0-16.542 13.458-30 30-30 16.576 0 30 13.425 30 30v40c0 16.542-13.458 30-30 30zm0-80c-5.514 0-10 4.486-10 10v40c0 5.514 4.486 10 10 10s10-4.486 10-10v-40c0-2.668-1.041-5.178-2.932-7.068-1.89-1.891-4.4-2.932-7.068-2.932z"/><path d="m311 111c-16.542 0-30-13.458-30-30v-40c0-16.542 13.458-30 30-30 16.576 0 30 13.425 30 30v40c0 16.542-13.458 30-30 30zm0-80c-5.514 0-10 4.486-10 10v40c0 5.514 4.486 10 10 10s10-4.486 10-10v-40c0-5.519-4.479-10-10-10z"/><path d="m201 111c-16.542 0-30-13.458-30-30v-40c0-16.542 13.458-30 30-30 16.576 0 30 13.425 30 30v40c0 16.542-13.458 30-30 30zm0-80c-5.514 0-10 4.486-10 10v40c0 5.514 4.486 10 10 10s10-4.486 10-10v-40c0-5.519-4.479-10-10-10z"/><path d="m91 111c-16.542 0-30-13.458-30-30v-40c0-16.542 13.458-30 30-30 16.576 0 30 13.425 30 30v40c0 16.542-13.458 30-30 30zm0-80c-5.514 0-10 4.486-10 10v40c0 5.514 4.486 10 10 10s10-4.486 10-10v-40c0-5.519-4.479-10-10-10z"/><path d="m111 301h-40c-5.522 0-10-4.478-10-10v-80c0-5.523 4.478-10 10-10h40c5.522 0 10 4.477 10 10s-4.478 10-10 10h-30v60h30c5.522 0 10 4.478 10 10s-4.478 10-10 10z"/><path d="m361 301h-40c-5.522 0-10-4.478-10-10v-80c0-5.523 4.478-10 10-10h40c5.522 0 10 4.477 10 10s-4.478 10-10 10h-30v60h30c5.522 0 10 4.478 10 10s-4.478 10-10 10z"/><path d="m151 301c-5.523 0-10-4.478-10-10v-80c0-5.523 4.477-10 10-10s10 4.477 10 10v80c0 5.522-4.477 10-10 10z"/><path d="m201 301c-5.523 0-10-4.478-10-10v-80c0-5.523 4.477-10 10-10s10 4.477 10 10v80c0 5.522-4.477 10-10 10z"/><path d="m201 261h-50c-5.523 0-10-4.478-10-10 0-5.523 4.477-10 10-10h50c5.523 0 10 4.477 10 10 0 5.522-4.477 10-10 10z"/><path d="m281 301h-40c-5.523 0-10-4.478-10-10v-80c0-5.523 4.477-10 10-10h40c5.522 0 10 4.477 10 10s-4.478 10-10 10h-30v60h30c5.522 0 10 4.478 10 10s-4.478 10-10 10z"/><path d="m281 261h-40c-5.523 0-10-4.478-10-10 0-5.523 4.477-10 10-10h40c5.522 0 10 4.477 10 10 0 5.522-4.478 10-10 10z"/><path d="m401 301c-5.522 0-10-4.478-10-10v-80c0-5.523 4.478-10 10-10s10 4.477 10 10v80c0 5.522-4.478 10-10 10z"/><path d="m433.191 297.247-40-50c-3.45-4.313-2.751-10.605 1.561-14.056 4.315-3.449 10.607-2.75 14.056 1.561l40 50c3.45 4.313 2.751 10.605-1.561 14.056-4.294 3.435-10.589 2.77-14.056-1.561z"/><path d="m394.753 268.809c-4.313-3.45-5.012-9.743-1.561-14.056l40-50c3.449-4.311 9.743-5.013 14.056-1.561 4.313 3.45 5.012 9.743 1.561 14.056l-40 50c-3.459 4.324-9.757 5.001-14.056 1.561z"/><path d="m71 441c-5.522 0-10-4.478-10-10v-80c0-5.522 4.478-10 10-10s10 4.478 10 10v80c0 5.522-4.478 10-10 10z"/><path d="m152.52 436.3-31.52-50.432v45.132c0 5.522-4.478 10-10 10s-10-4.478-10-10v-80c0-4.461 2.955-8.383 7.243-9.612s8.872.529 11.237 4.313l31.52 50.431v-45.132c0-5.522 4.477-10 10-10s10 4.478 10 10v80c0 4.461-2.955 8.383-7.243 9.612-4.287 1.229-8.871-.526-11.237-4.312z"/><path d="m243.929 448.071-50-50c-3.905-3.905-3.905-10.237 0-14.143l50-50c2.86-2.859 7.161-3.714 10.898-2.168 3.736 1.548 6.173 5.194 6.173 9.239v20h180c5.522 0 10 4.478 10 10v40c0 5.522-4.478 10-10 10h-180v20c0 4.045-2.436 7.691-6.173 9.239-3.738 1.547-8.038.693-10.898-2.167zm-28.786-57.071 25.857 25.857v-5.857c0-5.522 4.477-10 10-10h180v-20h-180c-5.523 0-10-4.478-10-10v-5.857z"/></g></g></svg>