<svg fill="#AB0053" height="512" viewBox="0 0 61 61" width="512" xmlns="http://www.w3.org/2000/svg">
    <g id="Page-1" fill="none" fill-rule="evenodd">
        <g id="010---Housing-Document-Approval" fill="#AB0053">
            <g fill="#AB0053" fill-rule="nonzero">
                <path fill="#AB0053" id="Shape"
                      d="m3 47h25.292c1.2605928 6.6504027 6.5656809 11.7904281 13.2525949 12.840253s13.3118859-2.2172178 16.5497852-8.1613712c3.2378993-5.9441533 2.3896328-13.2820185-2.119047-18.3306576-4.5086799-5.0486391-11.7043067-6.7180033-17.9753331-4.1702242v-26.178c0-1.65685425-1.3431458-3-3-3h-27c-.25990155.01257293-.50735299.11508853-.7.29l-7 7c-.18289899.19238492-.28953458.44475582-.3.71v36c0 1.6568542 1.34314575 3 3 3zm41-17c7.7319865 0 14 6.2680135 14 14s-6.2680135 14-14 14-14-6.2680135-14-14c.0082673-7.7285595 6.2714405-13.9917327 14-14zm-37-26.586v2.586c0 .55228475-.44771525 1-1 1h-2.586zm-5 5.586h4c1.65685425 0 3-1.34314575 3-3v-4h26c.5522847 0 1 .44771525 1 1v27.165c-1.3251479.7693939-2.5336725 1.7240239-3.589 2.835h-11.411c-.5522847 0-1 .4477153-1 1s.4477153 1 1 1h9.782c-.4303567.6379516-.813703 1.3063846-1.147 2h-8.635c-.5522847 0-1 .4477153-1 1s.4477153 1 1 1h7.811c-.5355632 1.6126747-.8093645 3.3007222-.811 5 0 .338.03.668.051 1h-25.051c-.55228475 0-1-.4477153-1-1z"/>
                <path fill="#AB0053" id="Shape"
                      d="m7.74 18.271c.31839797.3818293.76759503.6313833 1.26.7v9.029c0 1.6568542 1.3431458 3 3 3h14c1.6568542 0 3-1.3431458 3-3v-9.03c.492405-.0686167.941602-.3181707 1.26-.7l1.282-1.548c.3398661-.4107109.5011208-.9404115.4477595-1.4708311-.0533614-.5304196-.316895-1.0173856-.7317595-1.3521689l-2.258-1.824v-5.075c0-1.1045695-.8954305-2-2-2h-2c-1.1045695 0-2 .8954305-2 2v.224l-2.731-2.208c-.7423003-.59345309-1.7966997-.59345309-2.539 0l-10.988 8.884c-.41486447.3347833-.67839809.8217493-.73175947 1.3521689-.05336137.5304196.10789335 1.0601202.44775947 1.4708311zm13.26 10.729h-4v-5c0-.5522847.4477153-1 1-1h2c.5522847 0 1 .4477153 1 1zm6-1c0 .5522847-.4477153 1-1 1h-3v-5c0-1.6568542-1.3431458-3-3-3h-2c-1.6568542 0-3 1.3431458-3 3v5h-3c-.5522847 0-1-.4477153-1-1v-9.8l8-6.345 8 6.345zm-2-21h2v3.458l-2-1.617zm-5.988-.429 10.988 8.877-1.281 1.552c-.0070008.0031231-.0149992.0031231-.022 0-.006-.006-.015-.009-.022-.015l-9.054-7.185c-.3638252-.28825258-.8781748-.28825258-1.242 0l-9.098 7.2-1.281-1.544z"/>
                <path id="Shape"
                      d="m33 46c-.001821.7959796.3146651 1.5596508.879 2.121l4 4c1.1357146 1.1353822 2.9641081 1.1750532 4.148.09l12-11c.8959574-.8193926 1.2096879-2.0980366.7947453-3.2390741-.4149427-1.1410376-1.4767358-1.9194671-2.6897453-1.9719259-.796095-.0378704-1.5740243.2457009-2.159.787l-9.882 9.059-1.97-1.969c-1.1870572-1.1329556-3.0549428-1.1329556-4.242 0-.564451.5620902-.8809098 1.3264157-.879 2.123zm2.293-.707c.3904999-.3903819 1.0235001-.3903819 1.414 0l2.647 2.646c.3784895.3780378.9874621.3912571 1.382.03l10.588-9.706c.2633047-.2415115.6354532-.324206.9762607-.2169332.3408075.1072729.5984973.3882157.676.737.0775028.3487844-.036956.7124217-.3002607.9539332l-12 11c-.3993735.3485927-.9986591.33515-1.382-.031l-4-4c-.3903819-.3904999-.3903819-1.0235001 0-1.414z"/>
            </g>
            <path id="Path"
                  d="m5 35h12c.5522847 0 1-.4477153 1-1s-.4477153-1-1-1h-12c-.55228475 0-1 .4477153-1 1s.44771525 1 1 1z"/>
            <path id="Path"
                  d="m5 39h12c.5522847 0 1-.4477153 1-1s-.4477153-1-1-1h-12c-.55228475 0-1 .4477153-1 1s.44771525 1 1 1z"/>
            <path id="Path"
                  d="m5 43h12c.5522847 0 1-.4477153 1-1s-.4477153-1-1-1h-12c-.55228475 0-1 .4477153-1 1s.44771525 1 1 1z"/>
        </g>
    </g>
</svg>