<svg height="512" fill="#AB0053" viewBox="0 0 60 60" width="512" xmlns="http://www.w3.org/2000/svg">
    <g id="Page-1" fill="none" fill-rule="evenodd">
        <g id="003---House-Building-Document" fill="#AB0053">
            <g fill-rule="nonzero">
                <path id="Shape"
                      d="m8 24.883v12.117c0 1.6568542 1.34314575 3 3 3h22c1.6568542 0 3-1.3431458 3-3v-12.119c.7789623.2827865 1.6516265.0505548 2.187-.582l1.325-1.549c.7141105-.8444551.6309861-2.1028176-.188-2.846l-3.324-2.974v-6.93c0-1.1045695-.8954305-2-2-2h-3c-1.1045695 0-2 .8954305-2 2v.665l-5.671-5.076c-.7566473-.67707162-1.9013527-.67707162-2.658 0l-15.995 14.311c-.81931568.743567-.90201646 2.0026532-.187 2.847l1.324 1.553c.53577941.6318835 1.40777865.8643369 2.187.583zm17 13.117h-6v-8c0-.5522847.4477153-1 1-1h4c.5522847 0 1 .4477153 1 1zm9-1c0 .5522847-.4477153 1-1 1h-6v-8c0-1.6568542-1.3431458-3-3-3h-4c-1.6568542 0-3 1.3431458-3 3v8h-6c-.5522847 0-1-.4477153-1-1v-13.709l12-10.74 12 10.74zm-3-27h3v5.14l-3-2.685zm-9-2.92 16 14.37-1.324 1.55-14.009-12.536c-.3797036-.339923-.9542964-.339923-1.334 0l-14 12.536-1.323-1.6z"/>
                <path id="Shape"
                      d="m47 34c-1.0107332.0036114-2.0175747.1254392-3 .363v-31.363c0-1.65685425-1.3431458-3-3-3h-30c-.2628539.01119712-.5132816.11498116-.707.293l-10 10c-.17838962.1934816-.2822325.4440513-.293.707v40c0 1.6568542 1.34314575 3 3 3h33.063c3.3600389 5.2484362 9.9730903 7.3723955 15.760845 5.0620193 5.7877548-2.3103762 9.1203013-8.4044542 7.9424378-14.5239787-1.1778635-6.1195246-6.5344345-10.5411533-12.7662828-10.5380406zm-37-30.586v5.586c0 .55228475-.44771525 1-1 1h-5.586zm-7 48.586c-.55228475 0-1-.4477153-1-1v-39h7c1.6568542 0 3-1.3431458 3-3v-7h29c.5522847 0 1 .44771525 1 1v32c-3.5007534 1.4695936-6.1887692 4.3897628-7.364 8h-10.636c-.5522847 0-1 .4477153-1 1s.4477153 1 1 1h10.17c-.1079049.6613165-.1647394 1.3299587-.17 2h-10c-.5522847 0-1 .4477153-1 1s.4477153 1 1 1h10.17c.154889 1.0297664.4335733 2.037059.83 3zm44 6c-6.0751322 0-11-4.9248678-11-11s4.9248678-11 11-11 11 4.9248678 11 11c-.0071635 6.0721626-4.9278374 10.9928365-11 11z"/>
                <path id="Shape"
                      d="m52 44h-2v-2c-.0000001-1.6568542-1.3431458-2.9999999-3-2.9999999s-2.9999999 1.3431457-3 2.9999999v2h-2c-1.6568542.0000001-2.9999999 1.3431458-2.9999999 3s1.3431457 2.9999999 2.9999999 3h2v2c.0000001 1.6568542 1.3431458 2.9999999 3 2.9999999s2.9999999-1.3431457 3-2.9999999v-2h2c1.6568542-.0000001 2.9999999-1.3431458 2.9999999-3s-1.3431457-2.9999999-2.9999999-3zm0 4h-3c-.5522847 0-1 .4477153-1 1v3c0 .5522847-.4477153 1-1 1s-1-.4477153-1-1v-3c0-.5522847-.4477153-1-1-1h-3c-.5522847 0-1-.4477153-1-1s.4477153-1 1-1h3c.5522847 0 1-.4477153 1-1v-3c0-.5522847.4477153-1 1-1s1 .4477153 1 1v3c0 .5522847.4477153 1 1 1h3c.5522847 0 1 .4477153 1 1s-.4477153 1-1 1z"/>
            </g>
            <path id="Path"
                  d="m20 43h-14c-.55228475 0-1 .4477153-1 1s.44771525 1 1 1h14c.5522847 0 1-.4477153 1-1s-.4477153-1-1-1z"/>
            <path id="Path"
                  d="m20 47h-14c-.55228475 0-1 .4477153-1 1s.44771525 1 1 1h14c.5522847 0 1-.4477153 1-1s-.4477153-1-1-1z"/>
        </g>
    </g>
</svg>