<svg height="512" viewBox="0 0 60 60" width="512" xmlns="http://www.w3.org/2000/svg">
    <g id="Page-1"  fill="none" fill-rule="evenodd">
        <g id="033---Pending-Application" fill="#AB0053">
            <path id="Path"
                  d="m20 43h-14c-.55228475 0-1 .4477153-1 1s.44771525 1 1 1h14c.5522847 0 1-.4477153 1-1s-.4477153-1-1-1z"/>
            <path id="Path"
                  d="m20 47h-14c-.55228475 0-1 .4477153-1 1s.44771525 1 1 1h14c.5522847 0 1-.4477153 1-1s-.4477153-1-1-1z"/>
            <g fill-rule="nonzero">
                <path id="Shape"
                      d="m58 20h-14v-17c0-1.65685425-1.3431458-3-3-3h-30c-.2628161.01136774-.5131876.11512849-.707.293l-10 10c-.17960022.1927053-.28363735.4437437-.293.707v40c0 1.6568542 1.34314575 3 3 3h29.278c-.1800294.3026445-.2760002.6478633-.278 1v3c0 1.1045695.8954305 2 2 2h24c1.1045695 0 2-.8954305 2-2v-3c-.0024605-.726235-.3997635-1.3936426-1.037-1.742-.4068861-5.239815-3.0215512-10.0597858-7.192-13.258 4.1704488-3.1982142 6.7851139-8.018185 7.192-13.258.6372365-.3483574 1.0345395-1.015765 1.037-1.742v-3c0-1.1045695-.8954305-2-2-2zm-48-16.586v5.586c0 .55228475-.44771525 1-1 1h-5.586zm14 45.586h9.893c-.3138356.9798846-.5499009 1.9829947-.706 3h-30.187c-.55228475 0-1-.4477153-1-1v-39h7c1.6568542 0 3-1.3431458 3-3v-7h29c.5522847 0 1 .44771525 1 1v17h-2.589c-.03-.031-.052-.066-.084-.1l-3.327-2.971v-6.929c0-1.1045695-.8954305-2-2-2h-3c-1.1045695 0-2 .8954305-2 2v.668l-5.673-5.074c-.7555085-.67605305-1.8984915-.67605305-2.654 0l-16 14.314c-.81391253.7446591-.89342127 1.9995721-.18 2.841l1.319 1.551c.53561653.6328249 1.40851558.8654118 2.188.583v12.117c0 1.6568542 1.34314575 3 3 3h22c1.6568542 0 3-1.3431458 3-3v-1.522c1.1273154 1.7485622 2.5597586 3.2802501 4.229 4.522-1.1603626.866072-2.2078281 1.8738964-3.118 3h-13.111c-.5522847 0-1 .4477153-1 1s.4477153 1 1 1h11.71c-.3901726.644624-.7404952 1.3125412-1.049 2h-10.661c-.5522847 0-1 .4477153-1 1s.4477153 1 1 1zm0-22h-4c-1.6568542 0-3 1.3431458-3 3v8h-6c-.5522847 0-1-.4477153-1-1v-13.707l12-10.741 10.056 9c-.1078907 1.146151-.1266136 2.2989498-.056 3.448.0024605.726235.3997635 1.3936426 1.037 1.742.1334829 1.559506.4568756 3.0968806.963 4.578v5.68c0 .5522847-.4477153 1-1 1h-6v-8c0-1.6568542-1.3431458-3-3-3zm1 3v8h-6v-8c0-.5522847.4477153-1 1-1h4c.5522847 0 1 .4477153 1 1zm8.43-9.907-10.763-9.628c-.3797036-.339923-.9542964-.339923-1.334 0l-14.002 12.535-1.325-1.6 15.988-14.315 7.3 6.516.014.013 4.962 4.431c.0311883.0332293.0645986.0643008.1.093l2.083 1.862h-2.453c-.1935499.0026835-.3856347.0340236-.57.093zm-2.43-7.636v-2.457h3v5.14zm27 45.543h-24v-3h24zm-8.53-18.848c-.2942169.1823393-.4732173.5038624-.4732173.85s.1790004.6676607.4732173.85c4.1858255 2.7214585 6.9233218 7.1834343 7.453 12.148h-21.846c.5285247-4.9660189 3.2661551-9.4296826 7.453-12.152.2942169-.1823393.4732173-.5038624.4732173-.85s-.1790004-.6676607-.4732173-.85c-4.1858255-2.7214585-6.9233218-7.1834343-7.453-12.148h21.846c-.5285247 4.9660189-3.2661551 9.4296826-7.453 12.152zm8.53-14.152h-24v-3h24z"/>
                <path id="Shape"
                      d="m46.53 41.369c-.3242708-.2026698-.7357292-.2026698-1.06 0l-1.88 1.175c-2.6463546 1.6624044-4.6546078 4.1688453-5.7 7.114-.1117213.3069694-.0664664.6491557.1212127.9165288.1876792.2673731.4941204.4262229.8207873.4254712h14.335c.3261371-.0002283.6316728-.1594819.8186468-.4267013.1869739-.2672195.2318922-.6088276.1203532-.9152987-1.0442128-2.9458116-3.0527472-5.4526034-5.7-7.114zm5.124 7.631h-11.309c.9584124-1.9602108 2.4506108-3.6101212 4.305-4.76l1.35-.84 1.35.844c1.8540171 1.1482691 3.3459659 2.7969003 4.304 4.756z"/>
                <path id="Shape"
                      d="m40.351 34.639c.923127 1.1067317 2.0172705 2.058748 3.241 2.82l1.88 1.17c.323304.2010075.732696.2010075 1.056 0l1.883-1.171c1.2224152-.7614424 2.3154919-1.713074 3.238-2.819.2360349-.3012249.2823781-.7096767.1198284-1.0561251-.1625496-.3464485-.5063002-.5718728-.8888284-.5828749h-9.76c-.3811124.0139088-.7224856.2396646-.8844744.5849177-.1619888.3452532-.1174201.7520885.1154744 1.0540823zm8.065.361c-.3405375.2728618-.6957339.5269073-1.064.761l-1.352.839-1.349-.84c-.3693661-.2335279-.7255735-.4872464-1.067-.76z"/>
            </g>
        </g>
    </g>
</svg>