<svg fill="#AB0053" id="Layer_1" enable-background="new 0 0 512 512" viewBox="0 0 512 512" xmlns="http://www.w3.org/2000/svg"><path d="m373.922 327.369c0 23.917 19.458 43.374 43.375 43.374s43.374-19.458 43.374-43.374c0-23.914-19.458-43.369-43.374-43.369-23.918 0-43.375 19.455-43.375 43.369zm72.748 0c0 16.197-13.177 29.374-29.374 29.374s-29.375-13.177-29.375-29.374c0-16.194 13.177-29.369 29.375-29.369 16.197 0 29.374 13.175 29.374 29.369zm30.351 71.765c-15.891-15.182-37.17-22.796-59.942-21.429-47.158.117-85.486 38.515-85.486 85.697 0 9.25 5.062 22.139 29.175 31.017 15.029 5.534 35.103 8.581 56.525 8.581 42.626 0 85.638-12.225 85.701-39.537.394-24.736-9.071-48.18-25.973-64.329zm11.973 64.268c0 14.354-31.495 25.598-71.701 25.598s-71.701-11.244-71.701-25.598c0-39.534 32.166-71.697 71.704-71.697.145 0 .29-.004.434-.014 1.509-.094 3.009-.14 4.5-.14 17.195 0 33.078 6.201 45.12 17.706 14.1 13.472 21.989 33.165 21.645 54.029 0 .039-.001.077-.001.116zm-275.869 25.598h-8.113v-158.649c0-3.866-3.134-7-7-7h-34.477v-32.351c0-3.866-3.134-7-7-7h-83.95c-3.866 0-7 3.134-7 7v32.351h-34.477c-3.866 0-7 3.134-7 7v158.649h-8.114c-3.866 0-7 3.134-7 7s3.134 7 7 7h197.131c3.866 0 7-3.134 7-7s-3.134-7-7-7zm-133.54-191h69.95v25.351h-69.95zm-41.477 39.351h152.904v151.649h-24.248v-49.383c0-3.866-3.134-7-7-7h-90.409c-3.866 0-7 3.134-7 7v49.383h-24.247zm83.452 109.266h31.205v42.383h-31.205zm-14 42.383h-31.205v-42.383h31.204v42.383zm-38.205-80.001h90.409c3.866 0 7-3.134 7-7v-37.439c0-3.866-3.134-7-7-7h-90.409c-3.866 0-7 3.134-7 7v37.439c0 3.865 3.135 7 7 7zm7-37.439h76.409v23.439h-76.409zm10.852-150.034c1.654-8.137 3.923-16.221 6.744-24.028 1.314-3.635 5.327-5.518 8.962-4.205 3.636 1.313 5.519 5.326 4.205 8.962-2.59 7.168-4.673 14.59-6.192 22.061-.674 3.318-3.593 5.606-6.852 5.606-.462 0-.931-.046-1.402-.142-3.789-.77-6.235-4.466-5.465-8.254zm246.41 188.515c-5.927 2.981-12.083 5.645-18.299 7.916-.793.29-1.604.427-2.402.427-2.856 0-5.538-1.761-6.575-4.599-1.327-3.631.541-7.65 4.172-8.978 5.71-2.087 11.367-4.534 16.813-7.273 3.454-1.737 7.662-.346 9.399 3.108 1.737 3.453.345 7.661-3.108 9.399zm-229.448-235.429c3.131-5.829 6.643-11.544 10.438-16.988 2.209-3.17 6.572-3.951 9.745-1.739 3.171 2.21 3.95 6.574 1.739 9.745-3.487 5.002-6.713 10.253-9.589 15.607-1.263 2.352-3.678 3.688-6.172 3.688-1.119 0-2.253-.269-3.307-.834-3.405-1.83-4.683-6.074-2.854-9.479zm304.907 18.681c3.635-1.315 7.648.569 8.962 4.205 2.82 7.805 5.088 15.889 6.743 24.028.771 3.788-1.676 7.484-5.465 8.254-.47.096-.939.142-1.402.142-3.259 0-6.178-2.289-6.852-5.607-1.52-7.473-3.603-14.895-6.191-22.06-1.313-3.636.569-7.649 4.205-8.962zm-23.179-27.664c-2.211-3.171-1.432-7.535 1.739-9.745 3.173-2.21 7.535-1.432 9.745 1.739 3.794 5.443 7.306 11.158 10.438 16.988 1.83 3.406.552 7.65-2.854 9.479-1.054.566-2.188.835-3.307.835-2.495 0-4.909-1.337-6.173-3.688-2.876-5.355-6.102-10.607-9.588-15.608zm-89.251 250.916c.783 3.786-1.651 7.49-5.437 8.272-8.127 1.682-16.452 2.778-24.742 3.259-.138.008-.275.012-.412.012-3.681 0-6.766-2.873-6.982-6.595-.224-3.859 2.724-7.169 6.583-7.394 7.612-.441 15.255-1.448 22.717-2.991 3.781-.785 7.49 1.651 8.273 5.437zm131.261-171.281c.454 7.369.438 14.837-.048 22.197-.245 3.701-3.322 6.539-6.978 6.539-.155 0-.311-.005-.468-.015-3.857-.255-6.778-3.588-6.524-7.446.447-6.769.462-13.638.044-20.415-.237-3.858 2.698-7.179 6.557-7.417 3.85-.231 7.178 2.698 7.417 6.557zm-177.836 176.121c-.298 3.66-3.36 6.433-6.969 6.433-.19 0-.382-.008-.576-.024-5.883-.479-11.779-1.276-17.591-2.351-1.459-.266-2.913-.547-4.357-.849h-.001c-.005-.001-.011-.002-.016-.003-.133-.028-.26-.068-.389-.103-.098-.027-.199-.048-.295-.078-.121-.039-.236-.088-.354-.132-.102-.039-.206-.072-.305-.115-.107-.046-.208-.102-.312-.153s-.21-.098-.31-.154c-.099-.055-.19-.119-.286-.178-.099-.061-.2-.119-.295-.185-.092-.064-.177-.136-.265-.204-.091-.07-.186-.137-.273-.211-.081-.069-.155-.146-.233-.218-.087-.081-.177-.159-.26-.244-.072-.075-.137-.156-.206-.233-.08-.09-.163-.178-.239-.272-.064-.08-.12-.166-.18-.248-.072-.098-.147-.194-.214-.296-.057-.087-.105-.179-.158-.269-.061-.103-.126-.204-.181-.31-.048-.092-.088-.189-.132-.283-.051-.109-.106-.216-.152-.328-.04-.098-.071-.2-.106-.299-.04-.112-.084-.222-.118-.337-.033-.11-.056-.224-.083-.336-.026-.108-.058-.214-.079-.323-.024-.121-.036-.245-.054-.368-.015-.103-.034-.205-.044-.309-.013-.133-.013-.268-.018-.403-.004-.096-.013-.192-.012-.289.001-.142.014-.286.024-.429.006-.091.006-.181.016-.272.015-.144.043-.289.068-.434.015-.089.023-.178.042-.267 0-.002.001-.004.002-.007s.001-.007.002-.01c.027-.129.066-.252.1-.377.028-.102.05-.207.082-.307.038-.119.086-.232.13-.348.039-.103.073-.209.117-.31.053-.122.115-.237.175-.355.044-.088.084-.18.132-.265.076-.137.163-.266.248-.397.039-.06.073-.124.114-.182.103-.148.215-.288.328-.427.029-.036.055-.075.085-.111.129-.152.266-.295.407-.435.019-.018.035-.039.054-.057.152-.147.311-.286.474-.418.01-.008.02-.018.03-.026.166-.132.338-.256.515-.373.01-.007.019-.015.029-.021.174-.114.354-.218.537-.316.015-.008.028-.017.042-.025.17-.089.345-.168.522-.243.03-.013.059-.029.089-.041.16-.065.324-.119.489-.173.05-.016.099-.037.149-.052.148-.044.301-.077.453-.112.07-.016.138-.037.208-.051.133-.026.27-.041.405-.059.092-.012.182-.03.274-.039.118-.011.237-.011.356-.016.112-.005.224-.015.337-.015.112.001.225.012.338.018.121.007.241.008.363.021.129.014.258.04.388.061.104.017.207.027.311.049.025.005.051.01.076.015 1.295.274 2.6.519 3.905.761 3.769.687 7.58 1.242 11.378 1.652.249.027.493.068.732.119 1.376.148 2.752.291 4.128.403 3.854.312 6.723 3.69 6.409 7.543zm-165.94-153.923c-.486-7.355-.503-14.823-.049-22.198.237-3.859 3.545-6.791 7.417-6.557 3.859.237 6.794 3.558 6.557 7.417-.417 6.783-.402 13.652.045 20.416.255 3.857-2.666 7.191-6.523 7.446-.157.01-.313.015-.468.015-3.657-.001-6.735-2.838-6.979-6.539zm240.731-34.68c3.918 0 7.602-1.525 10.373-4.296l16.508-16.508c2.771-2.77 4.297-6.454 4.297-10.373s-1.526-7.602-4.296-10.373c-6.55-6.55-6.394-14.895-4.064-20.52s8.12-11.635 17.384-11.635c8.088 0 14.668-6.58 14.668-14.668v-23.346c0-8.088-6.58-14.668-14.668-14.668-9.264 0-15.054-6.01-17.384-11.635s-2.486-13.969 4.064-20.519c2.771-2.771 4.297-6.454 4.297-10.373s-1.526-7.602-4.296-10.372l-16.509-16.509c-2.771-2.771-6.454-4.296-10.373-4.296s-7.603 1.526-10.372 4.296c-6.551 6.549-14.896 6.395-20.52 4.064-5.625-2.33-11.635-8.12-11.635-17.383 0-8.088-6.58-14.668-14.668-14.668h-23.346c-8.088 0-14.668 6.58-14.668 14.668 0 9.263-6.011 15.053-11.636 17.383s-13.97 2.487-20.519-4.063c-2.77-2.771-6.454-4.297-10.373-4.297s-7.602 1.526-10.372 4.296l-16.509 16.509c-5.719 5.719-5.719 15.025 0 20.744 6.55 6.55 6.394 14.895 4.064 20.52s-8.12 11.635-17.383 11.635c-8.088 0-14.668 6.58-14.668 14.668v23.346c0 8.088 6.58 14.668 14.668 14.668 9.263 0 15.053 6.01 17.383 11.635s2.486 13.969-4.064 20.52c-2.77 2.771-4.295 6.454-4.295 10.372s1.526 7.602 4.296 10.372l16.509 16.509c2.77 2.771 6.454 4.296 10.372 4.296s7.602-1.526 10.372-4.296c6.562-6.562 14.907-6.411 20.529-4.082 5.621 2.328 11.627 8.122 11.627 17.4 0 8.088 6.58 14.668 14.668 14.668h23.346c8.088 0 14.668-6.58 14.668-14.668 0-9.263 6.01-15.053 11.635-17.382 5.625-2.331 13.969-2.486 20.52 4.063 2.768 2.772 6.451 4.298 10.37 4.298zm-36.25-21.295c-12.507 5.181-20.277 16.797-20.277 30.317 0 .368-.3.668-.668.668h-23.346c-.368 0-.668-.3-.668-.668 0-13.532-7.767-25.156-20.27-30.335-4.19-1.736-8.515-2.583-12.775-2.583-8.452 0-16.648 3.338-23.011 9.701-.259.259-.685.258-.944 0l-16.509-16.51c-.129-.129-.195-.288-.195-.472s.066-.344.195-.473c9.56-9.56 12.28-23.269 7.099-35.776-5.181-12.508-16.798-20.278-30.317-20.278-.368 0-.668-.3-.668-.668v-23.346c0-.369.3-.668.668-.668 13.52 0 25.136-7.77 30.317-20.278s2.461-26.217-7.099-35.776c-.261-.261-.261-.685 0-.945l16.509-16.509c.259-.259.684-.259.944 0 9.56 9.56 23.27 12.279 35.777 7.099 12.508-5.181 20.278-16.798 20.278-30.318 0-.368.3-.668.668-.668h23.346c.369 0 .668.3.668.668 0 13.52 7.77 25.137 20.277 30.318 12.508 5.181 26.217 2.46 35.778-7.1.258-.258.685-.258.944.001l16.509 16.509c.129.129.195.289.195.472s-.066.343-.196.473c-9.56 9.56-12.28 23.269-7.099 35.776 5.181 12.508 16.798 20.278 30.318 20.278.368 0 .668.3.668.668v23.346c0 .369-.3.668-.668.668-13.52 0-25.137 7.77-30.318 20.278s-2.461 26.217 7.099 35.776c.13.13.196.289.196.473s-.066.342-.196.472l-16.508 16.509c-.259.26-.686.26-.946 0-9.558-9.56-23.267-12.281-35.775-7.099zm-32.618-142.751c-35.29 0-64 28.71-64 64 0 35.289 28.71 63.999 64 63.999s64-28.71 64-63.999-28.71-64-64-64zm0 114c-27.57 0-50-22.43-50-49.999 0-27.57 22.43-50 50-50s50 22.43 50 50c0 27.569-22.43 49.999-50 49.999zm32.847-73.374c2.733 2.734 2.733 7.166 0 9.899l-36.848 36.848c-1.367 1.367-3.158 2.05-4.95 2.05s-3.583-.684-4.95-2.05l-23.501-23.501c-2.733-2.734-2.733-7.166 0-9.899s7.166-2.733 9.899 0l18.552 18.552 31.898-31.898c2.734-2.734 7.167-2.734 9.9-.001z"/></svg>