<svg  fill="#AB0053" height="512" viewBox="0 0 48 48" width="512" xmlns="http://www.w3.org/2000/svg">
    <g id="Line">
        <path d="m35 46c1.654 0 3-1.346 3-3v-38c0-1.654-1.346-3-3-3h-22c-1.654 0-3 1.346-3 3v38c0 1.654 1.346 3 3 3zm-23-3v-38c0-.551.449-1 1-1h22c.551 0 1 .449 1 1v38c0 .551-.449 1-1 1h-22c-.551 0-1-.449-1-1z"/>
        <path d="m22 7h4c1.306-.006 1.309-1.994 0-2h-4c-1.306.006-1.309 1.994 0 2z"/>
        <path d="m29.02 7c1.314-.007 1.304-2.007-.01-2-1.309.008-1.296 1.997.01 2z"/>
        <path d="m25 41h-2c-.552 0-1 .448-1 1s.448 1 1 1h2c1.307-.006 1.308-1.994 0-2z"/>
        <path d="m16 37h16c1.306-.011 1.31-1.991 0-2h-1v-10.39c1.271-.025 2.247-1.394 1.804-2.61 0 0-.277-.854-.277-.854l.727-.528c1.566-1.046.709-3.694-1.176-3.618h-.898l-.235-.725c.113.075.032-4.191.055-4.275 0-.552-.448-1-1-1h-12c-.552 0-1 .448-1 1v23h-1c-.552 0-1 .448-1 1s.448 1 1 1zm9-2h-2v-4h2zm7.078-16-.726.527c-1.057.766-.918 1.947-.472 3.022-.166-.322-1.31-.809-1.88-.842-.692-.051-1.373.518-1.902.911 0 0 .277-.855.277-.855.269-.827-.024-1.726-.727-2.236l-.726-.527h.898c.87 0 1.634-.556 1.902-1.382.005.012.271-.914.277-.854 0 0 .277.854.277.854.27.826 1.034 1.382 1.904 1.382zm-13.078-6h10v1.764c-.883 0-1.629.542-1.902 1.382l-.278.854h-.898c-1.884-.073-2.744 2.57-1.176 3.618 0 0 .726.528.726.528l-.276.854c-.272.84.013 1.717.727 2.236 1.076.802 2.181.235 3.078-.528v11.292h-2v-5c0-.552-.448-1-1-1h-4c-.552 0-1 .448-1 1v5h-2v-22z"/>
    </g>
</svg>