<svg width="14" height="14" viewBox="0 0 14 14" fill="none" xmlns="http://www.w3.org/2000/svg">
<path d="M11.775 3.465C11.775 2.72 11.395 2.06 10.82 1.67499C10.475 1.44 10.06 1.30499 9.61499 1.30499H9.07999V2.62C9.07999 2.89499 8.85999 3.12 8.57999 3.12C8.30499 3.12 8.07999 2.89499 8.07999 2.62V1.30499H3.69501V2.62C3.69501 2.89499 3.47 3.12 3.19501 3.12C2.91501 3.12 2.69501 2.89499 2.69501 2.62V1.30499H2.16C1.565 1.30499 1.02499 1.54501 0.63501 1.94C0.23999 2.32999 0 2.87 0 3.465V3.79501H11.775V3.465Z" fill="#929292"/>
<path d="M2.16 12.27H6.655C6.27499 11.615 6.05499 10.85 6.05499 10.035C6.05499 7.565 8.06 5.56 10.525 5.56C10.96 5.56 11.38 5.62 11.775 5.73499V4.79501H0V10.115C0 11.305 0.970001 12.27 2.16 12.27Z" fill="#929292"/>
<path d="M3.69531 0.994995C3.69531 0.720001 3.47031 0.494995 3.19531 0.494995C2.91531 0.494995 2.69531 0.720001 2.69531 0.994995V1.30499H3.69531V0.994995Z" fill="#929292"/>
<path d="M9.08008 0.994995C9.08008 0.720001 8.86008 0.494995 8.58008 0.494995C8.30508 0.494995 8.08008 0.720001 8.08008 0.994995V1.30499H9.08008V0.994995Z" fill="#929292"/>
<path d="M10.5247 6.56C8.60968 6.56 7.05469 8.12 7.05469 10.035C7.05469 11.95 8.60968 13.505 10.5247 13.505C12.4397 13.505 13.9997 11.95 13.9997 10.035C13.9997 8.12 12.4397 6.56 10.5247 6.56ZM11.5097 10.535H10.5247C10.2497 10.535 10.0247 10.31 10.0247 10.035V9.005C10.0247 8.73001 10.2497 8.505 10.5247 8.505C10.8047 8.505 11.0247 8.73001 11.0247 9.005V9.535H11.5097C11.7847 9.535 12.0097 9.755 12.0097 10.035C12.0097 10.31 11.7847 10.535 11.5097 10.535Z" fill="#929292"/>
</svg>
