<svg width="56" height="56" viewBox="0 0 56 56" fill="none" xmlns="http://www.w3.org/2000/svg">
<path d="M19.9457 24.4497C16.0338 24.4497 12.8682 21.2841 12.8682 17.3722C12.8682 13.4603 16.0338 10.2947 19.9457 10.2947C23.8576 10.2947 27.0232 13.4603 27.0232 17.3722C27.0232 21.2841 23.8576 24.4497 19.9457 24.4497ZM19.9457 14.1551C19.0925 14.1551 18.2742 14.4941 17.6709 15.0974C17.0676 15.7007 16.7287 16.519 16.7287 17.3722C16.7287 18.2254 17.0676 19.0437 17.6709 19.647C18.2742 20.2503 19.0925 20.5892 19.9457 20.5892C20.7989 20.5892 21.6172 20.2503 22.2205 19.647C22.8238 19.0437 23.1628 18.2254 23.1628 17.3722C23.1628 16.519 22.8238 15.7007 22.2205 15.0974C21.6172 14.4941 20.7989 14.1551 19.9457 14.1551Z" fill="#765BEB"/>
<path d="M35.3876 55.3333H19.9457C5.97085 55.3333 0 49.3625 0 35.3876V19.9457C0 5.97085 5.97085 0 19.9457 0H30.2403C31.2955 0 32.1705 0.875038 32.1705 1.93023C32.1705 2.98543 31.2955 3.86046 30.2403 3.86046H19.9457C8.08124 3.86046 3.86046 8.08124 3.86046 19.9457V35.3876C3.86046 47.2521 8.08124 51.4729 19.9457 51.4729H35.3876C47.2521 51.4729 51.4729 47.2521 51.4729 35.3876V22.5194C51.4729 21.4642 52.3479 20.5891 53.4031 20.5891C54.4583 20.5891 55.3333 21.4642 55.3333 22.5194V35.3876C55.3333 49.3625 49.3625 55.3333 35.3876 55.3333Z" fill="#765BEB"/>
<path d="M43.1085 19.3022C42.0533 19.3022 41.1783 18.4272 41.1783 17.372V1.93013C41.1783 1.15804 41.6415 0.437419 42.3622 0.154319C43.0828 -0.128782 43.9063 0.0256367 44.4725 0.566102L49.6198 5.71339C50.3662 6.45974 50.3662 7.69509 49.6198 8.44145C48.8735 9.1878 47.6381 9.1878 46.8918 8.44145L45.0387 6.58842V17.372C45.0387 18.4272 44.1637 19.3022 43.1085 19.3022Z" fill="#765BEB"/>
<path d="M37.9612 9.00766C37.4722 9.00766 36.9832 8.82751 36.5972 8.44146C36.2382 8.07822 36.0369 7.58812 36.0369 7.07743C36.0369 6.56674 36.2382 6.07664 36.5972 5.7134L41.7445 0.566115C42.4908 -0.180241 43.7262 -0.180241 44.4725 0.566115C45.2189 1.31247 45.2189 2.54782 44.4725 3.29418L39.3252 8.44146C38.9392 8.82751 38.4502 9.00766 37.9612 9.00766ZM3.65455 47.4836C3.24318 47.4808 2.84345 47.3467 2.51352 47.101C2.18359 46.8553 1.94067 46.5107 1.82009 46.1174C1.69951 45.7241 1.70757 45.3025 1.84309 44.9141C1.97862 44.5257 2.23454 44.1907 2.57362 43.9577L15.2617 35.439C18.0412 33.5859 21.8759 33.7918 24.3981 35.928L25.2474 36.6743C26.5342 37.781 28.7218 37.781 29.9829 36.6743L40.6893 27.4864C43.4173 25.1444 47.7153 25.1444 50.4691 27.4864L54.6641 31.0895C55.462 31.7844 55.5649 32.994 54.87 33.8176C54.1751 34.6154 52.9398 34.7184 52.142 34.0235L47.9469 30.4204C46.6601 29.3137 44.4983 29.3137 43.2114 30.4204L32.5051 39.6083C29.777 41.9503 25.479 41.9503 22.7252 39.6083L21.8759 38.8619C20.6921 37.8582 18.7361 37.7553 17.4235 38.656L4.76122 47.1748C4.40091 47.3807 4.01486 47.4836 3.65455 47.4836Z" fill="#765BEB"/>
</svg>
