<svg width="63" height="71" viewBox="0 0 63 71" fill="none" xmlns="http://www.w3.org/2000/svg">
<path d="M41.1149 70.7029L41.0785 70.6356L0.334034 69.1693L0.129721 69.1626L0.33393 68.8446L16.5976 43.662L21.5413 35.9195L2.26675 0.780399L2.63027 0.796107L4.81623 0.87169L43.191 2.23509L43.3186 2.24045L43.3649 2.24388L43.3735 2.25675L43.3781 2.2646L62.6615 37.3416L41.1592 70.6347L41.1598 70.6375L41.1569 70.6381L41.147 70.6535L41.1149 70.7029Z" fill="#00FF4E"/>
<path d="M39.8273 68.089L4.61634 66.8218L18.6978 45.0184L18.7048 45.0074L23.6484 37.2649L24.4457 36.0162L23.7332 34.7172L6.57466 3.43574L41.8582 4.68932L59.752 37.2385L39.8273 68.089Z" stroke="#00FF4E" stroke-opacity="0.23" stroke-width="5"/>
</svg>
