<svg width="63" height="71" viewBox="0 0 63 71" fill="none" xmlns="http://www.w3.org/2000/svg">
<path d="M41.3939 70.1638L41.3575 70.0965L0.613087 68.6303L0.408774 68.6235L0.612982 68.3055L16.8767 43.123L21.8203 35.3804L2.5458 0.241336L2.90932 0.257044L5.09529 0.332627L43.4701 1.69603L43.5977 1.70138L43.644 1.70482L43.6526 1.71769L43.6572 1.72553L62.9405 36.8025L41.4382 70.0957L41.4388 70.0985L41.436 70.0991L41.426 70.1144L41.3939 70.1638Z" fill="#212121"/>
<path d="M40.904 69.0796L2.20296 67.6868L17.7167 43.6655L17.7195 43.6611L22.6632 35.9186L22.9821 35.4191L22.6971 34.8995L4.26963 1.30468L5.05978 1.332L5.06073 1.33203L43.0415 2.68144L61.7767 36.7613L40.904 69.0796Z" stroke="#00FF4E" stroke-opacity="0.15" stroke-width="2"/>
</svg>
