<svg width="24" height="24" viewBox="0 0 24 24" fill="none" xmlns="http://www.w3.org/2000/svg">
<path d="M0 18.7781V20.2844C0 20.6727 0.314812 20.9875 0.703125 20.9875C1.09144 20.9875 1.40625 20.6727 1.40625 20.2844V19.4813H22.5938V20.2844C22.5938 20.6727 22.9086 20.9875 23.2969 20.9875C23.6852 20.9875 24 20.6727 24 20.2844V18.7781V16.4688H0V18.7781Z" fill="white"/>
<path d="M21.4141 10.5438H2.58591C1.16006 10.5438 0 11.7038 0 13.1297V15.0625H24V13.1297C24 11.7038 22.8399 10.5438 21.4141 10.5438Z" fill="white"/>
<path d="M9.36432 7.43124C8.71379 7.43124 8.18457 7.96042 8.18457 8.6109V9.13745H15.8158V8.6109C15.8158 7.96042 15.2866 7.43124 14.6362 7.43124H9.36432Z" fill="white"/>
<path d="M6.77826 8.6109C6.77826 7.18501 7.93832 6.025 9.36426 6.025H14.6361C16.062 6.025 17.2221 7.18501 17.2221 8.6109V9.13745H20.9877V5.59839C20.9877 4.1725 19.8276 3.01248 18.4017 3.01248H5.5986C4.17271 3.01248 3.0127 4.1725 3.0127 5.59839V9.13745H6.77826V8.6109Z" fill="white"/>
</svg>
