<svg width="60" height="80" viewBox="0 0 60 80" fill="none" xmlns="http://www.w3.org/2000/svg">
<path d="M29.8663 0C21.9482 0.00976015 14.357 3.30061 8.75798 9.15066C3.15899 15.0007 0.00937306 22.9323 3.17747e-05 31.2055C-0.00945184 37.9664 2.1042 44.5438 6.01673 49.9288C6.01673 49.9288 6.83127 51.0494 6.96431 51.2111L29.8663 79.4322L52.7792 51.1969C52.8987 51.0465 53.7159 49.9288 53.7159 49.9288L53.7186 49.9203C57.6292 44.5377 59.7419 37.9633 59.7326 31.2055C59.7233 22.9323 56.5737 15.0007 50.9747 9.15066C45.3757 3.30061 37.7845 0.00976015 29.8663 0ZM29.8663 42.553C27.7183 42.553 25.6186 41.8875 23.8326 40.6406C22.0466 39.3937 20.6546 37.6215 19.8326 35.548C19.0106 33.4745 18.7955 31.1929 19.2145 28.9917C19.6336 26.7905 20.6679 24.7686 22.1868 23.1816C23.7057 21.5947 25.6408 20.5139 27.7476 20.0761C29.8543 19.6382 32.038 19.863 34.0224 20.7218C36.0069 21.5807 37.7031 23.0351 38.8965 24.9012C40.0898 26.7673 40.7268 28.9612 40.7268 31.2055C40.7232 34.2139 39.5778 37.098 37.5419 39.2252C35.5059 41.3525 32.7456 42.5492 29.8663 42.553Z" fill="#765CF1"/>
<ellipse cx="29.8664" cy="30.0901" rx="21.8254" ry="22.3213" fill="white"/>
<path d="M40.9702 21.0833H34.8438V22.6497H40.9702V39.097H34.8438V40.6634H42.5018V22.6497C42.5018 22.2342 42.3404 21.8358 42.0532 21.542C41.766 21.2483 41.3764 21.0833 40.9702 21.0833Z" fill="#484848"/>
<path d="M32.4549 17.1672H21.9174C21.4869 17.1672 21.0739 17.3422 20.7695 17.6536C20.465 17.9649 20.2939 18.3873 20.2939 18.8276V40.6634H34.0784V18.8276C34.0784 18.3873 33.9074 17.9649 33.6029 17.6536C33.2984 17.3422 32.8855 17.1672 32.4549 17.1672ZM32.5468 39.097H30.2494V36.7474H24.123V39.097H21.8256V18.8276C21.8256 18.8153 21.8279 18.8031 21.8325 18.7917C21.8372 18.7803 21.8439 18.7699 21.8525 18.7612C21.861 18.7524 21.8711 18.7455 21.8823 18.7408C21.8934 18.7361 21.9054 18.7336 21.9174 18.7336H32.4549C32.467 18.7336 32.4789 18.7361 32.4901 18.7408C32.5012 18.7455 32.5113 18.7524 32.5199 18.7612C32.5284 18.7699 32.5352 18.7803 32.5398 18.7917C32.5444 18.8031 32.5468 18.8153 32.5468 18.8276V39.097Z" fill="#484848"/>
<path d="M23.3564 21.0833H24.8881V22.6497H23.3564V21.0833Z" fill="#484848"/>
<path d="M26.4199 21.0833H27.9515V22.6497H26.4199V21.0833Z" fill="#484848"/>
<path d="M29.4834 21.0833H31.015V22.6497H29.4834V21.0833Z" fill="#484848"/>
<path d="M23.3564 24.9993H24.8881V26.5657H23.3564V24.9993Z" fill="#484848"/>
<path d="M26.4199 24.9993H27.9515V26.5657H26.4199V24.9993Z" fill="#484848"/>
<path d="M29.4834 24.9993H31.015V26.5657H29.4834V24.9993Z" fill="#484848"/>
<path d="M23.3564 28.9153H24.8881V30.4817H23.3564V28.9153Z" fill="#484848"/>
<path d="M26.4199 28.9153H27.9515V30.4817H26.4199V28.9153Z" fill="#484848"/>
<path d="M29.4834 28.9153H31.015V30.4817H29.4834V28.9153Z" fill="#484848"/>
<path d="M23.3564 32.8313H24.8881V34.3977H23.3564V32.8313Z" fill="#484848"/>
<path d="M26.4199 32.8313H27.9515V34.3977H26.4199V32.8313Z" fill="#484848"/>
<path d="M29.4834 32.8313H31.015V34.3977H29.4834V32.8313Z" fill="#484848"/>
<path d="M34.8438 24.9993H36.3754V26.5657H34.8438V24.9993Z" fill="#484848"/>
<path d="M37.9072 24.9993H39.4388V26.5657H37.9072V24.9993Z" fill="#484848"/>
<path d="M34.8438 28.9153H36.3754V30.4817H34.8438V28.9153Z" fill="#484848"/>
<path d="M37.9072 28.9153H39.4388V30.4817H37.9072V28.9153Z" fill="#484848"/>
<path d="M34.8438 32.8313H36.3754V34.3977H34.8438V32.8313Z" fill="#484848"/>
<path d="M37.9072 32.8313H39.4388V34.3977H37.9072V32.8313Z" fill="#484848"/>
</svg>
