<svg width="1248" height="355" viewBox="0 0 1248 355" fill="none" xmlns="http://www.w3.org/2000/svg">
<g clip-path="url(#clip0_2833_227)">
<path d="M325.578 -194.371H336.844V-205.639H325.578V-194.371ZM415.746 436.971H427.011V425.704H415.746V436.971ZM325.578 -104.164H336.844V-115.431H325.578V-104.164ZM370.662 752.621H381.928V741.353H370.662V752.621ZM370.662 482.064H381.928V470.796H370.662V482.064ZM370.662 572.25H381.928V560.982H370.662V572.25ZM370.662 662.435H381.928V651.168H370.662V662.435ZM325.578 346.786H336.844V335.518H325.578V346.786ZM325.578 256.579H336.844V245.311H325.578V256.579ZM325.578 436.971H336.844V425.704H325.578V436.971ZM325.578 166.393H336.844V155.125H325.578V166.393ZM325.578 -13.9781H336.844V-25.2459H325.578V-13.9781ZM325.578 76.2074H336.844V64.9397H325.578V76.2074ZM370.662 211.486H381.928V200.218H370.662V211.486ZM415.746 797.714H427.011V786.446H415.746V797.714ZM415.746 707.528H427.011V696.26H415.746V707.528ZM235.411 797.714H246.676V786.446H235.411V797.714ZM415.746 617.343H427.011V606.075H415.746V617.343ZM370.662 -149.278H381.928V-160.546H370.662V-149.278ZM415.746 527.157H427.011V515.889H415.746V527.157ZM370.662 391.879H381.928V380.611H370.662V391.879ZM370.662 -59.0709H381.928V-70.3387H370.662V-59.0709ZM370.662 301.671H381.928V290.404H370.662V301.671ZM325.578 527.157H336.844V515.889H325.578V527.157ZM370.662 121.3H381.928V110.032H370.662V121.3ZM370.662 31.1147H381.928V19.8469H370.662V31.1147ZM370.662 -239.464H381.928V-250.732H370.662V-239.464ZM235.411 -13.9781H246.676V-25.2459H235.411V-13.9781ZM235.411 -104.164H246.676V-115.431H235.411V-104.164ZM325.578 617.343H336.844V606.075H325.578V617.343ZM235.411 166.393H246.676V155.125H235.411V166.393ZM235.411 -194.371H246.676V-205.639H235.411V-194.371ZM280.495 752.621H291.76V741.353H280.495V752.621ZM235.411 707.528H246.676V696.26H235.411V707.528ZM235.411 617.343H246.676V606.075H235.411V617.343ZM280.495 662.435H291.76V651.168H280.495V662.435ZM235.411 527.157H246.676V515.889H235.411V527.157ZM235.411 436.971H246.676V425.704H235.411V436.971ZM235.411 256.579H246.676V245.311H235.411V256.579ZM235.411 346.786H246.676V335.518H235.411V346.786ZM235.411 76.2074H246.676V64.9397H235.411V76.2074ZM280.495 -239.464H291.76V-250.732H280.495V-239.464ZM280.495 31.1147H291.76V19.8469H280.495V31.1147ZM280.495 -59.0709H291.76V-70.3387H280.495V-59.0709ZM280.495 572.25H291.76V560.982H280.495V572.25ZM325.578 797.714H336.844V786.446H325.578V797.714ZM325.578 707.528H336.844V696.26H325.578V707.528ZM280.495 -149.278H291.76V-160.546H280.495V-149.278ZM280.495 482.064H291.76V470.796H280.495V482.064ZM280.495 391.879H291.76V380.611H280.495V391.879ZM280.495 121.3H291.76V110.032H280.495V121.3ZM280.495 301.671H291.76V290.404H280.495V301.671ZM280.495 211.486H291.76V200.218H280.495V211.486ZM596.103 346.786H607.369V335.518H596.103V346.786ZM551.019 211.486H562.285V200.218H551.019V211.486ZM551.019 301.671H562.285V290.404H551.019V301.671ZM505.914 76.2074H517.179V64.9397H505.914V76.2074ZM551.019 391.879H562.285V380.611H551.019V391.879ZM551.019 -59.0709H562.285V-70.3387H551.019V-59.0709ZM551.019 121.3H562.285V110.032H551.019V121.3ZM551.019 31.1147H562.285V19.8469H551.019V31.1147ZM505.914 -194.371H517.179V-205.639H505.914V-194.371ZM505.914 -104.164H517.179V-115.431H505.914V-104.164ZM505.914 -13.9781H517.179V-25.2459H505.914V-13.9781ZM551.019 662.435H562.285V651.168H551.019V662.435ZM551.019 752.621H562.285V741.353H551.019V752.621ZM551.019 572.25H562.285V560.982H551.019V572.25ZM551.019 482.064H562.285V470.796H551.019V482.064ZM596.103 76.2074H607.369V64.9397H596.103V76.2074ZM596.103 166.393H607.369V155.125H596.103V166.393ZM190.327 -239.464H201.592V-250.732H190.327V-239.464ZM596.103 256.579H607.369V245.311H596.103V256.579ZM596.103 -13.9781H607.369V-25.2459H596.103V-13.9781ZM596.103 -104.164H607.369V-115.431H596.103V-104.164ZM596.103 617.343H607.369V606.075H596.103V617.343ZM596.103 797.714H607.369V786.446H596.103V797.714ZM596.103 707.528H607.369V696.26H596.103V707.528ZM596.103 436.971H607.369V425.704H596.103V436.971ZM551.019 -239.464H562.285V-250.732H551.019V-239.464ZM551.019 -149.278H562.285V-160.546H551.019V-149.278ZM596.103 527.157H607.369V515.889H596.103V527.157ZM505.914 617.343H517.179V606.075H505.914V617.343ZM460.83 752.621H472.095V741.353H460.83V752.621ZM460.83 572.25H472.095V560.982H460.83V572.25ZM460.83 662.435H472.095V651.168H460.83V662.435ZM460.83 482.064H472.095V470.796H460.83V482.064ZM460.83 301.671H472.095V290.404H460.83V301.671ZM460.83 391.879H472.095V380.611H460.83V391.879ZM415.746 256.579H427.011V245.311H415.746V256.579ZM415.746 166.393H427.011V155.125H415.746V166.393ZM460.83 211.486H472.095V200.218H460.83V211.486ZM415.746 76.2074H427.011V64.9397H415.746V76.2074ZM415.746 -13.9781H427.011V-25.2459H415.746V-13.9781ZM415.746 -104.164H427.011V-115.431H415.746V-104.164ZM415.746 -194.371H427.011V-205.639H415.746V-194.371ZM505.914 797.714H517.179V786.446H505.914V797.714ZM505.914 527.157H517.179V515.889H505.914V527.157ZM415.746 346.786H427.011V335.518H415.746V346.786ZM505.914 436.971H517.179V425.704H505.914V436.971ZM505.914 707.528H517.179V696.26H505.914V707.528ZM505.914 256.579H517.179V245.311H505.914V256.579ZM505.914 346.786H517.179V335.518H505.914V346.786ZM460.83 121.3H472.095V110.032H460.83V121.3ZM460.83 -59.0709H472.095V-70.3387H460.83V-59.0709ZM460.83 31.1147H472.095V19.8469H460.83V31.1147ZM460.83 -239.464H472.095V-250.732H460.83V-239.464ZM505.914 166.393H517.179V155.125H505.914V166.393ZM460.83 -149.278H472.095V-160.546H460.83V-149.278ZM-80.1976 31.1147H-68.9321V19.8469H-80.1976V31.1147ZM190.327 -149.278H201.592V-160.546H190.327V-149.278ZM-80.1976 -59.0709H-68.9321V-70.3387H-80.1976V-59.0709ZM-35.1138 527.157H-23.8483V515.889H-35.1138V527.157ZM-80.1976 -239.464H-68.9321V-250.732H-80.1976V-239.464ZM-35.1138 707.528H-23.8483V696.26H-35.1138V707.528ZM-35.1138 617.343H-23.8483V606.075H-35.1138V617.343ZM-80.1976 -149.278H-68.9321V-160.546H-80.1976V-149.278ZM-80.1976 391.879H-68.9321V380.611H-80.1976V391.879ZM-80.1976 482.064H-68.9321V470.796H-80.1976V482.064ZM-80.1976 301.671H-68.9321V290.404H-80.1976V301.671ZM596.103 -194.371H607.369V-205.639H596.103V-194.371ZM-80.1976 211.486H-68.9321V200.218H-80.1976V211.486ZM-80.1976 121.3H-68.9321V110.032H-80.1976V121.3ZM-80.1976 572.25H-68.9321V560.982H-80.1976V572.25ZM9.96999 662.435H21.2355V651.168H9.96999V662.435ZM-35.1138 -104.164H-23.8483V-115.431H-35.1138V-104.164ZM-35.1138 -194.371H-23.8483V-205.639H-35.1138V-194.371ZM9.96999 752.621H21.2355V741.353H9.96999V752.621ZM9.96999 482.064H21.2355V470.796H9.96999V482.064ZM9.96999 572.25H21.2355V560.982H9.96999V572.25ZM-35.1138 166.393H-23.8483V155.125H-35.1138V166.393ZM-35.1138 256.579H-23.8483V245.311H-35.1138V256.579ZM-35.1138 346.786H-23.8483V335.518H-35.1138V346.786ZM-35.1138 436.971H-23.8483V425.704H-35.1138V436.971ZM-35.1138 76.2074H-23.8483V64.9397H-35.1138V76.2074ZM9.96999 391.879H21.2355V380.611H9.96999V391.879ZM-35.1138 -13.9781H-23.8483V-25.2459H-35.1138V-13.9781ZM-80.1976 662.435H-68.9321V651.168H-80.1976V662.435ZM-170.365 -59.0709H-159.1V-70.3387H-170.365V-59.0709ZM-170.365 121.3H-159.1V110.032H-170.365V121.3ZM-170.365 211.486H-159.1V200.218H-170.365V211.486ZM-170.365 -239.464H-159.1V-250.732H-170.365V-239.464ZM-170.365 -149.278H-159.1V-160.546H-170.365V-149.278ZM-170.365 482.064H-159.1V470.796H-170.365V482.064ZM-170.365 572.25H-159.1V560.982H-170.365V572.25ZM-170.365 662.435H-159.1V651.168H-170.365V662.435ZM-170.365 301.671H-159.1V290.404H-170.365V301.671ZM-170.365 752.621H-159.1V741.353H-170.365V752.621ZM-125.281 797.714H-114.016V786.446H-125.281V797.714ZM-170.365 391.879H-159.1V380.611H-170.365V391.879ZM-170.365 31.1147H-159.1V19.8469H-170.365V31.1147ZM-125.281 707.528H-114.016V696.26H-125.281V707.528ZM-125.281 -104.164H-114.016V-115.431H-125.281V-104.164ZM-125.281 76.2074H-114.016V64.9397H-125.281V76.2074ZM-80.1976 752.621H-68.9321V741.353H-80.1976V752.621ZM-125.281 -194.371H-114.016V-205.639H-125.281V-194.371ZM-125.281 166.393H-114.016V155.125H-125.281V166.393ZM-125.281 -13.9781H-114.016V-25.2459H-125.281V-13.9781ZM-125.281 527.157H-114.016V515.889H-125.281V527.157ZM-125.281 617.343H-114.016V606.075H-125.281V617.343ZM-125.281 256.579H-114.016V245.311H-125.281V256.579ZM-125.281 346.786H-114.016V335.518H-125.281V346.786ZM-125.281 436.971H-114.016V425.704H-125.281V436.971ZM-35.1138 797.714H-23.8483V786.446H-35.1138V797.714ZM145.243 346.786H156.509V335.518H145.243V346.786ZM145.243 527.157H156.509V515.889H145.243V527.157ZM145.243 256.579H156.509V245.311H145.243V256.579ZM9.96999 301.671H21.2355V290.404H9.96999V301.671ZM100.159 31.1147H111.425V19.8469H100.159V31.1147ZM145.243 76.2074H156.509V64.9397H145.243V76.2074ZM145.243 166.393H156.509V155.125H145.243V166.393ZM100.159 -149.278H111.425V-160.546H100.159V-149.278ZM100.159 -59.0709H111.425V-70.3387H100.159V-59.0709ZM145.243 617.343H156.509V606.075H145.243V617.343ZM100.159 -239.464H111.425V-250.732H100.159V-239.464ZM145.243 707.528H156.509V696.26H145.243V707.528ZM145.243 797.714H156.509V786.446H145.243V797.714ZM145.243 -13.9781H156.509V-25.2459H145.243V-13.9781ZM190.327 211.486H201.592V200.218H190.327V211.486ZM190.327 301.671H201.592V290.404H190.327V301.671ZM190.327 391.879H201.592V380.611H190.327V391.879ZM190.327 121.3H201.592V110.032H190.327V121.3ZM190.327 -59.0709H201.592V-70.3387H190.327V-59.0709ZM190.327 31.1147H201.592V19.8469H190.327V31.1147ZM190.327 752.621H201.592V741.353H190.327V752.621ZM190.327 482.064H201.592V470.796H190.327V482.064ZM145.243 -194.371H156.509V-205.639H145.243V-194.371ZM145.243 -104.164H156.509V-115.431H145.243V-104.164ZM190.327 572.25H201.592V560.982H190.327V572.25ZM190.327 662.435H201.592V651.168H190.327V662.435ZM145.243 436.971H156.509V425.704H145.243V436.971ZM55.0538 617.343H66.3193V606.075H55.0538V617.343ZM55.0538 797.714H66.3193V786.446H55.0538V797.714ZM55.0538 707.528H66.3193V696.26H55.0538V707.528ZM55.0538 527.157H66.3193V515.889H55.0538V527.157ZM55.0538 436.971H66.3193V425.704H55.0538V436.971ZM55.0538 346.786H66.3193V335.518H55.0538V346.786ZM9.96999 -59.0709H21.2355V-70.3387H9.96999V-59.0709ZM9.96999 -239.464H21.2355V-250.732H9.96999V-239.464ZM9.96999 121.3H21.2355V110.032H9.96999V121.3ZM9.96999 211.486H21.2355V200.218H9.96999V211.486ZM9.96999 31.1147H21.2355V19.8469H9.96999V31.1147ZM100.159 121.3H111.425V110.032H100.159V121.3ZM55.0538 256.579H66.3193V245.311H55.0538V256.579ZM9.96999 -149.278H21.2355V-160.546H9.96999V-149.278ZM100.159 662.435H111.425V651.168H100.159V662.435ZM100.159 482.064H111.425V470.796H100.159V482.064ZM100.159 572.25H111.425V560.982H100.159V572.25ZM100.159 391.879H111.425V380.611H100.159V391.879ZM100.159 211.486H111.425V200.218H100.159V211.486ZM55.0538 166.393H66.3193V155.125H55.0538V166.393ZM100.159 301.671H111.425V290.404H100.159V301.671ZM100.159 752.621H111.425V741.353H100.159V752.621ZM55.0538 76.2074H66.3193V64.9397H55.0538V76.2074ZM55.0538 -13.9781H66.3193V-25.2459H55.0538V-13.9781ZM55.0538 -194.371H66.3193V-205.639H55.0538V-194.371ZM55.0538 -104.164H66.3193V-115.431H55.0538V-104.164ZM1137.13 -104.164H1148.4V-115.431H1137.13V-104.164ZM1182.21 662.435H1193.48V651.168H1182.21V662.435ZM1182.21 752.621H1193.48V741.353H1182.21V752.621ZM1137.13 -194.371H1148.4V-205.639H1137.13V-194.371ZM1182.21 572.25H1193.48V560.982H1182.21V572.25ZM1182.21 482.064H1193.48V470.796H1182.21V482.064ZM1182.21 391.879H1193.48V380.611H1182.21V391.879ZM1137.13 76.2074H1148.4V64.9397H1137.13V76.2074ZM1137.13 -13.9781H1148.4V-25.2459H1137.13V-13.9781ZM1137.13 527.157H1148.4V515.889H1137.13V527.157ZM1137.13 256.579H1148.4V245.311H1137.13V256.579ZM1137.13 346.786H1148.4V335.518H1137.13V346.786ZM1137.13 166.393H1148.4V155.125H1137.13V166.393ZM1182.21 301.671H1193.48V290.404H1182.21V301.671ZM1137.13 436.971H1148.4V425.704H1137.13V436.971ZM1182.21 211.486H1193.48V200.218H1182.21V211.486ZM1227.3 707.528H1238.56V696.26H1227.3V707.528ZM1227.3 527.157H1238.56V515.889H1227.3V527.157ZM1227.3 797.714H1238.56V786.446H1227.3V797.714ZM1227.3 436.971H1238.56V425.704H1227.3V436.971ZM1227.3 346.786H1238.56V335.518H1227.3V346.786ZM1227.3 617.343H1238.56V606.075H1227.3V617.343ZM1182.21 31.1147H1193.48V19.8469H1182.21V31.1147ZM1182.21 121.3H1193.48V110.032H1182.21V121.3ZM1227.3 256.579H1238.56V245.311H1227.3V256.579ZM1182.21 -149.278H1193.48V-160.546H1182.21V-149.278ZM1182.21 -239.464H1193.48V-250.732H1182.21V-239.464ZM1182.21 -59.0709H1193.48V-70.3387H1182.21V-59.0709ZM1046.96 166.393H1058.23V155.125H1046.96V166.393ZM1092.05 662.435H1103.31V651.168H1092.05V662.435ZM1046.96 -104.164H1058.23V-115.431H1046.96V-104.164ZM1046.96 -13.9781H1058.23V-25.2459H1046.96V-13.9781ZM1046.96 -194.371H1058.23V-205.639H1046.96V-194.371ZM1092.05 752.621H1103.31V741.353H1092.05V752.621ZM1046.96 76.2074H1058.23V64.9397H1046.96V76.2074ZM1046.96 527.157H1058.23V515.889H1046.96V527.157ZM1046.96 617.343H1058.23V606.075H1046.96V617.343ZM1046.96 707.528H1058.23V696.26H1046.96V707.528ZM1046.96 256.579H1058.23V245.311H1046.96V256.579ZM1046.96 346.786H1058.23V335.518H1046.96V346.786ZM1046.96 436.971H1058.23V425.704H1046.96V436.971ZM1092.05 391.879H1103.31V380.611H1092.05V391.879ZM1092.05 -239.464H1103.31V-250.732H1092.05V-239.464ZM1092.05 -149.278H1103.31V-160.546H1092.05V-149.278ZM1092.05 572.25H1103.31V560.982H1092.05V572.25ZM1137.13 707.528H1148.4V696.26H1137.13V707.528ZM1137.13 797.714H1148.4V786.446H1137.13V797.714ZM1092.05 31.1147H1103.31V19.8469H1092.05V31.1147ZM1092.05 -59.0709H1103.31V-70.3387H1092.05V-59.0709ZM1092.05 121.3H1103.31V110.032H1092.05V121.3ZM1137.13 617.343H1148.4V606.075H1137.13V617.343ZM1092.05 482.064H1103.31V470.796H1092.05V482.064ZM1092.05 211.486H1103.31V200.218H1092.05V211.486ZM1046.96 797.714H1058.23V786.446H1046.96V797.714ZM1092.05 301.671H1103.31V290.404H1092.05V301.671ZM1362.55 -239.464H1373.81V-250.732H1362.55V-239.464ZM1362.55 31.1147H1373.81V19.8469H1362.55V31.1147ZM1362.55 211.486H1373.81V200.218H1362.55V211.486ZM1362.55 -149.278H1373.81V-160.546H1362.55V-149.278ZM1362.55 -59.0709H1373.81V-70.3387H1362.55V-59.0709ZM1362.55 301.671H1373.81V290.404H1362.55V301.671ZM1362.55 121.3H1373.81V110.032H1362.55V121.3ZM1362.55 752.621H1373.81V741.353H1362.55V752.621ZM1362.55 662.435H1373.81V651.168H1362.55V662.435ZM1317.47 -194.371H1328.73V-205.639H1317.47V-194.371ZM1362.55 572.25H1373.81V560.982H1362.55V572.25ZM1362.55 482.064H1373.81V470.796H1362.55V482.064ZM1362.55 391.879H1373.81V380.611H1362.55V391.879ZM1407.63 527.157H1418.9V515.889H1407.63V527.157ZM1407.63 -13.9781H1418.9V-25.2459H1407.63V-13.9781ZM1407.63 256.579H1418.9V245.311H1407.63V256.579ZM1407.63 166.393H1418.9V155.125H1407.63V166.393ZM1407.63 76.2074H1418.9V64.9397H1407.63V76.2074ZM1407.63 -205.639V-194.371H1418.9V-205.639H1407.63ZM1407.63 -104.164H1418.9V-115.431H1407.63V-104.164ZM1407.63 797.714H1418.9V786.446H1407.63V797.714ZM1407.63 617.343H1418.9V606.075H1407.63V617.343ZM1407.63 707.528H1418.9V696.26H1407.63V707.528ZM1407.63 346.786H1418.9V335.518H1407.63V346.786ZM1227.3 166.393H1238.56V155.125H1227.3V166.393ZM1317.47 -104.164H1328.73V-115.431H1317.47V-104.164ZM1407.63 436.971H1418.9V425.704H1407.63V436.971ZM1272.38 301.671H1283.65V290.404H1272.38V301.671ZM1272.38 391.879H1283.65V380.611H1272.38V391.879ZM1272.38 572.25H1283.65V560.982H1272.38V572.25ZM1272.38 482.064H1283.65V470.796H1272.38V482.064ZM1272.38 31.1147H1283.65V19.8469H1272.38V31.1147ZM1272.38 121.3H1283.65V110.032H1272.38V121.3ZM1272.38 211.486H1283.65V200.218H1272.38V211.486ZM1227.3 -13.9781H1238.56V-25.2459H1227.3V-13.9781ZM1317.47 -13.9781H1328.73V-25.2459H1317.47V-13.9781ZM1227.3 76.2074H1238.56V64.9397H1227.3V76.2074ZM1272.38 662.435H1283.65V651.168H1272.38V662.435ZM1272.38 752.621H1283.65V741.353H1272.38V752.621ZM1227.3 -194.371H1238.56V-205.639H1227.3V-194.371ZM1227.3 -104.164H1238.56V-115.431H1227.3V-104.164ZM1317.47 346.786H1328.73V335.518H1317.47V346.786ZM1317.47 256.579H1328.73V245.311H1317.47V256.579ZM1317.47 436.971H1328.73V425.704H1317.47V436.971ZM1317.47 166.393H1328.73V155.125H1317.47V166.393ZM1317.47 76.2074H1328.73V64.9397H1317.47V76.2074ZM1272.38 -59.0709H1283.65V-70.3387H1272.38V-59.0709ZM1317.47 527.157H1328.73V515.889H1317.47V527.157ZM1272.38 -149.278H1283.65V-160.546H1272.38V-149.278ZM1272.38 -239.464H1283.65V-250.732H1272.38V-239.464ZM1317.47 617.343H1328.73V606.075H1317.47V617.343ZM1317.47 707.528H1328.73V696.26H1317.47V707.528ZM1317.47 797.714H1328.73V786.446H1317.47V797.714ZM1001.86 301.671H1013.12V290.404H1001.86V301.671ZM776.438 707.528H787.704V696.26H776.438V707.528ZM731.354 -149.278H742.62V-160.546H731.354V-149.278ZM731.354 -239.464H742.62V-250.732H731.354V-239.464ZM776.438 436.971H787.704V425.704H776.438V436.971ZM776.438 527.157H787.704V515.889H776.438V527.157ZM776.438 617.343H787.704V606.075H776.438V617.343ZM776.438 797.714H787.704V786.446H776.438V797.714ZM731.354 482.064H742.62V470.796H731.354V482.064ZM731.354 301.671H742.62V290.404H731.354V301.671ZM731.354 391.879H742.62V380.611H731.354V391.879ZM731.354 121.3H742.62V110.032H731.354V121.3ZM731.354 31.1147H742.62V19.8469H731.354V31.1147ZM731.354 -59.0709H742.62V-70.3387H731.354V-59.0709ZM731.354 211.486H742.62V200.218H731.354V211.486ZM821.522 662.435H832.788V651.168H821.522V662.435ZM821.522 752.621H832.788V741.353H821.522V752.621ZM821.522 572.25H832.788V560.982H821.522V572.25ZM821.522 482.064H832.788V470.796H821.522V482.064ZM821.522 391.879H832.788V380.611H821.522V391.879ZM776.438 -194.371H787.704V-205.639H776.438V-194.371ZM776.438 166.393H787.704V155.125H776.438V166.393ZM821.522 301.671H832.788V290.404H821.522V301.671ZM776.438 256.579H787.704V245.311H776.438V256.579ZM776.438 -13.9781H787.704V-25.2459H776.438V-13.9781ZM776.438 -104.164H787.704V-115.431H776.438V-104.164ZM776.438 76.2074H787.704V64.9397H776.438V76.2074ZM776.438 346.786H787.704V335.518H776.438V346.786ZM641.187 -59.0709H652.452V-70.3387H641.187V-59.0709ZM641.187 121.3H652.452V110.032H641.187V121.3ZM641.187 31.1147H652.452V19.8469H641.187V31.1147ZM641.187 -149.278H652.452V-160.546H641.187V-149.278ZM686.271 797.714H697.536V786.446H686.271V797.714ZM641.187 -239.464H652.452V-250.732H641.187V-239.464ZM641.187 662.435H652.452V651.168H641.187V662.435ZM641.187 482.064H652.452V470.796H641.187V482.064ZM641.187 572.25H652.452V560.982H641.187V572.25ZM686.271 707.528H697.536V696.26H686.271V707.528ZM641.187 301.671H652.452V290.404H641.187V301.671ZM731.354 572.25H742.62V560.982H731.354V572.25ZM641.187 391.879H652.452V380.611H641.187V391.879ZM641.187 211.486H652.452V200.218H641.187V211.486ZM686.271 617.343H697.536V606.075H686.271V617.343ZM686.271 -104.164H697.536V-115.431H686.271V-104.164ZM686.271 -13.9781H697.536V-25.2459H686.271V-13.9781ZM731.354 752.621H742.62V741.353H731.354V752.621ZM686.271 76.2074H697.536V64.9397H686.271V76.2074ZM731.354 662.435H742.62V651.168H731.354V662.435ZM686.271 -194.371H697.536V-205.639H686.271V-194.371ZM686.271 166.393H697.536V155.125H686.271V166.393ZM686.271 436.971H697.536V425.704H686.271V436.971ZM686.271 527.157H697.536V515.889H686.271V527.157ZM686.271 346.786H697.536V335.518H686.271V346.786ZM686.271 256.579H697.536V245.311H686.271V256.579ZM911.69 -239.464H922.955V-250.732H911.69V-239.464ZM956.773 436.971H968.039V425.704H956.773V436.971ZM956.773 256.579H968.039V245.311H956.773V256.579ZM956.773 346.786H968.039V335.518H956.773V346.786ZM956.773 166.393H968.039V155.125H956.773V166.393ZM956.773 -13.9781H968.039V-25.2459H956.773V-13.9781ZM956.773 76.2074H968.039V64.9397H956.773V76.2074ZM956.773 617.343H968.039V606.075H956.773V617.343ZM1001.86 -239.464H1013.12V-250.732H1001.86V-239.464ZM911.69 -149.278H922.955V-160.546H911.69V-149.278ZM956.773 797.714H968.039V786.446H956.773V797.714ZM956.773 707.528H968.039V696.26H956.773V707.528ZM956.773 -104.164H968.039V-115.431H956.773V-104.164ZM956.773 527.157H968.039V515.889H956.773V527.157ZM1001.86 31.1147H1013.12V19.8469H1001.86V31.1147ZM911.69 -59.0709H922.955V-70.3387H911.69V-59.0709ZM1001.86 121.3H1013.12V110.032H1001.86V121.3ZM641.187 752.621H652.452V741.353H641.187V752.621ZM1001.86 211.486H1013.12V200.218H1001.86V211.486ZM1001.86 -59.0709H1013.12V-70.3387H1001.86V-59.0709ZM1001.86 -149.278H1013.12V-160.546H1001.86V-149.278ZM1001.86 662.435H1013.12V651.168H1001.86V662.435ZM956.773 -194.371H968.039V-205.639H956.773V-194.371ZM1001.86 752.621H1013.12V741.353H1001.86V752.621ZM1001.86 482.064H1013.12V470.796H1001.86V482.064ZM1001.86 391.879H1013.12V380.611H1001.86V391.879ZM1001.86 572.25H1013.12V560.982H1001.86V572.25ZM911.69 31.1147H922.955V19.8469H911.69V31.1147ZM866.606 166.393H877.871V155.125H866.606V166.393ZM866.606 527.157H877.871V515.889H866.606V527.157ZM866.606 707.528H877.871V696.26H866.606V707.528ZM866.606 617.343H877.871V606.075H866.606V617.343ZM866.606 256.579H877.871V245.311H866.606V256.579ZM866.606 346.786H877.871V335.518H866.606V346.786ZM866.606 436.971H877.871V425.704H866.606V436.971ZM821.522 -59.0709H832.788V-70.3387H821.522V-59.0709ZM866.606 797.714H877.871V786.446H866.606V797.714ZM821.522 121.3H832.788V110.032H821.522V121.3ZM821.522 31.1147H832.788V19.8469H821.522V31.1147ZM821.522 -239.464H832.788V-250.732H821.522V-239.464ZM821.522 -149.278H832.788V-160.546H821.522V-149.278ZM866.606 -104.164H877.871V-115.431H866.606V-104.164ZM911.69 301.671H922.955V290.404H911.69V301.671ZM911.69 391.879H922.955V380.611H911.69V391.879ZM911.69 482.064H922.955V470.796H911.69V482.064ZM911.69 572.25H922.955V560.982H911.69V572.25ZM911.69 211.486H922.955V200.218H911.69V211.486ZM911.69 121.3H922.955V110.032H911.69V121.3ZM821.522 211.486H832.788V200.218H821.522V211.486ZM866.606 76.2074H877.871V64.9397H866.606V76.2074ZM866.606 -13.9781H877.871V-25.2459H866.606V-13.9781ZM866.606 -194.371H877.871V-205.639H866.606V-194.371ZM911.69 752.621H922.955V741.353H911.69V752.621ZM911.69 662.435H922.955V651.168H911.69V662.435Z" fill="white" fill-opacity="0.11"/>
</g>
<g style="mix-blend-mode:screen">
<mask id="mask0_2833_227" style="mask-type:luminance" maskUnits="userSpaceOnUse" x="-168" y="-257" width="1582" height="1055">
<path d="M1413.03 -256.623H-167.497V797.492H1413.03V-256.623Z" fill="white"/>
</mask>
<g mask="url(#mask0_2833_227)">
<mask id="mask1_2833_227" style="mask-type:luminance" maskUnits="userSpaceOnUse" x="44" y="-475" width="435" height="869">
<path d="M478.032 -40.2979L44.1875 -474.319V393.703L478.032 -40.2979Z" fill="white"/>
</mask>
<g mask="url(#mask1_2833_227)">
<g style="mix-blend-mode:screen">
<path d="M332.597 199.402C427.289 104.671 427.289 -48.9175 332.597 -143.648C237.905 -238.379 84.3794 -238.379 -10.3126 -143.648C-105.005 -48.9175 -105.005 104.671 -10.3126 199.402C84.3794 294.132 237.905 294.132 332.597 199.402Z" stroke="url(#paint0_linear_2833_227)" stroke-width="2.4664" stroke-miterlimit="10"/>
<path d="M255.802 43.2673C264.285 -9.01442 228.796 -58.2768 176.536 -66.7633C124.276 -75.2498 75.0334 -39.7468 66.5503 12.5349C58.0673 64.8166 93.5558 114.079 145.816 122.565C198.076 131.052 247.319 95.549 255.802 43.2673Z" stroke="url(#paint1_linear_2833_227)" stroke-width="2.4664" stroke-miterlimit="10"/>
<path d="M204.401 34.9204C208.276 11.0379 192.065 -11.4653 168.192 -15.342C144.319 -19.2186 121.825 -3.00074 117.95 20.8817C114.075 44.7642 130.286 67.2674 154.159 71.1441C178.032 75.0208 200.526 58.8029 204.401 34.9204Z" stroke="url(#paint2_linear_2833_227)" stroke-width="2.4664" stroke-miterlimit="10"/>
<path d="M281.992 148.776C348.736 82.0053 348.736 -26.2516 281.992 -93.0225C215.249 -159.793 107.036 -159.793 40.2924 -93.0225C-26.4512 -26.2516 -26.4513 82.0053 40.2924 148.776C107.036 215.547 215.249 215.547 281.992 148.776Z" stroke="url(#paint3_linear_2833_227)" stroke-width="2.4664" stroke-miterlimit="10"/>
</g>
</g>
<path d="M18.5625 -148.113L-209.645 -376.413V80.1874L18.5625 -148.113Z" fill="url(#paint4_linear_2833_227)"/>
<path d="M202.641 416.45L95.6289 309.394V523.506L202.641 416.45Z" fill="url(#paint5_linear_2833_227)"/>
<path d="M323.625 -40.2977L18.5625 -345.485V264.89L323.625 -40.2977Z" fill="url(#paint6_linear_2833_227)"/>
<path d="M313.152 39.2878L129.811 -144.128V222.725L313.152 39.2878Z" fill="url(#paint7_linear_2833_227)"/>
<path d="M37.9081 -65.4701L-44.6797 -148.113V17.1726L37.9081 -65.4701Z" fill="url(#paint8_linear_2833_227)"/>
<path d="M8.23637 302.311L-44.6797 249.373V355.248L8.23637 302.311Z" fill="url(#paint9_linear_2833_227)"/>
<path d="M202.641 105.381L76.8945 -20.4172V231.2L202.641 105.381Z" fill="url(#paint10_linear_2833_227)"/>
<path d="M130.59 142.781L-65.5635 -53.4534V338.994L130.59 142.781Z" stroke="url(#paint11_linear_2833_227)" stroke-width="4.93281" stroke-miterlimit="10"/>
<path d="M467.116 39.2878L381.156 -46.7069V125.283L467.116 39.2878Z" fill="url(#paint12_linear_2833_227)"/>
<path style="mix-blend-mode:screen" d="M241.291 416.45L157.607 332.732V500.168L241.291 416.45Z" stroke="url(#paint13_linear_2833_227)" stroke-width="2.34308" stroke-miterlimit="10"/>
<path style="mix-blend-mode:screen" d="M56.1578 332.69L-193.018 83.4131V581.946L56.1578 332.69Z" stroke="url(#paint14_linear_2833_227)" stroke-width="2.34308" stroke-miterlimit="10"/>
<mask id="mask2_2833_227" style="mask-type:luminance" maskUnits="userSpaceOnUse" x="603" y="277" width="435" height="869">
<path d="M603.947 711.16L1037.79 1145.18V277.159L603.947 711.16Z" fill="white"/>
</mask>
<g mask="url(#mask2_2833_227)">
<g style="mix-blend-mode:screen">
<path d="M1092.28 814.524C1186.97 719.793 1186.97 566.205 1092.28 471.474C997.586 376.743 844.06 376.743 749.368 471.474C654.676 566.205 654.676 719.793 749.368 814.524C844.06 909.255 997.586 909.255 1092.28 814.524Z" stroke="url(#paint15_linear_2833_227)" stroke-width="2.4664" stroke-miterlimit="10"/>
</g>
</g>
<path d="M1042.89 90.792L1149.9 197.848V-16.2639L1042.89 90.792Z" fill="url(#paint16_linear_2833_227)"/>
<path d="M921.907 547.54L1226.97 852.727V242.374L921.907 547.54Z" fill="url(#paint17_linear_2833_227)"/>
<path d="M932.381 467.954L1115.72 651.37V284.517L932.381 467.954Z" fill="url(#paint18_linear_2833_227)"/>
<path d="M1237.3 204.932L1290.21 257.869V151.994L1237.3 204.932Z" fill="url(#paint19_linear_2833_227)"/>
<path d="M1042.89 401.861L1168.64 527.659V276.042L1042.89 401.861Z" fill="url(#paint20_linear_2833_227)"/>
<path d="M1114.94 364.461L1311.1 560.695V168.248L1114.94 364.461Z" stroke="url(#paint21_linear_2833_227)" stroke-width="4.93281" stroke-miterlimit="10"/>
<path style="mix-blend-mode:screen" d="M1004.24 173.456L1087.93 257.173V89.7378L1004.24 173.456Z" stroke="url(#paint22_linear_2833_227)" stroke-width="2.34308" stroke-miterlimit="10"/>
<path style="mix-blend-mode:screen" d="M1189.38 174.552L1438.55 423.829V-74.704L1189.38 174.552Z" stroke="url(#paint23_linear_2833_227)" stroke-width="2.34308" stroke-miterlimit="10"/>
</g>
</g>
<defs>
<linearGradient id="paint0_linear_2833_227" x1="-82.3629" y1="27.8704" x2="404.671" y2="27.8704" gradientUnits="userSpaceOnUse">
<stop stop-color="#F1F1F1"/>
<stop offset="0.62" stop-color="#6B697E"/>
<stop offset="1" stop-color="#1D1A3B"/>
</linearGradient>
<linearGradient id="paint1_linear_2833_227" x1="64.2877" y1="-474.298" x2="258.102" y2="-474.298" gradientUnits="userSpaceOnUse">
<stop stop-color="#F1F1F1"/>
<stop offset="0.62" stop-color="#6B697E"/>
<stop offset="1" stop-color="#1D1A3B"/>
</linearGradient>
<linearGradient id="paint2_linear_2833_227" x1="116.339" y1="-474.298" x2="206.05" y2="-474.298" gradientUnits="userSpaceOnUse">
<stop stop-color="#F1F1F1"/>
<stop offset="0.62" stop-color="#6B697E"/>
<stop offset="1" stop-color="#1D1A3B"/>
</linearGradient>
<linearGradient id="paint3_linear_2833_227" x1="-10.7967" y1="-474.31" x2="333.105" y2="-474.31" gradientUnits="userSpaceOnUse">
<stop stop-color="#F1F1F1"/>
<stop offset="0.62" stop-color="#6B697E"/>
<stop offset="1" stop-color="#1D1A3B"/>
</linearGradient>
<linearGradient id="paint4_linear_2833_227" x1="139.842" y1="-497.721" x2="-439.163" y2="81.0262" gradientUnits="userSpaceOnUse">
<stop stop-color="#3D3887"/>
<stop offset="0.27" stop-color="#2B275E"/>
<stop offset="0.48" stop-color="#211D44"/>
<stop offset="0.61" stop-color="#1D1A3B"/>
</linearGradient>
<linearGradient id="paint5_linear_2833_227" x1="388.553" y1="123.427" x2="117.055" y2="394.814" gradientUnits="userSpaceOnUse">
<stop stop-color="#3C3785"/>
<stop offset="0.15" stop-color="#312C6A"/>
<stop offset="0.31" stop-color="#282455"/>
<stop offset="0.48" stop-color="#211E46"/>
<stop offset="0.69" stop-color="#1E1B3D"/>
<stop offset="1" stop-color="#1D1A3B"/>
</linearGradient>
<linearGradient id="paint6_linear_2833_227" x1="485.745" y1="-507.671" x2="-288.249" y2="265.986" gradientUnits="userSpaceOnUse">
<stop stop-color="#3D3887"/>
<stop offset="0.34" stop-color="#2B275E"/>
<stop offset="0.61" stop-color="#211D44"/>
<stop offset="0.77" stop-color="#1D1A3B"/>
</linearGradient>
<linearGradient id="paint7_linear_2833_227" x1="-255.332" y1="424.588" x2="415.464" y2="-245.935" gradientUnits="userSpaceOnUse">
<stop offset="0.09" stop-color="#1D1A3B"/>
<stop offset="0.3" stop-color="#221E47"/>
<stop offset="0.69" stop-color="#302B68"/>
<stop offset="1" stop-color="#3D3887"/>
</linearGradient>
<linearGradient id="paint8_linear_2833_227" x1="-190.088" y1="79.9978" x2="178.599" y2="-288.539" gradientUnits="userSpaceOnUse">
<stop offset="0.13" stop-color="#312B72"/>
<stop offset="0.83" stop-color="#3D3887"/>
</linearGradient>
<linearGradient id="paint9_linear_2833_227" x1="-100.799" y1="358.432" x2="135.407" y2="122.343" gradientUnits="userSpaceOnUse">
<stop offset="0.13" stop-color="#312B72"/>
<stop offset="0.83" stop-color="#3D3887"/>
</linearGradient>
<linearGradient id="paint10_linear_2833_227" x1="-144.464" y1="326.829" x2="416.832" y2="-234.237" gradientUnits="userSpaceOnUse">
<stop offset="0.13" stop-color="#312B72"/>
<stop offset="0.83" stop-color="#3D3887"/>
</linearGradient>
<linearGradient id="paint11_linear_2833_227" x1="-168.277" y1="243.428" x2="33.0382" y2="42.1949" gradientUnits="userSpaceOnUse">
<stop offset="0.14" stop-color="#B8852E"/>
<stop offset="0.21" stop-color="#835D1B"/>
<stop offset="0.27" stop-color="#DDB163"/>
<stop offset="0.28" stop-color="#D4A85C"/>
<stop offset="0.38" stop-color="#865F1C"/>
<stop offset="0.51" stop-color="#DDB163"/>
<stop offset="0.71" stop-color="#9E7125"/>
<stop offset="0.83" stop-color="#D29937"/>
</linearGradient>
<linearGradient id="paint12_linear_2833_227" x1="525.005" y1="-104.62" x2="315.806" y2="104.494" gradientUnits="userSpaceOnUse">
<stop offset="0.06" stop-color="#7167FA"/>
<stop offset="0.22" stop-color="#635ADB"/>
<stop offset="0.45" stop-color="#524BB6"/>
<stop offset="0.66" stop-color="#46409C"/>
<stop offset="0.85" stop-color="#3F3A8C"/>
<stop offset="1" stop-color="#3D3887"/>
</linearGradient>
<linearGradient id="paint13_linear_2833_227" x1="113.563" y1="459.521" x2="199.706" y2="373.414" gradientUnits="userSpaceOnUse">
<stop stop-color="#F1F1F1"/>
<stop offset="0.62" stop-color="#6B697E"/>
<stop offset="1" stop-color="#1D1A3B"/>
</linearGradient>
<linearGradient id="paint14_linear_2833_227" x1="-194.008" y1="332.69" x2="57.5698" y2="332.69" gradientUnits="userSpaceOnUse">
<stop stop-color="#F1F1F1"/>
<stop offset="0.62" stop-color="#6B697E"/>
<stop offset="1" stop-color="#1D1A3B"/>
</linearGradient>
<linearGradient id="paint15_linear_2833_227" x1="1164.34" y1="642.991" x2="677.305" y2="642.991" gradientUnits="userSpaceOnUse">
<stop stop-color="#F1F1F1"/>
<stop offset="0.62" stop-color="#6B697E"/>
<stop offset="1" stop-color="#1D1A3B"/>
</linearGradient>
<linearGradient id="paint16_linear_2833_227" x1="856.979" y1="383.836" x2="1128.5" y2="112.428" gradientUnits="userSpaceOnUse">
<stop offset="0.13" stop-color="#312B72"/>
<stop offset="0.83" stop-color="#3D3887"/>
</linearGradient>
<linearGradient id="paint17_linear_2833_227" x1="1575.72" y1="198.649" x2="828.393" y2="945.669" gradientUnits="userSpaceOnUse">
<stop stop-color="#3D3887"/>
<stop offset="0.22" stop-color="#322D6D"/>
<stop offset="0.52" stop-color="#262351"/>
<stop offset="0.78" stop-color="#1F1C40"/>
<stop offset="0.97" stop-color="#1D1A3B"/>
</linearGradient>
<linearGradient id="paint18_linear_2833_227" x1="873.922" y1="709.853" x2="1233.08" y2="350.841" gradientUnits="userSpaceOnUse">
<stop offset="0.09" stop-color="#1D1A3B"/>
<stop offset="0.46" stop-color="#282557"/>
<stop offset="1" stop-color="#3D3887"/>
</linearGradient>
<linearGradient id="paint19_linear_2833_227" x1="1346.33" y1="148.81" x2="1110.13" y2="384.899" gradientUnits="userSpaceOnUse">
<stop offset="0.13" stop-color="#312B72"/>
<stop offset="0.83" stop-color="#3D3887"/>
</linearGradient>
<linearGradient id="paint20_linear_2833_227" x1="1390" y1="180.413" x2="828.723" y2="741.479" gradientUnits="userSpaceOnUse">
<stop offset="0.13" stop-color="#312B72"/>
<stop offset="0.83" stop-color="#3D3887"/>
</linearGradient>
<linearGradient id="paint21_linear_2833_227" x1="1413.81" y1="263.814" x2="1212.49" y2="465.047" gradientUnits="userSpaceOnUse">
<stop offset="0.17" stop-color="#D29937"/>
<stop offset="0.29" stop-color="#9E7125"/>
<stop offset="0.49" stop-color="#DDB163"/>
<stop offset="0.62" stop-color="#865F1C"/>
<stop offset="0.72" stop-color="#D4A85C"/>
<stop offset="0.73" stop-color="#DDB163"/>
<stop offset="0.79" stop-color="#835D1B"/>
<stop offset="0.86" stop-color="#B8852E"/>
</linearGradient>
<linearGradient id="paint22_linear_2833_227" x1="1131.97" y1="130.384" x2="1045.83" y2="216.492" gradientUnits="userSpaceOnUse">
<stop stop-color="#1D1A3B"/>
<stop offset="0.38" stop-color="#6B697E"/>
<stop offset="0.99" stop-color="#F1F1F1"/>
</linearGradient>
<linearGradient id="paint23_linear_2833_227" x1="1439.54" y1="174.573" x2="1187.96" y2="174.573" gradientUnits="userSpaceOnUse">
<stop stop-color="#1D1A3B"/>
<stop offset="0.38" stop-color="#6B697E"/>
<stop offset="0.99" stop-color="#F1F1F1"/>
</linearGradient>
<clipPath id="clip0_2833_227">
<rect width="1589.29" height="1048.45" fill="white" transform="translate(-170.365 -250.732)"/>
</clipPath>
</defs>
</svg>
