<svg width="18" height="24" viewBox="0 0 18 24" fill="none" xmlns="http://www.w3.org/2000/svg">
<path d="M9.00048 0C4.20775 0 0.308594 3.89916 0.308594 8.69184C0.308594 14.6397 8.08698 23.3715 8.41816 23.7404C8.72922 24.0868 9.27231 24.0862 9.58281 23.7404C9.91398 23.3715 17.6924 14.6397 17.6924 8.69184C17.6923 3.89916 13.7932 0 9.00048 0ZM9.00048 13.065C6.58914 13.065 4.62742 11.1032 4.62742 8.69184C4.62742 6.2805 6.58919 4.31878 9.00048 4.31878C11.4118 4.31878 13.3735 6.28055 13.3735 8.69189C13.3735 11.1032 11.4118 13.065 9.00048 13.065Z" fill="#875FFF"/>
</svg>
