<svg width="34" height="34" viewBox="0 0 34 34" fill="none" xmlns="http://www.w3.org/2000/svg">
<path d="M20.2379 29.4013C19.8892 29.0527 19.6592 28.6303 19.5477 28.1844L15.8357 13.3366C15.8009 13.1971 15.7789 13.0552 15.7672 12.9127C15.0257 12.852 14.2634 13.1041 13.696 13.6714C13.0196 14.3478 12.7896 15.3015 13.0058 16.1665L16.7178 31.0143C16.8293 31.4602 17.0593 31.8825 17.4079 32.2312C18.433 33.2563 20.0949 33.2563 21.1199 32.2312C21.3615 31.9896 21.5462 31.7126 21.6739 31.4169L22.2137 30.1673C21.5025 30.1995 20.7809 29.9443 20.2379 29.4013Z" fill="#CEE1F2"/>
<path d="M23.5004 27.1877L26.6879 30.3752C27.713 31.4002 29.3749 31.4002 30.3999 30.3752C31.4249 29.3502 31.4249 27.6882 30.3999 26.6632L27.2124 23.4757L31.4415 21.6493C31.7372 21.5216 32.0142 21.3369 32.2558 21.0953C33.2808 20.0702 33.2808 18.4083 32.2558 17.3833C31.9072 17.0347 31.4849 16.8046 31.0389 16.6931L16.1911 12.9811C15.3261 12.7648 14.3724 12.9949 13.696 13.6713C13.0196 14.3477 12.7896 15.3013 13.0058 16.1664L16.7179 31.0143C16.8294 31.4602 17.0594 31.8825 17.4081 32.2312C18.4331 33.2563 20.095 33.2563 21.1201 32.2312C21.3617 31.9896 21.5463 31.7126 21.6741 31.4169L23.5004 27.1877Z" fill="#7171BC" stroke="white" stroke-miterlimit="10" stroke-linecap="round" stroke-linejoin="round"/>
<path d="M9.69825 22.6482C5.25954 21.4226 2 17.3555 2 12.5269C2 6.72844 6.70053 2.02791 12.499 2.02791C17.2901 2.02791 21.3316 5.23706 22.5913 9.62308" stroke="#7171BC" stroke-width="3" stroke-miterlimit="10" stroke-linecap="round" stroke-linejoin="round"/>
<path d="M8.32596 15.7084C7.65087 14.8249 7.24948 13.7218 7.24948 12.5269C7.24948 9.633 9.60381 7.27742 12.499 7.27742C13.6567 7.27742 14.728 7.65407 15.5968 8.29123" stroke="#7171BC" stroke-width="3" stroke-miterlimit="10" stroke-linecap="round" stroke-linejoin="round"/>
</svg>
