<svg width="33" height="33" viewBox="0 0 33 33" fill="none" xmlns="http://www.w3.org/2000/svg">
<path d="M27.8439 1.37488H23.0313C22.462 1.37488 22 1.83688 22 2.40613V7.05382C22 7.32875 22.11 7.59412 22.3067 7.78672L27.1193 12.5442C27.3159 12.7393 27.5785 12.8425 27.8439 12.8425C27.9785 12.8425 28.1132 12.8163 28.2411 12.7627C28.6248 12.6033 28.8751 12.228 28.8751 11.8113V2.40613C28.8751 1.83688 28.4131 1.37488 27.8439 1.37488Z" fill="#7171BC"/>
<path d="M33.0001 16.1563C33.0001 17.105 32.2302 17.8749 31.2813 17.8749H28.8751L16.5 5.84379L4.12501 17.8749H1.71884C0.769915 17.8749 0 17.105 0 16.1563C0 15.7024 0.178757 15.2487 0.508829 14.9325L15.785 0.288718C16.1838 -0.0962394 16.8163 -0.0962394 17.2151 0.288718L32.4777 14.9186C32.8213 15.2487 33.0001 15.7024 33.0001 16.1563Z" fill="#7171BC"/>
<path d="M16.5 5.84375L4.125 17.8749V30.2499C4.125 31.7625 5.36245 33 6.87509 33H26.125C27.6376 33 28.8751 31.7625 28.8751 30.2499V17.8749L16.5 5.84375Z" fill="white"/>
<path d="M12.375 21.9999H20.625V33H12.375V21.9999Z" fill="#7171BC"/>
</svg>
