<svg width="35" height="30" viewBox="0 0 35 30" fill="none" xmlns="http://www.w3.org/2000/svg">
<path d="M32.144 6.42773H2.14294C0.962178 6.42773 0 7.38991 0 8.57067V27.8571C0 29.04 0.962178 30 2.14294 30H32.144C33.3269 30 34.287 29.04 34.287 27.8571V8.57067C34.287 7.38991 33.3269 6.42773 32.144 6.42773Z" fill="#7171BC"/>
<path d="M34.287 10.7136H0V17.1424H34.287V10.7136Z" fill="white"/>
<path d="M9.64323 23.5712H5.35736C4.76591 23.5712 4.28589 23.0911 4.28589 22.4997C4.28589 21.9082 4.76591 21.4282 5.35736 21.4282H9.64323C10.2347 21.4282 10.7147 21.9082 10.7147 22.4997C10.7147 23.0911 10.2347 23.5712 9.64323 23.5712Z" fill="#FAFAFA"/>
<path d="M34.287 17.0267V8.57067C34.287 7.38991 33.3269 6.42773 32.144 6.42773H15.0005V8.57067C15.0005 15.2823 17.5549 19.3689 24.1209 23.1491C24.6052 23.4255 25.1581 23.5712 25.7152 23.5712C26.2724 23.5712 26.8253 23.4255 27.316 23.1448C30.5647 21.2783 32.8276 19.3303 34.287 17.0267Z" fill="#FAFAFA"/>
<path d="M33.6377 3.30119L26.1374 0.0867889C25.8652 -0.0289296 25.5631 -0.0289296 25.2909 0.0867889L17.7907 3.30119C17.3985 3.46834 17.1435 3.85621 17.1435 4.2848V8.57067C17.1435 14.4659 19.3229 17.9117 25.1816 21.2868C25.3466 21.3811 25.5309 21.4283 25.7152 21.4283C25.8995 21.4283 26.0838 21.3811 26.2488 21.2868C32.1076 17.9203 34.287 14.4745 34.287 8.57067V4.2848C34.287 3.85621 34.032 3.46834 33.6377 3.30119Z" fill="#7171BC"/>
<path d="M24.6437 13.928C24.6287 13.928 24.6116 13.928 24.5987 13.928C24.258 13.913 23.943 13.7373 23.7523 13.4523L21.6093 10.2379C21.2815 9.74502 21.4143 9.08071 21.9072 8.75284C22.3958 8.42711 23.0622 8.55569 23.3922 9.05071L24.723 11.0458L28.0917 6.83277C28.4624 6.37204 29.1375 6.29918 29.5982 6.66562C30.0611 7.03635 30.1339 7.70923 29.7653 8.1721L25.4795 13.5294C25.2759 13.7802 24.9673 13.928 24.6437 13.928Z" fill="#FAFAFA"/>
</svg>
