<svg width="149" height="45" viewBox="0 0 149 45" fill="none" xmlns="http://www.w3.org/2000/svg">
<path d="M143.396 43.1078H5.60881C2.81647 43.1078 0.553711 40.8552 0.553711 38.0755V5.58113C0.553711 2.80138 2.81647 0.548828 5.60881 0.548828H143.396C146.189 0.548828 148.451 2.80138 148.451 5.58113V38.0755C148.451 40.8552 146.189 43.1078 143.396 43.1078Z" fill="black"/>
<mask id="mask0_91_182" style="mask-type:luminance" maskUnits="userSpaceOnUse" x="0" y="0" width="149" height="45">
<path d="M0 0H149V44.3056H0V0Z" fill="white"/>
</mask>
<g mask="url(#mask0_91_182)">
<path d="M5.60607 1.09938C3.12399 1.09938 1.10463 3.10964 1.10463 5.58053V38.0749C1.10463 40.5457 3.12399 42.556 5.60607 42.556H143.396C145.878 42.556 147.898 40.5457 147.898 38.0749V5.58053C147.898 3.10964 145.878 1.09938 143.396 1.09938H5.60607ZM143.396 43.6583H5.60607C2.51417 43.6583 0 41.1528 0 38.0749V5.58053C0 2.50257 2.51417 -0.00292969 5.60607 -0.00292969H143.396C146.488 -0.00292969 149.002 2.50257 149.002 5.58053V38.0749C149.002 41.1528 146.488 43.6583 143.396 43.6583Z" fill="#A7A9AB"/>
</g>
<path d="M51.6688 11.4254L51.1018 9.65744C50.9627 9.22077 50.845 8.73352 50.7381 8.31815H50.7167C50.6124 8.73352 50.5027 9.23142 50.377 9.65744L49.8207 11.4254H51.6688ZM49.6067 12.4132L48.9862 14.4474H47.6274L49.9383 7.27441H51.6153L53.9557 14.4474H52.5461L51.8935 12.4132" fill="white"/>
<path d="M55.9215 9.26562L56.7666 11.8909C56.9164 12.3489 57.0207 12.7643 57.117 13.1903H57.1491C57.2454 12.7643 57.3631 12.3596 57.5022 11.8909L58.3367 9.26562H59.7141L57.7268 14.447H56.435L54.4985 9.26562" fill="white"/>
<path d="M63.6809 11.9122C62.7501 11.9016 61.8621 12.0933 61.8621 12.8814C61.8621 13.3926 62.1938 13.6269 62.611 13.6269C63.1433 13.6269 63.5204 13.2861 63.6461 12.9133C63.6809 12.8175 63.6809 12.7216 63.6809 12.6258V11.9122ZM64.962 13.2009C64.962 13.6695 64.9834 14.1275 65.0476 14.4443H63.8601L63.7665 13.8719H63.7317C63.4241 14.2739 62.8785 14.5615 62.1938 14.5615C61.1453 14.5615 60.5596 13.808 60.5596 13.0199C60.5596 11.7205 61.723 11.0522 63.6461 11.0628V10.9776C63.6461 10.6368 63.5097 10.0724 62.5896 10.0724C62.0761 10.0724 61.5412 10.2321 61.1881 10.4558L60.9313 9.60374C61.3165 9.36943 61.9905 9.14844 62.8143 9.14844C64.4806 9.14844 64.962 10.2002 64.962 11.3398" fill="white"/>
<path d="M66.821 9.26554H68.1342V14.447H66.821V9.26554ZM67.4709 8.52002C67.035 8.52002 66.7461 8.20051 66.7461 7.81709C66.7461 7.41238 67.043 7.10352 67.4843 7.10352C67.931 7.10352 68.2091 7.41238 68.2198 7.81709C68.2198 8.20051 67.931 8.52002 67.4843 8.52002" fill="white"/>
<path d="M70.0249 14.447H71.3408V6.87988H70.0249V14.447Z" fill="white"/>
<path d="M76.0002 11.9122C75.0694 11.9016 74.1815 12.0933 74.1815 12.8814C74.1815 13.3926 74.5131 13.6269 74.9304 13.6269C75.4653 13.6269 75.8397 13.2861 75.9681 12.9133C76.0002 12.8175 76.0002 12.7216 76.0002 12.6258V11.9122ZM77.2814 13.2009C77.2814 13.6695 77.3028 14.1275 77.367 14.4443H76.1821L76.0858 13.8719H76.0537C75.7435 14.2739 75.1978 14.5615 74.5131 14.5615C73.4673 14.5615 72.8789 13.808 72.8789 13.0199C72.8789 11.7205 74.0451 11.0522 75.9681 11.0628V10.9776C75.9681 10.6368 75.829 10.0724 74.909 10.0724C74.3954 10.0724 73.8605 10.2321 73.5101 10.4558L73.2534 9.60374C73.6385 9.36943 74.3098 9.14844 75.1336 9.14844C76.7999 9.14844 77.2814 10.2002 77.2814 11.3398" fill="white"/>
<path d="M80.4564 12.3063C80.4564 12.4128 80.4671 12.5193 80.4885 12.6151C80.6276 13.1476 81.0876 13.531 81.652 13.531C82.4757 13.531 82.9786 12.8814 82.9786 11.8296C82.9786 10.9137 82.5399 10.1682 81.6626 10.1682C81.1277 10.1682 80.6383 10.5516 80.4992 11.1267C80.4778 11.2226 80.4564 11.3397 80.4564 11.4675V12.3063ZM79.1405 6.87988H80.4564V9.97648H80.4778C80.7987 9.47591 81.3631 9.14841 82.1441 9.14841C83.4172 9.14841 84.3239 10.2001 84.3132 11.7764C84.3132 13.6376 83.1284 14.5641 81.9515 14.5641C81.2775 14.5641 80.6811 14.3085 80.3066 13.6695H80.2852L80.221 14.447H79.0977C79.1191 14.0955 79.1405 13.5204 79.1405 12.9985" fill="white"/>
<path d="M85.8618 14.447H87.1751V6.87988H85.8618V14.447Z" fill="white"/>
<path d="M92.2944 11.3078C92.3051 10.8285 92.0911 10.0404 91.2165 10.0404C90.4034 10.0404 90.061 10.7753 90.0076 11.3078H92.2944ZM90.0076 12.2211C90.0396 13.1583 90.7779 13.563 91.6123 13.563C92.2195 13.563 92.6474 13.4672 93.054 13.3287L93.2466 14.2207C92.7972 14.4151 92.1767 14.5508 91.4305 14.5508C89.7401 14.5508 88.7451 13.5204 88.7451 11.9362C88.7451 10.4984 89.6224 9.14844 91.2914 9.14844C92.9791 9.14844 93.5354 10.5303 93.5354 11.6699C93.5354 11.9149 93.514 12.1066 93.4926 12.2211" fill="white"/>
<path d="M100.064 13.6163C100.81 13.6163 101.335 12.892 101.335 11.8403C101.335 11.0309 100.971 10.0937 100.075 10.0937C99.1441 10.0937 98.7696 10.9989 98.7696 11.8616C98.7696 12.8601 99.2725 13.6163 100.051 13.6163H100.064ZM100.021 14.5642C98.5557 14.5642 97.4136 13.563 97.4136 11.8936C97.4136 10.1895 98.5343 9.14844 100.107 9.14844C101.656 9.14844 102.693 10.2321 102.693 11.8084C102.693 13.7121 101.345 14.5642 100.032 14.5642" fill="white"/>
<path d="M104.239 10.8072C104.239 10.2108 104.221 9.71025 104.199 9.26293H105.341L105.405 10.0404H105.438C105.673 9.63569 106.24 9.14844 107.107 9.14844C108.013 9.14844 108.955 9.73155 108.955 11.3717V14.4443H107.639V11.5208C107.639 10.7753 107.361 10.2108 106.647 10.2108C106.122 10.2108 105.759 10.5836 105.619 10.9776C105.577 11.0841 105.555 11.2439 105.555 11.393V14.4443H104.239" fill="white"/>
<path d="M115.013 7.93457V9.26321H116.262V10.243H115.013V12.5196C115.013 13.1586 115.184 13.4781 115.684 13.4781C115.919 13.4781 116.048 13.4674 116.198 13.4248L116.219 14.4127C116.026 14.4899 115.673 14.5511 115.267 14.5511C114.777 14.5511 114.381 14.3914 114.135 14.1278C113.847 13.8296 113.718 13.3503 113.718 12.6687V10.243H112.98V9.26321H113.718V8.29668" fill="white"/>
<path d="M117.725 6.87988H119.041V9.96583H119.062C119.222 9.72087 119.447 9.51852 119.715 9.38006C119.982 9.23362 120.29 9.14841 120.621 9.14841C121.509 9.14841 122.437 9.73152 122.437 11.393V14.447H121.124V11.5314C121.124 10.7859 120.846 10.2108 120.118 10.2108C119.608 10.2108 119.244 10.5516 119.094 10.9457C119.051 11.0628 119.041 11.2013 119.041 11.3397V14.447H117.725" fill="white"/>
<path d="M127.525 11.3078C127.536 10.8285 127.322 10.0404 126.444 10.0404C125.631 10.0404 125.292 10.7753 125.238 11.3078H127.525ZM125.238 12.2211C125.27 13.1583 126.006 13.563 126.84 13.563C127.45 13.563 127.878 13.4672 128.282 13.3287L128.477 14.2207C128.028 14.4151 127.407 14.5508 126.658 14.5508C124.971 14.5508 123.976 13.5204 123.976 11.9362C123.976 10.4984 124.853 9.14844 126.519 9.14844C128.207 9.14844 128.763 10.5303 128.763 11.6699C128.763 11.9149 128.742 12.1066 128.72 12.2211" fill="white"/>
<path d="M33.2542 21.4024C33.2194 17.8532 36.1722 16.1252 36.3087 16.0453C34.637 13.617 32.0453 13.2868 31.1332 13.2602C28.9587 13.0339 26.8484 14.5596 25.7411 14.5596C24.6097 14.5596 22.9006 13.2842 21.0631 13.3214C18.6934 13.3587 16.4788 14.7246 15.2645 16.8414C12.761 21.1628 14.6279 27.5104 17.0298 31.0037C18.2333 32.7131 19.6349 34.6249 21.4724 34.5556C23.2697 34.4811 23.9411 33.4161 26.1102 33.4161C28.2606 33.4161 28.8918 34.5556 30.7668 34.513C32.6952 34.4811 33.9095 32.7957 35.0676 31.0676C36.4584 29.108 37.0148 27.1776 37.0362 27.0791C36.9907 27.0631 33.2916 25.6573 33.2542 21.4024Z" fill="white"/>
<path d="M29.7127 10.9641C30.6782 9.7606 31.3442 8.12044 31.157 6.45898C29.7581 6.52289 28.0089 7.42284 27.0006 8.59971C26.1099 9.63812 25.3102 11.3395 25.5188 12.9371C27.0915 13.0542 28.7043 12.149 29.7127 10.9641Z" fill="white"/>
<path d="M54.9453 28.1778L53.7042 24.3623C53.5732 23.9736 53.3271 23.055 52.9634 21.6118H52.9206C52.7761 22.2322 52.5408 23.1508 52.2225 24.3623L51.0028 28.1778H54.9453ZM59.2354 34.2725H56.7293L55.3572 29.9804H50.5909L49.283 34.2725H46.8438L51.5725 19.6602H54.4879" fill="white"/>
<path d="M68.9929 28.9609C68.9929 27.9331 68.7602 27.0891 68.2948 26.4234C67.7866 25.7312 67.1046 25.3824 66.2487 25.3824C65.6683 25.3824 65.1387 25.5767 64.6707 25.9575C64.1999 26.3436 63.8897 26.8441 63.7426 27.4672C63.6703 27.7547 63.6356 27.9917 63.6356 28.1781V29.9354C63.6356 30.7022 63.8709 31.3493 64.3417 31.8764C64.8151 32.4063 65.4276 32.6672 66.1818 32.6672C67.0698 32.6672 67.7599 32.3291 68.2494 31.6475C68.7468 30.9685 68.9929 30.0739 68.9929 28.9609ZM71.3894 28.873C71.3894 30.665 70.9026 32.0841 69.929 33.1225C69.0571 34.0491 67.9739 34.5098 66.6847 34.5098C65.2885 34.5098 64.2882 34.0092 63.6784 33.0134H63.6356V38.5649H61.2819V27.2036C61.2819 26.0773 61.2551 24.9217 61.1963 23.7342H63.2638L63.3949 25.4063H63.4403C64.224 24.1469 65.4142 23.5186 67.011 23.5186C68.2574 23.5186 69.3032 24.0111 70.135 24.9936C70.9695 25.9788 71.3894 27.2702 71.3894 28.873Z" fill="white"/>
<path d="M81.165 28.9609C81.165 27.9331 80.9323 27.0891 80.4669 26.4234C79.9588 25.7312 79.2767 25.3824 78.4208 25.3824C77.8404 25.3824 77.3135 25.5767 76.8428 25.9575C76.3694 26.3436 76.0645 26.8441 75.92 27.4672C75.8451 27.7547 75.8104 27.9917 75.8104 28.1781V29.9354C75.8104 30.7022 76.0431 31.3493 76.5138 31.8764C76.9872 32.4063 77.5997 32.6672 78.3566 32.6672C79.242 32.6672 79.932 32.3291 80.4242 31.6475C80.9163 30.9685 81.165 30.0739 81.165 28.9609ZM83.5588 28.873C83.5588 30.665 83.0747 32.0841 82.1012 33.1225C81.2292 34.0491 80.1487 34.5098 78.8568 34.5098C77.4633 34.5098 76.463 34.0092 75.8505 33.0134H75.8104V38.5649H73.4567V27.2036C73.4567 26.0773 73.4273 24.9217 73.3711 23.7342H75.4386L75.5697 25.4063H75.6151C76.3961 24.1469 77.5863 23.5186 79.1831 23.5186C80.4322 23.5186 81.4726 24.0111 82.3098 24.9936C83.1443 25.9788 83.5588 27.2702 83.5588 28.873Z" fill="white"/>
<path d="M97.1729 30.1753C97.1729 31.4161 96.7396 32.4279 95.8676 33.2107C94.9101 34.0627 93.5808 34.4887 91.8717 34.4887C90.291 34.4887 89.0232 34.1852 88.063 33.5781L88.6086 31.6291C89.6437 32.2495 90.7751 32.5583 92.0108 32.5583C92.8961 32.5583 93.5861 32.3613 94.081 31.9646C94.5731 31.5652 94.8192 31.0327 94.8192 30.367C94.8192 29.7759 94.6186 29.2727 94.212 28.868C93.8055 28.4633 93.1288 28.0878 92.1846 27.739C89.6143 26.7832 88.3305 25.3853 88.3305 23.5481C88.3305 22.3473 88.7798 21.3621 89.6812 20.5953C90.5798 19.8285 91.7781 19.4424 93.2732 19.4424C94.6105 19.4424 95.7205 19.6767 96.6058 20.1373L96.0174 22.0464C95.1909 21.5991 94.2548 21.3728 93.209 21.3728C92.3799 21.3728 91.7353 21.5751 91.2726 21.9798C90.8821 22.3419 90.6841 22.7839 90.6841 23.3031C90.6841 23.8809 90.9061 24.3575 91.3582 24.733C91.7487 25.0791 92.4601 25.4545 93.4925 25.8619C94.755 26.3678 95.6831 26.9589 96.2795 27.6379C96.8733 28.3168 97.1729 29.1635 97.1729 30.1753Z" fill="white"/>
<path d="M104.945 25.4913H102.354V30.6061C102.354 31.9082 102.811 32.5578 103.728 32.5578C104.146 32.5578 104.496 32.5232 104.772 32.4513L104.836 34.2273C104.376 34.403 103.763 34.4882 103.009 34.4882C102.081 34.4882 101.353 34.206 100.829 33.6442C100.308 33.0797 100.045 32.1318 100.045 30.8032V25.4913H98.4995V23.734H100.045V21.8063L102.354 21.1113V23.734H104.945" fill="white"/>
<path d="M114.202 28.9929C114.202 28.021 113.991 27.1903 113.568 26.4927C113.079 25.6513 112.373 25.2306 111.458 25.2306C110.514 25.2306 109.795 25.6513 109.302 26.4927C108.88 27.1903 108.674 28.037 108.674 29.0381C108.674 30.01 108.88 30.8407 109.302 31.5356C109.811 32.377 110.522 32.7977 111.439 32.7977C112.335 32.7977 113.042 32.3717 113.55 31.5143C113.986 30.8061 114.202 29.9647 114.202 28.9929ZM116.642 28.9183C116.642 30.5372 116.179 31.8658 115.248 32.9069C114.275 33.9772 112.983 34.5098 111.373 34.5098C109.816 34.5098 108.58 33.9959 107.657 32.9708C106.737 31.9457 106.277 30.6516 106.277 29.0914C106.277 27.4565 106.751 26.1199 107.703 25.0815C108.652 24.0378 109.934 23.5186 111.544 23.5186C113.098 23.5186 114.349 24.0324 115.291 25.0575C116.192 26.0587 116.642 27.342 116.642 28.9183Z" fill="white"/>
<path d="M124.286 25.7951C124.053 25.7525 123.807 25.7312 123.545 25.7312C122.718 25.7312 122.077 26.0427 121.627 26.6631C121.237 27.2142 121.041 27.9065 121.041 28.7426V34.2728H118.69L118.709 27.0545C118.709 25.8377 118.68 24.7327 118.624 23.7342H120.672L120.758 25.7525H120.819C121.068 25.0602 121.461 24.5011 121.996 24.083C122.521 23.7076 123.088 23.5186 123.697 23.5186C123.914 23.5186 124.112 23.5345 124.286 23.5612" fill="white"/>
<path d="M132.559 27.8983C132.575 27.2061 132.422 26.6043 132.104 26.0984C131.697 25.4488 131.069 25.1213 130.229 25.1213C129.461 25.1213 128.836 25.4408 128.357 26.0771C127.966 26.583 127.731 27.1901 127.664 27.8983H132.559ZM134.8 28.5054C134.8 28.9261 134.773 29.2776 134.717 29.5678H127.664C127.688 30.6089 128.031 31.405 128.686 31.9535C129.28 32.4461 130.05 32.6884 130.994 32.6884C132.037 32.6884 132.989 32.5233 133.848 32.1904L134.217 33.8173C133.214 34.2486 132.032 34.4696 130.665 34.4696C129.026 34.4696 127.736 33.9877 126.8 33.0238C125.867 32.0653 125.396 30.7739 125.396 29.1551C125.396 27.5655 125.829 26.2422 126.704 25.1878C127.616 24.0589 128.852 23.4971 130.403 23.4971C131.927 23.4971 133.086 24.0589 133.869 25.1878C134.492 26.0825 134.8 27.1901 134.8 28.5054Z" fill="white"/>
</svg>
