<svg width="21" height="20" viewBox="0 0 21 20" fill="none" xmlns="http://www.w3.org/2000/svg">
<g clip-path="url(#clip0_45_636)">
<path d="M18.3803 13.4917C18.3803 16.5251 16.572 18.3334 13.5386 18.3334H12.547C12.3259 18.3334 12.114 18.2456 11.9577 18.0893C11.8014 17.9331 11.7136 17.7211 11.7136 17.5001V12.6917C11.7136 12.5827 11.7564 12.4779 11.8327 12.4C11.909 12.3221 12.0129 12.2773 12.122 12.2751L13.5886 12.2501C13.646 12.2462 13.7006 12.2238 13.7442 12.1862C13.7878 12.1486 13.818 12.0979 13.8303 12.0417L14.122 10.4501C14.1281 10.4139 14.1262 10.3769 14.1164 10.3416C14.1066 10.3063 14.0891 10.2735 14.0653 10.2457C14.0414 10.2179 14.0117 10.1956 13.9783 10.1805C13.9449 10.1655 13.9086 10.1579 13.872 10.1584L12.097 10.1834C11.9869 10.1839 11.8811 10.1416 11.8017 10.0654C11.7224 9.98913 11.6759 9.88503 11.672 9.77508L11.6386 7.73341C11.6386 7.66711 11.665 7.60352 11.7118 7.55664C11.7587 7.50975 11.8223 7.48341 11.8886 7.48341L13.8886 7.45008C13.9549 7.45008 14.0185 7.42374 14.0654 7.37686C14.1123 7.32997 14.1386 7.26639 14.1386 7.20008L14.1053 5.20008C14.1053 5.13378 14.0789 5.07019 14.0321 5.0233C13.9852 4.97642 13.9216 4.95008 13.8553 4.95008L11.6053 4.98341C11.277 4.98884 10.9529 5.05889 10.6517 5.18957C10.3505 5.32025 10.0779 5.50899 9.84962 5.74501C9.62134 5.98104 9.44178 6.25972 9.32122 6.56515C9.20065 6.87058 9.14144 7.19676 9.14696 7.52508L9.18862 9.81675C9.18973 9.87147 9.18004 9.92587 9.16012 9.97685C9.14019 10.0278 9.11042 10.0744 9.0725 10.1138C9.03458 10.1533 8.98926 10.1849 8.93912 10.2069C8.88898 10.2288 8.83501 10.2407 8.78029 10.2417L7.78029 10.2584C7.71399 10.2584 7.6504 10.2848 7.60351 10.3316C7.55663 10.3785 7.53029 10.4421 7.53029 10.5084L7.55529 12.0917C7.55529 12.1581 7.58163 12.2216 7.62851 12.2685C7.6754 12.3154 7.73899 12.3417 7.80529 12.3417L8.80529 12.3251C8.9153 12.3246 9.02119 12.3669 9.10052 12.4431C9.17985 12.5194 9.22639 12.6235 9.23029 12.7334L9.30529 17.4834C9.30751 17.5942 9.28759 17.7044 9.2467 17.8074C9.20582 17.9105 9.14479 18.0043 9.06718 18.0835C8.98958 18.1626 8.89696 18.2255 8.79476 18.2684C8.69255 18.3113 8.58281 18.3334 8.47196 18.3334H6.55529C3.52196 18.3334 1.71362 16.5251 1.71362 13.4834V6.50841C1.71362 3.47508 3.52196 1.66675 6.55529 1.66675H13.5386C16.572 1.66675 18.3803 3.47508 18.3803 6.50841V13.4917Z" fill="white"/>
</g>
<defs>
<clipPath id="clip0_45_636">
<rect width="20" height="20" fill="white" transform="translate(0.046875)"/>
</clipPath>
</defs>
</svg>
