<svg width="111" height="41" viewBox="0 0 111 41" fill="none" xmlns="http://www.w3.org/2000/svg"><g id="logo"><g id="Layer 1"><path id="Vector" d="M57.9121 25.0716C58.1396 25.0838 58.3673 25.0497 58.5812 24.9714C58.7951 24.8931 58.9907 24.7721 59.1562 24.616C59.3051 24.4712 59.4226 24.2974 59.5013 24.1054C59.5799 23.9135 59.6181 23.7075 59.6134 23.5002C59.6202 23.2852 59.58 23.0713 59.4957 22.8733C59.4114 22.6754 59.285 22.498 59.1251 22.3534C58.7867 22.0662 58.3567 21.9084 57.9121 21.9084C57.4675 21.9084 57.0375 22.0662 56.6991 22.3534C56.5389 22.4977 56.4123 22.6751 56.328 22.8731C56.2436 23.0712 56.2036 23.2852 56.2108 23.5002C56.2065 23.7082 56.2457 23.9148 56.3259 24.1069C56.4061 24.299 56.5255 24.4724 56.6767 24.616C56.8415 24.7705 57.0357 24.8904 57.248 24.9687C57.4602 25.047 57.686 25.0819 57.9121 25.0716Z" fill="white"/><path id="Vector_2" d="M70.2355 36.8947C69.7982 36.883 69.3737 37.0429 69.0536 37.34C68.8961 37.4859 68.772 37.6638 68.6895 37.8616C68.607 38.0594 68.5682 38.2726 68.5756 38.4867C68.5712 38.6941 68.6093 38.9002 68.6876 39.0923C68.7659 39.2845 68.8828 39.4587 69.0311 39.6042C69.1909 39.7577 69.3804 39.8771 69.5881 39.9552C69.7958 40.0332 70.0172 40.0682 70.239 40.0581C70.4634 40.0715 70.6881 40.0381 70.8988 39.96C71.1094 39.8818 71.3014 39.7606 71.4623 39.6042C71.6061 39.4563 71.7187 39.2812 71.7937 39.0893C71.8686 38.8974 71.9044 38.6926 71.8989 38.4867C71.9061 38.2736 71.8683 38.0613 71.7877 37.8637C71.7071 37.6661 71.5857 37.4877 71.4313 37.34C71.2718 37.1912 71.0843 37.0752 70.8797 36.9988C70.6751 36.9224 70.4573 36.887 70.239 36.8947" fill="white"/><path id="Vector_3" d="M74.1559 36.8947C73.7185 36.883 73.2941 37.0429 72.9739 37.34C72.8171 37.4862 72.6934 37.6642 72.6113 37.862C72.5291 38.0598 72.4904 38.2728 72.4977 38.4867C72.4933 38.6941 72.5314 38.9002 72.6097 39.0923C72.688 39.2845 72.8049 39.4587 72.9532 39.6042C73.2894 39.897 73.7206 40.0583 74.1671 40.0583C74.6135 40.0583 75.0448 39.897 75.381 39.6042C75.5238 39.4557 75.6357 39.2805 75.7103 39.0887C75.7849 38.8969 75.8208 38.6924 75.8158 38.4867C75.8234 38.2737 75.7858 38.0615 75.7055 37.8639C75.6253 37.6663 75.5041 37.4878 75.3499 37.34C75.19 37.1912 75.0023 37.0753 74.7974 36.9988C74.5925 36.9224 74.3745 36.8871 74.1559 36.8947Z" fill="white"/><path id="Vector_4" d="M83.7219 21.9082C83.2843 21.8957 82.8592 22.055 82.5382 22.3517C82.381 22.498 82.2571 22.6763 82.1749 22.8744C82.0928 23.0725 82.0543 23.2859 82.062 23.5002C82.0574 23.7073 82.0955 23.9132 82.1738 24.1051C82.2522 24.297 82.3691 24.4708 82.5175 24.616C82.8532 24.9097 83.2847 25.0717 83.7314 25.0717C84.1782 25.0717 84.6096 24.9097 84.9453 24.616C85.0885 24.4681 85.2007 24.2932 85.2754 24.1017C85.35 23.9101 85.3856 23.7056 85.3801 23.5002C85.3876 23.2869 85.35 23.0744 85.2698 22.8766C85.1895 22.6787 85.0684 22.4999 84.9142 22.3517C84.7545 22.2033 84.567 22.0877 84.3624 22.0116C84.1578 21.9355 83.9402 21.9003 83.7219 21.9082Z" fill="white"/><path id="Vector_5" d="M79.8 25.0715C80.0245 25.0853 80.2495 25.0519 80.4603 24.9734C80.671 24.8949 80.8629 24.7731 81.0233 24.6159C81.1669 24.4682 81.2794 24.2934 81.3543 24.1018C81.4293 23.9103 81.4652 23.7057 81.4599 23.5002C81.4675 23.2867 81.4298 23.0741 81.3492 22.8762C81.2686 22.6783 81.147 22.4995 80.9923 22.3517C80.8328 22.203 80.6453 22.0873 80.4406 22.0112C80.236 21.935 80.0182 21.9 79.8 21.9082C79.3624 21.8961 78.9374 22.0553 78.6163 22.3517C78.3148 22.6507 78.1437 23.0561 78.1402 23.48C78.1366 23.9038 78.3009 24.3119 78.5973 24.6159C78.7565 24.7704 78.9458 24.8906 79.1536 24.969C79.3614 25.0474 79.5832 25.0823 79.8051 25.0715" fill="white"/><path id="Vector_6" d="M84.5192 26.9008C84.341 26.6739 84.0941 26.5105 83.8152 26.4349C83.5198 26.3632 83.2167 26.3286 82.9127 26.3317C82.6491 26.3335 82.3858 26.3507 82.1242 26.3833C81.8376 26.4168 81.5535 26.4685 81.2735 26.5381C81.3011 26.8699 81.327 27.3031 81.3564 27.8412C81.3857 28.3794 81.3978 28.9983 81.3978 29.7014C81.3978 30.639 81.2005 31.3766 80.8059 31.9141C80.6199 32.1746 80.3717 32.3847 80.0837 32.5255C79.7957 32.6663 79.4769 32.7333 79.1564 32.7204H78.4921C78.1354 32.7158 77.7805 32.6702 77.4343 32.5846C77.1303 32.5288 76.8408 32.4118 76.5837 32.2408C76.8246 31.4612 76.9439 30.6495 76.9374 29.8338C76.9374 28.9238 76.7649 28.314 76.4198 28.0046C76.0747 27.6951 75.5283 27.5404 74.7806 27.5404C74.5165 27.5394 74.2527 27.5601 73.992 27.6023C73.7435 27.6435 73.4744 27.6985 73.2035 27.7742C73.2311 28.0493 73.2483 28.3931 73.2552 28.8057C73.2552 29.2183 73.2656 29.5845 73.2656 29.9009C73.2758 30.3425 73.2128 30.7828 73.0792 31.2041C72.9767 31.5254 72.8067 31.8214 72.5806 32.0723C72.3801 32.2878 72.132 32.4538 71.8559 32.5571C71.5774 32.6618 71.2821 32.7149 70.9845 32.7135H70.2167C69.8861 32.7106 69.5565 32.6789 69.2314 32.619C69.0673 32.5953 68.9098 32.5382 68.7688 32.4513C68.6278 32.3643 68.5063 32.2493 68.4118 32.1135C68.5442 31.4815 68.6067 30.837 68.5982 30.1914V24.6366C68.6078 24.3563 68.5548 24.0773 68.4429 23.8199C68.3531 23.6224 68.2089 23.4542 68.027 23.3351C67.8375 23.2182 67.6262 23.1404 67.4059 23.1065C67.1407 23.0628 66.8723 23.0415 66.6035 23.0429C66.2844 23.0429 65.9657 23.0635 65.6493 23.1047C65.3301 23.146 65.0955 23.1821 64.9436 23.2079V30.0504C64.9436 30.9892 64.7711 31.6665 64.4449 32.0877C64.1188 32.509 63.5822 32.7187 62.8472 32.7187H62.3088C62.0277 32.7146 61.7471 32.694 61.4685 32.6568C61.1711 32.6187 60.8766 32.5613 60.5868 32.4849C60.573 32.031 60.5557 31.5892 60.535 31.1628C60.5143 30.7364 60.4832 30.2946 60.4418 29.839C60.405 29.3168 60.3212 28.799 60.1916 28.2917C60.1097 27.9511 59.9581 27.6309 59.7465 27.3513C59.5727 27.1333 59.3379 26.9718 59.0718 26.8871C58.7687 26.799 58.454 26.7572 58.1383 26.7633C57.8086 26.7611 57.4802 26.8062 57.1634 26.8974C56.9038 26.9686 56.6532 27.069 56.4163 27.1965C56.4715 27.514 56.529 27.9152 56.5888 28.4C56.6487 28.8848 56.697 29.4189 56.7338 30.0023C56.7752 30.588 56.8097 31.2052 56.8373 31.8539C56.8666 32.5021 56.8787 33.1416 56.8787 33.776C56.8787 35.1514 56.613 36.1537 56.0816 36.783C55.5501 37.4122 54.7995 37.7263 53.8298 37.7251H53.5917C53.4976 37.7229 53.4038 37.7161 53.3104 37.7045C53.1362 38.1238 53.0448 38.5727 53.0413 39.0266C53.0413 39.6335 53.2138 40.077 53.5503 40.3607C53.8867 40.6444 54.3699 40.7836 54.9911 40.7836C55.6415 40.7856 56.2886 40.6918 56.9115 40.5051C57.5261 40.3181 58.0945 40.0048 58.58 39.5853C59.1114 39.1124 59.539 38.5353 59.8362 37.8902C60.2073 37.0656 60.4354 36.1843 60.5109 35.2838C60.8051 35.3864 61.1068 35.4663 61.4133 35.5228C61.7725 35.5877 62.137 35.6187 62.5021 35.6156H62.9576C63.7041 35.6244 64.4491 35.5483 65.1783 35.3887C65.7868 35.2558 66.3598 34.995 66.8589 34.6236C67.3077 35.0594 67.8821 35.3444 68.5015 35.4385C69.1906 35.5558 69.8886 35.6133 70.5876 35.6105H70.7326C70.7412 35.5967 70.7498 35.5743 70.7602 35.5606C70.7792 35.5743 70.7947 35.5967 70.8154 35.6105H71.78C73.135 35.6105 74.2411 35.2592 75.098 34.5566C75.9539 35.2443 77.1841 35.595 78.7888 35.6087H79.6222C81.3477 35.6087 82.6994 35.0987 83.6771 34.0786C84.6549 33.0585 85.1426 31.6046 85.1403 29.7169C85.1538 29.1171 85.1017 28.5175 84.985 27.9289C84.9146 27.5545 84.7581 27.2014 84.5278 26.8974" fill="white"/><path id="Vector_7" d="M110.66 31.3554C110.439 30.6132 110.165 29.8876 109.84 29.184C109.603 28.6721 109.322 28.1815 109 27.7175C108.749 27.351 108.445 27.0237 108.098 26.7461C107.781 26.4975 107.418 26.3145 107.03 26.208C106.594 26.0903 106.144 26.0324 105.692 26.036C105.099 26.0256 104.513 26.1677 103.991 26.4487C103.458 26.7528 102.984 27.1486 102.59 27.6177C102.103 28.1913 101.669 28.8069 101.292 29.4573C100.864 30.1817 100.395 30.984 99.8827 31.8642C99.7405 32.1414 99.5205 32.3714 99.2494 32.5262C98.9884 32.6544 98.7001 32.7181 98.4091 32.7118H97.0615C97.0615 32.6431 97.0615 32.5708 97.0719 32.4935C97.0822 32.4161 97.0822 32.3388 97.0822 32.2562C97.0822 30.2447 96.6325 28.7049 95.7329 27.6367C94.8334 26.5684 93.5749 26.0343 91.9576 26.0343C91.2575 26.0265 90.5616 26.1429 89.9025 26.3782C89.289 26.5996 88.728 26.9449 88.2547 27.3925C87.7812 27.8468 87.4096 28.3958 87.1642 29.0034C86.8913 29.6945 86.7577 30.4323 86.7708 31.1748C86.753 31.8625 86.8947 32.545 87.1849 33.1691C87.4489 33.7121 87.8401 34.1838 88.3254 34.5445C88.8406 34.9159 89.4221 35.1861 90.0388 35.3405C90.7402 35.518 91.4617 35.6047 92.1853 35.5984H93.1602C92.6483 36.9738 91.203 37.6615 88.8241 37.6615H88.1598C87.9782 38.0421 87.8862 38.459 87.8906 38.8804C87.8884 39.097 87.9162 39.3128 87.9734 39.5217C88.0273 39.7124 88.1234 39.8887 88.2547 40.0375C88.398 40.1975 88.5796 40.3188 88.7827 40.3899C89.0568 40.4806 89.3447 40.5225 89.6333 40.5137C90.3778 40.5143 91.1198 40.4272 91.8437 40.2541C92.5579 40.0933 93.2409 39.8175 93.8659 39.4375C94.5047 39.0367 95.0639 38.5221 95.5155 37.9194C96.0268 37.224 96.4096 36.4432 96.6457 35.6139H98.6593C99.5807 35.6139 100.274 35.5107 100.73 35.3165C101.125 35.1697 101.475 34.924 101.746 34.603C102.073 34.769 102.413 34.907 102.763 35.0156C103.168 35.1447 103.581 35.252 103.998 35.3371C104.447 35.4286 104.9 35.4974 105.356 35.5434C105.811 35.5907 106.268 35.6148 106.726 35.6156C107.445 35.6273 108.162 35.5622 108.867 35.4213C109.328 35.3316 109.77 35.1636 110.173 34.9245C110.455 34.7577 110.682 34.5135 110.827 34.2213C110.942 33.9678 111.001 33.6929 111 33.415C110.986 32.7143 110.87 32.0193 110.655 31.3519M93.4001 32.3439C93.3931 32.511 93.3758 32.6775 93.3483 32.8425H92.6581C91.9392 32.8425 91.3859 32.7044 90.9982 32.4282C90.61 32.1531 90.4167 31.6906 90.4167 31.0528C90.4167 30.3651 90.5691 29.8619 90.874 29.5433C91.0197 29.3865 91.1972 29.2623 91.3947 29.179C91.5922 29.0957 91.8053 29.0552 92.0197 29.0602C92.2016 29.0616 92.3813 29.1002 92.5477 29.1736C92.7372 29.2646 92.8961 29.4086 93.0049 29.588C93.1573 29.8429 93.2625 30.123 93.3155 30.4149C93.4012 30.8682 93.44 31.3291 93.4311 31.7903C93.4311 31.9622 93.4225 32.1548 93.4087 32.3473M107.152 32.5846C106.9 32.66 106.637 32.6919 106.374 32.6792C106.121 32.6779 105.869 32.6607 105.618 32.6276C105.347 32.5932 105.088 32.5519 104.84 32.5021C104.592 32.4522 104.355 32.3989 104.134 32.3302C103.949 32.2817 103.768 32.2161 103.594 32.1342C103.829 31.6528 104.062 31.2247 104.284 30.8516C104.507 30.4785 104.73 30.1364 104.938 29.8201C105.075 29.6037 105.239 29.406 105.427 29.2321C105.529 29.1371 105.662 29.0816 105.801 29.0756C105.881 29.078 105.96 29.0978 106.031 29.1338C106.103 29.1697 106.166 29.2209 106.215 29.2837C106.381 29.4854 106.521 29.7072 106.631 29.9439C106.728 30.1381 106.821 30.3444 106.911 30.5645C107 30.7846 107.083 31.0029 107.159 31.2161C107.229 31.4119 107.286 31.6117 107.332 31.8144C107.37 31.9669 107.391 32.1231 107.395 32.2803C107.395 32.3508 107.37 32.419 107.326 32.4741C107.282 32.5293 107.221 32.5681 107.152 32.5846Z" fill="white"/><path id="line" d="M50.7515 33.6041H0.655682C0.481784 33.6041 0.315009 33.6729 0.192045 33.7955C0.0690805 33.918 0 34.0842 0 34.2574C0 34.4307 0.0690805 34.5969 0.192045 34.7194C0.315009 34.8419 0.481784 34.9107 0.655682 34.9107H50.7515C50.9254 34.9107 51.0922 34.8419 51.2151 34.7194C51.3381 34.5969 51.4072 34.4307 51.4072 34.2574C51.4072 34.0842 51.3381 33.918 51.2151 33.7955C51.0922 33.6729 50.9254 33.6041 50.7515 33.6041Z" fill="white"/><path id="Vector_8" d="M11.5745 12.3544C11.3086 12.5672 11.0031 12.7255 10.6755 12.8203C10.2631 12.9426 9.83411 13.0006 9.40386 12.9922C8.86221 13.0081 8.32212 12.9266 7.80951 12.7515C7.61738 12.6876 7.44322 12.5791 7.30134 12.4351C7.15946 12.291 7.05391 12.1155 6.99336 11.9229C6.49297 10.3584 6.08174 9.09071 5.75965 8.11992C5.43756 7.14912 5.18564 6.30039 5.00389 5.57373H4.8693C4.81523 6.62361 4.77497 7.58008 4.74852 8.44313C4.72206 9.30619 4.70423 10.1469 4.69503 10.9652C4.68582 11.7859 4.66799 12.6134 4.64154 13.4478C4.61508 14.2822 4.57482 15.2077 4.52075 16.2244C4.22982 16.329 3.92931 16.405 3.6235 16.4513C3.25174 16.5135 2.87546 16.5451 2.49849 16.5459C1.70707 16.5459 1.09338 16.4192 0.657407 16.1659C0.221436 15.9126 0.00230064 15.4605 0 14.8095L0.776465 1.19656C0.920255 0.967331 1.23314 0.718042 1.71513 0.448696C2.19711 0.179349 2.8758 0.0458218 3.75119 0.0481141C4.70135 0.0481141 5.44216 0.194822 5.9736 0.488238C6.52915 0.804606 6.94904 1.31289 7.15383 1.91692C7.31488 2.34329 7.48742 2.8327 7.67147 3.38515C7.85553 3.93759 8.04303 4.50723 8.23398 5.09406C8.42148 5.67975 8.60496 6.26257 8.78441 6.84252C8.96386 7.42248 9.12433 7.94283 9.26582 8.40359H9.4004C9.82832 6.91359 10.2568 5.46771 10.6859 4.06596C11.115 2.66421 11.5089 1.49399 11.8678 0.555288C12.1964 0.392303 12.5442 0.271011 12.9031 0.194249C13.3637 0.0931534 13.8343 0.0441321 14.3059 0.0481141C15.1813 0.0481141 15.8957 0.177057 16.449 0.434942C17.0023 0.692827 17.3238 1.06533 17.4135 1.55244C17.4843 1.90832 17.5619 2.45504 17.6413 3.19259C17.7207 3.93014 17.8138 4.76397 17.8967 5.68892C17.9795 6.61387 18.0692 7.59383 18.1641 8.62537C18.259 9.65691 18.3367 10.6506 18.4178 11.6014C18.4988 12.5521 18.5661 13.4272 18.6196 14.218C18.6731 15.0089 18.7094 15.6192 18.7266 16.0456C18.4293 16.2184 18.1076 16.3459 17.7724 16.4238C17.3547 16.5137 16.928 16.5547 16.5007 16.5459C15.91 16.565 15.3229 16.4473 14.7856 16.202C14.3197 15.9699 14.0713 15.5143 14.035 14.8404C13.9281 12.9011 13.8613 11.1572 13.8349 9.60877C13.8084 8.06032 13.7682 6.76115 13.7141 5.71127H13.5795C13.4001 6.40584 13.1412 7.27749 12.803 8.32622C12.4649 9.37496 12.0553 10.7177 11.5745 12.3544Z" fill="white"/><path id="Vector_9" d="M20.1397 8.25745C20.1174 7.0443 20.3325 5.83845 20.7729 4.70723C21.1474 3.74353 21.7269 2.87204 22.4716 2.15266C23.2162 1.43328 24.1083 0.883061 25.0866 0.539813C27.1682 -0.179938 29.4324 -0.179938 31.514 0.539813C32.4758 0.88612 33.3565 1.42433 34.1022 2.12151C34.8634 2.84548 35.458 3.72532 35.845 4.70036C36.288 5.83337 36.5049 7.04166 36.4834 8.25745C36.5049 9.47322 36.2947 10.682 35.864 11.8197C35.4879 12.7996 34.902 13.6861 34.1471 14.4175C33.4044 15.1187 32.5228 15.6574 31.5589 15.9992C30.5124 16.3706 29.4086 16.5557 28.2977 16.5459C27.1892 16.5562 26.0878 16.3693 25.0452 15.994C24.0778 15.6472 23.1955 15.0992 22.457 14.3865C21.712 13.6498 21.1317 12.7645 20.7539 11.7888C20.3227 10.6643 20.1118 9.4679 20.1328 8.26433M24.7812 8.26433C24.7812 9.82539 25.0993 10.9916 25.7354 11.763C26.0432 12.1405 26.4349 12.4415 26.8797 12.642C27.3244 12.8426 27.8099 12.9372 28.2977 12.9183C29.3813 12.9183 30.2441 12.5326 30.886 11.7612C31.5278 10.9899 31.8442 9.82195 31.835 8.25745C31.835 6.71358 31.5209 5.55596 30.8929 4.7846C30.2648 4.01324 29.4089 3.62928 28.3253 3.63271C27.8379 3.61516 27.3529 3.70907 26.9076 3.90725C26.4622 4.10543 26.0683 4.40262 25.7561 4.776C25.1108 5.53934 24.7881 6.70155 24.7881 8.26261" fill="white"/><path id="Vector_10" d="M37.9209 3.8906C37.772 3.63754 37.656 3.36658 37.5758 3.08428C37.4663 2.73663 37.4115 2.37414 37.4136 2.00976C37.4136 1.31175 37.5706 0.810306 37.8847 0.505429C38.0478 0.35237 38.2397 0.233123 38.4494 0.154616C38.6592 0.0761095 38.8824 0.0399073 39.1063 0.048113H50.8637C51.0127 0.301176 51.1287 0.572135 51.2088 0.854433C51.3184 1.20208 51.3731 1.56457 51.371 1.92895C51.371 2.62696 51.214 3.12841 50.9 3.43328C50.7362 3.58743 50.5432 3.70731 50.3322 3.78586C50.1212 3.8644 49.8965 3.90002 49.6714 3.8906H46.6846V16.3035C46.3781 16.3758 46.0676 16.4297 45.7546 16.4651C45.3385 16.5176 44.9196 16.544 44.5002 16.5442C44.1339 16.5484 43.7682 16.5173 43.4079 16.4513C43.1203 16.3976 42.8484 16.2801 42.6125 16.1075C42.3883 15.9363 42.2196 15.7031 42.1276 15.437C42.0074 15.0735 41.9525 14.6917 41.9654 14.3092V3.8906H37.9209Z" fill="white"/><path id="Vector_11" d="M52.9946 2.56679C52.9946 1.79199 53.2212 1.17822 53.6745 0.725493C54.1277 0.272762 54.7443 0.0469691 55.5242 0.0481153H64.4967C64.6461 0.293632 64.7622 0.557839 64.8418 0.833805C64.9433 1.16824 64.9939 1.51595 64.9919 1.86534C64.9919 2.55304 64.8423 3.04073 64.5433 3.32841C64.3847 3.47531 64.1984 3.58928 63.9951 3.66366C63.7919 3.73805 63.5759 3.77136 63.3596 3.76166H57.6172V6.27862H63.734C64.0552 6.82009 64.2245 7.43763 64.224 8.06662C64.224 8.75431 64.0785 9.242 63.7875 9.52969C63.6325 9.6772 63.449 9.79169 63.2482 9.86618C63.0474 9.94067 62.8334 9.97359 62.6193 9.96293H57.6155V12.8065H64.6019C64.7514 13.0521 64.8674 13.3163 64.947 13.5922C65.0485 13.9267 65.0991 14.2744 65.0971 14.6238C65.0971 15.3115 64.9476 15.8037 64.6485 16.1006C64.4922 16.251 64.3068 16.3683 64.1036 16.4451C63.9004 16.5219 63.6837 16.5568 63.4666 16.5476H55.5294C54.7494 16.5476 54.1329 16.3218 53.6796 15.8702C53.2264 15.4186 52.9998 14.8043 52.9998 14.0272L52.9946 2.56679Z" fill="white"/><path id="Vector_12" d="M87.0313 16.5459C86.2652 16.5459 85.659 16.3235 85.2127 15.8788C84.7664 15.4341 84.5449 14.8301 84.5484 14.0667V0.287089C84.7428 0.252704 85.0545 0.203993 85.4836 0.140954C85.8909 0.0806224 86.3021 0.049596 86.7139 0.0481154C87.0772 0.0439413 87.4401 0.0750342 87.7975 0.140954C88.0819 0.192234 88.3514 0.306186 88.586 0.474485C88.8084 0.645609 88.9762 0.87732 89.0691 1.14155C89.1871 1.50259 89.2414 1.88126 89.2296 2.26077V12.7876H95.3499C95.4965 13.0346 95.6124 13.2984 95.695 13.5733C95.803 13.9065 95.8572 14.2547 95.8554 14.6049C95.8554 15.3143 95.7036 15.8164 95.3999 16.1109C95.2381 16.2607 95.048 16.3768 94.8406 16.4524C94.6332 16.528 94.4127 16.5615 94.1921 16.551L87.0313 16.5459Z" fill="white"/><path id="Vector_13" d="M104.926 3.92155H98.2384C98.0898 3.66644 97.9739 3.39383 97.8933 3.11007C97.7823 2.75916 97.727 2.39314 97.7293 2.02523C97.7293 1.32264 97.8881 0.817185 98.2056 0.508869C98.3695 0.354828 98.5625 0.234775 98.7734 0.155679C98.9843 0.0765826 99.2089 0.0400201 99.4341 0.0481142H109.576C109.966 0.358694 110.277 0.755603 110.485 1.20721C110.693 1.65882 110.793 2.15264 110.776 2.64931C110.772 3.11399 110.665 3.57206 110.462 3.99032C110.248 4.4414 109.979 4.86417 109.661 5.2488L103.486 12.6707H110.446C110.594 12.9266 110.71 13.1997 110.791 13.4839C110.9 13.8347 110.954 14.1999 110.953 14.567C110.953 15.2719 110.795 15.778 110.477 16.0851C110.312 16.2401 110.118 16.3607 109.905 16.4399C109.693 16.519 109.467 16.555 109.24 16.5459H98.5386C98.2088 16.2644 97.948 15.9116 97.7759 15.5143C97.5697 15.0447 97.4679 14.5363 97.4774 14.0238C97.4856 13.544 97.6068 13.0729 97.8311 12.6484C98.0631 12.1863 98.3461 11.7515 98.6749 11.3521L104.926 3.92155Z" fill="white"/><path id="arrow" style=" transform-origin: center; transform-box: fill-box; animation: spinner 3s linear infinite;" d="M79.0854 7.50785C76.5645 9.79099 73.9332 12.167 71.3087 14.5567C70.9636 14.8713 70.6703 15.2444 70.3148 15.5435C69.3279 16.3791 68.2753 16.4822 67.3332 15.5435C66.3911 14.6048 66.4481 13.5063 67.3591 12.5865C69.2071 10.7177 71.1327 8.92622 73.0049 7.08492C73.997 6.10495 74.9391 5.07857 76.0814 3.88886L66.6517 3.88886V0.0549727L70.5409 0.0549727C73.6467 0.0549727 76.7526 0.0343419 79.8585 0.0670074C81.615 0.0859189 82.8487 1.01602 82.878 2.58396C82.9626 7.05397 82.9074 11.9349 82.9074 16.5527L79.0854 16.5527V7.50785Z" fill="white"/></g></g><style> @keyframes spinner { 0%, 100% { transform: rotate(0deg) scale(1); } 50% { transform: rotate(-45deg) scale(.8); } }</style></svg>