<svg width="21" height="22" viewBox="0 0 21 22" fill="none" xmlns="http://www.w3.org/2000/svg">
<path d="M18.2075 15.3123C16.8785 14.1756 15.5297 13.4871 14.217 14.6221L13.4332 15.308C12.8596 15.806 11.7933 18.1327 7.67058 13.39C3.54869 8.65343 6.00157 7.91594 6.57593 7.42227L7.36408 6.73543C8.66993 5.59786 8.17713 4.1658 7.2353 2.69167L6.66694 1.79878C5.72082 0.32809 4.69056 -0.637776 3.38128 0.498083L2.67383 1.11624C2.09517 1.53778 0.477668 2.90803 0.0853117 5.51114C-0.38689 8.63454 1.10269 12.2113 4.51542 16.1357C7.92385 20.0618 11.261 22.0339 14.4222 21.9996C17.0494 21.9712 18.636 20.5615 19.1322 20.0489L19.8422 19.4299C21.1481 18.2949 20.3367 17.1393 19.0068 16L18.2075 15.3123Z" fill="white"/>
</svg>
