<svg width="26" height="26" viewBox="0 0 26 26" fill="none" xmlns="http://www.w3.org/2000/svg">
<g clip-path="url(#clip0_91_63)">
<path d="M13 0.500977C19.9028 0.500977 25.5 6.09704 25.5 13.0004C25.5 19.9038 19.9034 25.4999 13 25.4999C6.09606 25.4999 0.499999 19.9038 0.499999 13.0004C0.499999 6.09704 6.09606 0.500977 13 0.500977ZM13 4.23846C11.9035 4.23839 10.8518 4.67391 10.0764 5.44922C9.30101 6.22453 8.86534 7.27611 8.86527 8.37264C8.8652 9.46916 9.30072 10.5208 10.076 11.2962C10.8513 12.0716 11.9029 12.5073 12.9995 12.5074C14.096 12.5074 15.1476 12.0719 15.923 11.2966C16.6984 10.5213 17.1341 9.46971 17.1342 8.37319C17.1343 7.27666 16.6987 6.22502 15.9234 5.44961C15.1481 4.67419 14.0965 4.23853 13 4.23846ZM13.0027 22.2318C15.1931 22.2343 17.3121 21.4529 18.9766 20.029C19.1703 19.8637 19.3258 19.6584 19.4326 19.4272C19.5393 19.196 19.5946 18.9445 19.5948 18.6898C19.5948 16.3744 17.7209 14.5213 15.4049 14.5213H10.594C8.2775 14.5213 6.41068 16.3744 6.41068 18.6898C6.41052 18.9444 6.46568 19.1959 6.57234 19.4271C6.67899 19.6582 6.83459 19.8634 7.02838 20.0285C8.69272 21.4529 10.812 22.2346 13.0027 22.2318Z" fill="#44424D"/>
</g>
<defs>
<clipPath id="clip0_91_63">
<rect width="25" height="25" fill="white" transform="matrix(-1 0 0 1 25.5 0.5)"/>
</clipPath>
</defs>
</svg>
