<svg width="21" height="20" viewBox="0 0 21 20" fill="none" xmlns="http://www.w3.org/2000/svg">
<g clip-path="url(#clip0_45_656)">
<path d="M20.9219 3.79959C20.1695 4.12787 19.3738 4.34609 18.5593 4.44753C19.4177 3.93835 20.0596 3.13198 20.3632 2.18121C19.5596 2.65776 18.6803 2.99335 17.7635 3.17347C17.2013 2.57312 16.4715 2.15574 15.669 1.97556C14.8665 1.79538 14.0283 1.86075 13.2634 2.16315C12.4985 2.46555 11.8423 2.99102 11.3799 3.67127C10.9176 4.35152 10.6705 5.1551 10.6708 5.9776C10.669 6.29189 10.7023 6.6054 10.7701 6.91231C9.13757 6.83304 7.54022 6.40997 6.08252 5.67077C4.62482 4.93158 3.33963 3.89292 2.31104 2.62276C1.78323 3.52482 1.61974 4.59435 1.85395 5.61288C2.08816 6.63142 2.7024 7.52212 3.57121 8.10302C2.92213 8.08563 2.28675 7.9124 1.71866 7.59796V7.64261C1.71983 8.58942 2.04715 9.50691 2.64553 10.2407C3.24392 10.9744 4.07682 11.4796 5.00403 11.6712C4.65339 11.7636 4.29202 11.809 3.92942 11.8061C3.66899 11.8106 3.40884 11.787 3.15347 11.7357C3.4183 12.5495 3.92893 13.2613 4.61505 13.7729C5.30116 14.2845 6.129 14.5708 6.98459 14.5924C5.53405 15.7273 3.74496 16.3432 1.90322 16.3418C1.57523 16.3439 1.24745 16.325 0.921875 16.2852C2.79676 17.4932 4.98147 18.1322 7.21181 18.1248C8.74707 18.1355 10.2691 17.8411 11.6896 17.2586C13.1101 16.6761 14.4007 15.8171 15.4865 14.7317C16.5722 13.6462 17.4315 12.3558 18.0144 10.9355C18.5972 9.51511 18.8921 7.99311 18.8818 6.45785C18.8818 6.27627 18.8758 6.10163 18.8669 5.92798C19.6756 5.34933 20.372 4.62807 20.9219 3.79959Z" fill="white"/>
</g>
<defs>
<clipPath id="clip0_45_656">
<rect width="20" height="16.2493" fill="white" transform="translate(0.921875 1.87549)"/>
</clipPath>
</defs>
</svg>
