<svg id="vuesax_bold_whatsapp" data-name="vuesax/bold/whatsapp" xmlns="http://www.w3.org/2000/svg" width="33.8" height="33.8" viewBox="0 0 33.8 33.8">
  <g id="whatsapp">
    <path id="BG_164" data-name="BG 164" d="M0,0H33.8V33.8H0Z" fill="none" opacity="0.58"/>
    <path id="Vector" d="M28.147,13.253A14.088,14.088,0,1,0,1.882,21.125L.628,25.787a1.4,1.4,0,0,0,1.732,1.718l4.591-1.267a14.018,14.018,0,0,0,7.126,1.929A14.3,14.3,0,0,0,28.147,13.253Zm-7.182,6.07a3.36,3.36,0,0,1-.479.718,3.21,3.21,0,0,1-1.155.831,3.446,3.446,0,0,1-1.38.268,5.736,5.736,0,0,1-2.3-.521,12.9,12.9,0,0,1-2.422-1.394,20.35,20.35,0,0,1-2.31-1.972,20.141,20.141,0,0,1-1.972-2.31,12.389,12.389,0,0,1-1.38-2.408,5.964,5.964,0,0,1-.507-2.31,3.679,3.679,0,0,1,.253-1.366,3.145,3.145,0,0,1,.817-1.183A2.035,2.035,0,0,1,9.6,7.014a1.377,1.377,0,0,1,.577.127,1.167,1.167,0,0,1,.479.394l1.634,2.31a2.273,2.273,0,0,1,.282.493,1.028,1.028,0,0,1,.1.437,1.01,1.01,0,0,1-.155.507,2.478,2.478,0,0,1-.394.507l-.535.563a.362.362,0,0,0-.113.282.707.707,0,0,0,.028.169.972.972,0,0,1,.056.141,5.645,5.645,0,0,0,.662.9c.324.366.662.746,1.028,1.113s.746.718,1.127,1.042a5.407,5.407,0,0,0,.915.648c.042.014.085.042.127.056a.462.462,0,0,0,.479-.1l.535-.535a2.263,2.263,0,0,1,.507-.394.97.97,0,0,1,.507-.155,1.028,1.028,0,0,1,.437.1,2.563,2.563,0,0,1,.493.282l2.338,1.662a1.189,1.189,0,0,1,.394.451,1.473,1.473,0,0,1,.113.549C21.134,18.8,21.077,19.069,20.965,19.323Z" transform="translate(2.808 2.816)" fill="#fff"/>
    <path id="Vector-2" data-name="Vector" d="M0,0H33.8V33.8H0Z" fill="none" opacity="0"/>
  </g>
</svg>
