<svg width="22" height="22" viewBox="0 0 22 22" fill="none" xmlns="http://www.w3.org/2000/svg">
<path d="M1 11.1279C1 16.6509 5.477 21.1279 11 21.1279C16.523 21.1279 21 16.6509 21 11.1279C21 5.60493 16.523 1.12793 11 1.12793C5.477 1.12793 1 5.60493 1 11.1279Z" stroke="#765CF1" stroke-width="1.5" stroke-linecap="round" stroke-linejoin="round"/>
<path d="M11.9999 1.17773C11.9999 1.17773 14.9999 5.12773 14.9999 11.1277C14.9999 17.1277 11.9999 21.0777 11.9999 21.0777M9.99988 21.0777C9.99988 21.0777 6.99988 17.1277 6.99988 11.1277C6.99988 5.12773 9.99988 1.17773 9.99988 1.17773M1.62988 14.6277H20.3699M1.62988 7.62773H20.3699" stroke="#765CF1" stroke-width="1.5" stroke-linecap="round" stroke-linejoin="round"/>
</svg>
