<svg width="512" height="512" viewBox="0 0 512 512" fill="none" xmlns="http://www.w3.org/2000/svg">
<g id="done 1" clip-path="url(#clip0_940_2)">
<path id="rotate" style="transform-origin: center; transform-box: fill-box; animation: spin 4s linear infinite;" d="M240.039 19.896C248.83 25.725 263.215 25.725 271.993 19.896L295.207 4.47198C303.993 -1.36502 315.8 1.15398 321.45 10.063L336.382 33.612C342.032 42.516 355.165 48.363 365.563 46.604L393.047 41.947C403.448 40.186 413.222 47.279 414.753 57.714L418.829 85.247C420.375 95.684 429.985 106.385 440.205 109.017L467.175 115.973C477.397 118.615 483.431 129.09 480.592 139.249L473.122 166.016C470.286 176.174 474.722 189.857 482.988 196.416L504.881 213.783C513.145 220.342 514.399 232.351 507.674 240.484L489.9 261.939C483.177 270.064 481.675 284.365 486.557 293.714L499.465 318.39C504.349 327.744 500.625 339.234 491.176 343.923L466.208 356.316C456.759 361.008 449.576 373.465 450.234 383.992L451.959 411.786C452.627 422.308 444.535 431.296 433.99 431.746L406.158 432.924C395.621 433.375 383.991 441.833 380.307 451.725L370.625 477.809C366.941 487.703 355.908 492.624 346.1 488.743L320.17 478.493C310.368 474.609 296.301 477.597 288.918 485.136L269.444 505.027C262.058 512.561 249.983 512.561 242.592 505.037L223.087 485.133C215.699 477.601 201.632 474.614 191.824 478.495L165.907 488.745C156.1 492.629 145.066 487.708 141.39 477.811L131.685 451.727C128.006 441.838 116.376 433.377 105.834 432.926L78.012 431.748C67.467 431.297 59.385 422.309 60.043 411.788L61.784 383.994C62.439 373.47 55.246 361.01 45.799 356.318L20.839 343.925C11.393 339.235 7.658 327.748 12.545 318.392L25.453 293.716C30.337 284.367 28.835 270.067 22.102 261.949L4.327 240.466C-2.401 232.346 -1.141 220.337 7.12 213.778L29.018 196.411C37.279 189.852 41.721 176.177 38.887 166.014L31.399 139.236C28.563 129.078 34.599 118.61 44.811 115.984L71.801 109.013C82.013 106.384 91.636 95.683 93.177 85.246L97.25 57.713C98.794 47.278 108.563 40.185 118.961 41.946L146.448 46.603C156.849 48.362 169.98 42.515 175.622 33.611L190.547 10.062C196.189 1.15298 208.004 -1.36602 216.797 4.47098L240.039 19.896Z" fill="#90DEA9"/>
<path id="Vector" d="M421.65 256.279C421.65 347.766 347.479 421.929 256 421.929C164.526 421.929 90.355 347.766 90.355 256.279C90.355 164.82 164.523 90.655 256 90.655C347.479 90.655 421.65 164.82 421.65 256.279Z" fill="#71BF8C"/>
<path id="rotate_2" style="transform-origin: center; transform-box: fill-box; animation: rotation 2s linear infinite;" d="M228.383 333.66L162.079 267.353L184.169 245.253L228.383 289.459L327.834 189.995L349.924 212.103L228.383 333.66Z" fill="white"/>
</g>
<defs>
<clipPath id="clip0_940_2">
<rect width="512" height="512" fill="white"/>
</clipPath>
</defs>
<style>
  @keyframes rotation {
    0% {
      transform: rotate(0deg);
    }

    50% {
      transform: rotate(10deg);
    }

    100% {
      transform: rotate(0deg);
      
    }
  }

  @keyframes spin {
    0% {
      transform: rotate(0deg);
    }

    100% {
      transform: rotate(360deg);
    }
  }
</style>
</svg>
