<svg xmlns="http://www.w3.org/2000/svg" width="18.5" height="18.5" viewBox="0 0 18.5 18.5">
  <g id="vuesax_bulk_call" data-name="vuesax/bulk/call" transform="translate(-108 -188)">
    <g id="call" transform="translate(108 188)">
      <path id="Vector" d="M7.546,9.412,5.026,11.932q-.416-.37-.809-.763A21.9,21.9,0,0,1,2.066,8.649,13.742,13.742,0,0,1,.555,6.02,6.492,6.492,0,0,1,0,3.5,3.988,3.988,0,0,1,.277,2.012,3.548,3.548,0,0,1,1.164.725,2.259,2.259,0,0,1,2.767,0a1.449,1.449,0,0,1,.624.139A1.257,1.257,0,0,1,3.908.57L5.7,3.091A2.638,2.638,0,0,1,6,3.631a1.218,1.218,0,0,1,.108.47,1.046,1.046,0,0,1-.162.547,2.622,2.622,0,0,1-.432.547L4.933,5.8a.413.413,0,0,0-.123.308.7.7,0,0,0,.023.177c.023.062.046.108.062.154a6.4,6.4,0,0,0,.717.987c.347.4.717.809,1.118,1.218C7.007,8.919,7.277,9.181,7.546,9.412Z" transform="translate(1.542 1.542)" fill="#000" opacity="0.4"/>
      <path id="Vector-2" data-name="Vector" d="M9.535,3.307a1.958,1.958,0,0,1-.116.655,1.883,1.883,0,0,1-.077.185,3.181,3.181,0,0,1-.524.786,3.475,3.475,0,0,1-1.264.91c-.008,0-.015.008-.023.008a3.894,3.894,0,0,1-1.48.285,6.424,6.424,0,0,1-2.513-.563A13.539,13.539,0,0,1,.886,4.047C.586,3.823.285,3.6,0,3.361L2.521.84a4.331,4.331,0,0,0,.57.37c.039.015.085.039.139.062a.532.532,0,0,0,.193.031.424.424,0,0,0,.316-.131L4.324.594A2.365,2.365,0,0,1,4.879.162,1.026,1.026,0,0,1,5.427,0,1.23,1.23,0,0,1,5.9.1a2.981,2.981,0,0,1,.54.3L8.988,2.212a1.169,1.169,0,0,1,.424.493A1.581,1.581,0,0,1,9.535,3.307Z" transform="translate(7.4 10.822)" fill="#000"/>
      <path id="Vector-3" data-name="Vector" d="M0,0H18.5V18.5H0Z" fill="none" opacity="0"/>
    </g>
  </g>
</svg>
