<svg width="188" height="56" viewBox="0 0 188 56" fill="none" xmlns="http://www.w3.org/2000/svg">
<path d="M12.072 55.9971C11.5862 55.9971 11.1122 55.9914 10.6302 55.9814C9.63183 55.9695 8.63577 55.8897 7.6502 55.7426C6.73122 55.5973 5.84097 55.327 5.00882 54.9405C4.1843 54.5573 3.43227 54.0548 2.78154 53.4522C2.1214 52.8568 1.57179 52.1662 1.15452 51.4078C0.73264 50.6445 0.440677 49.8263 0.288796 48.9817C0.124779 48.0742 0.0360388 47.1566 0.023341 46.2367C0.013233 45.928 0 44.9 0 44.9V11.0813C0 11.0813 0.0140939 10.0691 0.0234207 9.77175C0.0355788 8.85337 0.123803 7.93717 0.28733 7.03108C0.43949 6.1842 0.73168 5.36364 1.15378 4.59781C1.56953 3.83993 2.11608 3.14881 2.77225 2.55124C3.42768 1.948 4.18212 1.4429 5.00804 1.05437C5.83828 0.669174 6.72684 0.400738 7.64397 0.258055C8.63277 0.109558 9.63229 0.0292738 10.6341 0.0178752L12.0727 0H175.919L177.375 0.0185925C178.368 0.0294248 179.358 0.108993 180.338 0.25662C181.265 0.401093 182.162 0.671402 183.002 1.05866C184.657 1.84166 186.003 3.08044 186.852 4.60138C187.268 5.36193 187.555 6.17579 187.706 7.01536C187.871 7.92888 187.964 8.85228 187.983 9.77819C187.987 10.1928 187.987 10.6381 187.987 11.0813C188 11.6303 188 12.1529 188 12.6797V43.3188C188 43.8506 188 44.3696 187.987 44.8928C187.987 45.3689 187.987 45.805 187.981 46.2539C187.963 47.1633 187.872 48.0702 187.709 48.9674C187.56 49.818 187.27 50.6426 186.848 51.4122C186.428 52.1624 185.881 52.847 185.229 53.4408C184.577 54.0466 183.824 54.552 182.997 54.9377C182.16 55.3272 181.264 55.5985 180.338 55.7426C179.353 55.8904 178.357 55.9703 177.358 55.9814C176.891 55.9914 176.402 55.9971 175.927 55.9971L174.199 56L12.072 55.9971Z" fill="white"/>
<path d="M40.6321 28.0262C40.6514 26.5192 41.0504 25.0416 41.792 23.7309C42.5336 22.4202 43.5936 21.3189 44.8734 20.5296C44.0603 19.3648 42.9878 18.4062 41.7408 17.7299C40.4939 17.0537 39.1069 16.6784 37.6901 16.6339C34.6678 16.3157 31.7379 18.4482 30.1977 18.4482C28.6278 18.4482 26.2566 16.6655 23.7032 16.7182C22.0516 16.7718 20.4419 17.2536 19.0311 18.1167C17.6203 18.9798 16.4564 20.1949 15.6529 21.6434C12.1722 27.689 14.7685 36.5739 18.1028 41.4607C19.771 43.8537 21.7206 46.5266 24.2718 46.4318C26.7682 46.328 27.7006 44.8349 30.7139 44.8349C33.6994 44.8349 34.5741 46.4318 37.177 46.3716C39.8558 46.328 41.5435 43.968 43.1532 41.5524C44.3519 39.8474 45.2742 37.9629 45.8861 35.9689C44.3298 35.3086 43.0017 34.2033 42.0674 32.7908C41.1331 31.3784 40.6339 29.7213 40.6321 28.0262Z" fill="black"/>
<path d="M35.7025 13.4215C37.1631 11.6625 37.8826 9.40172 37.7084 7.11914C35.477 7.35425 33.4157 8.42412 31.9354 10.1156C31.2117 10.9419 30.6573 11.9032 30.3041 12.9446C29.9509 13.9859 29.8058 15.0869 29.877 16.1846C30.9931 16.1961 32.0973 15.9534 33.1064 15.4748C34.1154 14.9962 35.0031 14.2941 35.7025 13.4215Z" fill="black"/>
<path d="M70.7111 38.4475H63.8034L62.1446 43.3613H59.2188L65.7616 25.1816H68.8014L75.3442 43.3613H72.3685L70.7111 38.4475ZM64.5189 36.1801H69.9943L67.2951 28.2054H67.2195L64.5189 36.1801Z" fill="black"/>
<path d="M89.4771 36.7378C89.4771 40.8567 87.2795 43.503 83.9632 43.503C83.1231 43.5471 82.2876 43.3529 81.5524 42.9428C80.8172 42.5327 80.212 41.9232 79.806 41.184H79.7433V47.7491H77.0312V30.1099H79.6564V32.3144H79.7062C80.1308 31.5788 80.7463 30.9725 81.4871 30.5598C82.2279 30.1472 83.0664 29.9438 83.9133 29.9712C87.2667 29.9712 89.4771 32.6304 89.4771 36.7378ZM86.6895 36.7378C86.6895 34.0543 85.3071 32.2901 83.1979 32.2901C81.1257 32.2901 79.7319 34.0915 79.7319 36.7378C79.7319 39.4084 81.1257 41.1969 83.1979 41.1969C85.3071 41.1969 86.6894 39.4456 86.6894 36.7378H86.6895Z" fill="black"/>
<path d="M104.017 36.7378C104.017 40.8567 101.819 43.503 98.5023 43.503C97.6622 43.5471 96.8267 43.3529 96.0915 42.9428C95.3563 42.5327 94.7511 41.9232 94.3451 41.184H94.2824V47.7491H91.5703V30.1099H94.1954V32.3144H94.2453C94.6699 31.5788 95.2854 30.9725 96.0262 30.5598C96.767 30.1472 97.6054 29.9438 98.4523 29.9712C101.806 29.9712 104.017 32.6304 104.017 36.7378ZM101.229 36.7378C101.229 34.0543 99.8462 32.2901 97.737 32.2901C95.6648 32.2901 94.271 34.0915 94.271 36.7378C94.271 39.4084 95.6648 41.1969 97.737 41.1969C99.8462 41.1969 101.229 39.4456 101.229 36.7378Z" fill="black"/>
<path d="M113.628 38.2983C113.829 40.1011 115.575 41.2848 117.96 41.2848C120.246 41.2848 121.891 40.1011 121.891 38.4755C121.891 37.0645 120.899 36.2196 118.55 35.6405L116.202 35.0729C112.874 34.2666 111.329 32.7054 111.329 30.172C111.329 27.0354 114.054 24.8809 117.922 24.8809C121.753 24.8809 124.378 27.0354 124.466 30.172H121.728C121.564 28.3578 120.069 27.2627 117.885 27.2627C115.7 27.2627 114.205 28.3707 114.205 29.9833C114.205 31.2686 115.16 32.0249 117.496 32.6039L119.492 33.0957C123.21 33.9778 124.754 35.4761 124.754 38.1352C124.754 41.5364 122.055 43.6666 117.759 43.6666C113.74 43.6666 111.027 41.5864 110.852 38.2982L113.628 38.2983Z" fill="black"/>
<path d="M130.615 26.9727V30.1093H133.127V32.2638H130.615V39.5709C130.615 40.706 131.118 41.235 132.222 41.235C132.521 41.2298 132.818 41.2088 133.114 41.172V43.3137C132.618 43.4067 132.113 43.4489 131.608 43.4395C128.933 43.4395 127.89 42.4316 127.89 39.861V32.2638H125.969V30.1093H127.89V26.9727H130.615Z" fill="black"/>
<path d="M134.57 36.7362C134.57 32.5659 137.019 29.9453 140.837 29.9453C144.667 29.9453 147.104 32.5658 147.104 36.7362C147.104 40.918 144.68 43.5271 140.837 43.5271C136.994 43.5271 134.57 40.918 134.57 36.7362ZM144.341 36.7362C144.341 33.8755 143.034 32.187 140.837 32.187C138.639 32.187 137.332 33.8883 137.332 36.7362C137.332 39.6084 138.639 41.284 140.837 41.284C143.034 41.284 144.341 39.6084 144.341 36.7362H144.341Z" fill="black"/>
<path d="M149.344 30.1098H151.93V32.3657H151.993C152.168 31.6611 152.58 31.0385 153.158 30.6024C153.737 30.1663 154.448 29.9433 155.171 29.9711C155.484 29.97 155.795 30.004 156.1 30.0726V32.6174C155.706 32.4964 155.294 32.4409 154.882 32.453C154.488 32.4369 154.095 32.5066 153.73 32.6572C153.366 32.8079 153.038 33.0359 152.77 33.3256C152.501 33.6153 152.298 33.9598 152.175 34.3356C152.052 34.7113 152.011 35.1094 152.056 35.5024V43.3641H149.344L149.344 30.1098Z" fill="black"/>
<path d="M168.606 39.4697C168.241 41.8758 165.905 43.5271 162.917 43.5271C159.073 43.5271 156.688 40.9437 156.688 36.7991C156.688 32.6417 159.086 29.9453 162.803 29.9453C166.458 29.9453 168.757 32.4644 168.757 36.4832V37.4153H159.425V37.5797C159.382 38.0675 159.443 38.5589 159.604 39.0213C159.765 39.4837 160.022 39.9065 160.358 40.2615C160.694 40.6166 161.102 40.8959 161.554 41.0808C162.006 41.2657 162.492 41.352 162.98 41.334C163.62 41.3942 164.264 41.2453 164.813 40.9094C165.363 40.5735 165.79 40.0686 166.031 39.4697L168.606 39.4697ZM159.438 35.5138H166.044C166.068 35.0752 166.002 34.6363 165.849 34.2247C165.696 33.813 165.46 33.4374 165.156 33.1215C164.852 32.8056 164.485 32.5563 164.081 32.3891C163.676 32.2219 163.241 32.1404 162.803 32.1499C162.361 32.1472 161.923 32.2323 161.515 32.4003C161.106 32.5683 160.735 32.8158 160.422 33.1286C160.109 33.4413 159.861 33.8131 159.692 34.2225C159.523 34.6319 159.437 35.0708 159.438 35.5139V35.5138Z" fill="black"/>
<path d="M64.2 11.5021C64.7686 11.4612 65.3391 11.5473 65.8705 11.7544C66.4018 11.9614 66.8808 12.2842 67.2727 12.6994C67.6647 13.1147 67.9599 13.612 68.1371 14.1555C68.3142 14.699 68.369 15.2752 68.2973 15.8426C68.2973 18.6333 66.7937 20.2374 64.2 20.2374H61.0547V11.5021H64.2ZM62.4071 19.002H64.0489C64.4552 19.0264 64.8618 18.9596 65.2391 18.8064C65.6164 18.6533 65.9549 18.4177 66.23 18.1167C66.505 17.8158 66.7098 17.4571 66.8292 17.0668C66.9487 16.6764 66.9799 16.2643 66.9206 15.8604C66.9756 15.458 66.9412 15.0484 66.8199 14.661C66.6986 14.2735 66.4934 13.9178 66.219 13.6192C65.9445 13.3207 65.6076 13.0867 65.2325 12.9341C64.8573 12.7815 64.4531 12.714 64.0489 12.7365H62.4071V19.002Z" fill="black"/>
<path d="M69.8272 16.936C69.7858 16.5028 69.8352 16.0657 69.9722 15.6528C70.1091 15.2398 70.3306 14.8602 70.6224 14.5381C70.9142 14.2161 71.2698 13.9587 71.6666 13.7827C72.0633 13.6066 72.4923 13.5156 72.9261 13.5156C73.36 13.5156 73.789 13.6066 74.1857 13.7827C74.5824 13.9587 74.9381 14.2161 75.2299 14.5381C75.5217 14.8602 75.7431 15.2398 75.8801 15.6528C76.017 16.0657 76.0664 16.5028 76.0251 16.936C76.0672 17.3697 76.0184 17.8074 75.8818 18.221C75.7452 18.6346 75.5239 19.015 75.232 19.3377C74.9402 19.6603 74.5842 19.9182 74.1871 20.0947C73.79 20.2711 73.3605 20.3623 72.9261 20.3623C72.4918 20.3623 72.0623 20.2711 71.6651 20.0947C71.268 19.9182 70.9121 19.6603 70.6202 19.3377C70.3284 19.015 70.107 18.6346 69.9705 18.221C69.8339 17.8074 69.7851 17.3697 69.8272 16.936ZM74.6912 16.936C74.6912 15.5071 74.0513 14.6714 72.9283 14.6714C71.801 14.6714 71.1668 15.5071 71.1668 16.936C71.1668 18.3764 71.801 19.2056 72.9283 19.2056C74.0513 19.2056 74.6912 18.3707 74.6912 16.936H74.6912Z" fill="black"/>
<path d="M84.2634 20.2367H82.918L81.5599 15.3816H81.4573L80.1048 20.2367H78.7723L76.9609 13.6445H78.2764L79.4535 18.6748H79.5504L80.9015 13.6445H82.1456L83.4967 18.6748H83.5993L84.7707 13.6445H86.0676L84.2634 20.2367Z" fill="black"/>
<path d="M87.5938 13.6455H88.8422V14.6927H88.9391C89.1035 14.3166 89.3808 14.0013 89.7323 13.7907C90.0838 13.5802 90.492 13.4849 90.9001 13.5182C91.2198 13.4941 91.5409 13.5425 91.8395 13.6597C92.138 13.777 92.4065 13.9601 92.6249 14.1956C92.8434 14.4311 93.0062 14.7128 93.1014 15.02C93.1965 15.3272 93.2215 15.6519 93.1746 15.9701V20.2376H91.8777V16.2968C91.8777 15.2374 91.4188 14.7106 90.4597 14.7106C90.2426 14.7004 90.0259 14.7375 89.8244 14.8192C89.623 14.9009 89.4415 15.0254 89.2925 15.1841C89.1434 15.3428 89.0304 15.5319 88.961 15.7385C88.8916 15.9451 88.8676 16.1643 88.8906 16.3811V20.2376H87.5938L87.5938 13.6455Z" fill="black"/>
<path d="M95.2344 11.0703H96.5313V20.2359H95.2344V11.0703Z" fill="black"/>
<path d="M98.3349 16.9361C98.2937 16.5029 98.3431 16.0658 98.4801 15.6528C98.617 15.2399 98.8385 14.8602 99.1304 14.5381C99.4222 14.2161 99.7779 13.9587 100.175 13.7827C100.571 13.6066 101 13.5156 101.434 13.5156C101.868 13.5156 102.297 13.6066 102.694 13.7827C103.091 13.9587 103.446 14.2161 103.738 14.5381C104.03 14.8602 104.251 15.2399 104.388 15.6528C104.525 16.0658 104.575 16.5029 104.534 16.9361C104.576 17.3698 104.527 17.8075 104.39 18.2211C104.254 18.6348 104.032 19.0151 103.74 19.3378C103.448 19.6605 103.092 19.9183 102.695 20.0948C102.298 20.2712 101.869 20.3624 101.434 20.3624C101 20.3624 100.57 20.2712 100.173 20.0948C99.7761 19.9183 99.4201 19.6605 99.1283 19.3378C98.8364 19.0151 98.615 18.6348 98.4784 18.2211C98.3418 17.8075 98.2929 17.3698 98.3349 16.9361ZM103.199 16.9361C103.199 15.5072 102.559 14.6716 101.436 14.6716C100.309 14.6716 99.6746 15.5072 99.6746 16.9362C99.6746 18.3766 100.309 19.2058 101.436 19.2058C102.559 19.2057 103.199 18.3708 103.199 16.9361H103.199Z" fill="black"/>
<path d="M105.898 18.3708C105.898 17.1841 106.779 16.5 108.343 16.4028L110.123 16.2999V15.7309C110.123 15.0346 109.664 14.6415 108.777 14.6415C108.053 14.6415 107.552 14.9081 107.408 15.3742H106.152C106.285 14.2419 107.346 13.5156 108.837 13.5156C110.485 13.5156 111.414 14.3384 111.414 15.7309V20.235H110.165V19.3086H110.063C109.854 19.6409 109.562 19.9118 109.215 20.0937C108.868 20.2755 108.48 20.3618 108.089 20.3437C107.813 20.3724 107.534 20.3429 107.27 20.257C107.007 20.171 106.764 20.0306 106.557 19.8447C106.351 19.6589 106.186 19.4317 106.072 19.1778C105.959 18.9239 105.9 18.649 105.898 18.3708ZM110.123 17.8075V17.2563L108.518 17.3593C107.613 17.42 107.202 17.7288 107.202 18.31C107.202 18.9033 107.715 19.2486 108.421 19.2486C108.628 19.2695 108.836 19.2486 109.035 19.187C109.233 19.1254 109.418 19.0243 109.576 18.8899C109.735 18.7554 109.865 18.5903 109.959 18.4044C110.053 18.2184 110.109 18.0154 110.123 17.8075Z" fill="black"/>
<path d="M113.117 16.937C113.117 14.8539 114.185 13.5344 115.845 13.5344C116.256 13.5154 116.663 13.6141 117.02 13.8189C117.377 14.0237 117.668 14.3261 117.86 14.6909H117.957V11.0703H119.254V20.2359H118.011V19.1944H117.909C117.702 19.5567 117.4 19.8554 117.037 20.0581C116.673 20.2609 116.261 20.3599 115.845 20.3445C114.173 20.3446 113.117 19.025 113.117 16.937ZM114.457 16.937C114.457 18.3352 115.114 19.1765 116.213 19.1765C117.306 19.1765 117.981 18.323 117.981 16.9427C117.981 15.5688 117.299 14.7031 116.213 14.7031C115.121 14.7031 114.457 15.5502 114.457 16.937H114.457Z" fill="black"/>
<path d="M124.624 16.936C124.583 16.5028 124.632 16.0657 124.769 15.6528C124.906 15.2398 125.127 14.8602 125.419 14.5381C125.711 14.2161 126.067 13.9587 126.463 13.7827C126.86 13.6066 127.289 13.5156 127.723 13.5156C128.157 13.5156 128.586 13.6066 128.983 13.7827C129.379 13.9587 129.735 14.2161 130.027 14.5381C130.319 14.8602 130.54 15.2398 130.677 15.6528C130.814 16.0657 130.863 16.5028 130.822 16.936C130.864 17.3697 130.815 17.8074 130.679 18.221C130.542 18.6346 130.321 19.015 130.029 19.3377C129.737 19.6603 129.381 19.9182 128.984 20.0947C128.587 20.2711 128.157 20.3623 127.723 20.3623C127.289 20.3623 126.859 20.2711 126.462 20.0947C126.065 19.9182 125.709 19.6603 125.417 19.3377C125.125 19.015 124.904 18.6346 124.767 18.221C124.631 17.8074 124.582 17.3697 124.624 16.936ZM129.488 16.936C129.488 15.5071 128.848 14.6714 127.725 14.6714C126.598 14.6714 125.964 15.5071 125.964 16.936C125.964 18.3764 126.598 19.2056 127.725 19.2056C128.848 19.2056 129.488 18.3707 129.488 16.936Z" fill="black"/>
<path d="M132.562 13.6455H133.811V14.6927H133.908C134.072 14.3166 134.35 14.0013 134.701 13.7907C135.053 13.5802 135.461 13.4849 135.869 13.5182C136.189 13.4941 136.51 13.5425 136.808 13.6597C137.107 13.777 137.375 13.9601 137.594 14.1956C137.812 14.4311 137.975 14.7128 138.07 15.02C138.165 15.3272 138.19 15.6519 138.143 15.9701V20.2376H136.846V16.2968C136.846 15.2374 136.388 14.7106 135.428 14.7106C135.211 14.7004 134.995 14.7375 134.793 14.8192C134.592 14.9009 134.41 15.0254 134.261 15.1841C134.112 15.3428 133.999 15.5319 133.93 15.7385C133.86 15.9451 133.836 16.1643 133.859 16.3811V20.2376H132.562V13.6455Z" fill="black"/>
<path d="M145.467 12.002V13.6732H146.89V14.7691H145.467V18.1588C145.467 18.8493 145.75 19.1517 146.396 19.1517C146.561 19.1512 146.726 19.1411 146.89 19.1217V20.2054C146.657 20.2472 146.421 20.2694 146.185 20.2718C144.743 20.2718 144.168 19.7629 144.168 18.4919V14.769H143.125V13.6732H144.168V12.002H145.467Z" fill="black"/>
<path d="M148.664 11.0703H149.95V14.7031H150.052C150.225 14.3235 150.509 14.0064 150.868 13.7951C151.227 13.5837 151.641 13.4884 152.056 13.5222C152.374 13.5048 152.692 13.5581 152.987 13.6782C153.282 13.7983 153.547 13.9823 153.764 14.217C153.98 14.4518 154.142 14.7315 154.238 15.0362C154.334 15.3409 154.361 15.6631 154.319 15.9798V20.2359H153.021V16.3007C153.021 15.2478 152.532 14.7145 151.616 14.7145C151.393 14.6962 151.168 14.7269 150.959 14.8046C150.749 14.8823 150.558 15.005 150.401 15.1642C150.243 15.3234 150.122 15.5152 150.046 15.7262C149.97 15.9372 149.941 16.1623 149.961 16.3858V20.2359H148.664L148.664 11.0703Z" fill="black"/>
<path d="M161.88 18.4552C161.704 19.0577 161.322 19.5789 160.801 19.9275C160.281 20.2761 159.655 20.4301 159.032 20.3624C158.599 20.3738 158.169 20.2907 157.771 20.1186C157.374 19.9465 157.018 19.6897 156.729 19.366C156.441 19.0423 156.225 18.6593 156.099 18.2438C155.972 17.8283 155.938 17.3902 155.997 16.9598C155.939 16.5281 155.975 16.089 156.101 15.6722C156.227 15.2555 156.441 14.8708 156.728 14.5442C157.016 14.2177 157.37 13.9568 157.766 13.7794C158.163 13.6019 158.592 13.512 159.027 13.5157C160.855 13.5157 161.958 14.7689 161.958 16.839V17.2929H157.318V17.3658C157.298 17.6077 157.328 17.8512 157.407 18.0807C157.486 18.3102 157.612 18.5206 157.777 18.6984C157.941 18.8762 158.141 19.0175 158.364 19.1133C158.586 19.209 158.826 19.2571 159.068 19.2544C159.378 19.2917 159.692 19.2357 159.971 19.0934C160.249 18.9511 160.479 18.7289 160.631 18.4552L161.88 18.4552ZM157.318 16.3307H160.637C160.653 16.1095 160.623 15.8873 160.549 15.6783C160.475 15.4694 160.358 15.2784 160.205 15.1175C160.053 14.9567 159.869 14.8296 159.664 14.7445C159.46 14.6593 159.241 14.6179 159.019 14.623C158.795 14.6202 158.573 14.6624 158.365 14.7473C158.157 14.8321 157.968 14.9578 157.81 15.1169C157.651 15.2761 157.526 15.4655 157.441 15.6739C157.357 15.8824 157.315 16.1057 157.318 16.3307H157.318Z" fill="black"/>
</svg>
