<svg width="373" height="215" viewBox="0 0 373 215" fill="none" xmlns="http://www.w3.org/2000/svg">
<g clip-path="url(#clip0_2247_33803)">
<path d="M216.263 95.8401C216.263 95.601 216.008 95.4472 215.786 95.5497C209.534 98.454 202.804 100.572 195.564 101.871C181.236 104.45 164.983 101.222 151.916 95.2935C144.556 91.945 136.515 87.6912 129.904 82.8052C123.448 78.0559 116.514 72.8966 109.12 67.3614C99.9881 60.5108 90.8224 55.4198 80.43 52.2422C71.2984 49.4575 62.8993 51.2001 56.7661 58.9562C53.001 63.7225 51.127 68.6598 51.1781 73.7337C51.6211 119.723 52.064 166.003 52.524 212.54C52.524 212.847 52.2855 213.104 51.9788 213.086C41.4502 213.018 30.7171 213.018 19.7796 213.121C8.75692 213.223 1.32895 206.953 1.00525 195.678C0.937106 193.525 0.885996 191.305 0.885996 189.032C0.681557 150.936 0.391934 112.616 9.14091e-05 74.0753C-0.238421 49.6113 12.4879 26.0698 31.9778 12.3002C41.348 5.68877 50.7352 1.79366 60.1564 0.614876C68.7088 -0.461406 79.8678 -0.119729 88.5906 1.67407C109.801 6.04753 129.427 17.955 146.549 31.1608C157.793 39.8394 171.406 51.3197 186.245 51.3709C192.395 51.4051 198.988 44.5032 201.918 39.8223C209.108 28.359 213.946 15.7682 216.45 2.04992C216.536 1.62282 216.774 1.41782 217.2 1.41782C229.824 1.3324 241.29 1.3324 251.614 1.48615C261.461 1.60574 267.731 10.7798 267.782 20.415C268.054 84.5648 268.225 148.68 268.31 212.762C268.31 212.967 268.14 213.138 267.935 213.138C258.821 213.018 249.519 213.018 240.029 213.172C233.777 213.291 229.501 212.762 227.184 211.617C218.904 207.483 217.405 201.555 217.319 192.586C217.132 171.146 216.774 138.891 216.246 95.8401H216.263Z" fill="#875FFF"/>
<path d="M373 179.295C373 199.01 357.054 215 337.393 215C317.733 215 301.787 199.01 301.787 179.295C301.787 159.58 317.733 143.59 337.393 143.59C357.054 143.59 373 159.58 373 179.295Z" fill="#AC0054"/>
</g>
<defs>
<clipPath id="clip0_2247_33803">
<rect width="373" height="215" fill="white"/>
</clipPath>
</defs>
</svg>
