<svg width="188" height="56" viewBox="0 0 188 56" fill="none" xmlns="http://www.w3.org/2000/svg">
<g clip-path="url(#clip0_1554_1056)">
<path fill-rule="evenodd" clip-rule="evenodd" d="M181.034 56H6.96553C3.12653 56 0 52.8439 0 49V7C0 3.14214 3.12653 0 6.96553 0H181.034C184.87 0 188 3.14214 188 7V49C188 52.8439 184.87 56 181.034 56Z" fill="white"/>
<path d="M99.035 18.5255C97.7795 18.5255 96.7212 18.0821 95.8842 17.2093C95.0542 16.3609 94.5907 15.1914 94.6115 13.9973C94.6115 12.723 95.0404 11.6442 95.8842 10.7889C96.7177 9.91605 97.7761 9.47266 99.0315 9.47266C100.273 9.47266 101.331 9.91605 102.182 10.7889C103.026 11.6722 103.455 12.751 103.455 13.9973C103.441 15.2752 103.012 16.354 102.182 17.2058C101.349 18.0856 100.29 18.5255 99.035 18.5255ZM61.6794 18.5255C60.4516 18.5255 59.3864 18.0891 58.5148 17.2268C57.6502 16.3679 57.2109 15.2821 57.2109 14.0008C57.2109 12.7195 57.6502 11.6338 58.5148 10.7749C59.3691 9.91256 60.4343 9.47615 61.6794 9.47615C62.2881 9.47615 62.8795 9.59834 63.4467 9.84622C64.0035 10.0871 64.4566 10.4153 64.792 10.8168L64.875 10.918L63.9378 11.8467L63.8409 11.7315C63.3118 11.0961 62.6028 10.7854 61.6655 10.7854C60.8286 10.7854 60.0988 11.0856 59.497 11.6791C58.8918 12.2761 58.584 13.0582 58.584 14.0043C58.584 14.9505 58.8918 15.7325 59.497 16.3295C60.0988 16.923 60.8286 17.2233 61.6655 17.2233C62.5578 17.2233 63.3083 16.923 63.8928 16.3295C64.2387 15.9804 64.4531 15.4916 64.5292 14.8737H61.5237V13.5679H65.8192L65.8365 13.6866C65.8676 13.9066 65.8988 14.1335 65.8988 14.343C65.8988 15.5475 65.5391 16.5215 64.8266 17.2407C64.0173 18.0926 62.959 18.5255 61.6794 18.5255ZM111.347 18.3405H110.023L105.966 11.7874L106 12.9674V18.337H104.676V9.66119H106.187L106.229 9.72752L110.043 15.9001L110.009 14.7235V9.66119H111.347V18.3405ZM89.0813 18.3405H87.7394V10.9669H85.4118V9.66119H91.4054V10.9669H89.0778V18.3405H89.0813ZM84.3189 18.3405H82.9805V9.66119H84.3189V18.3405ZM76.7966 18.3405H75.4581V10.9669H73.1306V9.66119H79.1242V10.9669H76.7966V18.3405ZM72.2832 18.3265H67.1508V9.66119H72.2832V10.9669H68.4927V13.348H71.9131V14.6397H68.4927V17.0208H72.2832V18.3265ZM96.8665 16.3121C97.4648 16.916 98.1911 17.2198 99.035 17.2198C99.9031 17.2198 100.612 16.923 101.203 16.3121C101.791 15.7185 102.089 14.94 102.089 14.0008C102.089 13.0617 101.791 12.2796 101.207 11.6896C100.609 11.0856 99.8788 10.7819 99.0384 10.7819C98.1703 10.7819 97.4613 11.0786 96.8734 11.6896C96.2854 12.2831 95.988 13.0617 95.988 14.0008C95.988 14.94 96.282 15.722 96.8665 16.3121Z" fill="#2E2E2E"/>
<path fill-rule="evenodd" clip-rule="evenodd" d="M94.4923 30.4582C91.224 30.4582 88.5747 32.9614 88.5747 36.4143C88.5747 39.8357 91.2413 42.3704 94.4923 42.3704C97.7606 42.3704 100.41 39.8497 100.41 36.4143C100.41 32.9614 97.7606 30.4582 94.4923 30.4582ZM94.4923 40.0103C92.7042 40.0103 91.1652 38.516 91.1652 36.4003C91.1652 34.2532 92.7077 32.7903 94.4923 32.7903C96.2804 32.7903 97.8194 34.2532 97.8194 36.4003C97.8229 38.53 96.2804 40.0103 94.4923 40.0103ZM81.5815 30.4582C78.3132 30.4582 75.6639 32.9614 75.6639 36.4143C75.6639 39.8357 78.3305 42.3704 81.5815 42.3704C84.8499 42.3704 87.4991 39.8497 87.4991 36.4143C87.4991 32.9614 84.8464 30.4582 81.5815 30.4582ZM81.5815 40.0103C79.7934 40.0103 78.2544 38.516 78.2544 36.4003C78.2544 34.2532 79.7969 32.7903 81.5815 32.7903C83.3696 32.7903 84.9086 34.2532 84.9086 36.4003C84.9086 38.53 83.3696 40.0103 81.5815 40.0103ZM66.2186 32.2771V34.7978H72.2123C72.029 36.2118 71.5655 37.2557 70.8565 37.9714C69.9781 38.8582 68.6223 39.8218 66.2324 39.8218C62.5491 39.8218 59.6681 36.8193 59.6681 33.1011C59.6681 29.3829 62.5491 26.3804 66.2324 26.3804C68.2211 26.3804 69.6702 27.1729 70.7459 28.1854L72.5166 26.3978C71.0225 24.9524 69.0339 23.8457 66.2463 23.8457C61.1933 23.8457 56.9531 28.0003 56.9531 33.0871C56.9531 38.1878 61.1899 42.3285 66.2463 42.3285C68.9751 42.3285 71.0225 41.4277 72.6411 39.731C74.2909 38.0657 74.8131 35.716 74.8131 33.8203C74.8131 33.2302 74.7682 32.6996 74.6748 32.2492H66.2151C66.2186 32.2457 66.2186 32.2771 66.2186 32.2771ZM129.057 34.2392C128.563 32.9021 127.068 30.4442 124.004 30.4442C120.968 30.4442 118.443 32.8567 118.443 36.4003C118.443 39.745 120.94 42.3564 124.298 42.3564C126.996 42.3564 128.566 40.6911 129.213 39.7135L127.21 38.3589C126.546 39.3539 125.623 40.0068 124.312 40.0068C122.987 40.0068 122.06 39.3993 121.445 38.2018L129.334 34.9026C129.334 34.9061 129.057 34.2392 129.057 34.2392ZM121.013 36.2292C120.95 33.9285 122.783 32.7589 124.094 32.7589C125.128 32.7589 125.989 33.2721 126.283 34.0193L121.013 36.2292ZM114.604 42.0003H117.194V24.5021H114.604V42.0003ZM110.35 31.7814H110.256C109.672 31.0796 108.562 30.4442 107.144 30.4442C104.2 30.4442 101.489 33.0592 101.489 36.4178C101.489 39.7624 104.187 42.346 107.144 42.346C108.544 42.346 109.672 41.707 110.256 40.9913H110.35V41.8467C110.35 44.1195 109.146 45.345 107.206 45.345C105.618 45.345 104.633 44.1928 104.232 43.2292L101.98 44.1789C102.627 45.7499 104.353 47.6946 107.203 47.6946C110.239 47.6946 112.812 45.8896 112.812 41.4871V30.8003H110.364V31.7814C110.367 31.7814 110.35 31.7814 110.35 31.7814ZM107.375 40.0103C105.587 40.0103 104.093 38.5021 104.093 36.4178C104.093 34.316 105.587 32.7938 107.375 32.7938C109.146 32.7938 110.519 34.3335 110.519 36.4178C110.537 38.5021 109.15 40.0103 107.375 40.0103ZM141.186 24.5021H134.992V42.0003H137.582V35.3739H141.19C144.057 35.3739 146.876 33.2756 146.876 29.945C146.876 26.6143 144.067 24.5021 141.186 24.5021ZM141.262 32.93H137.579V26.925H141.262C143.203 26.925 144.299 28.5415 144.299 29.9275C144.299 31.2996 143.189 32.93 141.262 32.93ZM157.258 30.4267C155.377 30.4267 153.437 31.2681 152.634 33.1011L154.931 34.0647C155.425 33.1011 156.331 32.7729 157.289 32.7729C158.631 32.7729 159.987 33.5829 160.018 35.0282V35.2133C159.555 34.9479 158.538 34.543 157.32 34.543C154.841 34.543 152.326 35.9115 152.326 38.4776C152.326 40.8272 154.36 42.3355 156.625 42.3355C158.365 42.3355 159.323 41.543 159.921 40.6248H160.015V41.9794H162.512V35.2761C162.512 32.1549 160.215 30.4267 157.258 30.4267ZM156.933 40.0103C156.086 40.0103 154.899 39.5913 154.899 38.516C154.899 37.1614 156.38 36.6482 157.642 36.6482C158.783 36.6482 159.323 36.8961 160.001 37.2382C159.814 38.8093 158.5 39.9963 156.933 40.0103ZM171.622 30.8003L168.647 38.3903H168.554L165.472 30.8003H162.685L167.309 41.4103L164.673 47.307H167.371L174.485 30.8003H171.622ZM148.304 42.0003H150.894V24.5021H148.304V42.0003Z" fill="#2E2E2E"/>
<path fill-rule="evenodd" clip-rule="evenodd" d="M14.4689 10.5474C14.0677 10.9838 13.8359 11.6506 13.8359 12.5234V43.4806C13.8359 44.3534 14.0677 45.0202 14.4827 45.4392L14.5899 45.5334L31.772 28.1888V27.8013L14.5761 10.4531L14.4689 10.5474Z" fill="url(#paint0_linear_1554_1056)"/>
<path fill-rule="evenodd" clip-rule="evenodd" d="M37.4887 33.9868L31.7578 28.2017V27.7968L37.4887 22.0117L37.6132 22.0885L44.392 25.9778C46.3322 27.081 46.3322 28.9035 44.392 30.0207L37.6132 33.91L37.4887 33.9868Z" fill="url(#paint1_linear_1554_1056)"/>
<path fill-rule="evenodd" clip-rule="evenodd" d="M37.6134 33.9107L31.7581 28L14.4688 45.4529C15.1017 46.1372 16.1634 46.214 17.3497 45.5471L37.6134 33.9107Z" fill="url(#paint2_linear_1554_1056)"/>
<path fill-rule="evenodd" clip-rule="evenodd" d="M37.6134 22.0894L17.3497 10.4705C16.1634 9.78618 15.0982 9.88044 14.4688 10.5647L31.7581 28.0001L37.6134 22.0894Z" fill="url(#paint3_linear_1554_1056)"/>
<path opacity="0.2" fill-rule="evenodd" clip-rule="evenodd" d="M37.4908 33.7852L17.3654 45.3273C16.2413 45.9801 15.2383 45.9347 14.5916 45.3412L14.4844 45.4495L14.5916 45.5437C15.2383 46.1337 16.2413 46.1826 17.3654 45.5297L37.6291 33.9108L37.4908 33.7852Z" fill="white"/>
<path opacity="0.12" fill-rule="evenodd" clip-rule="evenodd" d="M44.3971 29.819L37.4766 33.785L37.6011 33.9107L44.3798 30.0214C45.3517 29.4628 45.829 28.7297 45.829 28C45.7702 28.6703 45.2756 29.3057 44.3971 29.819Z" fill="white"/>
<path opacity="0.25" fill-rule="evenodd" clip-rule="evenodd" d="M17.3498 10.6732L44.3923 26.1814C45.2707 26.6807 45.7653 27.3335 45.8414 28.0004C45.8414 27.2707 45.3641 26.5375 44.3923 25.9789L17.3498 10.4707C15.4096 9.35001 13.8359 10.2857 13.8359 12.5236V12.7261C13.8359 10.4847 15.4096 9.56646 17.3498 10.6732Z" fill="#2E2E2E"/>
</g>
<defs>
<linearGradient id="paint0_linear_1554_1056" x1="30.2308" y1="12.1895" x2="2.67397" y2="19.4632" gradientUnits="userSpaceOnUse">
<stop stop-color="#00A0FF"/>
<stop offset="0.00657" stop-color="#00A1FF"/>
<stop offset="0.2601" stop-color="#00BEFF"/>
<stop offset="0.5122" stop-color="#00D2FF"/>
<stop offset="0.7604" stop-color="#00DFFF"/>
<stop offset="1" stop-color="#00E3FF"/>
</linearGradient>
<linearGradient id="paint1_linear_1554_1056" x1="46.9222" y1="27.9993" x2="13.3639" y2="27.9993" gradientUnits="userSpaceOnUse">
<stop stop-color="#FFE000"/>
<stop offset="0.4087" stop-color="#FFBD00"/>
<stop offset="0.7754" stop-color="#FFA500"/>
<stop offset="1" stop-color="#FF9C00"/>
</linearGradient>
<linearGradient id="paint2_linear_1554_1056" x1="34.4295" y1="31.2163" x2="12.0255" y2="68.5707" gradientUnits="userSpaceOnUse">
<stop stop-color="#FF3A44"/>
<stop offset="1" stop-color="#C31162"/>
</linearGradient>
<linearGradient id="paint3_linear_1554_1056" x1="10.1151" y1="0.250449" x2="20.1105" y2="16.9337" gradientUnits="userSpaceOnUse">
<stop stop-color="#32A071"/>
<stop offset="0.0685" stop-color="#2DA771"/>
<stop offset="0.4762" stop-color="#15CF74"/>
<stop offset="0.8009" stop-color="#06E775"/>
<stop offset="1" stop-color="#00F076"/>
</linearGradient>
<clipPath id="clip0_1554_1056">
<rect width="188" height="56" rx="12" fill="white"/>
</clipPath>
</defs>
</svg>
