<svg width="320" height="331" viewBox="0 0 320 331" fill="none" xmlns="http://www.w3.org/2000/svg">
<path d="M101.036 5.77064C102.12 5.12116 103.286 4.61963 104.503 4.27942L105.211 0.85707L110.997 0.752686L111.832 4.15267C113.058 4.45509 114.239 4.91893 115.344 5.53204L118.267 3.61583L122.435 7.64212L120.623 10.6246C121.273 11.7057 121.774 12.8694 122.114 14.0842L125.536 14.7925L125.641 20.5784L122.241 21.4061C121.94 22.6329 121.476 23.814 120.861 24.9179L122.778 27.8481L118.751 32.0086L115.769 30.1968C114.688 30.8466 113.524 31.3482 112.309 31.688L111.564 35.1104L105.778 35.2148L104.943 31.8148C103.719 31.5123 102.54 31.0485 101.438 30.4354L98.508 32.3516L94.3251 28.3328L96.1369 25.3503C95.4875 24.2663 94.9859 23.1003 94.6457 21.8833L91.2234 21.1377L91.119 15.3517L94.519 14.5166C94.8214 13.2902 95.2852 12.1093 95.8983 11.0048L93.9821 8.07457L98.0532 3.95881L101.036 5.77064ZM104.122 13.4802C103.269 14.3635 102.696 15.4801 102.477 16.6887C102.258 17.8974 102.402 19.1439 102.892 20.2706C103.381 21.3972 104.194 22.3535 105.226 23.0185C106.259 23.6834 107.466 24.0272 108.694 24.0064C109.922 23.9855 111.117 23.601 112.126 22.9013C113.136 22.2017 113.915 21.2184 114.366 20.0757C114.817 18.9331 114.919 17.6825 114.659 16.4819C114.399 15.2814 113.789 14.1849 112.906 13.3311C112.318 12.7605 111.624 12.3116 110.862 12.0101C110.101 11.7087 109.287 11.5606 108.468 11.5745C107.649 11.5883 106.841 11.7638 106.09 12.0909C105.339 12.4179 104.661 12.8901 104.093 13.4802H104.122Z" fill="#E0E0E0"/>
<path d="M102.378 197.795C103.002 197.418 103.674 197.127 104.376 196.93L104.786 194.954L108.126 194.894L108.603 196.855C109.312 197.026 109.994 197.292 110.632 197.646L112.317 196.542L114.717 198.861L113.711 200.568C114.087 201.193 114.378 201.865 114.576 202.567L116.552 202.977L116.611 206.317L114.65 206.794C114.479 207.503 114.213 208.185 113.86 208.822L114.964 210.507L112.645 212.908L110.922 211.864C110.297 212.24 109.625 212.533 108.924 212.737L108.492 214.735L105.151 214.795L104.674 212.834C103.966 212.662 103.284 212.397 102.646 212.043L100.961 213.147L98.5601 210.828L99.604 209.106C99.2283 208.48 98.9351 207.808 98.7316 207.107L96.7632 206.697L96.7036 203.357L98.6645 202.88C98.8357 202.171 99.1016 201.489 99.4549 200.852L98.3513 199.167L100.67 196.766L102.393 197.81L102.378 197.795ZM104.16 202.268C103.666 202.778 103.334 203.423 103.207 204.122C103.08 204.82 103.163 205.54 103.446 206.191C103.729 206.843 104.198 207.395 104.795 207.779C105.392 208.163 106.09 208.362 106.799 208.349C107.509 208.337 108.199 208.114 108.782 207.709C109.365 207.304 109.815 206.735 110.074 206.074C110.334 205.414 110.391 204.691 110.239 203.997C110.088 203.304 109.734 202.671 109.222 202.179C108.886 201.85 108.488 201.591 108.052 201.416C107.615 201.241 107.149 201.154 106.679 201.16C106.208 201.165 105.744 201.263 105.312 201.448C104.88 201.634 104.488 201.902 104.16 202.239V202.268Z" fill="#E0E0E0"/>
<path d="M29.6657 24.1797C30.0923 23.9217 30.551 23.7211 31.0301 23.5832L31.3134 22.2336H33.5876L33.9305 23.531C34.4137 23.6538 34.8797 23.8366 35.3174 24.0753L36.4656 23.3297L38.106 24.9104L37.3603 26.0884C37.6183 26.515 37.8189 26.9738 37.9568 27.4529L39.3064 27.7362V29.9731L37.9643 30.3011C37.8475 30.7852 37.667 31.2515 37.4275 31.688L38.1731 32.8362L36.5924 34.4766L35.4143 33.7309C34.9877 33.9889 34.5289 34.1895 34.0498 34.3274L33.7665 35.677H31.5297L31.2016 34.3349C30.7176 34.2181 30.2512 34.0376 29.8148 33.7981L28.6665 34.5437L27.0262 32.9555L27.7718 31.7849C27.5138 31.3583 27.3133 30.8995 27.1753 30.4204L25.8258 30.1371L25.7885 27.9003L27.1231 27.5722C27.2459 27.089 27.4287 26.6231 27.6674 26.1854L26.9218 25.0371L28.5025 23.3968L29.6806 24.1424L29.6657 24.1797ZM30.881 27.2143C30.5451 27.5623 30.32 28.002 30.234 28.4779C30.148 28.9538 30.205 29.4445 30.3979 29.888C30.5907 30.3315 30.9107 30.7078 31.3174 30.9695C31.7241 31.2311 32.1992 31.3663 32.6828 31.358C33.1663 31.3497 33.6365 31.1982 34.0339 30.9226C34.4314 30.6471 34.7382 30.2599 34.9156 29.8101C35.0931 29.3602 35.1332 28.8678 35.0308 28.3952C34.9285 27.9225 34.6883 27.4908 34.3406 27.1547C34.1096 26.9313 33.8368 26.7556 33.5379 26.6377C33.239 26.5198 32.9197 26.462 32.5985 26.4675C32.2772 26.4731 31.9601 26.5419 31.6654 26.67C31.3707 26.7981 31.1042 26.9831 30.881 27.2143Z" fill="#E0E0E0"/>
<path d="M140.97 19.3859C141.811 18.8776 142.717 18.4839 143.662 18.2153L144.214 15.5535L148.687 15.4714L149.336 18.1183C150.292 18.3521 151.213 18.7132 152.073 19.192L154.309 17.7008L157.612 20.8771L156.211 23.1736C156.721 24.0164 157.114 24.9243 157.381 25.8727L160.051 26.4244L160.125 30.8981L157.486 31.5468C157.245 32.5078 156.879 33.4329 156.397 34.2981L157.888 36.5796L154.764 39.8156L152.438 38.4064C151.596 38.9131 150.691 39.3067 149.746 39.577L149.187 42.2388L144.713 42.3208L144.065 39.6739C143.099 39.4457 142.168 39.087 141.298 38.6077L139.062 40.0989L135.818 36.9748L137.227 34.6485C136.72 33.8043 136.326 32.8967 136.057 31.9494L133.395 31.3977L133.313 26.924L135.96 26.2753C136.194 25.3216 136.555 24.4037 137.034 23.5464L135.542 21.2648L138.666 18.0289L140.97 19.3859ZM143.371 25.3508C142.708 26.0388 142.264 26.9081 142.094 27.8487C141.925 28.7893 142.039 29.759 142.421 30.635C142.803 31.5111 143.436 32.2542 144.24 32.7704C145.044 33.2866 145.984 33.5526 146.939 33.5349C147.895 33.5172 148.824 33.2164 149.608 32.6708C150.393 32.1251 150.998 31.359 151.347 30.4694C151.696 29.5797 151.774 28.6065 151.57 27.6728C151.366 26.7392 150.889 25.887 150.201 25.224C149.741 24.7869 149.199 24.445 148.606 24.2178C148.014 23.9905 147.382 23.8825 146.747 23.8998C146.113 23.9171 145.488 24.0594 144.909 24.3187C144.329 24.5779 143.807 24.9489 143.371 25.4104V25.3508Z" fill="#EBEBEB"/>
<path d="M260.007 130.556C261.086 129.906 262.247 129.405 263.459 129.065L264.205 125.642L269.983 125.538L270.818 128.938C272.046 129.237 273.227 129.701 274.33 130.317L277.245 128.401L281.406 132.42L279.602 135.402C280.247 136.486 280.749 137.649 281.093 138.862L284.515 139.608L284.62 145.386L281.22 146.221C280.92 147.446 280.456 148.625 279.84 149.725L281.756 152.648L277.745 156.764L274.763 154.952C273.681 155.601 272.517 156.103 271.303 156.443L270.557 159.866L264.779 159.963L263.944 156.578C262.72 156.275 261.541 155.811 260.439 155.198L257.517 157.114L253.356 153.096L255.168 150.113C254.518 149.035 254.017 147.873 253.677 146.661L250.254 145.915L250.157 140.174L253.55 139.339C253.852 138.113 254.316 136.932 254.929 135.827L253.013 132.912L257.032 128.751L260.014 130.563L260.007 130.556ZM263.086 138.258C262.235 139.141 261.665 140.257 261.447 141.464C261.23 142.671 261.375 143.916 261.865 145.041C262.355 146.165 263.167 147.119 264.199 147.782C265.231 148.446 266.437 148.788 267.663 148.766C268.89 148.744 270.082 148.359 271.09 147.66C272.097 146.96 272.875 145.978 273.325 144.836C273.774 143.695 273.875 142.446 273.615 141.247C273.354 140.048 272.744 138.954 271.862 138.101C271.276 137.534 270.584 137.088 269.826 136.789C269.067 136.49 268.257 136.343 267.442 136.358C266.626 136.372 265.822 136.548 265.075 136.874C264.327 137.2 263.652 137.67 263.086 138.258Z" fill="#E0E0E0"/>
<path d="M300.859 18.058C300.863 15.6497 300.312 13.2728 299.248 11.1122C298.184 8.95165 296.636 7.06562 294.725 5.6008C292.813 4.13599 290.589 3.13189 288.226 2.66659C285.863 2.2013 283.425 2.28735 281.101 2.91805C278.776 3.54876 276.629 4.70712 274.825 6.30304C273.022 7.89896 271.61 9.88943 270.702 12.1196C269.793 14.3498 269.41 16.7597 269.584 19.1617C269.759 21.5637 270.484 23.8932 271.706 25.969L271.75 26.0286C272.347 27.0426 273.1 27.7659 273.86 28.8246L282.964 40.8737C283.228 41.2157 283.567 41.4926 283.955 41.6831C284.343 41.8736 284.769 41.9727 285.201 41.9727C285.633 41.9727 286.06 41.8736 286.447 41.6831C286.835 41.4926 287.174 41.2157 287.438 40.8737L296.385 29.0259C297.198 28.0749 297.957 27.0792 298.659 26.0435L298.697 25.9988C300.117 23.5937 300.864 20.851 300.859 18.058ZM285.201 24.8729C283.839 24.8714 282.508 24.4661 281.376 23.7082C280.244 22.9503 279.362 21.8738 278.842 20.6148C278.321 19.3558 278.186 17.9708 278.453 16.6348C278.719 15.2989 279.376 14.072 280.34 13.1093C281.304 12.1465 282.531 11.4911 283.867 11.2259C285.204 10.9606 286.588 11.0975 287.847 11.6192C289.105 12.1408 290.181 13.0239 290.938 14.1567C291.694 15.2895 292.098 16.6212 292.098 17.9835C292.098 18.8888 291.92 19.7853 291.573 20.6217C291.226 21.458 290.718 22.2178 290.078 22.8577C289.437 23.4975 288.677 24.0048 287.84 24.3506C287.003 24.6964 286.107 24.8739 285.201 24.8729Z" fill="#E0E0E0"/>
<path d="M25.1846 243.404C26.7713 242.301 27.9993 240.756 28.7164 238.962C29.4334 237.167 29.608 235.201 29.2183 233.308C28.1969 227.948 23.2535 224.361 18.2653 225.323C13.2772 226.285 9.98906 231.4 11.0106 236.768C11.3441 238.688 12.2399 240.466 13.5844 241.877C14.9289 243.288 16.6617 244.268 18.5636 244.694C4.97857 249.525 8.57986 264.617 8.57986 264.617L41.7073 258.324C41.7073 258.324 39.4705 242.8 25.1846 243.404Z" fill="#EBEBEB"/>
<path d="M65.3209 307.735L58.5358 306.05C58.5358 306.05 57.1266 311.777 51.1468 310.412C49.9907 310.171 48.9385 309.575 48.1367 308.707C47.3349 307.84 46.8234 306.745 46.6732 305.573C46.5321 304.592 46.6255 303.591 46.9456 302.653C47.2657 301.714 47.8034 300.865 48.5148 300.175C50.1402 298.549 53.1078 297.438 57.4621 299.384L61.2573 284.003L54.5095 282.34L52.2727 291.354C52.2727 291.354 42.2144 291.466 39.6495 301.89C37.189 311.866 45.5622 316.384 49.3946 317.324C52.3323 318.047 62.4801 319.799 65.3209 307.735Z" fill="#EBEBEB"/>
<path d="M55.2043 279.155L62.0457 280.84L63.6206 274.447L56.7792 272.762L55.2043 279.155Z" fill="#EBEBEB"/>
<path d="M18.2726 143.306H33.8484L32.4765 150.292H4.41919L5.53015 144.737L22.4182 131.503C26.5936 128.162 27.8686 126.209 27.8686 123.771C27.8686 121.332 26.0121 119.692 22.4182 119.692C20.9013 119.715 19.4084 120.074 18.0469 120.743C16.6854 121.412 15.4892 122.375 14.5446 123.562L8.77355 119.379C11.756 115.3 17.2959 112.601 23.6857 112.601C31.5221 112.601 36.6519 116.784 36.6519 122.555C36.6519 126.947 34.6462 130.653 28.1296 135.685L18.2726 143.306Z" fill="#F4F4F4"/>
<path d="M70.9574 142.516H64.8732L63.3373 150.292H54.9716L56.5597 142.516H36.5997L37.7107 136.745L59.5272 113.236H68.8921L48.5668 135.522H58.3044L59.6838 128.588H67.6767L66.2974 135.522H72.389L70.9574 142.516Z" fill="#F4F4F4"/>
<path d="M95.4134 105.719H103.145L75.9381 155.585H68.2285L95.4134 105.719Z" fill="#F4F4F4"/>
<path d="M130.726 113.236L129.615 118.798L109.819 150.292H100.29L119.288 120.222H107.276L106.053 126.261H98.4332L101.035 113.236H130.726Z" fill="#F4F4F4"/>
<path d="M0.952148 179.528L3.12187 175.412C5.05566 176.647 7.29906 177.312 9.59377 177.328C11.7113 177.328 12.9341 176.664 12.9341 175.606C12.9341 172.989 3.47977 174.435 3.47977 168.321C3.47977 164.123 7.06615 161.372 12.8223 161.372C15.2635 161.291 17.6817 161.868 19.8235 163.042L17.8253 167.128C16.2207 166.14 14.3709 165.624 12.4867 165.637C10.2052 165.637 8.98237 166.472 8.98237 167.531C8.98237 170.2 18.4367 168.672 18.4367 174.674C18.4367 178.842 14.7683 181.593 9.07184 181.593C5.73151 181.608 2.70433 180.721 0.952148 179.528Z" fill="#F4F4F4"/>
<path d="M28.2414 166.017L27.6077 169.298H36.2493L35.4217 173.406H26.7726L26.0717 176.97H36.2791L35.3844 181.22H19.7639L23.6858 161.797H38.9186L38.0537 166.054L28.2414 166.017Z" fill="#F4F4F4"/>
<path d="M53.1149 175.382L56.4254 181.22H50.6693L47.7764 176.053H45.0027L43.9738 181.22H38.4712L42.3558 161.797H50.6693C55.6426 161.797 58.5057 164.108 58.5057 168C58.5447 169.652 58.0376 171.271 57.063 172.606C56.0883 173.941 54.7006 174.916 53.1149 175.382ZM49.8939 166.099H47.0009L45.8602 171.796H49.1408C51.5641 171.796 52.9807 170.632 52.9807 168.492C52.9509 166.852 51.7803 166.099 49.8939 166.099Z" fill="#F4F4F4"/>
<path d="M82.6262 161.797L70.4653 181.22H65.0447L60.586 161.797H66.2302L69.0114 174.472L76.9596 161.797H82.6262Z" fill="#F4F4F4"/>
<path d="M83.7894 161.797H89.2994L85.3775 181.22H79.8749L83.7894 161.797Z" fill="#F4F4F4"/>
<path d="M90.157 173.048C90.157 166.293 95.1302 161.372 102.355 161.372C105.942 161.372 108.864 162.684 110.251 165.04L106.255 168.209C105.808 167.486 105.175 166.897 104.422 166.503C103.669 166.11 102.823 165.926 101.975 165.972C98.1946 165.972 95.6894 168.888 95.6894 172.72C95.6894 175.337 97.4714 177.09 100.446 177.09C101.355 177.094 102.252 176.895 103.074 176.508C103.896 176.121 104.621 175.556 105.196 174.853L108.447 178.044C106.255 180.691 103.392 181.66 99.917 181.66C93.967 181.608 90.157 178.133 90.157 173.048Z" fill="#F4F4F4"/>
<path d="M118.281 166.017L117.64 169.298H126.282L125.476 173.406H116.805L116.112 176.97H126.312L125.424 181.22H109.834L113.711 161.797H128.944L128.086 166.054L118.281 166.017Z" fill="#F4F4F4"/>
<path d="M22.1125 102.268H11.249C11.249 87.1469 17.3704 71.6979 28.0401 59.8427C39.269 47.3835 53.8456 40.5239 69.0486 40.5239C100.118 40.5239 121.823 63.2054 121.823 95.6991H110.982C110.982 69.2075 94.1384 51.4098 69.071 51.4098C44.4957 51.3875 22.1125 75.6347 22.1125 102.268Z" fill="white"/>
<path d="M28.07 99.2485C29.8073 99.2485 31.2165 99.4199 31.209 99.5765C31.2016 99.7331 29.7998 99.8524 28.07 99.8524C26.3402 99.8524 24.9235 99.7107 24.9235 99.5243C24.9235 99.3379 26.3402 99.2186 28.07 99.2485Z" fill="#263238"/>
<path d="M35.5708 75.4334C37.062 76.3878 38.0686 77.3646 37.9046 77.6255C37.7405 77.8865 36.4133 77.3571 34.9221 76.4549C33.4309 75.5527 32.4392 74.5611 32.5958 74.2628C32.7524 73.9646 34.1169 74.4865 35.5708 75.4334Z" fill="#263238"/>
<path d="M54.3602 59.0227C55.0685 60.6109 55.4189 62.0052 55.1058 62.1245C54.7926 62.2438 53.9948 61.0881 53.2343 59.5297C52.4738 57.9714 52.1233 56.5473 52.4887 56.428C52.854 56.3087 53.6593 57.4122 54.3602 59.0227Z" fill="#263238"/>
<path d="M79.1144 57.069C78.6819 58.7541 78.0929 60.0514 77.8021 59.9918C77.5113 59.9321 77.571 58.5006 77.9438 56.7931C78.3166 55.0857 78.8981 53.8107 79.256 53.8778C79.6139 53.9449 79.5468 55.3914 79.1144 57.069Z" fill="#263238"/>
<path d="M99.3354 71.2804C97.8889 72.2347 96.5841 72.8163 96.4126 72.5777C96.2411 72.3391 97.2477 71.3102 98.6494 70.2887C100.051 69.2672 101.363 68.6931 101.572 68.9913C101.781 69.2896 100.782 70.3185 99.3354 71.2804Z" fill="#263238"/>
<path d="M105.994 94.6922C104.264 94.6922 102.855 94.558 102.855 94.4089C102.855 94.2597 104.256 94.1106 105.994 94.0883C107.731 94.0659 109.133 94.1926 109.14 94.3716C109.148 94.5505 107.746 94.6922 105.994 94.6922Z" fill="#263238"/>
<path d="M66.1034 97.9285C65.5622 97.9322 65.036 97.7507 64.6122 97.414L46.3522 83.2474C45.846 82.8519 45.5176 82.2715 45.4393 81.6339C45.361 80.9963 45.5392 80.3537 45.9347 79.8474C46.3302 79.3412 46.9106 79.0128 47.5482 78.9345C48.1858 78.8562 48.8284 79.0344 49.3347 79.4299L65.9916 92.3439L88.9937 71.2207C89.4633 70.7847 90.0869 70.5531 90.7273 70.5769C91.3678 70.6006 91.9725 70.8778 92.4085 71.3475C92.8446 71.8171 93.0762 72.4408 93.0524 73.0812C93.0286 73.7216 92.7514 74.3263 92.2818 74.7624L67.7736 97.2798C67.3198 97.7008 66.7225 97.9328 66.1034 97.9285Z" fill="white"/>
<path d="M78.4882 24.5532H57.5515C57.2262 24.5532 56.9624 24.8169 56.9624 25.1423V32.7251C56.9624 33.0504 57.2262 33.3141 57.5515 33.3141H78.4882C78.8135 33.3141 79.0772 33.0504 79.0772 32.7251V25.1423C79.0772 24.8169 78.8135 24.5532 78.4882 24.5532Z" fill="white"/>
<path d="M73.7311 28.9373H62.3009V39.3012H73.7311V28.9373Z" fill="white"/>
<path d="M20.8379 51.365L12.2518 61.9982C11.9181 62.4115 11.9826 63.0171 12.3959 63.3508L18.2665 68.0912C18.6798 68.425 19.2854 68.3604 19.6191 67.9472L28.2052 57.3139C28.539 56.9006 28.4745 56.295 28.0612 55.9613L22.1905 51.2209C21.7772 50.8872 21.1717 50.9517 20.8379 51.365Z" fill="white"/>
<path d="M78.4882 33.314C78.4882 33.4408 73.7983 33.5377 68.0497 33.5377C62.301 33.5377 57.6111 33.4408 57.6111 33.314C57.6111 33.1873 62.2935 33.0903 68.0497 33.0903C73.8058 33.0903 78.4882 33.1947 78.4882 33.314Z" fill="#263238"/>
<path d="M20.6437 66.1208C20.5244 66.255 18.9437 65.0471 16.9903 63.5782C15.0368 62.1094 13.4486 60.9164 13.5455 60.7673C13.6425 60.6182 15.3946 61.5875 17.3705 63.0712C19.3464 64.555 20.7556 65.994 20.6437 66.1208Z" fill="#263238"/>
<path d="M22.4629 63.4443C22.3436 63.5785 20.763 62.3706 18.8095 60.9017C16.856 59.4329 15.2604 58.2399 15.3573 58.0908C15.4542 57.9417 17.2139 58.9109 19.1897 60.4022C21.1656 61.8934 22.5748 63.3175 22.4629 63.4443Z" fill="#263238"/>
<path d="M24.6924 61.1994C24.5806 61.3336 22.9999 60.1257 21.0464 58.6569C19.0929 57.188 17.5271 55.995 17.5942 55.8459C17.6613 55.6968 19.4508 56.6661 21.4192 58.1573C23.3876 59.6485 24.8117 61.0726 24.6924 61.1994Z" fill="#263238"/>
<path d="M26.8546 58.5231C26.7427 58.6573 25.1546 57.4494 23.2011 55.9806C21.2476 54.5117 19.6595 53.3188 19.7638 53.1696C19.8682 53.0205 21.6204 53.9898 23.5888 55.481C25.5572 56.9722 26.9664 58.3964 26.8546 58.5231Z" fill="#263238"/>
<path d="M120.576 54.7261L111.333 44.6578C110.974 44.2665 110.366 44.2404 109.974 44.5996L104.416 49.7022C104.024 50.0614 103.998 50.6699 104.358 51.0612L113.6 61.1295C113.959 61.5209 114.567 61.5469 114.959 61.1877L120.517 56.0851C120.909 55.7259 120.935 55.1175 120.576 54.7261Z" fill="white"/>
<path d="M106.009 52.3567C105.897 52.2225 107.321 50.8655 109.066 49.1207C110.81 47.376 112.22 46.0115 112.354 46.1383C112.488 46.265 111.273 47.8532 109.506 49.583C107.738 51.3128 106.113 52.4834 106.009 52.3567Z" fill="#263238"/>
<path d="M108.387 54.5488C108.268 54.4146 109.699 53.0576 111.437 51.3129C113.174 49.5681 114.598 48.2037 114.732 48.3304C114.866 48.4572 113.644 50.0453 111.884 51.7752C110.124 53.505 108.491 54.6756 108.387 54.5488Z" fill="#263238"/>
<path d="M110.273 57.0913C110.154 56.9571 111.586 55.6001 113.323 53.8554C115.06 52.1106 116.484 50.7462 116.619 50.8729C116.753 50.9997 115.53 52.5804 113.763 54.3102C111.996 56.04 110.378 57.2181 110.273 57.0913Z" fill="#263238"/>
<path d="M112.6 59.6489C112.48 59.5147 113.912 58.1577 115.649 56.413C117.387 54.6682 118.811 53.3038 118.945 53.4305C119.079 53.5573 117.856 55.1454 116.089 56.8752C114.322 58.6051 112.704 59.7533 112.6 59.6489Z" fill="#263238"/>
<path d="M59.9001 33.3064C59.7286 33.3064 59.5869 31.3678 59.5869 28.9893C59.5869 26.6108 59.7286 24.6648 59.9001 24.6648C60.0716 24.6648 60.2207 26.6034 60.2207 28.9893C60.2207 31.3753 60.079 33.3064 59.9001 33.3064Z" fill="#263238"/>
<path d="M64.0009 33.3064C63.8294 33.3064 63.6877 31.3678 63.6877 28.9893C63.6877 26.6108 63.8294 24.6648 64.0009 24.6648C64.1724 24.6648 64.3141 26.6034 64.3141 28.9893C64.3141 31.3753 64.1724 33.3064 64.0009 33.3064Z" fill="#263238"/>
<path d="M68.0943 33.3064C67.9228 33.3064 67.7811 31.3678 67.7811 28.9893C67.7811 26.6108 67.9228 24.6648 68.0943 24.6648C68.2657 24.6648 68.4074 26.6034 68.4074 28.9893C68.4074 31.3753 68.2732 33.3064 68.0943 33.3064Z" fill="#263238"/>
<path d="M72.1951 33.3064C72.0162 33.3064 71.882 31.3678 71.882 28.9893C71.882 26.6108 72.0162 24.6648 72.1951 24.6648C72.3741 24.6648 72.5083 26.6034 72.5083 28.9893C72.5083 31.3753 72.3666 33.3064 72.1951 33.3064Z" fill="#263238"/>
<path d="M76.2886 33.3064C76.1171 33.3064 75.9754 31.3678 75.9754 28.9893C75.9754 26.6108 76.1171 24.6648 76.2886 24.6648C76.46 24.6648 76.6017 26.6034 76.6017 28.9893C76.6017 31.3753 76.4302 33.3064 76.2886 33.3064Z" fill="#263238"/>
<path d="M70.5353 98.5525C72.6725 96.4152 72.6725 92.95 70.5353 90.8128C68.398 88.6755 64.9329 88.6755 62.7956 90.8128C60.6584 92.95 60.6584 96.4152 62.7956 98.5525C64.9329 100.69 68.398 100.69 70.5353 98.5525Z" fill="white"/>
<path d="M72.1354 94.6922C72.0832 94.6922 72.0907 94.2076 71.8596 93.38C71.528 92.2251 70.8225 91.2128 69.8539 90.5019C69.0774 89.9253 68.1559 89.5758 67.1924 89.4924C66.2288 89.409 65.261 89.595 64.397 90.0296C63.533 90.4642 62.8067 91.1303 62.2992 91.9536C61.7918 92.7769 61.523 93.7251 61.523 94.6922C61.523 95.6594 61.7918 96.6076 62.2992 97.4309C62.8067 98.2542 63.533 98.9203 64.397 99.3549C65.261 99.7895 66.2288 99.9755 67.1924 99.8921C68.1559 99.8087 69.0774 99.4592 69.8539 98.8826C70.8209 98.1701 71.5259 97.1584 71.8596 96.0045C72.0907 95.1769 72.0832 94.6922 72.1354 94.6922C72.1876 94.6922 72.1354 94.8115 72.1354 95.0427C72.1472 95.3839 72.1121 95.7251 72.0311 96.0567C71.7634 97.3015 71.0666 98.4126 70.0626 99.1957C69.3125 99.7847 68.4254 100.174 67.4842 100.328C66.5429 100.482 65.578 100.395 64.6793 100.076C63.5668 99.6813 62.6037 98.952 61.9226 97.988C61.2415 97.024 60.8758 95.8726 60.8758 94.6922C60.8758 93.5119 61.2415 92.3605 61.9226 91.3965C62.6037 90.4325 63.5668 89.7032 64.6793 89.3089C65.5777 88.9905 66.5418 88.9035 67.4827 89.056C68.4235 89.2084 69.3108 89.5955 70.0626 90.1813C71.0662 90.968 71.7626 92.0812 72.0311 93.3278C72.1121 93.6594 72.1472 94.0006 72.1354 94.3418C72.1727 94.558 72.1578 94.6922 72.1354 94.6922Z" fill="#263238"/>
<path d="M259.306 113.437L268.656 111.946C274.784 116.89 282.54 119.364 290.4 118.88C298.259 118.395 305.653 114.989 311.128 109.33C316.603 103.67 319.763 96.1676 319.987 88.2965C320.211 80.4254 317.482 72.7553 312.338 66.7939C307.193 60.8326 300.005 57.0114 292.186 56.0814C284.366 55.1514 276.482 57.18 270.083 61.7683C263.683 66.3567 259.232 73.1728 257.603 80.8769C255.975 88.5809 257.287 96.6155 261.282 103.401L259.306 113.437Z" fill="white"/>
<path d="M259.306 113.437C259.306 113.437 259.306 113.228 259.41 112.803L259.768 110.894C260.089 109.179 260.566 106.667 261.185 103.386C261.187 103.375 261.19 103.365 261.196 103.356C261.202 103.347 261.21 103.339 261.22 103.334C261.229 103.328 261.239 103.324 261.25 103.323C261.261 103.322 261.272 103.323 261.282 103.326C261.289 103.322 261.296 103.32 261.304 103.32C261.312 103.32 261.32 103.322 261.327 103.326L261.192 103.431C258.524 98.9267 257.015 93.8311 256.801 88.6005C256.735 86.9727 256.797 85.3422 256.987 83.7242C257.209 81.9923 257.563 80.2798 258.046 78.6019C259.807 72.5188 263.354 67.1047 268.227 63.0607C273.101 59.0168 279.076 56.5293 285.38 55.9204C290.326 55.4537 295.312 56.1605 299.933 57.9833C304.554 59.8062 308.68 62.6937 311.976 66.4112L313.243 67.9024C313.639 68.4243 313.989 68.9686 314.377 69.4905C315.113 70.5516 315.783 71.6572 316.382 72.8011C316.71 73.3528 316.919 73.9642 317.195 74.5383C317.471 75.1124 317.754 75.6866 317.941 76.298C318.383 77.4814 318.749 78.6917 319.037 79.9216C320.184 84.701 320.222 89.6795 319.149 94.4759C317.711 100.713 314.414 106.367 309.695 110.691C304.976 115.015 299.055 117.805 292.717 118.693C290.975 118.93 289.218 119.032 287.46 118.999C285.828 118.922 284.203 118.747 282.591 118.477C277.461 117.522 272.653 115.297 268.604 112.005H268.671L261.677 113.057L259.895 113.317L259.306 113.4L259.925 113.288L261.722 112.989L268.641 111.841H268.708C272.753 115.079 277.539 117.259 282.636 118.186C284.235 118.453 285.848 118.619 287.468 118.686C289.213 118.714 290.958 118.607 292.687 118.365C298.949 117.459 304.792 114.682 309.449 110.398C314.106 106.113 317.359 100.522 318.783 94.3566C319.837 89.6152 319.793 84.6959 318.657 79.9738C318.364 78.7613 318.003 77.5663 317.575 76.3949C317.389 75.791 317.076 75.2392 316.83 74.6576C316.584 74.076 316.345 73.487 316.024 72.9427C315.434 71.8128 314.772 70.7219 314.041 69.6769C313.668 69.155 313.296 68.6182 312.923 68.1037L311.67 66.6125C308.415 62.9403 304.34 60.0863 299.777 58.2819C295.213 56.4774 290.289 55.7732 285.402 56.2261C281.076 56.6536 276.886 57.9735 273.097 60.1026C269.307 62.2317 266 65.1237 263.384 68.5958C261.105 71.6333 259.402 75.0625 258.359 78.7137C257.877 80.3747 257.521 82.0695 257.293 83.7839C257.095 85.3888 257.026 87.0069 257.084 88.6229C257.266 93.817 258.729 98.8856 261.341 103.379C261.356 103.394 261.364 103.414 261.364 103.434C261.364 103.455 261.356 103.475 261.341 103.49C261.327 103.502 261.308 103.509 261.289 103.509C261.27 103.509 261.252 103.502 261.237 103.49L261.371 103.446C260.715 106.689 260.208 109.179 259.88 110.902C259.709 111.744 259.574 112.393 259.485 112.825C259.395 113.258 259.306 113.437 259.306 113.437Z" fill="#263238"/>
<path d="M297.996 88.3397C297.994 87.7064 298.181 87.0869 298.532 86.5598C298.883 86.0326 299.382 85.6215 299.967 85.3785C300.552 85.1354 301.195 85.0715 301.817 85.1946C302.438 85.3178 303.008 85.6226 303.456 86.0704C303.904 86.5182 304.209 87.0888 304.332 87.71C304.455 88.3312 304.391 88.9749 304.148 89.5597C303.905 90.1445 303.494 90.644 302.967 90.9949C302.44 91.3458 301.82 91.5323 301.187 91.5309C300.341 91.5289 299.531 91.192 298.933 90.594C298.334 89.996 297.998 89.1854 297.996 88.3397Z" fill="#263238"/>
<path d="M285.201 88.3397C285.2 87.7067 285.386 87.0876 285.736 86.5606C286.087 86.0336 286.586 85.6224 287.17 85.3792C287.755 85.1359 288.398 85.0715 289.019 85.1941C289.64 85.3167 290.211 85.6207 290.659 86.0678C291.107 86.5148 291.412 87.0848 291.536 87.7054C291.66 88.3261 291.597 88.9696 291.356 89.5546C291.114 90.1395 290.704 90.6395 290.178 90.9913C289.651 91.3431 289.033 91.5309 288.4 91.5309C287.553 91.5309 286.74 91.1949 286.14 90.5966C285.541 89.9984 285.203 89.1867 285.201 88.3397Z" fill="#263238"/>
<path d="M272.444 89.9352C272.127 89.3873 271.98 88.7579 272.022 88.1266C272.063 87.4953 272.291 86.8905 272.676 86.3885C273.061 85.8866 273.586 85.5101 274.185 85.3068C274.784 85.1034 275.43 85.0822 276.041 85.2459C276.652 85.4097 277.201 85.7509 277.618 86.2266C278.036 86.7022 278.302 87.2909 278.385 87.9181C278.467 88.5453 278.362 89.183 278.082 89.7504C277.803 90.3178 277.361 90.7895 276.813 91.1058C276.078 91.5279 275.205 91.6417 274.387 91.4224C273.568 91.203 272.869 90.6683 272.444 89.9352Z" fill="#263238"/>
<path d="M49.0591 202.806C47.0981 201.874 43.7951 199.928 41.7521 199.168C39.7326 198.304 37.4796 198.151 35.3622 198.735C34.1618 199.138 32.9613 200.1 32.9539 201.367L40.9692 207.28L49.0591 205.147V202.806Z" fill="#FF9A6C"/>
<path d="M40.2906 202.724C40.2906 202.724 25.8929 199.6 23.492 198.37C21.0912 197.139 8.57984 190.876 6.48467 190.876C4.38951 190.876 2.60005 191.443 2.21979 193.531L4.95617 195.656L5.30661 196.744L9.98904 199.182L10.8167 200.718L22.7464 207.086C22.7464 207.086 35.2578 213.438 37.3455 213.796C39.4332 214.154 49.8568 215.027 54.3155 218.822L72.2102 211.47C72.2102 211.47 67.0431 204.133 63.0615 202.321C59.5124 200.711 53.555 200.711 49.3871 202.418L40.2906 202.724Z" fill="#FFBF9D"/>
<path d="M52.2651 214.736C52.2651 214.736 75.0435 264.408 78.7119 274.385C78.7119 274.385 104.174 270.194 105.047 256.065L72.24 211.328L52.2651 214.736Z" fill="#FFBF9D"/>
<path d="M31.1121 203.85C31.1121 203.85 31.0226 203.85 30.8661 203.85C30.6331 203.827 30.4032 203.779 30.1801 203.708C29.3635 203.46 28.5702 203.14 27.8091 202.754C26.8398 202.284 25.7139 201.665 24.4762 200.972C23.8573 200.629 23.2087 200.264 22.5301 199.913C21.8516 199.563 21.1135 199.257 20.3604 198.929C18.9661 198.297 17.5253 197.774 16.0508 197.363C14.7012 197.028 13.4039 196.774 12.4271 197.102C12.0483 197.254 11.7046 197.482 11.4173 197.771C11.13 198.061 10.9053 198.407 10.757 198.787C10.6468 199.078 10.5199 199.361 10.3767 199.637C10.3767 199.637 10.3767 199.548 10.414 199.399C10.4638 199.17 10.5311 198.946 10.6153 198.728C10.7471 198.38 10.9251 198.051 11.1447 197.751C11.4349 197.34 11.8393 197.024 12.3078 196.841C12.8858 196.647 13.4999 196.586 14.1048 196.662C14.7811 196.729 15.4515 196.846 16.1104 197.013C17.6164 197.41 19.0876 197.928 20.5095 198.564C21.2552 198.892 22.0008 199.197 22.6942 199.563C23.3876 199.928 24.0288 200.308 24.6477 200.659C25.8779 201.367 26.9814 202.008 27.9284 202.5C28.6621 202.901 29.4218 203.252 30.2025 203.552C30.784 203.768 31.1121 203.813 31.1121 203.85Z" fill="#FF9A6C"/>
<path d="M17.3781 196.707C16.6761 196.565 15.9965 196.33 15.3575 196.006C13.8197 195.281 12.2385 194.651 10.6229 194.12C9.73886 193.87 8.81499 193.791 7.9014 193.889C7.53686 193.9 7.17837 193.985 6.84769 194.139C6.51701 194.292 6.22103 194.512 5.97772 194.784C5.68612 195.188 5.49448 195.655 5.41852 196.148C5.41176 196.339 5.37399 196.528 5.30668 196.707C5.2718 196.517 5.2718 196.323 5.30668 196.133C5.33456 195.601 5.50448 195.086 5.79878 194.642C6.02701 194.331 6.32273 194.076 6.66369 193.896C7.05367 193.711 7.47208 193.592 7.9014 193.546C8.86309 193.425 9.83928 193.498 10.772 193.762C12.4105 194.288 13.9978 194.962 15.5141 195.775C16.1517 196.052 16.7739 196.363 17.3781 196.707Z" fill="#FF9A6C"/>
<path d="M53.3166 201.315C53.3166 201.315 53.1153 201.434 52.735 201.568C52.1897 201.766 51.6348 201.935 51.0723 202.075C49.2213 202.557 47.3241 202.84 45.4131 202.918C43.5026 203.001 41.5887 202.886 39.7017 202.575C38.9561 202.448 38.4044 202.322 38.0092 202.21C37.7978 202.178 37.5935 202.11 37.4053 202.008C37.4053 201.949 38.3 202.12 39.7465 202.299C41.6209 202.531 43.5111 202.608 45.3982 202.53C47.2867 202.433 49.1642 202.184 51.0127 201.785C52.392 201.516 53.2644 201.263 53.3166 201.315Z" fill="#FF9A6C"/>
<path d="M265.398 171.826L232.263 164.966L224.061 158.815L180.294 167.255C179.593 168.538 172.502 178.439 172.502 178.439L155.264 184.292C147.937 186.218 141.397 190.389 136.564 196.222C131.967 201.899 128.202 208.2 125.38 214.937C117.625 233.137 106.434 254.164 106.434 254.164L99.4174 242.86L69.8466 256.788C69.8466 256.788 87.1671 291.705 92.9008 296.693C99.2758 302.233 113.934 302.874 124.067 292.54C130.174 286.307 147.822 261.672 151.498 255.506L156.956 281.289L161.974 310.718L153.862 330.976H272.265L267.366 311.829C267.366 311.829 272.19 261.925 273.525 252.635C276.664 230.722 265.398 171.826 265.398 171.826Z" fill="white"/>
<path d="M265.398 171.826C265.398 171.826 289.108 178.477 294.327 202.046C297.489 216.324 308.226 257.027 312.006 290.535C314.243 310.457 314.183 328.866 314.243 330.977H277.857L262.438 178.477L265.398 171.826Z" fill="white"/>
<path d="M204.586 192.062C204.586 192.062 204.586 192.151 204.489 192.308L204.153 192.994C203.855 193.598 203.408 194.485 202.923 195.611C201.872 197.848 200.634 201.166 198.636 204.871L198.539 205.058L198.375 204.916C195.914 202.821 193.245 200.301 190.486 197.579C185.603 192.733 181.323 188.222 178.161 185.023L174.396 181.243L173.36 180.221C173.234 180.109 173.119 179.984 173.017 179.849C173.161 179.939 173.293 180.047 173.412 180.169L174.485 181.139C175.41 181.989 176.722 183.249 178.34 184.829C181.554 187.983 185.871 192.464 190.74 197.303C193.499 200.025 196.153 202.523 198.584 204.655L198.315 204.7C200.328 201.046 201.611 197.743 202.714 195.521C203.259 194.395 203.713 193.531 204.041 192.942C204.191 192.681 204.317 192.457 204.422 192.285C204.468 192.205 204.523 192.13 204.586 192.062Z" fill="black"/>
<path d="M232.725 165.809C232.723 165.985 232.7 166.16 232.658 166.331C232.583 166.704 232.494 167.196 232.382 167.822C232.114 169.105 231.636 170.954 231.025 173.206C229.735 177.679 227.647 183.86 225.06 190.534C223.696 194.068 222.354 197.408 221.101 200.368L221.004 200.599L220.818 200.435C217.44 197.453 214.413 195.104 212.362 193.359C211.333 192.487 210.528 191.786 209.984 191.294L209.38 190.727C209.238 190.593 209.171 190.526 209.179 190.519C209.265 190.563 209.345 190.619 209.417 190.683L210.058 191.212L212.497 193.195C214.592 194.895 217.641 197.199 221.056 200.167L220.773 200.234C222.003 197.251 223.338 193.926 224.695 190.399C227.252 183.689 229.377 177.612 230.727 173.131C231.398 170.894 231.89 169.06 232.218 167.785C232.36 167.181 232.479 166.696 232.568 166.294C232.608 166.128 232.661 165.966 232.725 165.809Z" fill="black"/>
<path d="M156.024 277.986C155.993 277.936 155.97 277.88 155.957 277.822L155.801 277.315C155.666 276.818 155.48 276.162 155.241 275.347C154.988 274.497 154.742 273.445 154.444 272.223C154.145 271 153.825 269.598 153.504 268.047C151.854 259.958 150.694 251.776 150.03 243.547C149.187 233.906 149.001 225.145 149.045 218.815C149.045 215.646 149.127 213.081 149.217 211.314C149.262 210.449 149.291 209.77 149.314 209.271C149.314 209.062 149.314 208.883 149.351 208.741C149.343 208.682 149.343 208.622 149.351 208.562C149.357 208.624 149.357 208.687 149.351 208.749V209.278C149.351 209.778 149.351 210.456 149.351 211.314C149.351 213.088 149.291 215.646 149.306 218.815C149.306 225.137 149.56 233.891 150.402 243.509C151.073 251.726 152.193 259.9 153.758 267.995C154.063 269.546 154.347 270.977 154.637 272.17C154.928 273.363 155.144 274.459 155.383 275.309L155.875 277.293L155.987 277.807C156.024 277.927 156.032 277.986 156.024 277.986Z" fill="black"/>
<path d="M267.366 197.967C267.41 198.031 267.446 198.102 267.471 198.176C267.538 198.332 267.627 198.534 267.731 198.787C267.97 199.354 268.291 200.152 268.708 201.158C268.917 201.68 269.163 202.247 269.402 202.881L270.11 204.968C270.363 205.714 270.632 206.527 270.923 207.377C271.213 208.227 271.407 209.159 271.668 210.12C273.905 217.793 275.024 228.895 274.382 241.041C273.741 253.187 272.31 264.155 271.4 272.028C270.945 275.965 270.572 279.164 270.311 281.401C270.185 282.482 270.08 283.339 270.006 283.943L269.916 284.607C269.911 284.683 269.896 284.758 269.871 284.831C269.861 284.756 269.861 284.681 269.871 284.607L269.924 283.936C269.983 283.324 270.065 282.445 270.162 281.386C270.371 279.149 270.699 275.958 271.124 271.999C271.937 264.08 273.309 253.15 273.965 241.026C274.621 228.902 273.517 217.86 271.378 210.188L270.632 207.444L269.886 205.043C269.648 204.297 269.424 203.589 269.215 202.948C269.006 202.306 268.753 201.732 268.552 201.21C268.164 200.189 267.866 199.391 267.642 198.817C267.553 198.556 267.478 198.355 267.418 198.191C267.389 198.119 267.372 198.044 267.366 197.967Z" fill="black"/>
<path d="M106.628 279.552C106.523 279.552 106.396 273.87 106.352 266.877C106.307 259.883 106.352 254.201 106.463 254.201C106.575 254.201 106.695 259.883 106.739 266.877C106.784 273.87 106.739 279.552 106.628 279.552Z" fill="black"/>
<path d="M214.219 313.962V313.649C214.219 313.425 214.279 313.127 214.323 312.739C214.428 311.919 214.569 310.748 214.756 309.242C214.853 308.497 214.957 307.639 215.076 306.722C215.196 305.805 215.285 304.791 215.397 303.74C215.613 301.577 215.912 299.124 216.143 296.395C216.255 295.038 216.366 293.607 216.493 292.123C216.62 290.639 216.68 289.088 216.776 287.485C217 284.279 217.097 280.842 217.224 277.233C217.388 270.008 217.365 262.06 216.993 253.732C216.62 245.403 215.859 237.485 215.017 230.305C214.547 226.718 214.137 223.311 213.608 220.142C213.362 218.554 213.145 217.018 212.862 215.549C212.579 214.08 212.348 212.671 212.116 211.321C211.662 208.63 211.14 206.214 210.715 204.081C210.498 203.015 210.305 202.024 210.118 201.099C209.932 200.174 209.73 199.362 209.559 198.616L208.813 195.179C208.739 194.799 208.672 194.5 208.627 194.284C208.582 194.068 208.575 193.971 208.575 193.971C208.613 194.068 208.642 194.168 208.664 194.269L208.895 195.156L209.723 198.586L210.312 201.062C210.506 201.971 210.715 202.956 210.946 204.044C211.386 206.169 211.93 208.585 212.4 211.277C212.648 212.624 212.897 214.033 213.145 215.504C213.414 216.995 213.63 218.487 213.891 220.097C214.428 223.273 214.853 226.681 215.337 230.267C216.195 237.455 216.926 245.381 217.343 253.717C217.761 262.053 217.731 270.016 217.544 277.248C217.403 280.864 217.298 284.302 217.06 287.508C216.955 289.111 216.881 290.662 216.754 292.153C216.627 293.644 216.493 295.068 216.374 296.433C216.165 299.162 215.844 301.652 215.628 303.769C215.501 304.851 215.382 305.857 215.278 306.752C215.173 307.647 215.032 308.512 214.92 309.272C214.704 310.763 214.532 311.941 214.42 312.754L214.279 313.664C214.267 313.765 214.247 313.864 214.219 313.962Z" fill="black"/>
<path d="M229.981 233.481H230.13L230.6 233.428L232.427 233.22L239.413 232.474L264.279 229.894H264.466V230.081C264.652 237.604 264.876 246.119 265.107 255.148V255.23L265.055 255.282L262.072 258.511L251.201 270.127L251.104 270.232L250.978 270.165L232.658 261.068L232.576 261.031V260.964C231.778 252.65 231.085 245.776 230.66 240.952C230.436 238.581 230.265 236.717 230.145 235.427C230.093 234.808 230.048 234.331 230.018 233.98C229.989 233.63 230.018 233.503 230.018 233.503C230.018 233.503 230.018 233.682 230.086 234.01C230.153 234.338 230.183 234.853 230.257 235.501C230.391 236.806 230.593 238.678 230.854 241.064C231.353 245.85 232.061 252.688 232.926 260.956L232.837 260.83L251.179 269.874L250.963 269.911L261.811 258.25L264.794 255.029L264.742 255.163C264.525 246.134 264.317 237.626 264.138 230.096L264.331 230.26L239.54 232.631L232.509 233.287L230.637 233.451L230.153 233.496L229.981 233.481Z" fill="black"/>
<path d="M264.51 238.73C264.088 238.847 263.657 238.929 263.221 238.976C262.385 239.11 261.178 239.281 259.679 239.475C256.696 239.856 252.529 240.296 247.943 240.735L236.192 241.884L232.636 242.256C232.204 242.326 231.768 242.358 231.331 242.353C231.753 242.236 232.185 242.154 232.621 242.107C233.456 241.973 234.664 241.802 236.162 241.608C239.145 241.228 243.313 240.788 247.906 240.348L259.649 239.199L263.206 238.827C263.637 238.757 264.074 238.725 264.51 238.73Z" fill="black"/>
<g opacity="0.3">
<path d="M271.713 268.055L272.966 283.287C275.732 270.239 280.079 256.214 279.4 242.898C278.722 229.581 277.469 216.839 269.968 204.782C273.229 213.86 274.725 223.476 274.375 233.115C273.689 248.699 271.713 268.055 271.713 268.055Z" fill="black"/>
</g>
<path d="M101.692 239.699C101.289 238.781 100.576 238.034 99.6786 237.589C98.6347 237.231 97.5014 237.738 96.5097 238.23L69.459 251.696C67.677 252.583 65.731 253.634 65.0748 255.499C64.2174 257.884 65.8204 260.405 67.3116 262.455C69.802 265.877 72.7844 269.605 77.0046 270.09L100.275 254.134C103.116 253.716 104.883 250.548 104.749 247.677C104.614 244.806 103.138 242.189 101.692 239.699Z" fill="white"/>
<path d="M104.629 249.451C104.561 249.547 104.48 249.635 104.391 249.712L103.645 250.406C103.004 251.002 102.057 251.845 100.872 252.859C98.493 254.894 95.1154 257.601 91.1786 260.36C87.2418 263.118 83.6405 265.392 80.9041 266.928C79.5471 267.711 78.4361 268.323 77.6607 268.725L76.766 269.18C76.5572 269.285 76.4454 269.329 76.4379 269.314C76.5241 269.233 76.6221 269.165 76.7287 269.113L77.5861 268.591L80.7624 266.69C83.4392 265.079 87.0852 262.768 90.9773 260.017C94.8694 257.265 98.2694 254.604 100.67 252.628L103.526 250.264L104.272 249.63C104.525 249.511 104.622 249.436 104.629 249.451Z" fill="black"/>
<g opacity="0.3">
<path d="M232.375 167.516C229.191 178.089 224.732 190.048 220.967 200.323C217.761 197.601 213.272 194 210.059 191.271C212.824 196.758 216.145 201.947 219.968 206.758C220.415 207.317 221.012 207.928 221.705 207.794C222.398 207.66 222.712 206.944 222.95 206.303L228.818 190.772C231.562 183.509 234.209 175.039 232.375 167.516Z" fill="black"/>
</g>
<path d="M182.046 52.4912C191.739 49.7026 200.806 52.4912 209.745 57.1289C218.685 61.7666 225.895 69.424 230.563 78.334C235.484 87.7213 237.661 98.6594 235.879 109.105C234.097 119.551 228.192 129.393 219.349 135.202C207.263 143.165 190.606 142.747 178.161 135.373C165.717 127.999 157.523 114.407 155.353 100.098C153.862 90.2414 155.07 79.8476 159.67 71.0196C164.271 62.1916 172.405 55.0337 182.039 52.4838" fill="#263238"/>
<path d="M213.869 82.8301C211.997 79.2289 212.079 74.9565 211.058 71.0197C208.821 62.3632 200.917 56.1075 192.328 53.6097C184.342 51.2759 175.104 53.0281 166.232 57.0395C160.162 59.7908 154.637 64.011 151.014 69.603C148.644 73.3513 147.204 77.6119 146.815 82.0294C146.426 86.447 147.099 90.8937 148.777 94.9985L193.059 83.3521C197.667 86.3345 202.386 89.4139 207.717 90.8082C209.268 91.2881 210.916 91.3626 212.504 91.0244C213.292 90.8381 214.01 90.429 214.572 89.846C215.134 89.2629 215.516 88.5306 215.673 87.7363C215.859 85.9617 214.681 84.4034 213.869 82.8301Z" fill="#263238"/>
<path d="M224.434 161.35L213.004 80.9588C212.497 77.1562 210.767 73.279 206.942 73.458L166.679 69.5808C154.063 70.1624 148.143 86.7298 149.262 99.2784C150.507 113.251 152.572 130.259 155.786 140.339C162.25 160.597 178.571 160.806 178.571 160.806C178.571 160.806 179.563 164.832 180.808 172.363L206.905 189.721L224.434 161.35Z" fill="#FFBF9D"/>
<path d="M158.992 114.571C159.092 115.266 159.46 115.895 160.017 116.322C160.574 116.75 161.277 116.943 161.974 116.86C162.317 116.836 162.652 116.743 162.958 116.587C163.265 116.431 163.537 116.216 163.759 115.953C163.98 115.69 164.147 115.386 164.249 115.057C164.351 114.729 164.386 114.384 164.353 114.041C164.251 113.346 163.883 112.718 163.326 112.29C162.769 111.861 162.068 111.666 161.37 111.745C161.027 111.771 160.693 111.865 160.387 112.022C160.081 112.179 159.809 112.396 159.588 112.659C159.366 112.922 159.2 113.226 159.097 113.555C158.995 113.883 158.959 114.228 158.992 114.571Z" fill="#263238"/>
<path d="M154.294 107.525C154.675 107.823 156.464 106.033 159.335 105.594C162.205 105.154 164.517 106.279 164.778 105.877C164.904 105.698 164.472 105.131 163.458 104.594C162.086 103.929 160.543 103.7 159.036 103.938C157.545 104.16 156.163 104.852 155.092 105.914C154.309 106.719 154.108 107.368 154.294 107.525Z" fill="#263238"/>
<path d="M185.483 110.261C185.582 110.958 185.949 111.588 186.506 112.018C187.064 112.447 187.767 112.641 188.466 112.558C188.809 112.533 189.143 112.441 189.45 112.285C189.756 112.129 190.028 111.914 190.25 111.651C190.472 111.388 190.639 111.084 190.741 110.755C190.843 110.427 190.878 110.081 190.844 109.739C190.746 109.043 190.379 108.412 189.821 107.983C189.264 107.554 188.56 107.36 187.862 107.443C187.519 107.468 187.185 107.561 186.879 107.718C186.573 107.874 186.301 108.089 186.08 108.352C185.858 108.614 185.691 108.918 185.589 109.246C185.486 109.574 185.451 109.919 185.483 110.261Z" fill="#263238"/>
<path d="M181.561 103.729C181.942 104.028 183.739 102.238 186.602 101.798C189.465 101.358 191.784 102.484 192.045 102.082C192.171 101.903 191.739 101.336 190.725 100.799C189.351 100.132 187.805 99.9028 186.296 100.143C184.785 100.366 183.387 101.069 182.307 102.149C181.561 102.894 181.36 103.64 181.561 103.729Z" fill="#263238"/>
<path d="M175.388 126.597C175.388 126.433 173.546 126.396 170.608 126.471C169.863 126.471 169.117 126.471 168.946 125.986C168.774 125.501 168.879 124.651 169.102 123.749C169.52 121.875 169.96 119.909 170.422 117.851C172.211 109.456 173.404 102.604 173.054 102.537C172.704 102.47 170.989 109.247 169.192 117.598C168.767 119.663 168.357 121.639 167.976 123.526C167.827 124.398 167.492 125.412 168.036 126.448C168.179 126.692 168.377 126.899 168.613 127.053C168.85 127.207 169.12 127.304 169.4 127.336C169.821 127.393 170.247 127.393 170.668 127.336C173.598 127.022 175.403 126.754 175.388 126.597Z" fill="#263238"/>
<path d="M178.579 160.806C188.382 159.459 197.619 155.413 205.257 149.122C205.257 149.122 198.748 165.414 179.906 167.054L178.579 160.806Z" fill="#FF9A6C"/>
<path d="M177.654 133.323C178.094 132.553 178.723 131.909 179.481 131.45C180.239 130.99 181.101 130.732 181.986 130.698C182.63 130.661 183.274 130.755 183.88 130.974C184.487 131.193 185.042 131.533 185.513 131.973C185.969 132.393 186.285 132.943 186.418 133.548C186.552 134.154 186.496 134.785 186.259 135.358C185.655 136.559 184.074 137.058 182.65 136.849C181.223 136.578 179.865 136.025 178.653 135.224C178.293 135.039 177.971 134.786 177.707 134.478C177.577 134.337 177.492 134.16 177.463 133.97C177.433 133.78 177.461 133.586 177.543 133.412" fill="#FF9A6C"/>
<path d="M184.126 127.291C183.649 127.335 184.126 130.452 181.792 133.062C179.459 135.671 176.111 135.843 176.148 136.275C176.148 136.484 176.983 136.767 178.385 136.596C180.212 136.342 181.891 135.453 183.127 134.083C184.313 132.771 184.941 131.049 184.879 129.281C184.797 127.962 184.335 127.246 184.126 127.291Z" fill="#263238"/>
<path d="M180.741 95.17C181.144 95.9156 183.947 95.1029 187.37 94.991C190.792 94.8792 193.655 95.3862 193.991 94.6182C194.14 94.2529 193.558 93.5968 192.343 93.0077C190.739 92.3072 188.996 91.9807 187.247 92.0531C185.498 92.1254 183.788 92.5946 182.247 93.4253C181.092 94.1112 180.562 94.8196 180.741 95.17Z" fill="#263238"/>
<path d="M153.228 94.8718C153.832 95.4459 155.704 94.4692 158.075 94.074C160.446 93.6788 162.548 93.8429 162.876 93.0898C163.033 92.7245 162.615 92.128 161.646 91.6433C160.354 91.0867 158.925 90.9256 157.541 91.1804C156.157 91.4352 154.879 92.0945 153.869 93.0749C153.116 93.8727 152.945 94.5885 153.228 94.8718Z" fill="#263238"/>
<path d="M220.385 75.9481C214.957 64.4359 195.318 50.1425 182.851 52.7L164.368 67.4332C165.477 70.7764 167.47 73.7578 170.134 76.0624C172.798 78.3669 176.035 79.9092 179.503 80.5261C183.194 81.1375 187.519 80.8616 190.039 83.6353C192.559 86.409 191.955 91.1809 194.393 94.126C197.771 98.212 205.346 96.9892 208.075 101.537C209.276 103.521 209.134 106.101 210.357 108.069C211.997 110.686 219.52 113.288 222.287 111.961C225.053 110.634 224.426 105.683 225.03 102.947C226.067 98.2866 225.083 96.0721 224.218 93.6563C222.197 87.93 222.98 81.4358 220.385 75.9481Z" fill="#263238"/>
<path d="M214.033 115.57C213.801 114.019 215.032 110.104 216.523 109.605C220.505 108.352 227.908 107.554 229.556 117.903C231.793 132.07 217.149 131.392 217.052 130.989C216.955 130.586 214.838 120.893 214.033 115.57Z" fill="#FFBF9D"/>
<path d="M220.52 124.949C220.579 124.89 220.795 125.084 221.265 125.203C221.891 125.365 222.555 125.273 223.114 124.949C224.516 124.167 225.396 121.594 225.06 119.029C224.902 117.812 224.474 116.645 223.808 115.614C223.605 115.193 223.303 114.828 222.928 114.55C222.552 114.271 222.115 114.089 221.653 114.019C221.358 113.988 221.062 114.063 220.816 114.229C220.571 114.395 220.392 114.643 220.311 114.928C220.184 115.353 220.311 115.622 220.244 115.674C220.177 115.726 219.908 115.488 219.923 114.884C219.948 114.522 220.095 114.18 220.341 113.914C220.681 113.556 221.151 113.347 221.645 113.333C222.749 113.236 223.882 114.078 224.568 115.115C225.367 116.245 225.878 117.553 226.059 118.925C226.425 121.788 225.388 124.688 223.435 125.635C223.074 125.807 222.679 125.896 222.279 125.896C221.879 125.896 221.485 125.807 221.123 125.635C220.602 125.263 220.475 124.979 220.52 124.949Z" fill="#FF9A6C"/>
<path d="M168.006 62.6685C167.358 68.6334 159.402 77.0215 156.076 81.9649C149.687 91.3968 148.553 94.4166 150.805 113.623C146.57 107.383 143.17 101.179 142.603 93.656C142.037 86.1328 143.93 78.3263 148.523 72.3465C153.116 66.3667 160.505 62.4299 168.043 62.6536" fill="#263238"/>
<path d="M201.79 42.4404C204.772 39.1523 209.082 37.0124 213.556 35.894C219.931 34.2984 226.932 34.7308 232.733 37.5045C238.533 40.2782 243.022 45.4825 244.193 51.4474C244.768 54.5115 244.497 57.6745 243.41 60.5963C242.322 63.5181 240.458 66.088 238.019 68.0298C241.336 71.2456 245.38 73.614 249.807 74.9341C248.599 76.7459 246.37 77.8047 244.118 78.185C241.854 78.468 239.563 78.453 237.303 78.1402C238.846 80.4453 241.154 82.1303 243.82 82.8972C240.15 83.7443 236.323 83.6184 232.718 82.5319C229.191 81.463 225.816 79.947 222.674 78.0209C211.766 71.6907 205.749 66.1434 198.382 56.3983C197.421 52.193 198.785 45.736 201.79 42.4404Z" fill="#263238"/>
<path d="M225.306 72.3242C217.298 60.6255 207.106 54.3699 197.883 52.4238L225.306 72.3242Z" fill="#263238"/>
<path d="M197.883 52.4238C198.306 52.593 198.742 52.7253 199.188 52.819C200.03 53.0576 201.245 53.4229 202.707 53.9822C206.512 55.4602 210.089 57.4683 213.332 59.947C216.576 62.4197 219.532 65.2483 222.145 68.3799C223.129 69.5952 223.927 70.6167 224.441 71.2878C224.698 71.6681 224.987 72.0249 225.306 72.354C225.091 71.9462 224.841 71.5571 224.561 71.1908C224.084 70.4452 223.323 69.4386 222.361 68.2084C219.813 64.9828 216.879 62.083 213.623 59.5742C210.341 57.0706 206.695 55.0842 202.811 53.6839C201.64 53.2672 200.445 52.9211 199.232 52.6475C198.789 52.537 198.338 52.4622 197.883 52.4238Z" fill="#455A64"/>
<path d="M234.85 82.2931L234.671 82.3528L234.149 82.5615C233.702 82.7554 233.031 83.0089 232.151 83.3071C229.664 84.1397 227.085 84.6655 224.471 84.8729C220.596 85.1614 216.699 84.9105 212.892 84.1273C208.229 83.1478 203.671 81.7272 199.277 79.8848C194.58 77.9686 190.151 76.0002 186.207 74.069C182.703 72.374 179.331 70.42 176.118 68.2235C173.959 66.7358 171.919 65.0804 170.019 63.2726C169.333 62.6388 168.841 62.1095 168.528 61.7814L168.133 61.3862C168.043 61.3042 167.999 61.2595 167.991 61.2669C167.984 61.2744 167.991 61.3191 168.103 61.416L168.468 61.841C168.789 62.2138 169.266 62.7581 169.96 63.4143C171.828 65.2748 173.851 66.9734 176.007 68.4919C179.208 70.741 182.581 72.7354 186.095 74.4568C190.046 76.4177 194.468 78.401 199.173 80.3247C203.594 82.1723 208.183 83.588 212.877 84.5523C216.721 85.3197 220.655 85.5356 224.561 85.1935C227.171 84.9549 229.741 84.3888 232.211 83.5085C233.083 83.1729 233.747 82.8971 234.187 82.6734L234.686 82.4273C234.798 82.3304 234.858 82.3006 234.85 82.2931Z" fill="#455A64"/>
<path d="M192.604 152.507L191.254 149.868C191.351 149.816 200.716 145.014 204.317 141.987C212.802 134.859 220.601 123.473 220.683 123.346L223.144 125.024C222.816 125.509 215.039 136.864 206.234 144.261C202.356 147.497 192.999 152.306 192.604 152.507Z" fill="#455A64"/>
<path d="M199.575 144.268C199.575 144.268 186.781 149.98 186.781 151.247C186.781 152.515 188.809 155.05 190.33 154.923C191.851 154.796 196.25 152.321 197.04 151.307C197.831 150.293 199.232 147.683 200.768 146.416L199.575 144.268Z" fill="#263238"/>
<path d="M223.04 105.877L220.057 105.735C220.165 97.1348 218.684 88.5885 215.688 80.5261C209.216 63.8543 196.772 54.907 178.713 53.9228C177.07 53.8508 175.425 53.9633 173.807 54.2583L175.112 53.0206C175.744 52.4238 176.479 51.9463 177.282 51.6114C178.381 51.1517 179.576 50.9674 180.764 51.0746C203.564 53.0504 213.869 67.5451 218.499 79.5345C221.653 87.9523 223.194 96.8889 223.04 105.877Z" fill="#455A64"/>
<path d="M221.548 132.995C226.766 132.995 230.995 126.913 230.995 119.41C230.995 111.907 226.766 105.825 221.548 105.825C216.331 105.825 212.102 111.907 212.102 119.41C212.102 126.913 216.331 132.995 221.548 132.995Z" fill="#455A64"/>
<path d="M230.995 119.41C230.986 119.348 230.986 119.285 230.995 119.223C230.995 119.074 230.995 118.895 230.951 118.671C230.917 117.967 230.845 117.265 230.734 116.569C230.349 114 229.349 111.562 227.819 109.463C227.304 108.785 226.708 108.171 226.044 107.636C225.322 107.067 224.507 106.626 223.636 106.332C222.703 106.029 221.716 105.935 220.743 106.056C219.714 106.21 218.728 106.579 217.85 107.137C215.989 108.432 214.552 110.247 213.719 112.356C212.788 114.602 212.309 117.009 212.309 119.439C212.309 121.87 212.788 124.277 213.719 126.523C214.551 128.632 215.988 130.448 217.85 131.742C218.728 132.3 219.714 132.669 220.743 132.823C221.716 132.94 222.703 132.846 223.636 132.547C224.507 132.253 225.322 131.811 226.044 131.242C226.706 130.706 227.302 130.093 227.819 129.416C229.349 127.317 230.349 124.879 230.734 122.31C230.845 121.614 230.917 120.912 230.951 120.207C230.951 119.984 230.951 119.805 230.995 119.656C230.985 119.594 230.985 119.531 230.995 119.469C231.007 119.531 231.007 119.594 230.995 119.656V120.207C230.987 120.918 230.938 121.628 230.846 122.332C230.513 124.947 229.534 127.438 227.998 129.58C227.476 130.282 226.87 130.918 226.194 131.474C225.448 132.076 224.603 132.543 223.696 132.853C222.718 133.174 221.683 133.278 220.661 133.159C219.582 133.004 218.548 132.623 217.626 132.04C215.697 130.728 214.204 128.869 213.339 126.702C212.38 124.411 211.885 121.953 211.885 119.469C211.885 116.986 212.38 114.527 213.339 112.237C214.204 110.07 215.697 108.211 217.626 106.898C218.548 106.316 219.582 105.935 220.661 105.78C221.683 105.66 222.718 105.765 223.696 106.086C224.603 106.396 225.448 106.863 226.194 107.465C226.872 108.019 227.478 108.655 227.998 109.359C229.536 111.5 230.515 113.991 230.846 116.606C230.937 117.308 230.987 118.016 230.995 118.724V119.283C231 119.325 231 119.368 230.995 119.41Z" fill="#263238"/>
<path d="M223.002 127.298C226.326 127.298 229.019 123.426 229.019 118.649C229.019 113.872 226.326 110 223.002 110C219.679 110 216.985 113.872 216.985 118.649C216.985 123.426 219.679 127.298 223.002 127.298Z" fill="#455A64"/>
<path d="M229.019 118.649C228.975 118.649 229.019 117.993 228.803 116.837C228.554 115.217 227.914 113.682 226.939 112.364C226.276 111.46 225.357 110.776 224.3 110.403C223.713 110.214 223.092 110.155 222.48 110.231C221.835 110.327 221.218 110.558 220.669 110.91C219.498 111.725 218.594 112.865 218.066 114.19C217.477 115.608 217.175 117.129 217.179 118.664C217.172 120.2 217.473 121.721 218.066 123.138C218.594 124.463 219.498 125.603 220.669 126.418C221.218 126.77 221.835 127.001 222.48 127.097C223.092 127.173 223.713 127.114 224.3 126.925C225.357 126.552 226.276 125.869 226.939 124.964C227.914 123.646 228.554 122.111 228.803 120.491C228.99 119.335 228.975 118.679 229.019 118.686C229.029 118.843 229.029 119 229.019 119.156C229.018 119.61 228.988 120.063 228.93 120.513C228.732 122.186 228.114 123.781 227.133 125.151C226.45 126.117 225.487 126.851 224.374 127.253C223.747 127.467 223.079 127.538 222.421 127.462C221.722 127.354 221.054 127.1 220.46 126.717C219.22 125.876 218.26 124.684 217.701 123.294C217.086 121.827 216.769 120.252 216.769 118.66C216.769 117.069 217.086 115.494 217.701 114.026C218.26 112.637 219.22 111.445 220.46 110.604C221.052 110.222 221.717 109.968 222.413 109.858C223.074 109.783 223.744 109.854 224.374 110.067C225.487 110.47 226.45 111.204 227.133 112.17C228.114 113.539 228.732 115.135 228.93 116.807C228.988 117.257 229.018 117.711 229.019 118.164C229.029 118.326 229.029 118.488 229.019 118.649Z" fill="#263238"/>
<path d="M223.42 124.867C225.808 124.867 227.744 122.083 227.744 118.649C227.744 115.215 225.808 112.431 223.42 112.431C221.032 112.431 219.095 115.215 219.095 118.649C219.095 122.083 221.032 124.867 223.42 124.867Z" fill="#455A64"/>
<path d="M227.744 118.649C227.707 118.649 227.707 118.179 227.573 117.352C227.381 116.188 226.916 115.087 226.216 114.138C225.744 113.495 225.09 113.009 224.337 112.744C223.908 112.607 223.454 112.568 223.009 112.632C222.564 112.695 222.138 112.858 221.765 113.109C220.147 114.175 219.289 116.412 219.282 118.642C219.274 120.871 220.147 123.115 221.765 124.182C222.138 124.433 222.564 124.596 223.009 124.659C223.454 124.722 223.908 124.684 224.337 124.547C225.09 124.282 225.744 123.796 226.216 123.153C226.916 122.204 227.381 121.102 227.573 119.939C227.707 119.111 227.707 118.642 227.744 118.649C227.762 118.76 227.762 118.873 227.744 118.985C227.748 119.311 227.731 119.637 227.692 119.961C227.558 121.173 227.117 122.331 226.41 123.324C225.907 124.012 225.208 124.531 224.404 124.815C223.946 124.969 223.46 125.023 222.98 124.972C222.471 124.902 221.983 124.724 221.548 124.45C220.646 123.839 219.947 122.972 219.543 121.96C219.094 120.898 218.863 119.757 218.863 118.604C218.863 117.452 219.094 116.311 219.543 115.249C219.947 114.237 220.646 113.37 221.548 112.759C221.983 112.485 222.471 112.307 222.98 112.237C223.46 112.186 223.946 112.24 224.404 112.393C225.208 112.677 225.907 113.197 226.41 113.885C227.117 114.878 227.558 116.036 227.692 117.247C227.731 117.571 227.748 117.898 227.744 118.224C227.771 118.364 227.771 118.509 227.744 118.649Z" fill="#263238"/>
</svg>
